<?xml version="1.0" encoding="iso-8859-1"?>
<!-- Generator: Adobe Illustrator 19.0.0, SVG Export Plug-In . SVG Version: 6.00 Build 0)  -->
<svg version="1.1" id="Layer_1" xmlns="http://www.w3.org/2000/svg" xmlns:xlink="http://www.w3.org/1999/xlink" x="0px" y="0px"
	 viewBox="0 0 397.365 397.365" style="enable-background:new 0 0 397.365 397.365;" xml:space="preserve">
<g>
	<path style="fill:#665A52;" d="M248.038,220.335c0.19,0.05,0.39,0.09,0.58,0.14c10.46,2.53,20.19,6.93,28.83,12.81
		c23.39,15.92,38.75,42.77,38.75,73.19v84.89h-47.04h-140.96h-47.03v-84.89c0-30.42,15.35-57.27,38.74-73.19
		c8.64-5.88,18.37-10.28,28.83-12.81c0.19-0.05,0.39-0.09,0.58-0.14"/>
	<g>
		<g>
			<circle style="fill:#FFD3AE;" cx="118.11" cy="124.365" r="27.89"/>
			<circle style="fill:#FFD3AE;" cx="279.245" cy="124.365" r="27.89"/>
		</g>
		<g>
			<path style="fill:#333333;" d="M118.11,158.255c-18.687,0-33.89-15.203-33.89-33.89s15.203-33.89,33.89-33.89
				S152,105.678,152,124.365S136.797,158.255,118.11,158.255z M118.11,102.475c-12.07,0-21.89,9.82-21.89,21.89
				s9.82,21.89,21.89,21.89s21.89-9.82,21.89-21.89C140,112.295,130.181,102.475,118.11,102.475z"/>
			<path style="fill:#333333;" d="M279.245,158.255c-18.688,0-33.891-15.203-33.891-33.89s15.203-33.89,33.891-33.89
				c18.687,0,33.89,15.203,33.89,33.89S297.932,158.255,279.245,158.255z M279.245,102.475c-12.07,0-21.891,9.82-21.891,21.89
				s9.82,21.89,21.891,21.89s21.89-9.82,21.89-21.89C301.135,112.295,291.316,102.475,279.245,102.475z"/>
		</g>
	</g>
	<path style="fill:#FFD3AE;" d="M248.038,220.335c-14.1,9.49-31.08,15.03-49.36,15.03s-35.26-5.54-49.36-15.03
		c-0.19-0.13-0.39-0.26-0.58-0.4c-23.28-15.94-38.56-42.72-38.56-73.07v-22.5v-51.5c0-48.877,177-48.877,177,0v51.5v22.5
		c0,30.35-15.28,57.13-38.56,73.07C248.428,220.075,248.228,220.205,248.038,220.335z"/>
	<path style="fill:#665A52;" d="M128.198,267.365v124h-47.03v-84.89c0-30.42,15.35-57.27,38.74-73.19
		C125.208,243.485,128.198,255.075,128.198,267.365z"/>
	<path style="fill:#665A52;" d="M316.198,306.475v84.89h-47.04v-124c0-12.29,2.99-23.88,8.29-34.08
		C300.838,249.205,316.198,276.055,316.198,306.475z"/>
	<path style="fill:#333333;" d="M198.678,241.37c-18.88,0-37.107-5.551-52.71-16.052l-0.167-0.113
		c-0.175-0.118-0.351-0.238-0.524-0.363c-25.737-17.656-41.099-46.798-41.099-77.972v-74c0-0.249,0-0.497,0.005-0.746
		c-0.021-0.732,0.088-1.463,0.327-2.163l11.356,3.878c0.367-1.076,0.415-2.221,0.138-3.314c0.14,0.551,0.2,1.119,0.18,1.688
		c-0.008,0.219-0.006,0.439-0.006,0.658v74c0,27.241,13.439,52.706,35.95,68.119c0.057,0.039,0.113,0.079,0.168,0.12
		c0.068,0.05,0.14,0.096,0.21,0.144l0.199,0.135c13.579,9.139,29.489,13.983,45.973,13.983c16.485,0,32.395-4.844,46.009-14.008
		l0.157-0.106c0.069-0.047,0.142-0.093,0.21-0.143c0.054-0.04,0.118-0.086,0.174-0.124c22.511-15.413,35.95-40.878,35.95-68.119v-74
		c0-0.216,0.001-0.432-0.007-0.648c-0.021-0.599,0.046-1.198,0.201-1.777c-0.304,1.131-0.252,2.365,0.146,3.476l11.299-4.042
		c0.261,0.73,0.38,1.493,0.356,2.257c0.004,0.245,0.005,0.489,0.005,0.734v74c0,31.172-15.363,60.314-41.098,77.97
		c-0.177,0.127-0.357,0.251-0.536,0.371l-0.126,0.085C235.786,235.819,217.558,241.37,198.678,241.37z"/>
	<g>
		<path style="fill:#333333;" d="M210.678,193.699h-24c-3.313,0-6-2.686-6-6s2.687-6,6-6h24c3.313,0,6,2.686,6,6
			S213.992,193.699,210.678,193.699z"/>
	</g>
	<g>
		<g>
			<path style="fill:#333333;" d="M202.872,100h-51.056c-3.313,0-6-2.686-6-6s2.687-6,6-6h51.056c3.313,0,6,2.686,6,6
				S206.186,100,202.872,100z"/>
		</g>
		<g>
			<path style="fill:#333333;" d="M245.539,100h-20c-3.313,0-6-2.686-6-6s2.687-6,6-6h20c3.313,0,6,2.686,6,6
				S248.853,100,245.539,100z"/>
		</g>
	</g>
	<g>
		<path style="fill:#333333;" d="M204.068,213h-10.78c-3.313,0-6-2.686-6-6s2.687-6,6-6h10.78c3.313,0,6,2.686,6,6
			S207.381,213,204.068,213z"/>
	</g>
	<path style="fill:#333333;" d="M275.158,391.365h-12v-124c0-12.816,3.101-25.558,8.966-36.846l10.648,5.533
		c-5.053,9.724-7.614,20.259-7.614,31.314V391.365z"/>
	<g>
		<path style="opacity:0.44;fill:#333333;enable-background:new    ;" d="M124.848,245.285c-15.21,15.89-24.56,37.45-24.56,61.19
			V390h-19.12v-83.525c0-30.42,15.35-57.27,38.74-73.19C121.888,237.105,123.548,241.115,124.848,245.285z"/>
	</g>
	<path style="fill:#333333;" d="M316.198,397.365H81.168c-3.314,0-6-2.686-6-6v-84.89c0-31.306,15.463-60.521,41.364-78.15
		c9.417-6.408,19.762-11.008,30.752-13.671c0.129-0.033,0.261-0.064,0.393-0.094l0.12-0.028l3.05,11.606
		c-0.155,0.041-0.314,0.079-0.474,0.115l-0.12,0.028c-0.017,0.004-0.087,0.022-0.104,0.026c-9.597,2.321-18.635,6.338-26.865,11.938
		c-22.614,15.393-36.115,40.899-36.115,68.23v78.89h223.03v-78.89c0-27.326-13.505-52.833-36.126-68.23
		c-8.229-5.6-17.268-9.617-26.864-11.938c-0.039-0.009-0.077-0.019-0.115-0.029l-0.112-0.026c-0.157-0.036-0.314-0.073-0.468-0.114
		l3.044-11.608l0.12,0.028c0.134,0.031,0.267,0.062,0.397,0.095c10.989,2.664,21.335,7.263,30.75,13.671
		c25.907,17.634,41.374,46.849,41.374,78.15v84.89C322.198,394.679,319.511,397.365,316.198,397.365z"/>
	<path style="fill:#333333;" d="M134.198,391.365h-12v-124c0-11.055-2.562-21.591-7.614-31.313l10.648-5.533
		c5.865,11.288,8.966,24.029,8.966,36.847V391.365z"/>
	<g>
		<path style="fill:#333333;" d="M330.183,397.365H67.413c-3.313,0-6-2.686-6-6s2.687-6,6-6h262.77c3.313,0,6,2.686,6,6
			S333.496,397.365,330.183,397.365z"/>
		<path style="fill:#333333;" d="M362.183,397.365h-11c-3.313,0-6-2.686-6-6s2.687-6,6-6h11c3.313,0,6,2.686,6,6
			S365.496,397.365,362.183,397.365z"/>
		<path style="fill:#333333;" d="M46.182,397.365h-11c-3.313,0-6-2.686-6-6s2.687-6,6-6h11c3.313,0,6,2.686,6,6
			S49.496,397.365,46.182,397.365z"/>
	</g>
	<path style="fill:#333333;" d="M340.178,78h-283c-3.313,0-6-2.686-6-6s2.687-6,6-6h283c3.313,0,6,2.686,6,6S343.492,78,340.178,78z
		"/>
	<path style="opacity:0.44;fill:#333333;enable-background:new    ;" d="M142.407,124.334c5.078-0.257,9.543-2.185,13.072-5.149
		l131.699-21.559V72l-136.11-22l-5.033,14.897c-5.832-19.532-35.857-79.531-35.857,59.469v22.5c0,30.35,15.28,57.13,38.56,73.07
		c0.19,0.14,0.39,0.27,0.58,0.4c14.1,9.49,31.08,15.03,49.36,15.03c5.29,0,10.47-0.46,15.5-1.35c-12.36-2.19-23.84-6.94-33.86-13.68
		c-0.19-0.13-0.39-0.26-0.58-0.4c-20.284-13.889-34.49-36.008-37.812-61.547l90.142-4.055l0.667-28L162.401,119l-21.143,31.451
		c-0.047-1.19-0.08-2.384-0.08-3.585v-22.5C141.59,124.365,142,124.355,142.407,124.334z"/>
	<polygon style="fill:#665A52;" points="276.137,6 121.218,6 110.178,72 287.178,72 	"/>
	<g>
		<path style="fill:#333333;" d="M191.734,176c-3.313,0-6-2.686-6-6v-40.301h-34.39c-3.313,0-6-2.686-6-6s2.687-6,6-6h40.39
			c3.313,0,6,2.686,6,6V170C197.734,173.314,195.048,176,191.734,176z"/>
		<path style="fill:#333333;" d="M246.011,129.699h-24c-3.313,0-6-2.686-6-6s2.687-6,6-6h24c3.313,0,6,2.686,6,6
			S249.325,129.699,246.011,129.699z"/>
	</g>
	<g>
		<g>
			<path style="fill:#333333;" d="M168.205,151H142.15c-8.755,0-15.852-7.097-15.852-15.852V119h64.667l-7.867,21.578
				C180.816,146.836,174.866,151,168.205,151z"/>
			<path style="fill:#333333;" d="M229.151,151h26.055c8.755,0,15.852-7.097,15.852-15.852V119h-64.667l7.867,21.578
				C216.539,146.836,222.49,151,229.151,151z"/>
		</g>
		<g>
			<path style="fill:#333333;" d="M168.205,157h-26.056c-12.049,0-21.852-9.802-21.852-21.852V119c0-3.314,2.687-6,6-6h64.667
				c1.958,0,3.793,0.956,4.916,2.56s1.392,3.656,0.721,5.495l-7.867,21.578C185.602,151.226,177.352,157,168.205,157z M132.298,125
				v10.148c0,5.432,4.419,9.852,9.852,9.852h26.056c4.124,0,7.843-2.603,9.255-6.477l4.93-13.523H132.298z"/>
			<path style="fill:#333333;" d="M255.206,157H229.15c-9.146,0-17.397-5.774-20.529-14.367l-7.867-21.578
				c-0.671-1.84-0.402-3.891,0.721-5.495c1.123-1.604,2.958-2.56,4.916-2.56h64.667c3.313,0,6,2.686,6,6v16.148
				C277.058,147.198,267.255,157,255.206,157z M214.965,125l4.93,13.523c1.413,3.874,5.132,6.477,9.256,6.477h26.056
				c5.433,0,9.852-4.419,9.852-9.852V125H214.965z"/>
		</g>
	</g>
	<path style="fill:#333333;" d="M206.391,125h-15.426c-3.313,0-6-2.686-6-6s2.687-6,6-6h15.426c3.313,0,6,2.686,6,6
		S209.704,125,206.391,125z"/>
	<path style="fill:#333333;" d="M271.063,125.001c-2.208,0-4.332-1.223-5.38-3.334c-1.473-2.968-0.261-6.569,2.708-8.042l16.12-8
		c2.969-1.474,6.569-0.26,8.042,2.707c1.473,2.968,0.261,6.569-2.708,8.042l-16.12,8C272.869,124.8,271.958,125.001,271.063,125.001
		z"/>
	<path style="fill:#333333;" d="M126.293,125.001c-0.896,0-1.806-0.201-2.663-0.627l-16.12-8c-2.968-1.473-4.18-5.073-2.707-8.042
		c1.474-2.969,5.073-4.18,8.042-2.707l16.12,8c2.968,1.473,4.18,5.073,2.707,8.042C130.624,123.778,128.5,125.001,126.293,125.001z"
		/>
	<path style="fill:#FFFFFF;" d="M262.068,145c-3.313,0-6-2.686-6-6v-10.571c0-3.314,2.687-6,6-6s6,2.686,6,6V139
		C268.068,142.314,265.381,145,262.068,145z"/>
	<path style="fill:#FFFFFF;" d="M175.068,145c-3.313,0-6-2.686-6-6v-10.571c0-3.314,2.687-6,6-6s6,2.686,6,6V139
		C181.068,142.314,178.381,145,175.068,145z"/>
	<path style="fill:#333333;" d="M228.428,236.24c-3.313,0-6-2.686-6-6v-47.157c0-3.906-3.178-7.083-7.084-7.083h-33.333
		c-3.906,0-7.083,3.177-7.083,7.083v47.157c0,3.314-2.687,6-6,6s-6-2.686-6-6v-47.157c0-10.522,8.561-19.083,19.083-19.083h33.333
		c10.522,0,19.084,8.561,19.084,19.083v47.157C234.428,233.554,231.742,236.24,228.428,236.24z"/>
	<path style="fill:#333333;" d="M168.069,278.5c-1.434,0-2.851-0.514-3.969-1.499c-1.119-0.987-27.391-24.524-25.635-55.707
		l11.981,0.674c-0.89,15.799,7.669,29.744,14.276,38.037c7.795-18.199,30.153-29.448,31.297-30.014c1.676-0.828,3.642-0.828,5.317,0
		c1.144,0.565,23.502,11.815,31.297,30.014c6.605-8.29,15.166-22.236,14.276-38.037l11.98-0.675
		c1.756,31.183-24.516,54.72-25.635,55.707c-1.771,1.56-4.289,1.938-6.437,0.968c-2.149-0.97-3.531-3.11-3.531-5.469
		c0-13.398-15.878-25.298-24.61-30.318c-8.727,5.017-24.609,16.918-24.609,30.318c0,2.358-1.381,4.498-3.531,5.469
		C169.745,278.326,168.904,278.5,168.069,278.5z"/>
	<rect x="192.682" y="235.37" style="fill:#333333;" width="12" height="155.996"/>
	<g>
		<g>
			<path style="fill:#333333;" d="M180.078,305.154c-0.39,0-0.79-0.04-1.17-0.11c-0.38-0.08-0.76-0.2-1.12-0.35
				c-0.37-0.15-0.71-0.33-1.04-0.55c-0.33-0.22-0.64-0.47-0.91-0.74c-0.28-0.28-0.53-0.59-0.75-0.92c-0.22-0.32-0.4-0.67-0.55-1.03
				c-0.15-0.36-0.27-0.74-0.34-1.12c-0.08-0.39-0.12-0.79-0.12-1.18c0-0.39,0.04-0.78,0.12-1.17c0.07-0.38,0.19-0.76,0.34-1.12
				s0.33-0.71,0.55-1.04c0.22-0.33,0.47-0.63,0.75-0.91c0.27-0.28,0.58-0.53,0.91-0.75c0.33-0.21,0.67-0.4,1.04-0.55
				c0.36-0.15,0.74-0.26,1.12-0.34c1.95-0.39,4.02,0.25,5.41,1.64c0.28,0.28,0.53,0.58,0.75,0.91c0.22,0.33,0.4,0.68,0.55,1.04
				c0.15,0.36,0.27,0.74,0.34,1.12c0.08,0.39,0.12,0.78,0.12,1.17s-0.04,0.79-0.12,1.18c-0.07,0.38-0.19,0.76-0.34,1.12
				s-0.33,0.71-0.55,1.03c-0.22,0.33-0.47,0.64-0.75,0.92C183.208,304.515,181.658,305.154,180.078,305.154z"/>
		</g>
		<g>
			<path style="fill:#333333;" d="M180.078,370.704c-0.39,0-0.79-0.04-1.17-0.11c-0.38-0.08-0.76-0.2-1.12-0.35
				c-0.37-0.15-0.71-0.33-1.04-0.55c-0.33-0.22-0.64-0.47-0.91-0.74c-0.28-0.28-0.53-0.59-0.75-0.92c-0.22-0.32-0.4-0.67-0.55-1.03
				c-0.15-0.36-0.27-0.74-0.34-1.12c-0.08-0.39-0.12-0.79-0.12-1.18c0-0.39,0.04-0.78,0.12-1.17c0.07-0.38,0.19-0.76,0.34-1.12
				s0.33-0.71,0.55-1.04c0.22-0.33,0.47-0.63,0.75-0.91c0.27-0.28,0.58-0.53,0.91-0.75c0.33-0.21,0.67-0.4,1.04-0.55
				c0.36-0.15,0.74-0.26,1.12-0.34c1.95-0.39,4.02,0.25,5.41,1.64c0.28,0.28,0.53,0.58,0.75,0.91c0.22,0.33,0.4,0.68,0.55,1.04
				c0.15,0.36,0.27,0.74,0.34,1.12c0.08,0.39,0.12,0.78,0.12,1.17s-0.04,0.79-0.12,1.18c-0.07,0.38-0.19,0.76-0.34,1.12
				s-0.33,0.71-0.55,1.03c-0.22,0.33-0.47,0.64-0.75,0.92C183.208,370.064,181.658,370.704,180.078,370.704z"/>
		</g>
		<g>
			<path style="fill:#333333;" d="M180.078,337.929c-0.39,0-0.79-0.04-1.17-0.11c-0.38-0.08-0.76-0.2-1.12-0.35
				c-0.37-0.15-0.71-0.33-1.04-0.55c-0.33-0.22-0.64-0.47-0.91-0.74c-0.28-0.28-0.53-0.59-0.75-0.92c-0.22-0.32-0.4-0.67-0.55-1.03
				c-0.15-0.36-0.27-0.74-0.34-1.12c-0.08-0.39-0.12-0.79-0.12-1.18c0-0.39,0.04-0.78,0.12-1.17c0.07-0.38,0.19-0.76,0.34-1.12
				s0.33-0.71,0.55-1.04c0.22-0.33,0.47-0.63,0.75-0.91c0.27-0.28,0.58-0.53,0.91-0.75c0.33-0.21,0.67-0.4,1.04-0.55
				c0.36-0.15,0.74-0.26,1.12-0.34c1.95-0.39,4.02,0.25,5.41,1.64c0.28,0.28,0.53,0.58,0.75,0.91c0.22,0.33,0.4,0.68,0.55,1.04
				c0.15,0.36,0.27,0.74,0.34,1.12c0.08,0.39,0.12,0.78,0.12,1.17s-0.04,0.79-0.12,1.18c-0.07,0.38-0.19,0.76-0.34,1.12
				s-0.33,0.71-0.55,1.03c-0.22,0.33-0.47,0.64-0.75,0.92C183.208,337.289,181.658,337.929,180.078,337.929z"/>
		</g>
	</g>
	<path style="fill:#333333;" d="M252.401,313.333h-28c-3.313,0-6-2.686-6-6s2.687-6,6-6h28c3.313,0,6,2.686,6,6
		S255.714,313.333,252.401,313.333z"/>
	<polygon style="opacity:0.44;fill:#333333;enable-background:new    ;" points="283.228,48.39 287.178,72 110.178,72 114.128,48.4 
		283.178,48.4 	"/>
	<path style="fill:#333333;" d="M283.178,54.4h-169.05c-3.313,0-6-2.686-6-6s2.687-6,6-6h169.05c3.313,0,6,2.686,6,6
		S286.492,54.4,283.178,54.4z"/>
	<path style="fill:#FFFFFF;" d="M261.723,41.447c-2.879,0-5.42-2.078-5.911-5.011l-3.038-18.161
		c-0.547-3.268,1.66-6.361,4.928-6.908c3.271-0.55,6.36,1.66,6.908,4.928l3.038,18.161c0.547,3.268-1.66,6.361-4.928,6.908
		C262.385,41.419,262.051,41.447,261.723,41.447z"/>
	<polygon style="opacity:0.44;fill:#333333;enable-background:new    ;" points="155.218,6 144.178,72 110.178,72 121.218,6 	"/>
	<path style="fill:#333333;" d="M287.178,78h-177c-1.765,0-3.439-0.777-4.58-2.123c-1.14-1.347-1.629-3.127-1.338-4.867l11.04-66
		c0.484-2.892,2.986-5.01,5.918-5.01h154.92c2.932,0,5.435,2.119,5.918,5.01l11.04,66c0.291,1.74-0.198,3.52-1.339,4.867
		C290.618,77.223,288.943,78,287.178,78z M117.266,66h162.826l-2.781-16.62l0,0L271.058,12h-144.76L117.266,66z"/>
</g>
<g>
</g>
<g>
</g>
<g>
</g>
<g>
</g>
<g>
</g>
<g>
</g>
<g>
</g>
<g>
</g>
<g>
</g>
<g>
</g>
<g>
</g>
<g>
</g>
<g>
</g>
<g>
</g>
<g>
</g>
</svg>
