<?xml version="1.0" encoding="iso-8859-1"?>
<!-- Generator: Adobe Illustrator 19.0.0, SVG Export Plug-In . SVG Version: 6.00 Build 0)  -->
<svg version="1.1" id="Layer_1" xmlns="http://www.w3.org/2000/svg" xmlns:xlink="http://www.w3.org/1999/xlink" x="0px" y="0px"
	 viewBox="0 0 442.368 442.368" style="enable-background:new 0 0 442.368 442.368;" xml:space="preserve">
<g>
	<g>
		<g>
			<circle style="fill:#E8B974;" cx="140.611" cy="169.368" r="27.89"/>
			<circle style="fill:#E8B974;" cx="301.746" cy="169.368" r="27.89"/>
		</g>
		<g>
			<path style="fill:#333333;" d="M140.611,203.258c-18.687,0-33.89-15.203-33.89-33.89s15.203-33.89,33.89-33.89
				s33.89,15.203,33.89,33.89S159.298,203.258,140.611,203.258z M140.611,147.478c-12.07,0-21.89,9.82-21.89,21.89
				s9.82,21.89,21.89,21.89s21.89-9.82,21.89-21.89S152.682,147.478,140.611,147.478z"/>
			<path style="fill:#333333;" d="M301.747,203.258c-18.688,0-33.891-15.203-33.891-33.89s15.203-33.89,33.891-33.89
				c18.687,0,33.89,15.203,33.89,33.89S320.433,203.258,301.747,203.258z M301.747,147.478c-12.07,0-21.891,9.82-21.891,21.89
				s9.82,21.89,21.891,21.89s21.89-9.82,21.89-21.89S313.817,147.478,301.747,147.478z"/>
		</g>
	</g>
	<path style="fill:#CCCCCC;" d="M270.539,265.338c0.19,0.05,0.39,0.09,0.58,0.14c10.46,2.53,20.19,6.93,28.83,12.81
		c23.39,15.92,38.75,42.77,38.75,73.19v84.89h-47.04h-140.96h-47.03v-84.89c0-30.42,15.35-57.27,38.74-73.19
		c8.64-5.88,18.37-10.28,28.83-12.81c0.19-0.05,0.39-0.09,0.58-0.14H270.539z"/>
	<path style="fill:#CCCCCC;" d="M150.699,312.368v124h-47.03v-84.89c0-30.42,15.35-57.27,38.74-73.19
		C147.709,288.488,150.699,300.078,150.699,312.368z"/>
	<path style="fill:#CCCCCC;" d="M338.699,351.478v84.89h-47.04v-124c0-12.29,2.99-23.88,8.29-34.08
		C323.339,294.208,338.699,321.058,338.699,351.478z"/>
	<path style="fill:#E8B974;" d="M270.539,265.338c-14.1,9.49-31.08,15.03-49.36,15.03s-35.26-5.54-49.36-15.03
		c-0.19-0.13-0.39-0.26-0.58-0.4c-23.28-15.94-38.56-42.72-38.56-73.07v-22.5v-51.5c0-48.877,39.623-88.5,88.5-88.5l0,0
		c48.877,0,88.5,39.623,88.5,88.5v51.5v22.5c0,30.35-15.28,57.13-38.56,73.07C270.929,265.078,270.729,265.208,270.539,265.338z"/>
	<g>
		<path style="fill:#333333;" d="M189.569,189.804c-1.58,0-3.13-0.64-4.24-1.75c-1.12-1.12-1.76-2.67-1.76-4.25s0.64-3.12,1.76-4.24
			c1.39-1.39,3.46-2.03,5.41-1.64c0.39,0.08,0.76,0.19,1.13,0.34c0.36,0.15,0.71,0.34,1.03,0.55c0.33,0.22,0.64,0.47,0.91,0.75
			c0.28,0.28,0.53,0.58,0.75,0.91s0.4,0.68,0.55,1.04c0.15,0.36,0.27,0.74,0.34,1.12c0.08,0.39,0.12,0.78,0.12,1.17
			s-0.04,0.79-0.12,1.18c-0.07,0.38-0.19,0.76-0.34,1.12s-0.33,0.71-0.55,1.03c-0.22,0.33-0.47,0.64-0.75,0.92
			C192.699,189.164,191.149,189.804,189.569,189.804z"/>
		<path style="fill:#333333;" d="M257.569,189.804c-0.39,0-0.79-0.04-1.17-0.11c-0.38-0.08-0.76-0.2-1.12-0.35
			c-0.37-0.15-0.71-0.33-1.04-0.55c-0.33-0.22-0.64-0.47-0.91-0.74c-0.28-0.28-0.53-0.59-0.75-0.92c-0.22-0.32-0.4-0.67-0.55-1.03
			c-0.15-0.36-0.27-0.74-0.34-1.12c-0.08-0.39-0.12-0.79-0.12-1.18s0.04-0.78,0.12-1.17c0.07-0.38,0.19-0.76,0.34-1.12
			s0.33-0.71,0.55-1.04c0.22-0.33,0.47-0.63,0.75-0.91c0.27-0.28,0.58-0.53,0.91-0.75c0.33-0.21,0.67-0.4,1.04-0.55
			c0.36-0.15,0.74-0.26,1.12-0.34c1.95-0.39,4.02,0.25,5.41,1.64c0.28,0.28,0.53,0.58,0.75,0.91s0.4,0.68,0.55,1.04
			s0.27,0.74,0.34,1.12c0.08,0.39,0.12,0.78,0.12,1.17s-0.04,0.79-0.12,1.18c-0.07,0.38-0.19,0.76-0.34,1.12s-0.33,0.71-0.55,1.03
			c-0.22,0.33-0.47,0.64-0.75,0.92C260.699,189.164,259.149,189.804,257.569,189.804z"/>
	</g>
	<g>
		<path style="fill:#333333;" d="M214.235,203.368c-3.313,0-6-2.687-6-6v-16.857c0-3.204-2.606-5.81-5.81-5.81h-28.58
			c-3.313,0-6-2.687-6-6s2.687-6,6-6h28.58c9.82,0,17.81,7.989,17.81,17.81v16.857C220.235,200.681,217.549,203.368,214.235,203.368
			z"/>
		<path style="fill:#333333;" d="M268.512,174.701h-24c-3.313,0-6-2.687-6-6s2.687-6,6-6h24c3.313,0,6,2.687,6,6
			S271.826,174.701,268.512,174.701z"/>
	</g>
	<g>
		<path style="fill:#333333;" d="M233.179,238.701h-24c-3.313,0-6-2.687-6-6s2.687-6,6-6h24c3.313,0,6,2.687,6,6
			S236.493,238.701,233.179,238.701z"/>
	</g>
	<path style="fill:#333333;" d="M297.659,436.368h-12v-124c0-12.816,3.101-25.558,8.966-36.846l10.648,5.533
		c-5.053,9.724-7.614,20.259-7.614,31.313V436.368z"/>
	<path style="fill:#FFFFFF;" d="M318.699,418.618c-3.313,0-6-2.687-6-6v-67.5c0-3.313,2.687-6,6-6s6,2.687,6,6v67.5
		C324.699,415.931,322.012,418.618,318.699,418.618z"/>
	<g>
		<path style="opacity:0.44;fill:#333333;enable-background:new    ;" d="M147.349,290.288c-15.21,15.89-24.56,37.45-24.56,61.19
			V436h-19.12v-84.522c0-30.42,15.35-57.27,38.74-73.19C144.389,282.108,146.049,286.118,147.349,290.288z"/>
	</g>
	<path style="fill:#333333;" d="M338.699,442.368h-235.03c-3.314,0-6-2.687-6-6v-84.89c0-31.306,15.463-60.521,41.364-78.15
		c9.416-6.408,19.761-11.007,30.75-13.671c0.131-0.034,0.265-0.065,0.399-0.096l0.122-0.028l3.037,11.609
		c-0.153,0.04-0.309,0.077-0.465,0.113l-0.122,0.028c-0.017,0.004-0.087,0.022-0.104,0.026c-9.597,2.321-18.636,6.338-26.865,11.938
		c-22.614,15.392-36.115,40.898-36.115,68.229v78.89H332.7v-78.89c0-27.327-13.505-52.833-36.126-68.23
		c-8.229-5.6-17.267-9.617-26.865-11.938c-0.038-0.009-0.076-0.019-0.114-0.029l-0.113-0.026c-0.154-0.035-0.309-0.072-0.46-0.111
		l3.031-11.611l0.121,0.028c0.136,0.031,0.271,0.063,0.403,0.097c10.99,2.664,21.335,7.263,30.749,13.67
		c25.907,17.634,41.374,46.849,41.374,78.15v84.89C344.699,439.681,342.012,442.368,338.699,442.368z"/>
	<path style="fill:#333333;" d="M156.699,436.368h-12v-124c0-11.055-2.562-21.59-7.614-31.313l10.648-5.533
		c5.865,11.288,8.966,24.029,8.966,36.847V436.368z"/>
	<g>
		<path style="fill:#333333;" d="M352.684,442.368H89.914c-3.313,0-6-2.687-6-6s2.687-6,6-6h262.77c3.313,0,6,2.687,6,6
			S355.998,442.368,352.684,442.368z"/>
		<path style="fill:#333333;" d="M384.684,442.368h-11c-3.313,0-6-2.687-6-6s2.687-6,6-6h11c3.313,0,6,2.687,6,6
			S387.998,442.368,384.684,442.368z"/>
		<path style="fill:#333333;" d="M68.684,442.368h-11c-3.313,0-6-2.687-6-6s2.687-6,6-6h11c3.313,0,6,2.687,6,6
			S71.997,442.368,68.684,442.368z"/>
	</g>
	<path style="opacity:0.44;fill:#333333;enable-background:new    ;" d="M202.819,265.338c10.02,6.74,21.5,11.49,33.86,13.68
		c-5.03,0.89-10.21,1.35-15.5,1.35c-18.28,0-35.26-5.54-49.36-15.03c-0.19-0.13-0.39-0.26-0.58-0.4
		c-23.28-15.94-38.56-42.72-38.56-73.07v-22.5c0-139,54.89-137.301,54.89-134.411l-10.384,15.807
		c-15.364,23.387-15.305,53.174-0.958,76.231c2.423,3.895,10.151,17.294,10.019,20.366c-0.483,11.29-9.201,21.36-21.338,21.975
		c-0.407,0.021-0.817,0.031-1.229,0.031v22.5c0,30.35,15.28,57.13,38.56,73.07C202.429,265.078,202.629,265.208,202.819,265.338z"/>
	<path style="opacity:0.44;fill:#333333;enable-background:new    ;" d="M292.684,114c0,11.67-2.03,22.87-5.73,33.27
		c-10.4,3.7-21.6,5.73-33.27,5.73c-22.56,0-43.36-7.54-60-20.26c-23.71-18.07-39-46.62-39-78.74c0-11.67,2.03-22.86,5.73-33.26
		c0.1-0.04,0.2-0.08,0.3-0.11c0.11-0.05,0.22-0.08,0.34-0.12c0.44-0.16,0.88-0.31,1.32-0.45c9.84-3.28,20.37-5.06,31.31-5.06
		C248.364,15,292.684,59.32,292.684,114z"/>
	<path style="fill:#CCCCCC;" d="M178.684,45c0,32.12,15.29,60.67,39,78.74c-16.64,12.72-37.44,20.26-60,20.26
		c-11.67,0-22.87-2.03-33.27-5.73c-3.7-10.4-5.73-21.6-5.73-33.27c0-43.01,27.42-79.6,65.73-93.26
		C180.714,22.14,178.684,33.33,178.684,45z"/>
	<path style="opacity:0.44;fill:#333333;enable-background:new    ;" d="M186.374,11.06c-0.44,0.14-0.88,0.29-1.32,0.45
		c-0.12,0.04-0.23,0.07-0.34,0.12c-0.1,0.03-0.2,0.07-0.3,0.11c-38.31,13.66-65.73,50.25-65.73,93.26c0,11.67,2.03,22.87,5.73,33.27
		c10.4,3.7,21.6,5.73,33.27,5.73c22.56,0,43.36-7.54,60-20.26"/>
	<path style="fill:#CCCCCC;" d="M316.684,105c0,11.67-2.03,22.87-5.73,33.27c-10.4,3.7-21.6,5.73-33.27,5.73
		c-22.56,0-43.36-7.54-60-20.26c-23.71-18.07-39-46.62-39-78.74c0-11.67,2.03-22.86,5.73-33.26c0.1-0.04,0.2-0.08,0.3-0.11
		c0.11-0.05,0.22-0.08,0.34-0.12c0.44-0.16,0.88-0.31,1.32-0.45c9.84-3.28,20.37-5.06,31.31-5.06
		C272.364,6,316.684,50.32,316.684,105z"/>
	<path style="fill:#333333;" d="M294.054,120c-20.228,0-39.379-6.468-55.384-18.703c-22.867-17.421-35.987-43.909-35.987-72.667
		c0-8.103,1.076-16.184,3.199-24.019l5.772,1.564l6.019-0.005v0.01c0,0.53-0.07,1.058-0.209,1.569
		c-1.845,6.812-2.781,13.837-2.781,20.881c0,24.98,11.396,47.989,31.266,63.127C259.853,102.385,276.484,108,294.054,108
		c7.079,0,14.102-0.935,20.872-2.779l3.154,11.578C310.282,118.923,302.199,120,294.054,120z"/>
	<polygon style="fill:#333333;" points="217.514,6.18 217.514,6.17 229.514,6.17 	"/>
	<path style="fill:#333333;" d="M141.134,120c-8.081,0-16.1-1.059-23.834-3.147c-0.025-0.007-0.05-0.013-0.074-0.021
		c-0.148-0.039-0.293-0.081-0.439-0.13l2.917-8.752l-1.02,3.06l1.541-5.797c0.093,0.023,0.184,0.047,0.274,0.073
		c6.692,1.801,13.635,2.713,20.635,2.713c17.544,0,34.152-5.598,48.035-16.19c0.047-0.038,0.096-0.075,0.145-0.113l-0.082,0.067
		l0.146,0.192l7.528,9.033c-0.083,0.069-0.171,0.139-0.26,0.208c-0.042,0.034-0.084,0.067-0.127,0.1
		C180.512,113.532,161.36,120,141.134,120z"/>
	<path style="fill:#333333;" d="M122.873,83.649l-0.737-11.978c15.693-0.966,30.596-6.526,43.096-16.079
		c3.323-2.525,6.452-5.326,9.315-8.337l8.696,8.269c-3.305,3.476-6.918,6.71-10.738,9.613
		C158.118,76.131,140.952,82.536,122.873,83.649z"/>
	<path style="fill:#333333;" d="M305.753,87.5c-15.61,0-30.404-4.993-42.78-14.441c-17.659-13.468-27.789-33.927-27.789-56.129
		c0-2.883,0.18-5.817,0.534-8.718l11.912,1.456c-0.296,2.42-0.446,4.864-0.446,7.262c0,18.428,8.408,35.409,23.068,46.589
		c10.269,7.839,22.544,11.981,35.501,11.981c2.398,0,4.842-0.15,7.263-0.446l1.455,11.912C311.569,87.32,308.636,87.5,305.753,87.5z
		"/>
	<path style="fill:#333333;" d="M217.684,0c-11.098,0-22.026,1.729-32.497,5.136c-0.21,0.068-3.071,1.057-3.102,1.07
		C140.561,21.162,112.684,60.819,112.684,105c0,12.076,2.045,23.946,6.078,35.281c0.604,1.7,1.942,3.037,3.642,3.642
		c11.334,4.033,23.204,6.077,35.281,6.077c21.727,0,42.374-6.498,60-18.832c17.626,12.334,38.273,18.832,60,18.832
		c12.077,0,23.947-2.044,35.281-6.077c1.699-0.604,3.036-1.942,3.642-3.642c4.032-11.335,6.077-23.205,6.077-35.281
		C322.684,47.103,275.581,0,217.684,0z M129.146,133.538c-2.962-9.212-4.462-18.799-4.462-28.538
		c0-35.091,19.86-66.948,50.478-82.708c-1.641,7.432-2.478,15.028-2.478,22.708c0,30.325,12.708,58.452,35.115,78.357
		C192.877,132.96,175.701,138,157.684,138C147.944,138,138.358,136.5,129.146,133.538z M306.222,133.538
		C297.01,136.5,287.424,138,277.684,138c-20.585,0-40.073-6.58-56.363-19.032C198.037,101.223,184.684,74.263,184.684,45
		c0-9.736,1.501-19.321,4.464-28.535C198.342,13.502,207.937,12,217.684,12c51.281,0,93,41.72,93,93
		C310.684,114.739,309.184,124.326,306.222,133.538z"/>
	<path style="fill:#FFFFFF;" d="M296.494,129.807c-0.459,0-0.926-0.053-1.393-0.164c-3.224-0.766-5.216-4.001-4.449-7.225
		c1.349-5.674,2.032-11.535,2.032-17.418c0-29.513-17.448-56.399-44.451-68.494c-3.023-1.355-4.377-4.904-3.022-7.928
		c1.354-3.023,4.901-4.378,7.929-3.023c31.313,14.025,51.545,45.21,51.545,79.445c0,6.817-0.793,13.61-2.358,20.193
		C301.67,127.951,299.209,129.807,296.494,129.807z"/>
	<path style="fill:#FFFFFF;" d="M292.684,205c-3.313,0-6-2.687-6-6v-39c0-3.313,2.687-6,6-6s6,2.687,6,6v39
		C298.684,202.313,295.998,205,292.684,205z"/>
	<path style="fill:#E8B974;" d="M270.734,265.38c0,0.01,0,0.01,0,0.01c-1.61,3.93-14.31,32.56-49.54,45.8h-0.01
		c-36.11-13.56-48.55-43.29-49.64-46.04c0.09,0.06,0.19,0.13,0.28,0.19c14.1,9.49,31.08,15.03,49.36,15.03s35.25-5.54,49.36-15.03
		c0.09-0.06,0.18-0.13,0.28-0.19C270.794,265.21,270.764,265.29,270.734,265.38z"/>
	<path style="opacity:0.44;fill:#333333;enable-background:new    ;" d="M270.734,265.38c0,0.01,0,0.01,0,0.01
		c-1.61,3.93-14.31,32.56-49.54,45.8h-0.01c-36.11-13.56-48.55-43.29-49.64-46.04c0.09,0.06,0.19,0.13,0.28,0.19
		c14.1,9.49,31.08,15.03,49.36,15.03s35.25-5.54,49.36-15.03c0.09-0.06,0.18-0.13,0.28-0.19
		C270.794,265.21,270.764,265.29,270.734,265.38z"/>
	<path style="fill:#333333;" d="M221.184,286.37c-18.88,0-37.107-5.551-52.71-16.053l-0.264-0.179
		c-0.033-0.022-0.066-0.044-0.098-0.067l-0.3-0.21c-25.737-17.622-41.127-46.788-41.127-77.991V140.8h12v51.07
		c0,27.241,13.439,52.706,35.95,68.119l0.525,0.362c13.631,9.175,29.541,14.019,46.025,14.019c16.475,0,32.386-4.844,46.011-14.009
		c0.093-0.066,0.189-0.132,0.289-0.197l0.195-0.137c22.565-15.451,36.005-40.916,36.005-68.157V138.7h12v53.17
		c0,31.203-15.391,60.369-41.171,78.021l-0.268,0.188c-0.063,0.043-0.125,0.085-0.188,0.125l-0.204,0.141
		C258.28,280.819,240.053,286.37,221.184,286.37z M273.93,270.283c-0.003,0.002-0.006,0.003-0.009,0.005
		C273.924,270.287,273.927,270.285,273.93,270.283z M273.935,270.28L273.935,270.28L273.935,270.28z M274.128,270.155l-0.035,0.024
		C274.105,270.171,274.117,270.164,274.128,270.155z"/>
	<path style="fill:#333333;" d="M239.904,438h-12V319.669c-3.003-0.832-5.954-1.789-8.815-2.861l4.21-11.237
		c3.832,1.436,7.852,2.641,11.947,3.581c2.726,0.625,4.657,3.051,4.657,5.848L239.904,438L239.904,438z"/>
	<path style="fill:#333333;" d="M219.074,316.807c-38.267-14.37-51.702-45.899-53.108-49.447c-0.024-0.061-0.047-0.122-0.069-0.184
		l0.048,0.117l11.038-4.708c0,0,0.063,0.142,0.168,0.427c1.353,3.379,12.968,30.103,46.141,42.56L219.074,316.807z"/>
	<rect x="202.464" y="436.37" style="fill:#333333;" width="12" height="1.63"/>
	<path style="fill:#333333;" d="M221.194,317.19l-0.005-6.014l-2.106-5.603c32.363-12.162,44.406-38.422,46.019-42.265
		c0.041-0.116,0.091-0.25,0.151-0.395c0.091-0.241,0.146-0.36,0.146-0.36l0.013,0.006c0.018-0.037,0.036-0.073,0.055-0.11
		l1.887,0.951l4.565,1.979h4.815c0,0.649-0.105,1.3-0.312,1.917c0.013-0.027,0.031-0.072,0.055-0.136
		c-0.023,0.063-0.048,0.129-0.074,0.195c-0.036,0.104-0.075,0.208-0.117,0.31c-2.364,5.77-16.03,35.255-52.981,49.142
		C222.629,317.06,221.915,317.19,221.194,317.19z M276.347,267.49c-0.053,0.124-0.108,0.247-0.166,0.36
		C276.233,267.749,276.292,267.628,276.347,267.49z M276.05,267.171l0.358,0.156c0,0,0.001-0.001,0.002-0.003
		c0.003-0.009,0.006-0.018,0.009-0.027L276.05,267.171z"/>
</g>
<g>
</g>
<g>
</g>
<g>
</g>
<g>
</g>
<g>
</g>
<g>
</g>
<g>
</g>
<g>
</g>
<g>
</g>
<g>
</g>
<g>
</g>
<g>
</g>
<g>
</g>
<g>
</g>
<g>
</g>
</svg>
