<?xml version="1.0" encoding="iso-8859-1"?>
<!-- Generator: Adobe Illustrator 19.0.0, SVG Export Plug-In . SVG Version: 6.00 Build 0)  -->
<svg version="1.1" id="Layer_1" xmlns="http://www.w3.org/2000/svg" xmlns:xlink="http://www.w3.org/1999/xlink" x="0px" y="0px"
	 viewBox="0 0 435 435" style="enable-background:new 0 0 435 435;" xml:space="preserve">
<g>
	<rect x="129" y="139" style="fill:#4D4D4D;" width="88.01" height="186"/>
	<rect x="129" y="139" style="opacity:0.44;fill:#333333;enable-background:new    ;" width="88.01" height="186"/>
	<path style="fill:#333333;" d="M200.01,331H129c-3.313,0-6-2.687-6-6V139c0-3.313,2.687-6,6-6h71.01c3.313,0,6,2.687,6,6v186
		C206.01,328.313,203.323,331,200.01,331z M135,319h59.01V145H135V319z"/>
	<path style="fill:#3A88D6;" d="M266.86,257.97c0.19,0.05,0.39,0.09,0.58,0.14c10.46,2.53,20.19,6.93,28.83,12.81
		c23.39,15.92,38.75,42.77,38.75,73.19V429h-47.04H147.02H99.99v-84.89c0-30.42,15.35-57.27,38.74-73.19
		c8.64-5.88,29.22-12.9,29.41-12.95l11.87-7.97"/>
	<path style="fill:#4CC18E;" d="M147.02,391v38H98.5v-18.57v-60.12c0-31.1,15.86-58.99,40.96-77.93c4.85,9.84,7.56,20.91,7.56,32.62
		v59L147.02,391L147.02,391z"/>
	<path style="fill:#F7B239;" d="M337,410.43V429h-49.02v-65v-23.74V305c0-11.82,2.76-22.99,7.69-32.89c2.2,1.64,4.34,3.36,6.4,5.15
		c21.58,18.69,34.93,44.52,34.93,73.05V410.43z"/>
	<path style="fill:#FFFFFF;" d="M315.02,415c-3.313,0-6-2.687-6-6v-73c0-3.313,2.687-6,6-6s6,2.687,6,6v73
		C321.02,412.313,318.333,415,315.02,415z"/>
	<g>
		<path style="opacity:0.44;fill:#333333;enable-background:new    ;" d="M143.67,282.92c-15.21,15.89-24.56,37.45-24.56,61.19V427
			H99.99v-82.89c0-30.42,15.35-57.27,38.74-73.19C140.71,274.74,142.37,278.75,143.67,282.92z"/>
	</g>
	<path style="fill:#F7B239;" d="M295.67,272.11c-4.93,9.9-7.69,21.07-7.69,32.89v35.26c-14.56,21.79-41.71,55.4-87.09,88.74h-53.87
		v-38c96-61,125.99-130,125.99-130l0.85-1.86C281.69,262.75,289,267.11,295.67,272.11z"/>
	<path style="fill:#F7B239;" d="M287.98,364v65h-87.09c45.38-33.34,72.53-66.95,87.09-88.74V364z"/>
	<path style="fill:#4CC18E;" d="M273.86,259.14l-0.85,1.86c0,0-29.99,69-125.99,130v-27v-59c0-11.71-2.71-22.78-7.56-32.62
		C160.41,256.57,187.8,247,217.75,247C238.04,247,257.14,251.39,273.86,259.14z"/>
	<path style="fill:#333333;" d="M293.979,429h-12V305c0-12.513,2.799-24.479,8.319-35.564l10.742,5.349
		c-4.686,9.41-7.062,19.576-7.062,30.216V429H293.979z"/>
	<path style="fill:#333333;" d="M153.02,429h-12V305c0-10.539-2.336-20.622-6.941-29.968l10.764-5.305
		c5.427,11.01,8.178,22.878,8.178,35.272V429H153.02z"/>
	<path style="fill:#333333;" d="M349,435H86.229c-3.313,0-6-2.687-6-6s2.687-6,6-6H349c3.313,0,6,2.687,6,6S352.313,435,349,435z"/>
	<path style="fill:#333333;" d="M381,435h-11c-3.313,0-6-2.687-6-6s2.687-6,6-6h11c3.313,0,6,2.687,6,6S384.313,435,381,435z"/>
	<path style="fill:#333333;" d="M65,435H54c-3.313,0-6-2.687-6-6s2.687-6,6-6h11c3.313,0,6,2.687,6,6S68.313,435,65,435z"/>
	<path style="fill:#333333;" d="M150.237,396.064l-6.436-10.128c48.65-30.914,79.691-63.883,97.164-86.097
		c18.939-24.079,26.471-41.068,26.544-41.237l11.003,4.79C277.258,266.278,246.681,334.783,150.237,396.064z"/>
	<path style="fill:#333333;" d="M204.442,433.835l-7.105-9.671c44.423-32.637,71.099-65.455,85.653-87.238l9.979,6.667
		C277.878,366.177,250.271,400.166,204.442,433.835z"/>
	<g>
		<g>
			<circle style="fill:#FFD3AE;" cx="298.072" cy="146" r="27.89"/>
		</g>
		<g>
			<path style="fill:#333333;" d="M298.072,179.89c-18.687,0-33.89-15.203-33.89-33.89s15.203-33.89,33.89-33.89
				s33.89,15.203,33.89,33.89S316.759,179.89,298.072,179.89z M298.072,124.11c-12.07,0-21.89,9.82-21.89,21.89
				s9.819,21.89,21.89,21.89s21.89-9.82,21.89-21.89S310.143,124.11,298.072,124.11z"/>
		</g>
	</g>
	<path style="fill:#E8B974;" d="M266.865,241.97c-14.1,9.49-31.08,15.03-49.36,15.03s-35.26-5.54-49.36-15.03
		c-0.19-0.13-0.39-0.26-0.58-0.4c-23.28-15.94-38.56-42.72-38.56-73.07V146V94.5c0-48.877,39.623-88.5,88.5-88.5l0,0
		c48.877,0,88.5,39.623,88.5,88.5V146v22.5c0,30.35-15.28,57.13-38.56,73.07C267.255,241.71,267.055,241.84,266.865,241.97z"/>
	<g>
		<path style="fill:#F7774B;" d="M217.505,216.01c-4.869,0-9.738-0.513-14.572-1.538c-3.242-0.688-5.313-3.873-4.625-7.114
			c0.687-3.241,3.874-5.31,7.113-4.625c8.02,1.7,16.148,1.7,24.168,0c3.24-0.688,6.427,1.384,7.113,4.625
			c0.688,3.242-1.383,6.427-4.625,7.114C227.243,215.497,222.374,216.01,217.505,216.01z"/>
	</g>
	<g style="opacity:0.44;">
		<path style="fill:#333333;" d="M218.01,229H217c-2.209,0-4-1.791-4-4s1.791-4,4-4h1.01c2.209,0,4,1.791,4,4
			S220.219,229,218.01,229z"/>
	</g>
	<g>
		<path style="fill:#F7774B;" d="M218.01,126H217c-3.313,0-6-2.687-6-6s2.687-6,6-6h1.01c3.313,0,6,2.687,6,6
			S221.323,126,218.01,126z"/>
	</g>
	<g>
		<g>
			<path style="fill:#333333;" d="M246.032,140.414c-2.725,0-5.19-1.868-5.838-4.635c-0.754-3.227,1.25-6.454,4.477-7.209
				c9.703-2.269,19.963-2.269,29.668,0c3.227,0.754,5.23,3.982,4.477,7.208c-0.755,3.227-3.978,5.231-7.209,4.476
				c-7.919-1.852-16.288-1.852-24.203,0C246.944,140.362,246.484,140.414,246.032,140.414z"/>
		</g>
	</g>
	<path style="opacity:0.44;fill:#333333;enable-background:new    ;" d="M199.145,241.97c10.02,6.74,21.5,11.49,33.86,13.68
		c-5.03,0.89-10.21,1.35-15.5,1.35c-18.28,0-35.26-5.54-49.36-15.03c-0.19-0.13-0.39-0.26-0.58-0.4
		c-23.28-15.94-38.56-42.72-38.56-73.07V146c0-139,54.89-137.301,54.89-134.411l-10.384,15.807
		C158.147,50.783,212.144,33.995,215.01,61c3.145,29.636-32.307,59.922-32.438,62.994c-0.483,11.29-9.201,21.36-21.338,21.975
		c-0.407,0.021-0.817,0.031-1.229,0.031v22.5c0,30.35,15.28,57.13,38.56,73.07C198.755,241.71,198.955,241.84,199.145,241.97z"/>
	<g>
		<g>
			<g>
				<g>
					<circle style="fill:#333333;" cx="183.165" cy="157.116" r="8.009"/>
				</g>
				<path style="fill:#333333;" d="M167.835,164.208c-1.533,0-3.065-0.583-4.236-1.751c-2.347-2.34-2.353-6.139-0.013-8.485
					c6.152-6.171,15.549-7.746,23.376-3.919c2.978,1.455,4.211,5.048,2.756,8.025c-1.455,2.976-5.049,4.212-8.025,2.756
					c-3.218-1.572-7.079-0.926-9.608,1.611C170.912,163.62,169.373,164.208,167.835,164.208z"/>
			</g>
		</g>
		<g>
			<g>
				<g>
					<circle style="fill:#333333;" cx="251.845" cy="157.116" r="8.009"/>
				</g>
				<path style="fill:#333333;" d="M267.174,164.208c-1.539,0-3.077-0.588-4.249-1.764c-2.529-2.536-6.39-3.184-9.607-1.611
					c-2.977,1.457-6.57,0.221-8.025-2.755c-1.455-2.977-0.222-6.57,2.756-8.025c7.827-3.827,17.224-2.253,23.375,3.919
					c2.34,2.347,2.334,6.146-0.013,8.485C270.239,163.624,268.706,164.208,267.174,164.208z"/>
			</g>
		</g>
	</g>
	<g>
		<path style="fill:#333333;" d="M210.562,189c-3.313,0-6-2.687-6-6v-32.927c0-2.692-1.515-5.195-3.858-6.375
			c-7.192-3.622-19.527-7.154-37.439-3.412c-3.248,0.676-6.422-1.403-7.1-4.647c-0.678-3.244,1.403-6.422,4.646-7.1
			c21.306-4.447,36.389-0.04,45.289,4.441c6.453,3.25,10.462,9.799,10.462,17.093V183C216.562,186.313,213.875,189,210.562,189z"/>
	</g>
	<path style="fill:#FFFFFF;" d="M291.01,187c-3.313,0-6-2.687-6-6v-29c0-3.313,2.687-6,6-6s6,2.687,6,6v29
		C297.01,184.313,294.323,187,291.01,187z"/>
	<path style="fill:#4D4D4D;" d="M300.16,62.8c3.78,9.84,5.85,20.53,5.85,31.7V135H306c-59.32-27.19-81.36-59.02-88.5-84.26
		c-7.13,25.24-29.17,57.07-88.5,84.26V94.5c0-11.17,2.07-21.86,5.85-31.7c4.34-11.31,10.93-21.5,19.23-30.02
		C170.16,16.26,192.63,6,217.5,6h0.01c24.87,0,47.34,10.26,63.42,26.78C289.23,41.3,295.82,51.49,300.16,62.8z"/>
	<g style="opacity:0.44;">
		<path style="fill:#333333;" d="M167.01,94.5c0-11.17,2.07-21.86,5.85-31.7c4.34-11.31,10.93-21.5,19.23-30.02
			c11.862-12.187,27.204-20.96,44.42-24.728C230.389,6.712,224.033,6,217.51,6h-0.01c-24.87,0-47.34,10.26-63.42,26.78
			c-8.3,8.52-14.89,18.71-19.23,30.02c-3.78,9.84-5.85,20.53-5.85,31.7V135c14.907-6.832,27.456-13.956,38.01-21.196V94.5z"/>
	</g>
	<path style="fill:#F7B239;" d="M273.86,259.14c0.66,0.3,1.31,0.61,1.96,0.94c-2.65,2.32-5.45,4.49-8.37,6.49
		c-0.19,0.14-0.4,0.27-0.58,0.4c-14.1,9.49-31.08,15.03-49.37,15.03c-18.27,0-35.25-5.54-49.35-15.03c-0.2-0.13-0.4-0.26-0.58-0.4
		c-2.86-1.96-5.6-4.08-8.2-6.36c8.07-3.94,16.71-7.08,25.8-9.31c10.02,3.94,20.92,6.1,32.33,6.1c11.49,0,22.46-2.19,32.53-6.17
		C258.38,252.86,266.36,255.66,273.86,259.14z"/>
	<path style="fill:#333333;" d="M343,429h-12v-78.69c0-25.831-11.67-50.163-32.858-68.515c-1.935-1.681-3.971-3.319-6.058-4.875
		c-5.837-4.375-12.18-8.218-18.865-11.433c-0.039-0.019-0.079-0.039-0.118-0.059c-0.57-0.29-1.143-0.562-1.723-0.826
		c-7.251-3.364-14.896-6.03-22.766-7.943l2.834-11.66c8.631,2.098,17.021,5.024,24.938,8.697c0.677,0.307,1.385,0.645,2.093,1.003
		c7.366,3.547,14.361,7.789,20.791,12.608c2.313,1.724,4.584,3.552,6.736,5.421C329.859,293.391,343,320.944,343,350.31V429z"/>
	<path style="fill:#333333;" d="M104.5,429h-12v-78.69c0-31.784,15.799-61.934,43.346-82.72c6.466-4.87,13.495-9.167,20.896-12.774
		c8.521-4.161,17.606-7.439,26.999-9.744l2.859,11.654c-8.563,2.101-16.839,5.087-24.597,8.875
		c-6.716,3.273-13.084,7.166-18.933,11.571c-24.511,18.495-38.57,45.153-38.57,73.138C104.5,350.31,104.5,429,104.5,429z"/>
	<path style="fill:#333333;" d="M217.5,263c-11.914,0-23.53-2.192-34.525-6.516c-6.377-2.5-12.492-5.708-18.177-9.537
		c-0.23-0.15-0.484-0.322-0.729-0.502C138.349,228.781,123,199.654,123,168.5v-74c0-11.669,2.103-23.059,6.249-33.852
		c4.611-12.018,11.521-22.804,20.533-32.055C167.729,10.155,191.779,0,217.5,0c25.73,0,49.78,10.155,67.729,28.595
		c9.011,9.25,15.919,20.035,20.532,32.055c4.146,10.794,6.248,22.184,6.248,33.85v74c0,31.176-15.366,60.32-41.105,77.977
		c-0.139,0.099-0.281,0.196-0.422,0.291l-0.104,0.071c-0.057,0.041-0.098,0.069-0.156,0.108c-5.634,3.795-11.688,6.979-17.992,9.465
		C241.172,260.783,229.485,263,217.5,263z M217.51,12c-22.464,0-43.46,8.866-59.13,24.965c-7.872,8.08-13.903,17.494-17.929,27.984
		C136.834,74.366,135,84.308,135,94.5v74c0,27.236,13.442,52.702,35.959,68.119c0.098,0.067,0.194,0.137,0.288,0.21l0.159,0.102
		c0.022,0.015,0.072,0.048,0.095,0.063c4.96,3.34,10.296,6.14,15.858,8.32c0.002,0,0.004,0.001,0.006,0.002
		c9.592,3.771,19.73,5.684,30.135,5.684c10.469,0,20.671-1.935,30.324-5.75c5.478-2.159,10.733-4.922,15.63-8.213
		c0.11-0.078,0.225-0.156,0.342-0.234l0.115-0.078c0.055-0.041,0.093-0.067,0.149-0.106c22.51-15.414,35.949-40.878,35.949-68.119
		v-74c0-10.19-1.834-20.132-5.451-29.549c-4.026-10.492-10.058-19.907-17.927-27.985C260.96,20.866,239.964,12,217.51,12z"/>
	<path style="fill:#333333;" d="M217.5,288c-18.873,0-37.097-5.551-52.7-16.052c-0.233-0.152-0.488-0.323-0.733-0.504
		c-3.033-2.086-5.944-4.347-8.652-6.722l7.912-9.022c2.385,2.091,4.953,4.083,7.636,5.922c0.097,0.067,0.191,0.136,0.285,0.208
		l0.159,0.102c0.021,0.015,0.071,0.047,0.093,0.062c13.615,9.162,29.522,14.006,46,14.006c16.464,0,32.354-4.829,45.956-13.964
		c0.109-0.077,0.224-0.155,0.34-0.233l0.115-0.078c0.055-0.041,0.093-0.067,0.148-0.105c2.723-1.865,5.35-3.901,7.808-6.054
		l7.904,9.028c-2.794,2.446-5.776,4.761-8.865,6.881c-0.14,0.1-0.282,0.197-0.424,0.292l-0.104,0.071
		c-0.058,0.041-0.1,0.07-0.158,0.109C254.616,282.449,236.386,288,217.5,288z"/>
	<path style="fill:#FFFFFF;" d="M288.01,100.5c-3.313,0-6-2.687-6-6c0-7.975-1.432-15.747-4.256-23.1
		c-3.146-8.197-7.863-15.558-14.021-21.879c-3.862-3.969-8.182-7.416-12.839-10.247c-2.832-1.721-3.732-5.412-2.011-8.244
		c1.72-2.832,5.41-3.732,8.243-2.01c5.522,3.356,10.638,7.437,15.204,12.129c7.299,7.492,12.893,16.224,16.626,25.949
		c3.353,8.729,5.053,17.949,5.053,27.4C294.01,97.813,291.323,100.5,288.01,100.5z"/>
	<path style="fill:#FFFFFF;" d="M233.015,31.697c-0.433,0-0.872-0.047-1.312-0.145c-1.802-0.402-3.647-0.73-5.487-0.976
		c-3.284-0.438-5.592-3.457-5.153-6.741s3.453-5.592,6.741-5.153c2.182,0.292,4.372,0.681,6.511,1.157
		c3.234,0.721,5.271,3.928,4.551,7.162C238.242,29.795,235.764,31.697,233.015,31.697z"/>
	<path style="fill:#333333;" d="M131.5,140.455l-5-10.909c46.972-21.526,76.441-49.34,85.226-80.437
		c0.73-2.584,3.088-4.369,5.773-4.369s5.044,1.783,5.774,4.367c8.797,31.1,38.268,58.916,85.227,80.439l-5,10.908
		c-43.435-19.908-72.276-44.368-85.998-72.875C203.788,96.083,174.943,120.545,131.5,140.455z"/>
</g>
<g>
</g>
<g>
</g>
<g>
</g>
<g>
</g>
<g>
</g>
<g>
</g>
<g>
</g>
<g>
</g>
<g>
</g>
<g>
</g>
<g>
</g>
<g>
</g>
<g>
</g>
<g>
</g>
<g>
</g>
</svg>
