<?xml version="1.0" encoding="iso-8859-1"?>
<!-- Generator: Adobe Illustrator 19.0.0, SVG Export Plug-In . SVG Version: 6.00 Build 0)  -->
<svg version="1.1" id="Layer_1" xmlns="http://www.w3.org/2000/svg" xmlns:xlink="http://www.w3.org/1999/xlink" x="0px" y="0px"
	 viewBox="0 0 427.37 427.37" style="enable-background:new 0 0 427.37 427.37;" xml:space="preserve">
<g>
	<path style="fill:#BFBEBE;" d="M263.04,250.34c0.19,0.05,0.39,0.09,0.58,0.14c10.46,2.53,20.19,6.93,28.83,12.81
		c23.39,15.92,38.75,42.77,38.75,73.19v84.89h-47.04H143.2H96.17v-84.89c0-30.42,15.35-57.27,38.74-73.19
		c8.64-5.88,18.37-10.28,28.83-12.81c0.19-0.05,0.39-0.09,0.58-0.14"/>
	<path style="fill:#BFBEBE;" d="M143.2,297.37v124H96.17v-84.89c0-30.42,15.35-57.27,38.74-73.19
		C140.21,273.49,143.2,285.08,143.2,297.37z"/>
	<path style="fill:#BFBEBE;" d="M331.2,336.48v84.89h-47.04v-124c0-12.29,2.99-23.88,8.29-34.08
		C315.84,279.21,331.2,306.06,331.2,336.48z"/>
	<path style="fill:#BFBEBE;" d="M263.62,250.48v13.808c0,27.58-22.36,49.94-49.94,49.94s-49.94-22.36-49.94-49.94V250.48
		c0.19-0.05,0.39-0.09,0.58-0.14c14.1,9.49,31.08,15.03,49.36,15.03s35.26-5.54,49.36-15.03
		C263.23,250.39,263.43,250.43,263.62,250.48z"/>
	<path style="fill:#FFD3AE;" d="M302.18,102.87v74c0,13.82-3.16,26.89-8.81,38.54c-3.23,6.67-7.27,12.86-12,18.46
		c-0.11,0.14-0.23,0.28-0.35,0.42c-5.08,5.95-10.93,11.22-17.4,15.65c-0.19,0.14-0.39,0.27-0.58,0.4c-1.35,0.91-2.73,1.78-4.13,2.61
		c-13.23,7.89-28.7,12.42-45.23,12.42c-18.28,0-35.26-5.54-49.36-15.03c-0.19-0.13-0.39-0.26-0.58-0.4
		c-3.82-2.61-7.43-5.52-10.78-8.69c-4.46-4.21-8.49-8.88-12-13.94c-8.92-12.82-14.52-28.11-15.59-44.64
		c-0.13-1.92-0.19-3.85-0.19-5.8v-74c0-35.38,92.74-45.16,143.96-29.3c0.38,0.11,0.76,0.23,1.13,0.35
		C289.2,79.98,302.18,89.63,302.18,102.87z"/>
	<path style="fill:#333333;" d="M213.68,271.37c-18.88,0-37.107-5.551-52.71-16.053l-0.168-0.114
		c-0.173-0.116-0.349-0.236-0.521-0.359c-25.737-17.657-41.101-46.8-41.101-77.974v-74c0-29.468,47.462-42.658,94.5-42.658
		s94.5,13.19,94.5,42.658v74c0,31.176-15.363,60.319-41.103,77.976c-0.174,0.125-0.352,0.245-0.527,0.363l-0.129,0.088
		c-0.01,0.007-0.021,0.014-0.03,0.021C250.788,265.819,232.561,271.37,213.68,271.37z M213.68,72.212
		c-47.033,0-82.5,13.18-82.5,30.658v74c0,27.241,13.439,52.706,35.95,68.12c0.056,0.037,0.11,0.076,0.165,0.116
		c0.069,0.051,0.142,0.098,0.213,0.146l0.199,0.135c13.579,9.14,29.489,13.983,45.974,13.983s32.395-4.844,46.009-14.008
		l0.157-0.105c0.074-0.051,0.151-0.101,0.226-0.155c0.052-0.038,0.104-0.075,0.158-0.111c22.51-15.414,35.949-40.879,35.949-68.12
		v-74c0-10.849-12.904-17.877-23.729-21.863C257.27,75.418,235.849,72.212,213.68,72.212z"/>
	<g>
		<path style="fill:#333333;" d="M182.07,174.807c-1.58,0-3.13-0.64-4.24-1.75c-1.12-1.12-1.76-2.67-1.76-4.25s0.64-3.12,1.76-4.24
			c1.39-1.39,3.46-2.03,5.41-1.64c0.39,0.08,0.76,0.19,1.13,0.34c0.36,0.15,0.71,0.34,1.03,0.55c0.33,0.22,0.64,0.47,0.91,0.75
			c0.28,0.28,0.53,0.58,0.75,0.91s0.4,0.68,0.55,1.04c0.15,0.36,0.27,0.74,0.34,1.12c0.08,0.39,0.12,0.78,0.12,1.17
			s-0.04,0.79-0.12,1.18c-0.07,0.38-0.19,0.76-0.34,1.12s-0.33,0.71-0.55,1.03c-0.22,0.33-0.47,0.64-0.75,0.92
			C185.2,174.167,183.65,174.807,182.07,174.807z"/>
		<path style="fill:#333333;" d="M250.07,174.807c-0.39,0-0.79-0.04-1.17-0.11c-0.38-0.08-0.76-0.2-1.12-0.35
			c-0.37-0.15-0.71-0.33-1.04-0.55c-0.33-0.22-0.64-0.47-0.91-0.74c-0.28-0.28-0.53-0.59-0.75-0.92c-0.22-0.32-0.4-0.67-0.55-1.03
			c-0.15-0.36-0.27-0.74-0.34-1.12c-0.08-0.39-0.12-0.79-0.12-1.18s0.04-0.78,0.12-1.17c0.07-0.38,0.19-0.76,0.34-1.12
			s0.33-0.71,0.55-1.04c0.22-0.33,0.47-0.63,0.75-0.91c0.27-0.28,0.58-0.53,0.91-0.75c0.33-0.21,0.67-0.4,1.04-0.55
			c0.36-0.15,0.74-0.26,1.12-0.34c1.95-0.39,4.02,0.25,5.41,1.64c0.28,0.28,0.53,0.58,0.75,0.91s0.4,0.68,0.55,1.04
			c0.15,0.36,0.27,0.74,0.34,1.12c0.08,0.39,0.12,0.78,0.12,1.17s-0.04,0.79-0.12,1.18c-0.07,0.38-0.19,0.76-0.34,1.12
			s-0.33,0.71-0.55,1.03c-0.22,0.33-0.47,0.64-0.75,0.92C253.2,174.167,251.65,174.807,250.07,174.807z"/>
	</g>
	<g>
		<path style="fill:#333333;" d="M206.737,188.37c-3.313,0-6-2.687-6-6v-16.857c0-3.204-2.606-5.81-5.81-5.81h-28.58
			c-3.313,0-6-2.687-6-6s2.687-6,6-6h28.58c9.82,0,17.81,7.99,17.81,17.81v16.857C212.737,185.684,210.051,188.37,206.737,188.37z"
			/>
		<path style="fill:#333333;" d="M261.013,159.703h-24c-3.313,0-6-2.687-6-6s2.687-6,6-6h24c3.313,0,6,2.687,6,6
			S264.326,159.703,261.013,159.703z"/>
	</g>
	<g>
		<path style="fill:#333333;" d="M225.68,223.703h-24c-3.313,0-6-2.687-6-6s2.687-6,6-6h24c3.313,0,6,2.687,6,6
			S228.993,223.703,225.68,223.703z"/>
	</g>
	<path style="fill:#333333;" d="M290.16,421.37h-12v-124c0-12.816,3.101-25.558,8.966-36.847l10.648,5.533
		c-5.053,9.724-7.614,20.26-7.614,31.313V421.37z"/>
	<path style="fill:#FFFFFF;" d="M311.2,407.37c-3.313,0-6-2.687-6-6v-66.339c0-3.313,2.687-6,6-6s6,2.687,6,6v66.339
		C317.2,404.684,314.514,407.37,311.2,407.37z M311.21,325.5c-3.313,0-6.005-2.687-6.005-6s2.682-6,5.995-6h0.01
		c3.313,0,6,2.687,6,6S314.524,325.5,311.21,325.5z"/>
	<g>
		<path style="opacity:0.44;fill:#333333;enable-background:new    ;" d="M139.85,275.29c-15.21,15.89-24.56,37.45-24.56,61.19
			v82.858H96.17V336.48c0-30.42,15.35-57.27,38.74-73.19C136.89,267.11,138.55,271.12,139.85,275.29z"/>
	</g>
	<path style="fill:#333333;" d="M331.2,427.37H96.17c-3.314,0-6-2.687-6-6v-84.89c0-31.307,15.463-60.521,41.364-78.15
		c9.414-6.407,19.757-11.006,30.742-13.669c0.135-0.034,0.272-0.067,0.41-0.099l0.117-0.028l3.038,11.609
		c-0.146,0.038-0.296,0.074-0.446,0.108l-0.118,0.028c-0.02,0.005-0.108,0.027-0.128,0.032c-9.596,2.32-18.634,6.337-26.864,11.938
		c-22.615,15.393-36.116,40.899-36.116,68.23v78.89H325.2v-78.89c0-27.327-13.505-52.834-36.126-68.23
		c-8.231-5.601-17.27-9.617-26.864-11.938c-0.046-0.011-0.091-0.022-0.136-0.034l-0.11-0.026c-0.148-0.034-0.297-0.069-0.442-0.107
		l3.032-11.61l0.119,0.028c0.138,0.031,0.275,0.064,0.411,0.099c10.983,2.663,21.327,7.262,30.742,13.669
		c25.907,17.633,41.374,46.849,41.374,78.15v84.89C337.2,424.684,334.514,427.37,331.2,427.37z"/>
	<path style="fill:#333333;" d="M149.2,421.37h-12v-124c0-11.054-2.562-21.59-7.614-31.313l10.648-5.533
		c5.866,11.289,8.966,24.03,8.966,36.847V421.37z"/>
	<path style="opacity:0.44;fill:#333333;enable-background:new    ;" d="M234.578,182.67v41.243c0,5.731,4.646,10.377,10.377,10.377
		h36.415V132.762l12-4.122c-2.184-19.798-10.027-37.715-21.816-52.212c-0.418-0.842-0.843-1.68-1.284-2.508
		c-0.371-0.119-0.753-0.232-1.129-0.349l-0.001-0.001c-0.033-0.01-0.067-0.02-0.1-0.03c-0.737-0.227-1.481-0.449-2.234-0.666
		c-0.072-0.021-0.144-0.041-0.216-0.062c-0.745-0.213-1.498-0.421-2.259-0.624c-0.083-0.022-0.167-0.044-0.25-0.066
		c-0.752-0.199-1.511-0.393-2.277-0.582c-0.097-0.024-0.194-0.047-0.291-0.071c-0.755-0.184-1.516-0.364-2.284-0.539
		c-0.114-0.026-0.227-0.051-0.341-0.077c-0.755-0.17-1.516-0.335-2.282-0.496c-0.131-0.028-0.263-0.054-0.395-0.082
		c-0.753-0.156-1.511-0.307-2.275-0.454c-0.15-0.029-0.3-0.057-0.45-0.085c-0.748-0.142-1.5-0.28-2.258-0.413
		c-0.171-0.03-0.342-0.059-0.514-0.089c-0.741-0.128-1.486-0.253-2.235-0.373c-0.192-0.031-0.385-0.061-0.578-0.091
		c-0.732-0.115-1.468-0.226-2.207-0.334c-0.214-0.031-0.429-0.061-0.644-0.091c-0.719-0.102-1.441-0.201-2.167-0.295
		c-0.242-0.032-0.486-0.062-0.729-0.093c-0.703-0.089-1.408-0.175-2.117-0.257c-0.269-0.031-0.538-0.061-0.807-0.091
		c-0.635-0.071-1.272-0.141-1.911-0.207c0.011-0.001,0.021-0.002,0.031-0.003c-2.702-0.278-5.437-0.504-8.191-0.685
		c-0.052-0.003-0.104-0.007-0.156-0.01c-0.947-0.061-1.896-0.117-2.847-0.167c-0.031-0.002-0.062-0.003-0.093-0.005
		c-2.298-0.12-4.608-0.206-6.922-0.258c-0.051-0.001-0.102-0.002-0.153-0.004c-0.595-0.013-1.19-0.024-1.785-0.033
		c-0.065-0.001-0.131-0.002-0.196-0.003c-0.914-0.011-1.829-0.02-2.743-0.022c-0.128,0-0.256-0.001-0.385-0.001
		c-1.241-0.001-2.482,0.007-3.722,0.025c-0.119,0.002-0.238,0.004-0.357,0.006c-0.817,0.013-1.633,0.031-2.448,0.052
		c-0.208,0.005-0.416,0.011-0.623,0.017c-0.521,0.015-1.042,0.031-1.563,0.05c-0.179,0.006-0.357,0.014-0.535,0.02
		c-0.054,0.002-0.108,0.004-0.162,0.006c-0.204,0.008-0.408,0.015-0.612,0.023c-0.516,0.021-1.031,0.045-1.546,0.07
		c-0.208,0.01-0.417,0.02-0.625,0.03c-0.168,0.008-0.336,0.016-0.504,0.024c-0.04,0.002-0.08,0.004-0.12,0.006
		c-0.597,0.032-1.194,0.068-1.79,0.104c-0.136,0.008-0.272,0.016-0.408,0.024c-0.203,0.013-0.407,0.025-0.61,0.039
		c-0.217,0.014-0.433,0.03-0.649,0.045c-0.688,0.047-1.374,0.096-2.059,0.149c-0.319,0.025-0.638,0.051-0.956,0.077
		c-0.451,0.037-0.901,0.074-1.35,0.113c-0.174,0.015-0.348,0.031-0.522,0.047c-0.303,0.027-0.606,0.055-0.908,0.083
		c-0.441,0.042-0.88,0.085-1.319,0.13c-0.229,0.023-0.458,0.046-0.686,0.07c-0.233,0.024-0.466,0.047-0.698,0.072
		c-0.482,0.052-0.96,0.107-1.44,0.162c-0.234,0.027-0.468,0.052-0.702,0.08c-0.136,0.016-0.274,0.031-0.41,0.047
		c-0.291,0.035-0.579,0.073-0.869,0.109c-0.579,0.072-1.157,0.144-1.732,0.221c-0.386,0.051-0.771,0.105-1.156,0.159
		c-0.388,0.054-0.776,0.107-1.162,0.163c-0.146,0.021-0.292,0.043-0.438,0.064c-0.347,0.051-0.693,0.104-1.039,0.156
		c-0.378,0.058-0.755,0.117-1.132,0.177c-0.212,0.034-0.425,0.067-0.636,0.101c-0.267,0.043-0.533,0.087-0.798,0.131
		c-0.403,0.067-0.802,0.138-1.202,0.208c-0.255,0.044-0.512,0.088-0.766,0.133c-0.448,0.08-0.892,0.163-1.337,0.246
		c-0.26,0.049-0.521,0.097-0.781,0.147c-0.167,0.032-0.335,0.062-0.501,0.094c-0.068,0.013-0.136,0.027-0.205,0.04
		c-0.412,0.081-0.819,0.165-1.227,0.248c-0.341,0.069-0.683,0.138-1.021,0.209c-0.116,0.024-0.232,0.049-0.348,0.074
		c-0.363,0.077-0.723,0.157-1.084,0.236c-0.336,0.074-0.671,0.149-1.005,0.225c-0.185,0.042-0.371,0.083-0.555,0.126
		c-0.279,0.065-0.556,0.13-0.833,0.196c-0.35,0.083-0.697,0.169-1.044,0.254c-0.238,0.058-0.477,0.115-0.713,0.174
		c-0.195,0.049-0.39,0.097-0.584,0.147c-0.413,0.106-0.821,0.215-1.23,0.324c-0.24,0.064-0.483,0.126-0.723,0.191
		c-0.041,0.011-0.083,0.022-0.124,0.033c-0.395,0.108-0.784,0.22-1.175,0.33c-0.309,0.087-0.621,0.173-0.928,0.262
		c-0.088,0.026-0.177,0.052-0.265,0.078c-0.353,0.103-0.7,0.21-1.05,0.315c-0.307,0.093-0.614,0.186-0.918,0.281
		c-0.152,0.047-0.306,0.094-0.458,0.142c-0.27,0.085-0.537,0.173-0.805,0.26c-0.317,0.103-0.63,0.208-0.944,0.312
		c-0.205,0.069-0.413,0.135-0.616,0.205c-0.187,0.064-0.374,0.128-0.56,0.193c-0.354,0.123-0.702,0.25-1.051,0.376
		c-0.229,0.083-0.462,0.163-0.69,0.247c-0.369,0.136-0.73,0.276-1.093,0.414c-0.321,0.122-0.645,0.243-0.961,0.368
		c-0.059,0.023-0.116,0.047-0.175,0.07c-0.313,0.125-0.62,0.253-0.929,0.379c-0.295,0.121-0.59,0.241-0.88,0.365
		c-0.115,0.049-0.233,0.097-0.348,0.146c-0.241,0.103-0.477,0.209-0.715,0.314c-0.294,0.129-0.585,0.26-0.875,0.392
		c-0.165,0.075-0.333,0.148-0.497,0.224c-0.168,0.078-0.334,0.157-0.501,0.236c-0.312,0.147-0.618,0.298-0.925,0.448
		c-0.193,0.094-0.39,0.187-0.58,0.282c-0.099,0.05-0.198,0.099-0.297,0.149c-0.44,0.223-0.871,0.452-1.299,0.681
		c-0.109,0.059-0.221,0.116-0.329,0.175c-0.25,0.136-0.492,0.276-0.738,0.414c-0.287,0.161-0.575,0.322-0.856,0.486
		c-0.082,0.048-0.165,0.095-0.246,0.142c-0.198,0.117-0.388,0.236-0.583,0.355c-0.27,0.164-0.537,0.329-0.801,0.495
		c-0.123,0.077-0.249,0.153-0.37,0.231c-0.139,0.089-0.273,0.18-0.41,0.271c-0.273,0.18-0.54,0.362-0.806,0.545
		c-0.147,0.101-0.299,0.2-0.444,0.301c-0.083,0.058-0.165,0.117-0.247,0.176c-0.331,0.236-0.652,0.477-0.97,0.718
		c-0.115,0.087-0.234,0.171-0.347,0.258c-0.011,0.009-0.023,0.017-0.034,0.026c-0.147,0.114-0.286,0.231-0.43,0.346
		c-0.291,0.232-0.582,0.464-0.862,0.7c-0.05,0.042-0.101,0.083-0.15,0.125c-0.146,0.125-0.283,0.252-0.426,0.378
		c-0.237,0.209-0.472,0.418-0.701,0.63c-0.08,0.075-0.165,0.147-0.244,0.222c-0.105,0.099-0.203,0.201-0.306,0.301
		c-0.225,0.219-0.444,0.44-0.66,0.663c-0.099,0.102-0.205,0.203-0.302,0.306c-0.063,0.066-0.122,0.134-0.183,0.2
		c-0.245,0.264-0.478,0.532-0.709,0.8c-0.088,0.103-0.183,0.203-0.27,0.307c-0.024,0.028-0.048,0.057-0.072,0.085
		c-0.318,0.383-0.62,0.771-0.909,1.164c-0.024,0.032-0.049,0.064-0.072,0.096c-0.089,0.121-0.168,0.246-0.254,0.368
		c-0.189,0.268-0.374,0.537-0.55,0.809c-0.044,0.069-0.093,0.136-0.136,0.205c-0.067,0.106-0.125,0.215-0.19,0.322
		c-0.161,0.264-0.315,0.531-0.463,0.799c-0.055,0.1-0.118,0.198-0.171,0.299c-0.04,0.074-0.073,0.151-0.112,0.226
		c-0.155,0.299-0.298,0.601-0.438,0.905c-0.05,0.11-0.109,0.217-0.157,0.327c-0.015,0.035-0.029,0.071-0.044,0.107
		c-0.19,0.44-0.365,0.885-0.521,1.335c-0.006,0.018-0.013,0.036-0.019,0.054c-0.033,0.097-0.058,0.197-0.09,0.295
		c-0.115,0.352-0.224,0.705-0.319,1.063c-0.016,0.059-0.036,0.116-0.052,0.175c-0.029,0.113-0.047,0.228-0.073,0.341
		c-0.074,0.313-0.142,0.628-0.2,0.946c-0.017,0.095-0.043,0.188-0.059,0.283c-0.014,0.085-0.02,0.172-0.033,0.258
		c-0.052,0.334-0.092,0.671-0.126,1.011c-0.011,0.114-0.033,0.225-0.042,0.34c-0.004,0.046-0.003,0.093-0.006,0.138
		c-0.038,0.498-0.062,0.999-0.062,1.508v21.8v52.2c0,1.95,0.06,3.88,0.19,5.8c1.07,16.53,6.67,31.82,15.59,44.64
		c0.012,0.017,0.025,0.033,0.037,0.05c0.814,1.172,1.66,2.319,2.529,3.449c0.295,0.384,0.605,0.754,0.907,1.133
		c0.607,0.763,1.219,1.523,1.851,2.266c0.347,0.408,0.705,0.805,1.059,1.206c0.617,0.699,1.24,1.392,1.879,2.071
		c0.37,0.393,0.745,0.78,1.122,1.167c0.649,0.666,1.309,1.321,1.979,1.966c0.216,0.208,0.419,0.428,0.637,0.633v-0.028
		c3.361,3.173,6.955,6.101,10.78,8.718c0.19,0.14,0.39,0.27,0.58,0.4c14.1,9.49,31.08,15.03,49.36,15.03c8.2,0,16.14-1.12,23.67-3.2
		c-9.26-2.56-17.91-6.6-25.69-11.83c-0.19-0.13-0.39-0.26-0.58-0.4c-8.9-6.09-16.63-13.77-22.78-22.63
		c-8.92-12.82-14.52-28.11-15.59-44.64c-0.13-1.92-0.19-3.85-0.19-5.8v-26.32c7.033,0.767,14.096,1.16,21.16,1.16
		c17.053,0,34.112-2.239,50.72-6.718v27.856C244.4,178.272,240.003,182.67,234.578,182.67L234.578,182.67z"/>
	<g>
		<path style="fill:#333333;" d="M345.185,427.37H82.415c-3.313,0-6-2.687-6-6s2.687-6,6-6h262.77c3.313,0,6,2.687,6,6
			S348.498,427.37,345.185,427.37z"/>
		<path style="fill:#333333;" d="M377.185,427.37h-11c-3.313,0-6-2.687-6-6s2.687-6,6-6h11c3.313,0,6,2.687,6,6
			S380.498,427.37,377.185,427.37z"/>
		<path style="fill:#333333;" d="M61.185,427.37h-11c-3.313,0-6-2.687-6-6s2.687-6,6-6h11c3.313,0,6,2.687,6,6
			S64.499,427.37,61.185,427.37z"/>
	</g>
	<path style="fill:#BFBEBE;" d="M276.403,122.671v60h-22v51.615h58.966v-124.31c-5.602-50.83-48.551-89.305-99.689-89.305l0,0l0,0
		c-51.138,0-94.086,38.475-99.689,89.305v124.31h58.966v-51.615h-22v-60l0,0C191.628,136.504,235.731,136.504,276.403,122.671
		L276.403,122.671z"/>
	<path style="fill:#BFBEBE;" d="M125.37,182.67h15.59v44.64C132.04,214.49,126.44,199.2,125.37,182.67z"/>
	<path style="opacity:0.44;fill:#333333;enable-background:new    ;" d="M234.671,22.88c-17.34,3.7-33.09,11.9-45.91,23.38
		c-17.83,15.98-29.97,38.3-32.77,63.72v14.32c-1.68-0.52-3.36-1.06-5.03-1.63v60h5.03v51.62h-42V109.98
		c2.8-25.42,14.94-47.74,32.77-63.72c17.83-15.97,41.35-25.59,66.92-25.59C220.861,20.67,227.891,21.43,234.671,22.88z"/>
	<path style="fill:#333333;" d="M313.369,240.286h-58.966c-3.313,0-6-2.687-6-6v-51.615c0-3.313,2.687-6,6-6h16v-45.807
		c-36.872,10.83-76.573,10.83-113.446,0v45.807h16c3.314,0,6,2.687,6,6v51.615c0,3.313-2.686,6-6,6h-58.966c-3.313,0-6-2.687-6-6
		v-124.31c0-0.22,0.012-0.439,0.036-0.657c5.948-53.958,51.369-94.648,105.653-94.648c54.285,0,99.706,40.69,105.653,94.648
		c0.024,0.218,0.036,0.438,0.036,0.657v124.31C319.369,237.6,316.683,240.286,313.369,240.286z M260.404,228.286h46.966V110.311
		c-5.422-47.705-45.642-83.64-93.689-83.64s-88.267,35.935-93.689,83.64v117.976h46.966v-39.615h-16c-3.313,0-6-2.687-6-6v-60
		c0-1.935,0.933-3.751,2.507-4.878c1.572-1.127,3.592-1.427,5.425-0.803c39.201,13.333,82.379,13.333,121.583,0
		c1.829-0.623,3.851-0.325,5.425,0.803c1.573,1.126,2.507,2.943,2.507,4.878v60c0,3.313-2.687,6-6,6h-16L260.404,228.286
		L260.404,228.286z"/>
	<path style="fill:#FFFFFF;" d="M295.55,190.25c-3.313,0-6.005-2.687-6.005-6s2.682-6,5.995-6h0.01c3.313,0,6,2.687,6,6
		S298.864,190.25,295.55,190.25z M295.54,169.5c-3.313,0-6-2.687-6-6V148c0-36.586-2.422-47.632-2.586-48.336
		c-5.493-19.009-17.979-34.929-35.165-44.833c-2.871-1.654-3.857-5.323-2.202-8.194c1.654-2.871,5.322-3.859,8.194-2.202
		c19.923,11.482,34.389,29.952,40.732,52.007c0.326,1.186,3.026,12.137,3.026,51.559v15.5
		C301.54,166.813,298.854,169.5,295.54,169.5z M235.877,47.694c-0.533,0-1.075-0.072-1.614-0.222
		c-3.56-0.992-7.228-1.73-10.903-2.195c-3.287-0.415-5.616-3.417-5.201-6.704s3.416-5.61,6.705-5.201
		c4.254,0.537,8.501,1.392,12.622,2.541c3.191,0.89,5.059,4.199,4.168,7.391C240.914,45.957,238.503,47.694,235.877,47.694z"/>
	<g>
		<g>
			<g>
				<path style="fill:#333333;" d="M273.29,222.005c-1.58,0-3.13-0.64-4.24-1.75c-1.12-1.12-1.76-2.67-1.76-4.25
					s0.64-3.12,1.76-4.24c1.39-1.39,3.46-2.03,5.41-1.64c0.39,0.08,0.76,0.19,1.13,0.34c0.36,0.15,0.71,0.34,1.03,0.55
					c0.33,0.22,0.64,0.47,0.91,0.75c0.28,0.28,0.53,0.58,0.75,0.91s0.4,0.68,0.55,1.04s0.27,0.74,0.34,1.12
					c0.08,0.39,0.12,0.78,0.12,1.17s-0.04,0.79-0.12,1.18c-0.07,0.38-0.19,0.76-0.34,1.12s-0.33,0.71-0.55,1.03
					c-0.22,0.33-0.47,0.64-0.75,0.92C276.42,221.365,274.87,222.005,273.29,222.005z"/>
				<path style="fill:#333333;" d="M292.983,220.153c-0.39,0-0.79-0.04-1.17-0.11c-0.38-0.08-0.76-0.2-1.12-0.35
					c-0.37-0.15-0.71-0.33-1.04-0.55c-0.33-0.22-0.64-0.47-0.91-0.74c-0.28-0.28-0.53-0.59-0.75-0.92c-0.22-0.32-0.4-0.67-0.55-1.03
					s-0.27-0.74-0.34-1.12c-0.08-0.39-0.12-0.79-0.12-1.18s0.04-0.78,0.12-1.17c0.07-0.38,0.19-0.76,0.34-1.12s0.33-0.71,0.55-1.04
					c0.22-0.33,0.47-0.63,0.75-0.91c0.27-0.28,0.58-0.53,0.91-0.75c0.33-0.21,0.67-0.4,1.04-0.55c0.36-0.15,0.74-0.26,1.12-0.34
					c1.95-0.39,4.02,0.25,5.41,1.64c0.28,0.28,0.53,0.58,0.75,0.91s0.4,0.68,0.55,1.04s0.27,0.74,0.34,1.12
					c0.08,0.39,0.12,0.78,0.12,1.17s-0.04,0.79-0.12,1.18c-0.07,0.38-0.19,0.76-0.34,1.12s-0.33,0.71-0.55,1.03
					c-0.22,0.33-0.47,0.64-0.75,0.92C296.113,219.513,294.564,220.153,292.983,220.153z"/>
			</g>
			<path style="fill:#333333;" d="M279.65,205.074c-0.39,0-0.79-0.04-1.17-0.11c-0.38-0.08-0.76-0.2-1.12-0.35
				c-0.37-0.15-0.71-0.33-1.04-0.55c-0.33-0.22-0.64-0.47-0.91-0.74c-0.28-0.28-0.53-0.59-0.75-0.92c-0.22-0.32-0.4-0.67-0.55-1.03
				s-0.27-0.74-0.34-1.12c-0.08-0.39-0.12-0.79-0.12-1.18s0.04-0.78,0.12-1.17c0.07-0.38,0.19-0.76,0.34-1.12s0.33-0.71,0.55-1.04
				c0.22-0.33,0.47-0.63,0.75-0.91c0.27-0.28,0.58-0.53,0.91-0.75c0.33-0.21,0.67-0.4,1.04-0.55c0.36-0.15,0.74-0.26,1.12-0.34
				c1.95-0.39,4.02,0.25,5.41,1.64c0.28,0.28,0.53,0.58,0.75,0.91s0.4,0.68,0.55,1.04s0.27,0.74,0.34,1.12
				c0.08,0.39,0.12,0.78,0.12,1.17s-0.04,0.79-0.12,1.18c-0.07,0.38-0.19,0.76-0.34,1.12s-0.33,0.71-0.55,1.03
				c-0.22,0.33-0.47,0.64-0.75,0.92C282.78,204.434,281.23,205.074,279.65,205.074z"/>
		</g>
		<g>
			<g>
				<path style="fill:#333333;" d="M151.29,222.005c1.58,0,3.13-0.64,4.24-1.75c1.12-1.12,1.76-2.67,1.76-4.25s-0.64-3.12-1.76-4.24
					c-1.39-1.39-3.46-2.03-5.41-1.64c-0.39,0.08-0.76,0.19-1.13,0.34c-0.36,0.15-0.71,0.34-1.03,0.55
					c-0.33,0.22-0.64,0.47-0.91,0.75c-0.28,0.28-0.53,0.58-0.75,0.91s-0.4,0.68-0.55,1.04c-0.15,0.36-0.27,0.74-0.34,1.12
					c-0.08,0.39-0.12,0.78-0.12,1.17s0.04,0.79,0.12,1.18c0.07,0.38,0.19,0.76,0.34,1.12s0.33,0.71,0.55,1.03
					c0.22,0.33,0.47,0.64,0.75,0.92C148.16,221.365,149.71,222.005,151.29,222.005z"/>
				<path style="fill:#333333;" d="M131.597,220.153c0.39,0,0.79-0.04,1.17-0.11c0.38-0.08,0.76-0.2,1.12-0.35
					c0.37-0.15,0.71-0.33,1.04-0.55c0.33-0.22,0.64-0.47,0.91-0.74c0.28-0.28,0.53-0.59,0.75-0.92c0.22-0.32,0.4-0.67,0.55-1.03
					c0.15-0.36,0.27-0.74,0.34-1.12c0.08-0.39,0.12-0.79,0.12-1.18s-0.04-0.78-0.12-1.17c-0.07-0.38-0.19-0.76-0.34-1.12
					s-0.33-0.71-0.55-1.04c-0.22-0.33-0.47-0.63-0.75-0.91c-0.27-0.28-0.58-0.53-0.91-0.75c-0.33-0.21-0.67-0.4-1.04-0.55
					c-0.36-0.15-0.74-0.26-1.12-0.34c-1.95-0.39-4.02,0.25-5.41,1.64c-0.28,0.28-0.53,0.58-0.75,0.91s-0.4,0.68-0.55,1.04
					s-0.27,0.74-0.34,1.12c-0.08,0.39-0.12,0.78-0.12,1.17s0.04,0.79,0.12,1.18c0.07,0.38,0.19,0.76,0.34,1.12
					c0.15,0.36,0.33,0.71,0.55,1.03c0.22,0.33,0.47,0.64,0.75,0.92C128.467,219.513,130.017,220.153,131.597,220.153z"/>
			</g>
			<path style="fill:#333333;" d="M144.93,205.074c0.39,0,0.79-0.04,1.17-0.11c0.38-0.08,0.76-0.2,1.12-0.35
				c0.37-0.15,0.71-0.33,1.04-0.55c0.33-0.22,0.64-0.47,0.91-0.74c0.28-0.28,0.53-0.59,0.75-0.92c0.22-0.32,0.4-0.67,0.55-1.03
				c0.15-0.36,0.27-0.74,0.34-1.12c0.08-0.39,0.12-0.79,0.12-1.18s-0.04-0.78-0.12-1.17c-0.07-0.38-0.19-0.76-0.34-1.12
				s-0.33-0.71-0.55-1.04c-0.22-0.33-0.47-0.63-0.75-0.91c-0.27-0.28-0.58-0.53-0.91-0.75c-0.33-0.21-0.67-0.4-1.04-0.55
				c-0.36-0.15-0.74-0.26-1.12-0.34c-1.95-0.39-4.02,0.25-5.41,1.64c-0.28,0.28-0.53,0.58-0.75,0.91s-0.4,0.68-0.55,1.04
				c-0.15,0.36-0.27,0.74-0.34,1.12c-0.08,0.39-0.12,0.78-0.12,1.17s0.04,0.79,0.12,1.18c0.07,0.38,0.19,0.76,0.34,1.12
				s0.33,0.71,0.55,1.03c0.22,0.33,0.47,0.64,0.75,0.92C141.801,204.434,143.35,205.074,144.93,205.074z"/>
		</g>
	</g>
	<g>
		<g>
			<g>
				<path style="fill:#333333;" d="M244.345,407.193c-1.58,0-3.13-0.64-4.24-1.75c-1.12-1.12-1.76-2.67-1.76-4.25
					s0.64-3.12,1.76-4.24c1.39-1.39,3.46-2.03,5.41-1.64c0.39,0.08,0.76,0.19,1.13,0.34c0.36,0.15,0.71,0.34,1.03,0.55
					c0.33,0.22,0.64,0.47,0.91,0.75c0.28,0.28,0.53,0.58,0.75,0.91c0.22,0.33,0.4,0.68,0.55,1.04c0.15,0.36,0.27,0.74,0.34,1.12
					c0.08,0.39,0.12,0.78,0.12,1.17s-0.04,0.79-0.12,1.18c-0.07,0.38-0.19,0.76-0.34,1.12s-0.33,0.71-0.55,1.03
					c-0.22,0.33-0.47,0.64-0.75,0.92C247.475,406.553,245.925,407.193,244.345,407.193z"/>
				<path style="fill:#333333;" d="M264.038,405.341c-0.39,0-0.79-0.04-1.17-0.11c-0.38-0.08-0.76-0.2-1.12-0.35
					c-0.37-0.15-0.71-0.33-1.04-0.55c-0.33-0.22-0.64-0.47-0.91-0.74c-0.28-0.28-0.53-0.59-0.75-0.92c-0.22-0.32-0.4-0.67-0.55-1.03
					s-0.27-0.74-0.34-1.12c-0.08-0.39-0.12-0.79-0.12-1.18c0-0.39,0.04-0.78,0.12-1.17c0.07-0.38,0.19-0.76,0.34-1.12
					s0.33-0.71,0.55-1.04c0.22-0.33,0.47-0.63,0.75-0.91c0.27-0.28,0.58-0.53,0.91-0.75c0.33-0.21,0.67-0.4,1.04-0.55
					c0.36-0.15,0.74-0.26,1.12-0.34c1.95-0.39,4.02,0.25,5.41,1.64c0.28,0.28,0.53,0.58,0.75,0.91c0.22,0.33,0.4,0.68,0.55,1.04
					c0.15,0.36,0.27,0.74,0.34,1.12c0.08,0.39,0.12,0.78,0.12,1.17s-0.04,0.79-0.12,1.18c-0.07,0.38-0.19,0.76-0.34,1.12
					s-0.33,0.71-0.55,1.03c-0.22,0.33-0.47,0.64-0.75,0.92C267.168,404.701,265.618,405.341,264.038,405.341z"/>
			</g>
			<path style="fill:#333333;" d="M250.705,390.263c-0.39,0-0.79-0.04-1.17-0.11c-0.38-0.08-0.76-0.2-1.12-0.35
				c-0.37-0.15-0.71-0.33-1.04-0.55c-0.33-0.22-0.64-0.47-0.91-0.74c-0.28-0.28-0.53-0.59-0.75-0.92c-0.22-0.32-0.4-0.67-0.55-1.03
				c-0.15-0.36-0.27-0.74-0.34-1.12c-0.08-0.39-0.12-0.79-0.12-1.18c0-0.39,0.04-0.78,0.12-1.17c0.07-0.38,0.19-0.76,0.34-1.12
				s0.33-0.71,0.55-1.04c0.22-0.33,0.47-0.63,0.75-0.91c0.27-0.28,0.58-0.53,0.91-0.75c0.33-0.21,0.67-0.4,1.04-0.55
				c0.36-0.15,0.74-0.26,1.12-0.34c1.95-0.39,4.02,0.25,5.41,1.64c0.28,0.28,0.53,0.58,0.75,0.91c0.22,0.33,0.4,0.68,0.55,1.04
				c0.15,0.36,0.27,0.74,0.34,1.12c0.08,0.39,0.12,0.78,0.12,1.17s-0.04,0.79-0.12,1.18c-0.07,0.38-0.19,0.76-0.34,1.12
				s-0.33,0.71-0.55,1.03c-0.22,0.33-0.47,0.64-0.75,0.92C253.835,389.623,252.285,390.263,250.705,390.263z"/>
		</g>
		<g>
			<g>
				<path style="fill:#333333;" d="M183.025,407.193c1.58,0,3.13-0.64,4.24-1.75c1.12-1.12,1.76-2.67,1.76-4.25
					s-0.64-3.12-1.76-4.24c-1.39-1.39-3.46-2.03-5.41-1.64c-0.39,0.08-0.76,0.19-1.13,0.34c-0.36,0.15-0.71,0.34-1.03,0.55
					c-0.33,0.22-0.64,0.47-0.91,0.75c-0.28,0.28-0.53,0.58-0.75,0.91c-0.22,0.33-0.4,0.68-0.55,1.04c-0.15,0.36-0.27,0.74-0.34,1.12
					c-0.08,0.39-0.12,0.78-0.12,1.17s0.04,0.79,0.12,1.18c0.07,0.38,0.19,0.76,0.34,1.12s0.33,0.71,0.55,1.03
					c0.22,0.33,0.47,0.64,0.75,0.92C179.895,406.553,181.445,407.193,183.025,407.193z"/>
				<path style="fill:#333333;" d="M163.332,405.341c0.39,0,0.79-0.04,1.17-0.11c0.38-0.08,0.76-0.2,1.12-0.35
					c0.37-0.15,0.71-0.33,1.04-0.55c0.33-0.22,0.64-0.47,0.91-0.74c0.28-0.28,0.53-0.59,0.75-0.92c0.22-0.32,0.4-0.67,0.55-1.03
					c0.15-0.36,0.27-0.74,0.34-1.12c0.08-0.39,0.12-0.79,0.12-1.18c0-0.39-0.04-0.78-0.12-1.17c-0.07-0.38-0.19-0.76-0.34-1.12
					s-0.33-0.71-0.55-1.04c-0.22-0.33-0.47-0.63-0.75-0.91c-0.27-0.28-0.58-0.53-0.91-0.75c-0.33-0.21-0.67-0.4-1.04-0.55
					c-0.36-0.15-0.74-0.26-1.12-0.34c-1.95-0.39-4.02,0.25-5.41,1.64c-0.28,0.28-0.53,0.58-0.75,0.91c-0.22,0.33-0.4,0.68-0.55,1.04
					c-0.15,0.36-0.27,0.74-0.34,1.12c-0.08,0.39-0.12,0.78-0.12,1.17s0.04,0.79,0.12,1.18c0.07,0.38,0.19,0.76,0.34,1.12
					s0.33,0.71,0.55,1.03c0.22,0.33,0.47,0.64,0.75,0.92C160.202,404.701,161.752,405.341,163.332,405.341z"/>
			</g>
			<path style="fill:#333333;" d="M176.665,390.263c0.39,0,0.79-0.04,1.17-0.11c0.38-0.08,0.76-0.2,1.12-0.35
				c0.37-0.15,0.71-0.33,1.04-0.55c0.33-0.22,0.64-0.47,0.91-0.74c0.28-0.28,0.53-0.59,0.75-0.92c0.22-0.32,0.4-0.67,0.55-1.03
				c0.15-0.36,0.27-0.74,0.34-1.12c0.08-0.39,0.12-0.79,0.12-1.18c0-0.39-0.04-0.78-0.12-1.17c-0.07-0.38-0.19-0.76-0.34-1.12
				s-0.33-0.71-0.55-1.04c-0.22-0.33-0.47-0.63-0.75-0.91c-0.27-0.28-0.58-0.53-0.91-0.75c-0.33-0.21-0.67-0.4-1.04-0.55
				c-0.36-0.15-0.74-0.26-1.12-0.34c-1.95-0.39-4.02,0.25-5.41,1.64c-0.28,0.28-0.53,0.58-0.75,0.91c-0.22,0.33-0.4,0.68-0.55,1.04
				c-0.15,0.36-0.27,0.74-0.34,1.12c-0.08,0.39-0.12,0.78-0.12,1.17s0.04,0.79,0.12,1.18c0.07,0.38,0.19,0.76,0.34,1.12
				s0.33,0.71,0.55,1.03c0.22,0.33,0.47,0.64,0.75,0.92C173.535,389.623,175.085,390.263,176.665,390.263z"/>
		</g>
	</g>
	<path style="fill:#333333;" d="M213.68,26.667c-3.313,0-6-2.687-6-6V6c0-3.313,2.687-6,6-6c3.314,0,6,2.687,6,6v14.667
		C219.68,23.98,216.994,26.667,213.68,26.667z"/>
	<g id="XMLID_10_">
		<g>
			<path style="fill:#998675;" d="M245.18,304.02v16.22c0,22.43-12.02,43.14-31.5,54.28c-19.47-11.14-31.49-31.85-31.49-54.28
				v-16.22H245.18z"/>
			<path style="fill:#998675;" d="M213.683,352.156c-8.083-7.878-12.994-18.658-13.456-30.136h26.917
				C226.682,333.5,221.769,344.279,213.683,352.156z"/>
		</g>
		<g>
			<path style="fill:#333333;" d="M213.68,380.52c-1.028,0-2.057-0.264-2.979-0.792c-21.287-12.179-34.511-34.974-34.511-59.487
				V304.02c0-3.313,2.687-6,6-6h62.99c3.313,0,6,2.687,6,6v16.221c0,24.517-13.228,47.312-34.521,59.488
				C215.737,380.256,214.708,380.52,213.68,380.52z M188.19,310.02v10.221c0,19.053,9.683,36.845,25.491,47.242
				c15.812-10.396,25.499-28.188,25.499-47.242V310.02H188.19z"/>
			<path style="fill:#FFFFFF;" d="M213.684,358.156c-1.562,0-3.122-0.605-4.298-1.813c-2.312-2.373-2.263-6.172,0.111-8.484
				c7.116-6.933,11.255-16.194,11.652-26.08c0.134-3.311,2.92-5.872,6.236-5.754c3.311,0.133,5.887,2.926,5.754,6.236
				c-0.521,12.966-5.944,25.109-15.269,34.193C216.704,357.59,215.193,358.156,213.684,358.156z"/>
		</g>
	</g>
</g>
<g>
</g>
<g>
</g>
<g>
</g>
<g>
</g>
<g>
</g>
<g>
</g>
<g>
</g>
<g>
</g>
<g>
</g>
<g>
</g>
<g>
</g>
<g>
</g>
<g>
</g>
<g>
</g>
<g>
</g>
</svg>
