<?xml version="1.0" encoding="iso-8859-1"?>
<!-- Generator: Adobe Illustrator 19.0.0, SVG Export Plug-In . SVG Version: 6.00 Build 0)  -->
<svg version="1.1" id="Layer_1" xmlns="http://www.w3.org/2000/svg" xmlns:xlink="http://www.w3.org/1999/xlink" x="0px" y="0px"
	 viewBox="0 0 419 419" style="enable-background:new 0 0 419 419;" xml:space="preserve">
<g>
	<g>
		<g>
			<circle style="fill:#E8B691;" cx="128.928" cy="146" r="27.89"/>
			<circle style="fill:#E8B691;" cx="290.063" cy="146" r="27.89"/>
		</g>
		<g>
			<path style="fill:#333333;" d="M128.928,179.89c-18.687,0-33.89-15.203-33.89-33.89s15.203-33.89,33.89-33.89
				s33.89,15.203,33.89,33.89S147.615,179.89,128.928,179.89z M128.928,124.11c-12.07,0-21.89,9.82-21.89,21.89
				s9.82,21.89,21.89,21.89s21.89-9.82,21.89-21.89S140.998,124.11,128.928,124.11z"/>
			<path style="fill:#333333;" d="M290.063,179.89c-18.687,0-33.89-15.203-33.89-33.89s15.203-33.89,33.89-33.89
				s33.89,15.203,33.89,33.89S308.75,179.89,290.063,179.89z M290.063,124.11c-12.07,0-21.89,9.82-21.89,21.89
				s9.82,21.89,21.89,21.89s21.89-9.82,21.89-21.89S302.133,124.11,290.063,124.11z"/>
		</g>
	</g>
	<path style="fill:#666666;" d="M258.855,241.97c0.19,0.05,0.39,0.09,0.58,0.14c10.46,2.53,20.19,6.93,28.83,12.81
		c23.39,15.92,38.75,42.77,38.75,73.19V413h-47.04h-140.96h-47.03v-84.89c0-30.42,15.35-57.27,38.74-73.19
		c8.64-5.88,18.37-10.28,28.83-12.81c0.19-0.05,0.39-0.09,0.58-0.14"/>
	<path style="fill:#666666;" d="M139.015,289v124h-47.03v-84.89c0-30.42,15.35-57.27,38.74-73.19
		C136.025,265.12,139.015,276.71,139.015,289z"/>
	<path style="fill:#666666;" d="M327.015,328.11V413h-47.04V289c0-12.29,2.99-23.88,8.29-34.08
		C311.655,270.84,327.015,297.69,327.015,328.11z"/>
	<path style="fill:#E8B691;" d="M259.435,242.11v13.808c0,27.58-22.36,49.94-49.94,49.94s-49.94-22.36-49.94-49.94V242.11
		c0.19-0.05,0.39-0.09,0.58-0.14c14.1,9.49,31.08,15.03,49.36,15.03s35.26-5.54,49.36-15.03
		C259.045,242.02,259.245,242.06,259.435,242.11z"/>
	<path style="opacity:0.44;fill:#333333;enable-background:new    ;" d="M257.875,242.62c-6.74,12.83-16.55,23.81-28.44,31.95
		c-0.19,0.14-0.39,0.27-0.58,0.4c-14.1,9.49-31.08,15.03-49.36,15.03c-6.5,0-6.267-7.273-12.367-8.613
		c-0.66-3.23-7.573-7.467-7.573-10.887v-28.39c0.19-0.05,0.39-0.09,0.58-0.14c14.1,9.49,31.08,15.03,49.36,15.03
		C227.355,257,243.975,251.71,257.875,242.62z"/>
	<path style="fill:#E8B691;" d="M258.855,241.97c-14.1,9.49-31.08,15.03-49.36,15.03s-35.26-5.54-49.36-15.03
		c-0.19-0.13-0.39-0.26-0.58-0.4c-23.28-15.94-38.56-42.72-38.56-73.07V146V94.5c0-48.877,39.623-88.5,88.5-88.5l0,0
		c48.877,0,88.5,39.623,88.5,88.5V146v22.5c0,30.35-15.28,57.13-38.56,73.07C259.245,241.71,259.045,241.84,258.855,241.97z"/>
	<path style="fill:#333333;" d="M209.495,311.858c-30.845,0-55.94-25.095-55.94-55.94V241.57h12v14.348
		c0,24.229,19.711,43.94,43.94,43.94s43.94-19.711,43.94-43.94V241.57h12v14.348C265.435,286.764,240.34,311.858,209.495,311.858z"
		/>
	<g>
		<path style="fill:#333333;" d="M177.885,166.437c-1.58,0-3.13-0.64-4.24-1.75c-1.12-1.12-1.76-2.67-1.76-4.25s0.64-3.12,1.76-4.24
			c1.39-1.39,3.46-2.03,5.41-1.64c0.39,0.08,0.76,0.19,1.13,0.34c0.36,0.15,0.71,0.34,1.03,0.55c0.33,0.22,0.64,0.47,0.91,0.75
			c0.28,0.28,0.53,0.58,0.75,0.91s0.4,0.68,0.55,1.04c0.15,0.36,0.27,0.74,0.34,1.12c0.08,0.39,0.12,0.78,0.12,1.17
			s-0.04,0.79-0.12,1.18c-0.07,0.38-0.19,0.76-0.34,1.12s-0.33,0.71-0.55,1.03c-0.22,0.33-0.47,0.64-0.75,0.92
			C181.015,165.797,179.465,166.437,177.885,166.437z"/>
		<path style="fill:#333333;" d="M245.885,166.437c-0.39,0-0.79-0.04-1.17-0.11c-0.38-0.08-0.76-0.2-1.12-0.35
			c-0.37-0.15-0.71-0.33-1.04-0.55c-0.33-0.22-0.64-0.47-0.91-0.74c-0.28-0.28-0.53-0.59-0.75-0.92c-0.22-0.32-0.4-0.67-0.55-1.03
			c-0.15-0.36-0.27-0.74-0.34-1.12c-0.08-0.39-0.12-0.79-0.12-1.18s0.04-0.78,0.12-1.17c0.07-0.38,0.19-0.76,0.34-1.12
			s0.33-0.71,0.55-1.04c0.22-0.33,0.47-0.63,0.75-0.91c0.27-0.28,0.58-0.53,0.91-0.75c0.33-0.21,0.67-0.4,1.04-0.55
			c0.36-0.15,0.74-0.26,1.12-0.34c1.95-0.39,4.02,0.25,5.41,1.64c0.28,0.28,0.53,0.58,0.75,0.91s0.4,0.68,0.55,1.04
			c0.15,0.36,0.27,0.74,0.34,1.12c0.08,0.39,0.12,0.78,0.12,1.17s-0.04,0.79-0.12,1.18c-0.07,0.38-0.19,0.76-0.34,1.12
			s-0.33,0.71-0.55,1.03c-0.22,0.33-0.47,0.64-0.75,0.92C249.015,165.797,247.465,166.437,245.885,166.437z"/>
	</g>
	<g>
		<path style="fill:#333333;" d="M202.552,180c-3.313,0-6-2.687-6-6v-16.857c0-3.204-2.606-5.81-5.81-5.81h-28.58
			c-3.313,0-6-2.687-6-6s2.687-6,6-6h28.58c9.82,0,17.81,7.989,17.81,17.81V174C208.552,177.313,205.865,180,202.552,180z"/>
		<path style="fill:#333333;" d="M256.829,151.333h-24c-3.313,0-6-2.687-6-6s2.687-6,6-6h24c3.313,0,6,2.687,6,6
			S260.142,151.333,256.829,151.333z"/>
	</g>
	<g>
		<path style="fill:#333333;" d="M221.495,215.333h-24c-3.313,0-6-2.687-6-6s2.687-6,6-6h24c3.313,0,6,2.687,6,6
			S224.809,215.333,221.495,215.333z"/>
	</g>
	<path style="fill:#333333;" d="M285.975,413h-12V289c0-12.816,3.1-25.558,8.966-36.846l10.648,5.533
		c-5.052,9.724-7.614,20.259-7.614,31.313V413z"/>
	<path style="fill:#A67C52;" d="M270.99,193c8.39-13.98,24.6-17.54,26.76-17.95c-2.02,27.63-16.72,51.74-38.32,66.52
		c-0.19,0.14-0.39,0.27-0.57,0.4C244.75,251.46,227.77,257,209.5,257c-18.29,0-35.26-5.54-49.37-15.03
		c-0.18-0.13-0.39-0.26-0.58-0.4c-21.59-14.78-36.29-38.89-38.31-66.52c2.16,0.41,18.37,3.97,26.76,17.95
		c5.56,9.28,17.82,23.9,32.5,32.76c5.61,3.39,12.55,4.07,18.55,1.43c3.19-1.41,6.73-2.19,10.45-2.19s7.25,0.78,10.45,2.19
		c6,2.63,12.94,1.95,18.55-1.43C253.18,216.89,265.43,202.28,270.99,193z"/>
	<path style="fill:#333333;" d="M191.279,234.804c-4.778,0-9.593-1.317-13.881-3.908c-14.811-8.939-28.022-23.926-34.544-34.812
		c-7.249-12.079-22.102-15.019-22.731-15.138c-0.11-0.021-0.22-0.045-0.33-0.072c0.295,0.073,0.445,0.079,0.445,0.079l1.524-11.903
		c0,0,0.251,0.021,0.751,0.137c2.748,0.544,21.018,4.708,30.631,20.727c5.574,9.303,17.48,22.879,30.456,30.711
		c4.084,2.468,8.956,2.869,13.033,1.075c4.048-1.789,8.38-2.698,12.866-2.698c4.473,0,8.803,0.908,12.869,2.699
		c4.073,1.785,8.949,1.384,13.035-1.078c14.9-9.003,26.145-23.537,30.439-30.705c9.615-16.021,27.882-20.186,30.633-20.731
		c0.5-0.116,0.752-0.137,0.752-0.137l1.524,11.903c0,0,0.15-0.005,0.444-0.078c-0.108,0.027-0.218,0.051-0.328,0.072
		c-0.629,0.119-15.482,3.06-22.733,15.142c-6.516,10.876-19.723,25.86-34.532,34.808c-7.424,4.473-16.417,5.14-24.062,1.79
		C215,231.565,212.297,231,209.5,231c-2.805,0-5.505,0.564-8.024,1.678C198.242,234.101,194.771,234.804,191.279,234.804z"/>
	<path style="fill:#FFFFFF;" d="M307.015,399c-3.313,0-6-2.687-6-6v-77c0-3.313,2.687-6,6-6s6,2.687,6,6v77
		C313.015,396.313,310.329,399,307.015,399z"/>
	<g>
		<path style="opacity:0.44;fill:#333333;enable-background:new    ;" d="M135.665,266.92c-15.21,15.89-24.56,37.45-24.56,61.19V411
			h-19.12v-82.89c0-30.42,15.35-57.27,38.74-73.19C132.705,258.74,134.365,262.75,135.665,266.92z"/>
	</g>
	<path style="fill:#333333;" d="M327.015,419H91.985c-3.314,0-6-2.686-6-6v-84.89c0-31.306,15.463-60.521,41.364-78.15
		c9.416-6.408,19.762-11.007,30.752-13.671c0.131-0.033,0.264-0.065,0.397-0.096l0.122-0.028l3.037,11.609
		c-0.153,0.04-0.309,0.077-0.465,0.113l-0.122,0.028c-0.017,0.004-0.087,0.022-0.104,0.026c-9.597,2.321-18.636,6.338-26.865,11.938
		c-22.614,15.392-36.115,40.898-36.115,68.229V407h223.03v-78.89c0-27.327-13.505-52.833-36.126-68.23
		c-8.229-5.6-17.268-9.617-26.865-11.938c-0.037-0.009-0.074-0.019-0.111-0.028l-0.116-0.027c-0.156-0.036-0.312-0.073-0.464-0.113
		l3.038-11.609l0.122,0.028c0.133,0.031,0.266,0.062,0.396,0.095c10.99,2.664,21.336,7.264,30.751,13.671
		c25.908,17.633,41.375,46.848,41.375,78.15V413C333.015,416.314,330.329,419,327.015,419z"/>
	<path style="fill:#333333;" d="M145.015,413h-12V289c0-11.055-2.562-21.59-7.614-31.313l10.648-5.533
		c5.865,11.288,8.966,24.029,8.966,36.847V413z"/>
	<g>
		<path style="fill:#333333;" d="M341,419H78.23c-3.313,0-6-2.687-6-6s2.687-6,6-6H341c3.313,0,6,2.687,6,6S344.313,419,341,419z"/>
		<path style="fill:#333333;" d="M373,419h-11c-3.313,0-6-2.687-6-6s2.687-6,6-6h11c3.313,0,6,2.687,6,6S376.313,419,373,419z"/>
		<path style="fill:#333333;" d="M57,419H46c-3.313,0-6-2.687-6-6s2.687-6,6-6h11c3.313,0,6,2.687,6,6S60.313,419,57,419z"/>
	</g>
	<path style="opacity:0.44;fill:#333333;enable-background:new    ;" d="M191.135,241.97c10.02,6.74,21.5,11.49,33.86,13.68
		c-5.03,0.89-10.21,1.35-15.5,1.35c-18.28,0-35.26-5.54-49.36-15.03c-0.19-0.13-0.39-0.26-0.58-0.4
		c-23.28-15.94-38.56-42.72-38.56-73.07V146c0-139,54.89-137.301,54.89-134.411l-10.384,15.807
		c-15.364,23.387-15.305,53.174-0.958,76.231c2.423,3.895,10.151,17.294,10.019,20.366c-0.483,11.29-9.201,21.36-21.338,21.975
		c-0.407,0.021-0.817,0.031-1.229,0.031v22.5c0,30.35,15.28,57.13,38.56,73.07C190.745,241.71,190.945,241.84,191.135,241.97z"/>
	<path style="fill:#666666;" d="M297.99,94.5V129H121V94.5C121,45.62,160.62,6,209.49,6h0.01C258.37,6,297.99,45.62,297.99,94.5z"/>
	<path style="opacity:0.44;fill:#333333;enable-background:new    ;" d="M228,7.94c-39.99,8.5-69.99,44.02-69.99,86.56V129H121V94.5
		C121,45.62,160.62,6,209.49,6h0.01C215.84,6,222.03,6.67,228,7.94z"/>
	<path style="fill:#333333;" d="M209.5,263c-18.875,0-37.105-5.55-52.718-16.051c-0.057-0.038-0.113-0.077-0.168-0.118l-0.092-0.061
		c-0.142-0.095-0.286-0.193-0.425-0.292c-23.853-16.358-38.738-42.229-40.84-70.99c-0.17-2.291-0.256-4.644-0.256-6.988v-74
		C115,42.393,157.388,0,209.49,0c52.112,0,94.5,42.393,94.5,94.5v74c0,2.344-0.086,4.697-0.257,6.994
		c-2.102,28.756-16.987,54.625-40.844,70.979c-0.122,0.088-0.246,0.174-0.368,0.258l-0.137,0.095
		c-0.057,0.042-0.117,0.083-0.175,0.123C246.595,257.45,228.369,263,209.5,263z M163.542,237.034
		C177.155,246.171,193.044,251,209.5,251c16.446,0,32.33-4.827,45.941-13.961c0.091-0.064,0.185-0.129,0.28-0.195l0.155-0.108
		c0.054-0.04,0.11-0.08,0.166-0.118c20.866-14.278,33.887-36.878,35.724-62.006c0.149-2.009,0.224-4.064,0.224-6.113v-74
		c0-45.491-37.005-82.5-82.49-82.5C164.005,12,127,49.009,127,94.5v74c0,2.049,0.075,4.104,0.224,6.106
		c1.837,25.131,14.855,47.732,35.716,62.013c0.055,0.038,0.11,0.077,0.165,0.117l0.099,0.066
		C163.319,236.88,163.433,236.957,163.542,237.034z"/>
	<path style="fill:#333333;" d="M255.99,111h-12V94.5c0-22.798-4.018-44.136-11.313-60.084C226.16,20.17,217.714,12,209.503,12
		c-8.227,0-16.673,8.17-23.19,22.416C179.018,50.364,175,71.702,175,94.5V111h-12V94.5c0-24.484,4.404-47.595,12.401-65.076
		C184.081,10.45,196.187,0,209.487,0c13.317,0,25.422,10.45,34.102,29.424c7.997,17.481,12.401,40.592,12.401,65.076V111z"/>
	<path style="fill:#FFFFFF;" d="M279.993,100.499c-0.39,0-0.79-0.04-1.18-0.12c-0.38-0.07-0.76-0.19-1.12-0.34
		c-0.36-0.15-0.71-0.33-1.03-0.55c-0.33-0.22-0.64-0.47-0.92-0.75c-0.27-0.27-0.52-0.58-0.74-0.91c-0.22-0.32-0.4-0.67-0.55-1.03
		c-0.15-0.37-0.27-0.74-0.35-1.13c-0.07-0.38-0.11-0.78-0.11-1.17s0.04-0.78,0.11-1.17c0.08-0.38,0.2-0.76,0.35-1.12
		c0.15-0.37,0.33-0.72,0.55-1.04c0.22-0.33,0.47-0.64,0.74-0.91c0.28-0.28,0.59-0.53,0.92-0.75c0.32-0.21,0.67-0.4,1.03-0.55
		s0.74-0.26,1.12-0.34c1.96-0.39,4.03,0.25,5.42,1.64c0.28,0.27,0.53,0.58,0.75,0.91c0.21,0.32,0.4,0.67,0.55,1.04
		c0.15,0.36,0.26,0.74,0.34,1.12c0.08,0.39,0.12,0.78,0.12,1.17s-0.04,0.79-0.12,1.17c-0.08,0.39-0.19,0.76-0.34,1.13
		c-0.15,0.36-0.34,0.71-0.55,1.03c-0.22,0.33-0.47,0.64-0.75,0.91C283.113,99.859,281.573,100.499,279.993,100.499z"/>
	<path style="fill:#FFFFFF;" d="M275.964,77.001c-2.47,0-4.783-1.536-5.655-3.997c-4.955-13.975-14.694-25.933-27.426-33.67
		c-2.832-1.721-3.732-5.412-2.011-8.244c1.72-2.831,5.411-3.733,8.244-2.011c15.085,9.168,26.628,23.344,32.504,39.915
		c1.107,3.123-0.527,6.553-3.65,7.66C277.306,76.89,276.629,77.001,275.964,77.001z"/>
	<polygon style="fill:#333333;" points="298,135 120,135 120,123 297.99,123 	"/>
	<rect x="120" y="105" style="fill:#333333;" width="179" height="12"/>
</g>
<g>
</g>
<g>
</g>
<g>
</g>
<g>
</g>
<g>
</g>
<g>
</g>
<g>
</g>
<g>
</g>
<g>
</g>
<g>
</g>
<g>
</g>
<g>
</g>
<g>
</g>
<g>
</g>
<g>
</g>
</svg>
