<?xml version="1.0" encoding="iso-8859-1"?>
<!-- Generator: Adobe Illustrator 19.0.0, SVG Export Plug-In . SVG Version: 6.00 Build 0)  -->
<svg version="1.1" id="Layer_1" xmlns="http://www.w3.org/2000/svg" xmlns:xlink="http://www.w3.org/1999/xlink" x="0px" y="0px"
	 viewBox="0 0 460.923 460.923" style="enable-background:new 0 0 460.923 460.923;" xml:space="preserve">
<g>
	<g>
		<g>
			<circle style="fill:#FFD3AE;" cx="149.889" cy="187.923" r="27.89"/>
			<circle style="fill:#FFD3AE;" cx="311.024" cy="187.923" r="27.89"/>
		</g>
		<g>
			<path style="fill:#333333;" d="M149.889,221.813c-18.687,0-33.89-15.203-33.89-33.89s15.203-33.89,33.89-33.89
				s33.89,15.203,33.89,33.89S168.576,221.813,149.889,221.813z M149.889,166.032c-12.07,0-21.89,9.82-21.89,21.89
				s9.82,21.89,21.89,21.89s21.89-9.82,21.89-21.89S161.959,166.032,149.889,166.032z"/>
			<path style="fill:#333333;" d="M311.025,221.813c-18.688,0-33.891-15.203-33.891-33.89s15.203-33.89,33.891-33.89
				c18.687,0,33.89,15.203,33.89,33.89S329.711,221.813,311.025,221.813z M311.025,166.032c-12.07,0-21.891,9.82-21.891,21.89
				s9.82,21.89,21.891,21.89s21.89-9.82,21.89-21.89S323.095,166.032,311.025,166.032z"/>
		</g>
	</g>
	<path style="fill:#9AD14B;" d="M279.816,283.893c0.19,0.05,0.39,0.09,0.58,0.14c10.46,2.53,20.19,6.93,28.83,12.81
		c23.39,15.92,38.75,42.77,38.75,73.19v84.89h-47.04h-140.96h-47.03v-84.89c0-30.42,15.35-57.27,38.74-73.19
		c8.64-5.88,18.37-10.28,28.83-12.81c0.19-0.05,0.39-0.09,0.58-0.14"/>
	<path style="fill:#FFD3AE;" d="M159.976,330.923v124h-47.03v-84.89c0-30.42,15.35-57.27,38.74-73.19
		C156.986,307.043,159.976,318.633,159.976,330.923z"/>
	<path style="fill:#FFD3AE;" d="M347.976,370.033v84.89h-47.04v-124c0-12.29,2.99-23.88,8.29-34.08
		C332.616,312.763,347.976,339.613,347.976,370.033z"/>
	<path style="fill:#FFD3AE;" d="M279.816,283.893c-14.1,9.49-31.08,15.03-49.36,15.03s-35.26-5.54-49.36-15.03
		c-0.19-0.13-0.39-0.26-0.58-0.4c-23.28-15.94-38.56-42.72-38.56-73.07v-22.5v-51.5c0-48.877,39.623-88.5,88.5-88.5l0,0
		c48.877,0,88.5,39.623,88.5,88.5v51.5v22.5c0,30.35-15.28,57.13-38.56,73.07C280.206,283.633,280.006,283.763,279.816,283.893z"/>
	<path style="opacity:0.44;fill:#333333;enable-background:new    ;" d="M212.096,283.893c10.02,6.74,21.5,11.49,33.86,13.68
		c-5.03,0.89-10.21,1.35-15.5,1.35c-18.28,0-35.26-5.54-49.36-15.03c-0.19-0.13-0.39-0.26-0.58-0.4
		c-23.28-15.94-38.56-42.72-38.56-73.07v-22.5c0-139,54.89-137.301,54.89-134.411l-10.384,15.807
		c-15.364,23.387-15.305,53.174-0.958,76.231c2.423,3.895,10.151,17.294,10.019,20.366c-0.483,11.29-9.201,21.36-21.338,21.975
		c-0.407,0.021-0.817,0.031-1.229,0.031v22.5c0,30.35,15.28,57.13,38.56,73.07C211.706,283.633,211.906,283.763,212.096,283.893z"/>
	<g>
		<path style="fill:#333333;" d="M264.083,76.758c16.565,9.373,28.862,25.444,33.184,44.509"/>
		<path style="fill:#FFFFFF;" d="M297.261,127.268c-2.74,0-5.215-1.89-5.846-4.675c-3.879-17.114-14.918-31.917-30.287-40.613
			c-2.884-1.632-3.898-5.293-2.267-8.177c1.632-2.883,5.293-3.898,8.177-2.267c18.305,10.358,31.455,28.001,36.08,48.405
			c0.732,3.231-1.294,6.445-4.525,7.178C298.147,127.219,297.701,127.268,297.261,127.268z"/>
	</g>
	<g>
		<path style="fill:#333333;" d="M198.846,208.359c-1.58,0-3.13-0.64-4.24-1.75c-1.12-1.12-1.76-2.67-1.76-4.25s0.64-3.12,1.76-4.24
			c1.39-1.39,3.46-2.03,5.41-1.64c0.39,0.08,0.76,0.19,1.13,0.34c0.36,0.15,0.71,0.34,1.03,0.55c0.33,0.22,0.64,0.47,0.91,0.75
			c0.28,0.28,0.53,0.58,0.75,0.91s0.4,0.68,0.55,1.04c0.15,0.36,0.27,0.74,0.34,1.12c0.08,0.39,0.12,0.78,0.12,1.17
			s-0.04,0.79-0.12,1.18c-0.07,0.38-0.19,0.76-0.34,1.12s-0.33,0.71-0.55,1.03c-0.22,0.33-0.47,0.64-0.75,0.92
			C201.976,207.719,200.426,208.359,198.846,208.359z"/>
		<path style="fill:#333333;" d="M266.846,208.359c-0.39,0-0.79-0.04-1.17-0.11c-0.38-0.08-0.76-0.2-1.12-0.35
			c-0.37-0.15-0.71-0.33-1.04-0.55c-0.33-0.22-0.64-0.47-0.91-0.74c-0.28-0.28-0.53-0.59-0.75-0.92c-0.22-0.32-0.4-0.67-0.55-1.03
			s-0.27-0.74-0.34-1.12c-0.08-0.39-0.12-0.79-0.12-1.18s0.04-0.78,0.12-1.17c0.07-0.38,0.19-0.76,0.34-1.12s0.33-0.71,0.55-1.04
			c0.22-0.33,0.47-0.63,0.75-0.91c0.27-0.28,0.58-0.53,0.91-0.75c0.33-0.21,0.67-0.4,1.04-0.55c0.36-0.15,0.74-0.26,1.12-0.34
			c1.95-0.39,4.02,0.25,5.41,1.64c0.28,0.28,0.53,0.58,0.75,0.91s0.4,0.68,0.55,1.04s0.27,0.74,0.34,1.12
			c0.08,0.39,0.12,0.78,0.12,1.17s-0.04,0.79-0.12,1.18c-0.07,0.38-0.19,0.76-0.34,1.12s-0.33,0.71-0.55,1.03
			c-0.22,0.33-0.47,0.64-0.75,0.92C269.976,207.719,268.426,208.359,266.846,208.359z"/>
	</g>
	<g>
		<path style="fill:#333333;" d="M223.513,221.923c-3.313,0-6-2.687-6-6v-16.857c0-3.204-2.606-5.81-5.81-5.81h-28.58
			c-3.313,0-6-2.687-6-6s2.687-6,6-6h28.58c9.82,0,17.81,7.99,17.81,17.81v16.857C229.513,219.236,226.827,221.923,223.513,221.923z
			"/>
		<path style="fill:#333333;" d="M277.79,193.256h-24c-3.313,0-6-2.687-6-6s2.687-6,6-6h24c3.313,0,6,2.687,6,6
			S281.104,193.256,277.79,193.256z"/>
	</g>
	<g>
		<path style="fill:#333333;" d="M242.456,257.256h-24c-3.313,0-6-2.687-6-6s2.687-6,6-6h24c3.313,0,6,2.687,6,6
			S245.77,257.256,242.456,257.256z"/>
	</g>
	<path style="fill:#9AD14B;" d="M347.976,370.033l-45.7,19.89h-1.34v-59c0-12.29,2.99-23.88,8.29-34.08
		C332.616,312.763,347.976,339.613,347.976,370.033z"/>
	<path style="fill:#9AD14B;" d="M159.976,330.923v59l-47.03-19.89c0-30.42,15.35-57.27,38.74-73.19
		C156.986,307.043,159.976,318.633,159.976,330.923z"/>
	<path style="fill:#333333;" d="M306.936,454.923h-12v-124c0-12.816,3.101-25.558,8.966-36.847l10.648,5.533
		c-5.053,9.724-7.614,20.26-7.614,31.313V454.923z"/>
	
		<rect x="319.153" y="353.574" transform="matrix(0.4338 0.901 -0.901 0.4338 525.5224 -78.4148)" style="fill:#333333;" width="12" height="50.719"/>
	<path style="fill:#FFFFFF;" d="M327.976,440.923c-3.313,0-6-2.687-6-6v-39.5c0-3.313,2.687-6,6-6s6,2.687,6,6v39.5
		C333.976,438.236,331.289,440.923,327.976,440.923z"/>
	<g>
		<path style="opacity:0.44;fill:#333333;enable-background:new    ;" d="M156.626,308.843c-15.21,15.89-24.56,37.45-24.56,61.19
			v19.89h-19.12v-19.89c0-30.42,15.35-57.27,38.74-73.19C153.666,300.663,155.326,304.673,156.626,308.843z"/>
		<rect x="114.013" y="389.923" style="opacity:0.44;fill:#333333;enable-background:new    ;" width="16.63" height="65"/>
	</g>
	<path style="fill:#FFD3AE;" d="M279.58,284.053c-3.96,21.59-21.81,38.32-43.94,40.6c-1.71,0.18-3.43,0.27-5.18,0.27
		c-24.48,0-44.85-17.62-49.12-40.87c14.05,9.39,30.94,14.87,49.12,14.87S265.53,293.443,279.58,284.053z"/>
	<path style="fill:#333333;" d="M230.46,304.923c-18.75,0-36.87-5.48-52.407-15.851c-0.077-0.05-0.153-0.102-0.23-0.153
		c-0.037-0.024-0.073-0.049-0.109-0.073l-0.133-0.09c-0.173-0.117-0.348-0.235-0.519-0.358
		c-25.74-17.656-41.102-46.799-41.102-77.975v-74c0-52.107,42.393-94.5,94.5-94.5c25.243,0,48.975,9.829,66.822,27.677
		c17.849,17.86,27.678,41.591,27.678,66.823v74c0,31.176-15.364,60.319-41.104,77.976c-0.167,0.12-0.338,0.236-0.507,0.35
		l-0.137,0.093c-0.041,0.028-0.083,0.057-0.125,0.084c-0.076,0.053-0.148,0.101-0.218,0.146
		C267.333,299.44,249.211,304.923,230.46,304.923z M184.61,279.022c0.021,0.014,0.042,0.027,0.064,0.042
		c13.566,9.066,29.399,13.858,45.786,13.858c16.388,0,32.22-4.792,45.786-13.858c0.022-0.015,0.044-0.029,0.066-0.044
		c0.069-0.048,0.135-0.092,0.199-0.134l0.133-0.09c0.068-0.047,0.14-0.093,0.208-0.143c0.052-0.038,0.104-0.075,0.158-0.111
		c22.51-15.414,35.949-40.88,35.949-68.12v-74c0-22.028-8.582-42.747-24.164-58.339c-15.58-15.58-36.299-24.161-58.336-24.161
		c-45.491,0-82.5,37.009-82.5,82.5v74c0,27.241,13.439,52.706,35.95,68.12c0.055,0.037,0.111,0.076,0.165,0.116
		c0.067,0.05,0.138,0.096,0.208,0.142l0.127,0.086C184.476,278.93,184.543,278.975,184.61,279.022z"/>
	<path style="fill:#333333;" d="M230.46,330.923c-27.009,0-50.149-19.256-55.021-45.786l11.803-2.168
		c3.826,20.833,22.002,35.954,43.219,35.954c1.528,0,3.059-0.08,4.549-0.237c19.282-1.986,35.177-16.672,38.67-35.715l11.803,2.164
		c-4.448,24.255-24.691,42.959-49.228,45.486C234.363,330.82,232.409,330.923,230.46,330.923z"/>
	<path style="fill:#333333;" d="M165.976,454.923h-12v-124c0-11.054-2.562-21.59-7.614-31.313l10.648-5.533
		c5.866,11.289,8.966,24.03,8.966,36.847V454.923z"/>
	
		<rect x="110.508" y="372.923" transform="matrix(0.9058 0.4237 -0.4237 0.9058 173.405 -22.1285)" style="fill:#333333;" width="51.922" height="12"/>
	<path style="fill:#FFFFFF;" d="M297.267,157.256c-3.313,0-6-2.687-6-6v-10.667c0-3.313,2.687-6,6-6s6,2.687,6,6v10.667
		C303.267,154.569,300.58,157.256,297.267,157.256z"/>
	<path style="fill:#F7774B;" d="M246.81,12.593l6.29,20c-6.78-4.79-14.71-7.19-22.64-7.19s-15.86,2.4-22.65,7.19l6.29-20l0.01-0.01
		C223.2,3.703,237.72,3.703,246.81,12.593z"/>
	<path style="fill:#F7774B;" d="M253.1,32.593l-8.67,66.66h-27.95l-8.67-66.66c6.79-4.79,14.72-7.19,22.65-7.19
		C238.39,25.403,246.32,27.803,253.1,32.593z"/>
	<path style="fill:#333333;" d="M284.482,177.253c-1.58,0-3.13-0.64-4.25-1.76c-1.109-1.11-1.75-2.66-1.75-4.24
		s0.641-3.12,1.75-4.24c1.12-1.12,2.67-1.76,4.25-1.76s3.12,0.64,4.24,1.76s1.76,2.66,1.76,4.24s-0.64,3.13-1.76,4.24
		C287.602,176.613,286.062,177.253,284.482,177.253z"/>
	<g>
		<path style="fill:#333333;" d="M361.961,460.923H99.191c-3.313,0-6-2.687-6-6s2.687-6,6-6h262.77c3.313,0,6,2.687,6,6
			S365.275,460.923,361.961,460.923z"/>
		<path style="fill:#333333;" d="M393.961,460.923h-11c-3.313,0-6-2.687-6-6s2.687-6,6-6h11c3.313,0,6,2.687,6,6
			S397.275,460.923,393.961,460.923z"/>
		<path style="fill:#333333;" d="M77.961,460.923h-11c-3.313,0-6-2.687-6-6s2.687-6,6-6h11c3.313,0,6,2.687,6,6
			S81.275,460.923,77.961,460.923z"/>
	</g>
	<path style="opacity:0.44;fill:#333333;enable-background:new    ;" d="M278.84,284.543c-6.74,12.83-16.55,23.81-28.44,31.95
		c-0.19,0.14-0.39,0.27-0.58,0.4c-4.46,3-9.2,5.61-14.18,7.76c-1.71,0.18-3.43,0.27-5.18,0.27c-24.48,0-44.85-17.62-49.12-40.87
		c14.05,9.39,30.94,14.87,49.12,14.87C248.32,298.923,264.94,293.633,278.84,284.543z"/>
	<path style="fill:#3B63A3;" d="M285.58,454.923h-12v-111.4c0-20.794,7.566-40.842,21.306-56.45l9.008,7.93
		c-11.81,13.415-18.313,30.646-18.313,48.521v111.399L285.58,454.923L285.58,454.923z"/>
	<path style="fill:#3B63A3;" d="M187.34,454.923h-12v-111.4c0-17.874-6.504-35.105-18.313-48.521l9.007-7.93
		c13.74,15.608,21.307,35.655,21.307,56.45v111.401L187.34,454.923L187.34,454.923z"/>
	<polygon style="opacity:0.44;fill:#333333;enable-background:new    ;" points="216.48,99.256 230.455,93.923 226.813,23.923 
		208.256,35.995 	"/>
	<path style="fill:#333333;" d="M244.43,105.253h-27.95c-3.015,0-5.561-2.237-5.95-5.226l-8.67-66.66
		c-0.287-2.208,0.672-4.393,2.491-5.677c7.685-5.421,16.713-8.287,26.108-8.287c9.4,0,18.427,2.867,26.102,8.29
		c1.817,1.284,2.775,3.468,2.488,5.674l-8.67,66.66C249.992,103.016,247.445,105.253,244.43,105.253z M221.75,93.253h17.409
		l7.497-57.641c-4.938-2.763-10.472-4.209-16.196-4.209c-5.723,0-11.261,1.447-16.207,4.212L221.75,93.253z"/>
	<path style="fill:#333333;" d="M247.376,34.393l-5.802-18.449c-6.392-5.305-15.847-5.307-22.238,0l-5.802,18.449l-11.447-3.601
		l6.29-20c0.29-0.921,0.798-1.759,1.481-2.442c11.39-11.127,29.82-11.123,41.147-0.047c0.707,0.691,1.231,1.546,1.528,2.489l6.29,20
		L247.376,34.393z"/>
	<rect x="224.455" y="25.508" style="fill:#333333;" width="12" height="73.747"/>
	<path style="fill:#333333;" d="M347.98,460.923H112.95c-3.314,0-6-2.687-6-6v-84.89c0-31.307,15.463-60.521,41.364-78.15
		c9.414-6.407,19.756-11.005,30.741-13.668c0.136-0.035,0.275-0.068,0.414-0.101l0.118-0.027l3.031,11.61
		c-0.145,0.038-0.293,0.073-0.441,0.107l-0.119,0.028c-0.019,0.005-0.108,0.027-0.128,0.032c-9.595,2.32-18.634,6.337-26.865,11.938
		c-22.614,15.393-36.116,40.899-36.116,68.23v78.89h223.03v-78.89c0-27.327-13.505-52.834-36.126-68.23
		c-8.23-5.601-17.269-9.617-26.864-11.938c-0.048-0.012-0.096-0.023-0.144-0.037l-0.102-0.023c-0.151-0.035-0.303-0.07-0.449-0.109
		l3.051-11.605l-1.525,5.803l1.519-5.805l0.114,0.027c0.139,0.031,0.276,0.064,0.412,0.1c10.984,2.663,21.327,7.262,30.74,13.668
		c25.907,17.633,41.374,46.848,41.374,78.15v84.89C353.98,458.236,351.293,460.923,347.98,460.923z"/>
</g>
<g>
</g>
<g>
</g>
<g>
</g>
<g>
</g>
<g>
</g>
<g>
</g>
<g>
</g>
<g>
</g>
<g>
</g>
<g>
</g>
<g>
</g>
<g>
</g>
<g>
</g>
<g>
</g>
<g>
</g>
</svg>
