<?xml version="1.0" encoding="iso-8859-1"?>
<!-- Generator: Adobe Illustrator 19.0.0, SVG Export Plug-In . SVG Version: 6.00 Build 0)  -->
<svg version="1.1" id="Layer_1" xmlns="http://www.w3.org/2000/svg" xmlns:xlink="http://www.w3.org/1999/xlink" x="0px" y="0px"
	 viewBox="0 0 455.063 455.063" style="enable-background:new 0 0 455.063 455.063;" xml:space="preserve">
<g>
	<path style="fill:#333333;" d="M316.025,37.692h-177c-3.313,0-6-2.686-6-6s2.687-6,6-6h177c3.313,0,6,2.686,6,6
		S319.339,37.692,316.025,37.692z"/>
	<path style="fill:#FFD3AE;" d="M277.47,278.402v36.97c0,4.13-0.07,8.22-0.21,12.25c-2.31,68.09-23.69,121.44-49.73,121.44
		c-4.55,0-8.95-1.63-13.14-4.67c-21.2-15.45-36.8-67.36-36.8-129.02v-36.97c0.19-0.13,0.39-0.24,0.58-0.37
		c0.32,2.66,31.08,15.03,49.36,15.03s48.96-10.37,49.36-15.03C277.08,278.162,277.28,278.272,277.47,278.402z"/>
	<path style="fill:#996822;" d="M227.53,6c20.04,0,36.28,11.02,36.28,24.61c0,13.6-16.24,24.62-36.28,24.62
		s-36.29-11.02-36.29-24.62C191.24,17.02,207.49,6,227.53,6z"/>
	<path style="opacity:0.44;fill:#333333;enable-background:new    ;" d="M220.24,30.61c0-10.093,8.967-18.764,21.789-22.56
		C237.588,6.734,232.687,6,227.53,6c-20.04,0-36.29,11.02-36.29,24.61c0,13.6,16.25,24.62,36.29,24.62
		c5.157,0,10.058-0.734,14.499-2.05C229.207,49.383,220.24,40.711,220.24,30.61z"/>
	<path style="fill:#333333;" d="M227.53,61.23c-23.714,0-42.29-13.45-42.29-30.62C185.24,13.446,203.816,0,227.53,0
		c23.708,0,42.28,13.446,42.28,30.61C269.811,47.78,251.239,61.23,227.53,61.23z M227.53,12c-16.419,0-30.29,8.522-30.29,18.61
		c0,10.093,13.871,18.62,30.29,18.62c16.414,0,30.28-8.527,30.28-18.62C257.811,20.522,243.944,12,227.53,12z"/>
	<g>
		<g>
			<circle style="fill:#FFD3AE;" cx="146.959" cy="182.06" r="27.89"/>
			<circle style="fill:#FFD3AE;" cx="308.094" cy="182.06" r="27.89"/>
		</g>
		<g>
			<path style="fill:#333333;" d="M146.959,215.95c-18.687,0-33.89-15.203-33.89-33.89s15.203-33.89,33.89-33.89
				s33.89,15.203,33.89,33.89S165.646,215.95,146.959,215.95z M146.959,160.17c-12.07,0-21.89,9.82-21.89,21.89
				s9.82,21.89,21.89,21.89s21.89-9.82,21.89-21.89S159.029,160.17,146.959,160.17z"/>
			<path style="fill:#333333;" d="M308.094,215.95c-18.687,0-33.89-15.203-33.89-33.89s15.203-33.89,33.89-33.89
				s33.89,15.203,33.89,33.89S326.781,215.95,308.094,215.95z M308.094,160.17c-12.07,0-21.89,9.82-21.89,21.89
				s9.82,21.89,21.89,21.89s21.89-9.82,21.89-21.89S320.164,160.17,308.094,160.17z"/>
		</g>
	</g>
	<path style="opacity:0.44;fill:#333333;enable-background:new    ;" d="M277.26,327.622c-2.31,68.09-23.69,121.44-49.73,121.44
		c-4.55,0-8.95-1.63-13.14-4.67v-66.97c14.043-4.23,25.48-14.47,31.315-27.73C248.409,343.548,268.99,322.242,277.26,327.622z"/>
	<path style="fill:#C5DB75;" d="M213.11,339.792v109.27H110.02v-84.89c0-30.42,15.35-57.27,38.74-73.19
		c8.64-5.88,18.37-10.28,28.83-12.81v13.81C177.59,314.542,192.56,333.612,213.11,339.792z"/>
	<path style="fill:#C5DB75;" d="M345.05,364.172v84.89h-103.1v-109.27c20.55-6.19,35.52-25.25,35.52-47.81v-13.81
		c10.46,2.53,20.19,6.93,28.83,12.81C329.69,306.902,345.05,333.752,345.05,364.172z"/>
	<path style="fill:#C5DB75;" d="M157.046,325.06v124h-47.03v-84.89c0-30.42,15.35-57.27,38.74-73.19
		C154.056,301.18,157.046,312.77,157.046,325.06z"/>
	<path style="fill:#C5DB75;" d="M345.046,364.17v84.89h-47.04v-124c0-12.29,2.99-23.88,8.29-34.08
		C329.686,306.9,345.046,333.75,345.046,364.17z"/>
	<path style="opacity:0.44;fill:#333333;enable-background:new    ;" d="M275.908,278.68c-6.74,12.83-16.55,23.81-28.44,31.95
		c-0.19,0.14-0.39,0.27-0.58,0.4c-14.1,9.49-31.08,15.03-49.36,15.03c-6.5,0-6.267-7.273-12.367-8.613
		c-0.66-3.23-7.573-7.467-7.573-10.887v-28.39c0.19-0.05,0.39-0.09,0.58-0.14c14.1,9.49,31.08,15.03,49.36,15.03
		C245.387,293.06,262.007,287.77,275.908,278.68z"/>
	<path style="fill:#FFD3AE;" d="M276.886,278.03c-14.1,9.49-31.08,15.03-49.36,15.03s-35.26-5.54-49.36-15.03
		c-0.19-0.13-0.39-0.26-0.58-0.4c-23.28-15.94-38.56-42.72-38.56-73.07v-22.5v-51.5c0-48.877,39.623-88.5,88.5-88.5l0,0
		c48.877,0,88.5,39.623,88.5,88.5v51.5v22.5c0,30.35-15.28,57.13-38.56,73.07C277.276,277.77,277.076,277.9,276.886,278.03z"/>
	<g>
		<path style="fill:#333333;" d="M227.526,62.06c4.631,0,9.156,0.462,13.531,1.342"/>
		<path style="fill:#FFFFFF;" d="M241.064,69.403c-0.392,0-0.79-0.039-1.189-0.119c-4.039-0.812-8.193-1.224-12.348-1.224
			c-3.313,0-6-2.686-6-6s2.687-6,6-6c4.948,0,9.898,0.491,14.714,1.46c3.249,0.653,5.353,3.817,4.699,7.065
			C246.367,67.435,243.863,69.403,241.064,69.403z"/>
	</g>
	<g>
		<path style="fill:#333333;" d="M195.916,202.497c-1.58,0-3.13-0.64-4.24-1.75c-1.12-1.12-1.76-2.67-1.76-4.25s0.64-3.12,1.76-4.24
			c1.39-1.39,3.46-2.03,5.41-1.64c0.39,0.08,0.76,0.19,1.13,0.34c0.36,0.15,0.71,0.34,1.03,0.55c0.33,0.22,0.64,0.47,0.91,0.75
			c0.28,0.28,0.53,0.58,0.75,0.91s0.4,0.68,0.55,1.04c0.15,0.36,0.27,0.74,0.34,1.12c0.08,0.39,0.12,0.78,0.12,1.17
			s-0.04,0.79-0.12,1.18c-0.07,0.38-0.19,0.76-0.34,1.12s-0.33,0.71-0.55,1.03c-0.22,0.33-0.47,0.64-0.75,0.92
			C199.046,201.857,197.497,202.497,195.916,202.497z"/>
		<path style="fill:#333333;" d="M263.916,202.497c-0.39,0-0.79-0.04-1.17-0.11c-0.38-0.08-0.76-0.2-1.12-0.35
			c-0.37-0.15-0.71-0.33-1.04-0.55c-0.33-0.22-0.64-0.47-0.91-0.74c-0.28-0.28-0.53-0.59-0.75-0.92c-0.22-0.32-0.4-0.67-0.55-1.03
			s-0.27-0.74-0.34-1.12c-0.08-0.39-0.12-0.79-0.12-1.18s0.04-0.78,0.12-1.17c0.07-0.38,0.19-0.76,0.34-1.12s0.33-0.71,0.55-1.04
			c0.22-0.33,0.47-0.63,0.75-0.91c0.27-0.28,0.58-0.53,0.91-0.75c0.33-0.21,0.67-0.4,1.04-0.55c0.36-0.15,0.74-0.26,1.12-0.34
			c1.95-0.39,4.02,0.25,5.41,1.64c0.28,0.28,0.53,0.58,0.75,0.91s0.4,0.68,0.55,1.04s0.27,0.74,0.34,1.12
			c0.08,0.39,0.12,0.78,0.12,1.17s-0.04,0.79-0.12,1.18c-0.07,0.38-0.19,0.76-0.34,1.12s-0.33,0.71-0.55,1.03
			c-0.22,0.33-0.47,0.64-0.75,0.92C267.046,201.857,265.497,202.497,263.916,202.497z"/>
	</g>
	<g>
		<path style="fill:#333333;" d="M220.583,216.06c-3.313,0-6-2.687-6-6v-16.857c0-3.204-2.606-5.81-5.81-5.81h-28.58
			c-3.313,0-6-2.687-6-6s2.687-6,6-6h28.58c9.82,0,17.81,7.989,17.81,17.81v16.857C226.583,213.374,223.896,216.06,220.583,216.06z"
			/>
		<path style="fill:#333333;" d="M274.86,187.394h-24c-3.313,0-6-2.687-6-6s2.687-6,6-6h24c3.313,0,6,2.687,6,6
			S278.173,187.394,274.86,187.394z"/>
	</g>
	<g>
		<path style="fill:#333333;" d="M239.526,251.394h-24c-3.313,0-6-2.687-6-6s2.687-6,6-6h24c3.313,0,6,2.687,6,6
			S242.84,251.394,239.526,251.394z"/>
	</g>
	<path style="fill:#333333;" d="M304.007,449.06h-12v-124c0-12.816,3.1-25.558,8.966-36.846l10.648,5.533
		c-5.052,9.724-7.614,20.259-7.614,31.313V449.06z"/>
	<path style="fill:#FFFFFF;" d="M325.046,435.06c-3.313,0-6-2.687-6-6v-77c0-3.313,2.687-6,6-6s6,2.687,6,6v77
		C331.046,432.374,328.36,435.06,325.046,435.06z"/>
	<g>
		<path style="opacity:0.44;fill:#333333;enable-background:new    ;" d="M153.697,302.98c-15.21,15.89-24.56,37.45-24.56,61.19
			v84.89h-19.12v-84.89c0-30.42,15.35-57.27,38.74-73.19C150.737,294.8,152.396,298.81,153.697,302.98z"/>
	</g>
	<path style="fill:#333333;" d="M345.046,455.06h-235.03c-3.314,0-6-2.687-6-6v-84.89c0-31.306,15.463-60.521,41.364-78.15
		c9.416-6.408,19.761-11.007,30.75-13.671c0.131-0.034,0.265-0.065,0.399-0.096l0.122-0.028l3.037,11.609
		c-0.153,0.04-0.309,0.077-0.465,0.113l-0.122,0.028c-0.017,0.004-0.087,0.022-0.104,0.026c-9.597,2.321-18.636,6.338-26.865,11.938
		c-22.614,15.392-36.115,40.898-36.115,68.229v78.89h223.03v-78.89c0-27.327-13.505-52.833-36.126-68.23
		c-8.229-5.6-17.268-9.617-26.865-11.938c-0.037-0.009-0.074-0.019-0.111-0.028l-0.116-0.027c-0.156-0.036-0.312-0.073-0.464-0.113
		l3.038-11.609l0.122,0.028c0.134,0.031,0.267,0.063,0.398,0.096c10.99,2.664,21.334,7.263,30.75,13.67
		c25.908,17.633,41.375,46.848,41.375,78.15v84.89C351.046,452.374,348.36,455.06,345.046,455.06z"/>
	<path style="fill:#333333;" d="M163.046,449.06h-12v-124c0-11.055-2.562-21.59-7.614-31.313l10.648-5.533
		c5.865,11.288,8.966,24.029,8.966,36.847V449.06z"/>
	<g>
		<path style="fill:#333333;" d="M359.031,455.06H96.262c-3.313,0-6-2.687-6-6s2.687-6,6-6h262.77c3.313,0,6,2.687,6,6
			S362.345,455.06,359.031,455.06z"/>
		<path style="fill:#333333;" d="M391.031,455.06h-11c-3.313,0-6-2.687-6-6s2.687-6,6-6h11c3.313,0,6,2.687,6,6
			S394.345,455.06,391.031,455.06z"/>
		<path style="fill:#333333;" d="M75.031,455.06h-11c-3.313,0-6-2.687-6-6s2.687-6,6-6h11c3.313,0,6,2.687,6,6
			S78.345,455.06,75.031,455.06z"/>
	</g>
	<path style="opacity:0.44;fill:#333333;enable-background:new    ;" d="M209.167,278.03c10.02,6.74,21.5,11.49,33.86,13.68
		c-5.03,0.89-10.21,1.35-15.5,1.35c-18.28,0-35.26-5.54-49.36-15.03c-0.19-0.13-0.39-0.26-0.58-0.4
		c-23.28-15.94-38.56-42.72-38.56-73.07v-22.5c0-139,54.89-137.301,54.89-134.411l-10.384,15.807
		c-15.364,23.387-15.305,53.174-0.958,76.231c2.423,3.895,10.151,17.294,10.019,20.366c-0.483,11.29-9.201,21.36-21.338,21.975
		c-0.407,0.021-0.817,0.031-1.229,0.031v22.5c0,30.35,15.28,57.13,38.56,73.07C208.776,277.77,208.977,277.9,209.167,278.03z"/>
	<path style="fill:#996822;" d="M316.026,130.562v29.05c0,0-23.17-33.48-61.25-28.52c-18.07,2.36-36.43,2.36-54.5,0
		c-38.08-4.96-61.25,28.52-61.25,28.52v-29.05c0-48.88,39.62-88.5,88.5-88.5c24.44,0,46.57,9.91,62.58,25.92
		C306.116,83.992,316.026,106.122,316.026,130.562z"/>
	<g style="opacity:0.44;">
		<path style="fill:#333333;" d="M174.699,130.562c0-42.77,30.334-78.45,70.663-86.702c-5.761-1.179-11.726-1.798-17.835-1.798
			c-48.88,0-88.5,39.62-88.5,88.5v29.05c0,0,13.056-18.863,35.672-26.173V130.562z"/>
	</g>
	<path style="fill:#FFFFFF;" d="M292.197,117.764c-2.673,0-5.111-1.8-5.807-4.509c-3.941-15.344-13.383-28.2-26.587-36.198
		c-0.53-0.321-1.066-0.635-1.607-0.941c-2.883-1.633-3.896-5.294-2.263-8.178c1.634-2.884,5.295-3.897,8.178-2.263
		c0.642,0.364,1.278,0.736,1.909,1.118c15.905,9.634,27.267,25.074,31.994,43.477c0.824,3.209-1.109,6.48-4.319,7.304
		C293.193,117.702,292.691,117.764,292.197,117.764z"/>
	<path style="fill:#333333;" d="M316.033,165.613c-1.899,0-3.766-0.899-4.932-2.575l0,0c-0.869-1.244-21.673-30.41-55.549-25.996
		c-18.595,2.429-37.454,2.429-56.052,0c-34.055-4.441-55.328,25.68-55.539,25.985c-1.886,2.725-5.623,3.405-8.348,1.519
		s-3.405-5.623-1.519-8.348c1.031-1.49,25.731-36.424,66.958-31.055c17.568,2.295,35.382,2.294,52.948,0
		c41.239-5.374,65.93,29.564,66.961,31.055c1.886,2.725,1.206,6.462-1.519,8.348C318.399,165.267,317.21,165.613,316.033,165.613z"
		/>
	<path style="fill:#333333;" d="M227.526,299.06c-18.88,0-37.107-5.551-52.71-16.052l-0.179-0.122
		c-0.171-0.115-0.344-0.233-0.512-0.355c-25.737-17.656-41.099-46.797-41.099-77.971v-74c0-52.107,42.393-94.5,94.5-94.5
		s94.5,42.393,94.5,94.5v74c0,31.174-15.362,60.315-41.099,77.972c-0.169,0.122-0.341,0.239-0.512,0.355l-0.133,0.09
		c-0.015,0.01-0.03,0.021-0.045,0.031C264.634,293.509,246.407,299.06,227.526,299.06z M227.526,48.06
		c-45.491,0-82.5,37.009-82.5,82.5v74c0,27.241,13.439,52.706,35.95,68.119c0.058,0.04,0.116,0.081,0.172,0.123l0.414,0.282
		c13.57,9.133,29.48,13.977,45.964,13.977s32.395-4.844,46.01-14.007l0.163-0.111c0.068-0.046,0.138-0.091,0.205-0.14
		c0.056-0.041,0.115-0.083,0.172-0.123c22.511-15.413,35.95-40.878,35.95-68.119v-74C310.026,85.069,273.017,48.06,227.526,48.06z"
		/>
	<path style="fill:#333333;" d="M295.249,215.95c-3.313,0-6-2.687-6-6v-51.024c0-8.858-5.214-16.945-13.283-20.602
		c-3.018-1.368-4.356-4.923-2.988-7.941c1.368-3.019,4.924-4.356,7.941-2.988c12.35,5.596,20.33,17.973,20.33,31.532v51.024
		C301.249,213.264,298.563,215.95,295.249,215.95z"/>
	<path style="fill:#333333;" d="M241.95,455.063h-28.84c-3.314,0-6-2.687-6-6V344.059c-21.123-8.305-35.52-29.106-35.52-52.076
		v-14.35h12v14.35c0,19.234,12.85,36.531,31.248,42.064c2.536,0.763,4.272,3.098,4.272,5.746v103.27h16.84v-103.27
		c0-2.647,1.735-4.981,4.27-5.745c18.4-5.542,31.25-22.84,31.25-42.065v-14.35h12v14.35c0,22.959-14.398,43.761-35.52,52.075
		v105.005C247.95,452.376,245.264,455.063,241.95,455.063z"/>
</g>
<g>
</g>
<g>
</g>
<g>
</g>
<g>
</g>
<g>
</g>
<g>
</g>
<g>
</g>
<g>
</g>
<g>
</g>
<g>
</g>
<g>
</g>
<g>
</g>
<g>
</g>
<g>
</g>
<g>
</g>
</svg>
