<?xml version="1.0" encoding="iso-8859-1"?>
<!-- Generator: Adobe Illustrator 19.0.0, SVG Export Plug-In . SVG Version: 6.00 Build 0)  -->
<svg version="1.1" id="Layer_1" xmlns="http://www.w3.org/2000/svg" xmlns:xlink="http://www.w3.org/1999/xlink" x="0px" y="0px"
	 viewBox="0 0 434 434" style="enable-background:new 0 0 434 434;" xml:space="preserve">
<g>
	<path style="fill:#CCA971;" d="M305.505,283h-177.01V148c0-48.12,38.4-87.26,86.22-88.47c0.76-0.02,1.52-0.03,2.28-0.03h0.01
		c48.87,0,88.5,39.62,88.5,88.5V283z"/>
	<path style="fill:#333333;" d="M305.505,289h-177.01c-3.313,0-6-2.687-6-6V148c0-24.82,9.548-48.266,26.885-66.018
		c17.305-17.72,40.455-27.824,65.184-28.45c0.806-0.021,1.619-0.032,2.432-0.032c52.118,0,94.51,42.393,94.51,94.5v135
		C311.505,286.313,308.818,289,305.505,289z M134.495,277h165.01V148c0-45.491-37.009-82.5-82.5-82.5
		c-0.717,0-1.425,0.01-2.132,0.028c-21.592,0.546-41.8,9.367-56.908,24.837c-15.135,15.498-23.47,35.966-23.47,57.634V277z"/>
	<g>
		<path style="fill:#9AD14B;" d="M266.355,256.97c0.19,0.05,0.39,0.09,0.58,0.14c10.46,2.53,20.19,6.93,28.83,12.81
			c23.39,15.92,38.75,42.77,38.75,73.19V428h-47.04h-140.96h-47.03v-84.89c0-30.42,15.35-57.27,38.74-73.19
			c8.64-5.88,18.37-10.28,28.83-12.81c0.19-0.05,0.39-0.09,0.58-0.14"/>
		<path style="fill:#FFD3AE;" d="M146.515,304v124h-47.03v-84.89c0-30.42,15.35-57.27,38.74-73.19
			C143.525,280.12,146.515,291.71,146.515,304z"/>
		<path style="fill:#FFD3AE;" d="M334.515,343.11V428h-47.04V304c0-12.29,2.99-23.88,8.29-34.08
			C319.155,285.84,334.515,312.69,334.515,343.11z"/>
		<path style="fill:#333333;" d="M342.5,428h-12v-78.69c0-25.831-11.669-50.163-32.858-68.514
			C276.212,262.226,247.663,252,217.25,252C154.804,252,104,295.653,104,349.31V428H92v-78.69C92,289.036,148.187,240,217.25,240
			c33.299,0,64.64,11.267,88.249,31.726c23.86,20.664,37.001,48.218,37.001,77.584V428z"/>
		<path style="fill:#333333;" d="M293.475,428h-12V304c0-12.816,3.1-25.558,8.966-36.846l10.648,5.533
			c-5.052,9.724-7.614,20.259-7.614,31.313V428z"/>
		<path style="fill:#FFFFFF;" d="M314.515,414c-3.313,0-6-2.687-6-6v-73c0-3.313,2.687-6,6-6s6,2.687,6,6v73
			C320.515,411.313,317.828,414,314.515,414z"/>
		<g>
			<path style="opacity:0.44;fill:#333333;enable-background:new    ;" d="M143.165,281.92c-15.21,15.89-24.56,37.45-24.56,61.19
				V426h-19.12v-82.89c0-30.42,15.35-57.27,38.74-73.19C140.205,273.74,141.865,277.75,143.165,281.92z"/>
		</g>
		<path style="fill:#333333;" d="M152.515,428h-12V304c0-11.055-2.562-21.59-7.614-31.313l10.648-5.533
			c5.865,11.288,8.966,24.029,8.966,36.847V428z"/>
		<g>
			<path style="fill:#333333;" d="M251.48,404h-68.96c-23.159,0-42-18.841-42-42h12c0,16.542,13.458,30,30,30h68.96
				c16.542,0,30-13.458,30-30h12C293.48,385.159,274.639,404,251.48,404z"/>
			<path style="fill:#FFFFFF;" d="M251.48,386c-3.313,0-6-2.687-6-6s2.687-6,6-6c6.617,0,12-5.383,12-12c0-3.313,2.687-6,6-6
				s6,2.687,6,6C275.48,375.234,264.714,386,251.48,386z"/>
		</g>
		<g>
			<path style="fill:#333333;" d="M348.5,434H85.73c-3.313,0-6-2.687-6-6s2.687-6,6-6H348.5c3.313,0,6,2.687,6,6
				S351.813,434,348.5,434z"/>
			<path style="fill:#333333;" d="M380.5,434h-11c-3.313,0-6-2.687-6-6s2.687-6,6-6h11c3.313,0,6,2.687,6,6S383.813,434,380.5,434z"
				/>
			<path style="fill:#333333;" d="M64.5,434h-11c-3.313,0-6-2.687-6-6s2.687-6,6-6h11c3.313,0,6,2.687,6,6S67.813,434,64.5,434z"/>
		</g>
		<g>
			<path style="fill:#FFD3AE;" d="M258.885,248.5v65.36c0,14.71-11.93,26.64-26.64,26.64h-30.72c-14.71,0-26.64-11.93-26.64-26.64
				V248.5c12.5,6.75,26.8,10.58,41.99,10.58C232.085,259.08,246.385,255.25,258.885,248.5z"/>
			<path style="fill:#333333;" d="M232.245,346.5h-30.72c-17.998,0-32.64-14.642-32.64-32.64V248.5h12v65.36
				c0,11.381,9.259,20.64,20.64,20.64h30.72c11.381,0,20.64-9.259,20.64-20.64V248.5h12v65.36
				C264.885,331.858,250.243,346.5,232.245,346.5z"/>
			<path style="fill:#333333;" d="M216.885,346.5c-3.313,0-6-2.687-6-6v-15c0-3.313,2.687-6,6-6s6,2.687,6,6v15
				C222.885,343.813,220.199,346.5,216.885,346.5z"/>
			<path style="opacity:0.44;fill:#333333;enable-background:new    ;" d="M258.3,245.5c-3.405,8.5,1.955,17.06,0.585,19.18
				c-6.42,10.03-14.81,18.67-24.62,25.39c-0.19,0.14-0.39,0.27-0.58,0.4c-14.1,9.49-31.08,15.03-49.36,15.03
				c-5.24,0-6.11-4.72-9.44-7.26V248.5c11.87,5.92,29.24,12,43.41,12C236.155,260.5,244.4,254.59,258.3,245.5z"/>
		</g>
	</g>
	<g>
		<g>
			<circle style="fill:#FFD3AE;" cx="136.432" cy="146" r="27.89"/>
			<circle style="fill:#FFD3AE;" cx="297.567" cy="146" r="27.89"/>
		</g>
		<g>
			<path style="fill:#333333;" d="M136.432,179.89c-18.687,0-33.89-15.203-33.89-33.89s15.203-33.89,33.89-33.89
				s33.89,15.203,33.89,33.89S155.119,179.89,136.432,179.89z M136.432,124.11c-12.07,0-21.89,9.82-21.89,21.89
				s9.82,21.89,21.89,21.89s21.89-9.82,21.89-21.89S148.502,124.11,136.432,124.11z"/>
			<path style="fill:#333333;" d="M297.567,179.89c-18.687,0-33.89-15.203-33.89-33.89s15.203-33.89,33.89-33.89
				s33.89,15.203,33.89,33.89S316.254,179.89,297.567,179.89z M297.567,124.11c-12.07,0-21.89,9.82-21.89,21.89
				s9.82,21.89,21.89,21.89s21.89-9.82,21.89-21.89S309.638,124.11,297.567,124.11z"/>
		</g>
	</g>
	<path style="fill:#FFD3AE;" d="M266.36,241.97C252.26,251.46,235.28,257,217,257s-35.26-5.54-49.36-15.03
		c-0.19-0.13-0.39-0.26-0.58-0.4c-23.28-15.94-38.56-42.72-38.56-73.07V146V94.5C128.5,45.623,168.123,6,217,6l0,0
		c48.877,0,88.5,39.623,88.5,88.5V146v22.5c0,30.35-15.28,57.13-38.56,73.07C266.75,241.71,266.55,241.84,266.36,241.97z"/>
	<g>
		<path style="fill:#F7774B;" d="M217,216.01c-4.869,0-9.738-0.513-14.573-1.538c-3.242-0.688-5.312-3.873-4.625-7.114
			c0.688-3.241,3.87-5.315,7.114-4.625c8.018,1.7,16.148,1.701,24.167,0c3.24-0.69,6.427,1.383,7.114,4.625
			s-1.383,6.427-4.625,7.114C226.738,215.497,221.869,216.01,217,216.01z"/>
	</g>
	<g style="opacity:0.44;">
		<path style="fill:#333333;" d="M217.505,229h-1.01c-2.209,0-4-1.791-4-4s1.791-4,4-4h1.01c2.209,0,4,1.791,4,4
			S219.714,229,217.505,229z"/>
	</g>
	<g>
		<g>
			<path style="fill:#333333;" d="M272.473,140.414c-0.453,0-0.912-0.052-1.372-0.159c-7.917-1.853-16.286-1.852-24.203,0
				c-3.224,0.753-6.454-1.249-7.209-4.476s1.249-6.454,4.476-7.209c9.705-2.271,19.964-2.271,29.669,0
				c3.227,0.755,5.23,3.982,4.476,7.209C277.663,138.546,275.197,140.414,272.473,140.414z"/>
		</g>
	</g>
	<path style="opacity:0.44;fill:#333333;enable-background:new    ;" d="M198.64,241.97c10.02,6.74,21.5,11.49,33.86,13.68
		c-5.03,0.89-10.21,1.35-15.5,1.35c-18.28,0-35.26-5.54-49.36-15.03c-0.19-0.13-0.39-0.26-0.58-0.4
		c-23.28-15.94-38.56-42.72-38.56-73.07V146c0-139,54.89-137.301,54.89-134.411l-10.384,15.807
		c-15.364,23.387-15.305,53.174-0.958,76.231c2.423,3.895,10.151,17.294,10.019,20.366c-0.483,11.29-9.201,21.36-21.338,21.975
		c-0.407,0.021-0.817,0.031-1.229,0.031v22.5c0,30.35,15.28,57.13,38.56,73.07C198.25,241.71,198.45,241.84,198.64,241.97z"/>
	<g>
		<g>
			<g>
				<g>
					<circle style="fill:#333333;" cx="182.66" cy="157.116" r="8.009"/>
				</g>
				<path style="fill:#333333;" d="M167.33,164.208c-1.533,0-3.065-0.583-4.237-1.751c-2.346-2.34-2.352-6.139-0.012-8.485
					c6.153-6.17,15.545-7.746,23.375-3.919c2.977,1.455,4.211,5.048,2.756,8.025c-1.455,2.977-5.047,4.211-8.025,2.756
					c-3.217-1.573-7.079-0.926-9.609,1.611C170.407,163.62,168.868,164.208,167.33,164.208z"/>
			</g>
		</g>
		<g>
			<g>
				<g>
					<circle style="fill:#333333;" cx="251.34" cy="157.116" r="8.009"/>
				</g>
				<path style="fill:#333333;" d="M266.669,164.208c-1.539,0-3.076-0.588-4.249-1.763c-2.53-2.537-6.392-3.184-9.609-1.611
					c-2.976,1.456-6.57,0.221-8.025-2.756c-1.455-2.978-0.221-6.57,2.756-8.025c7.831-3.826,17.223-2.251,23.375,3.919
					c2.34,2.347,2.334,6.146-0.012,8.485C269.735,163.624,268.202,164.208,266.669,164.208z"/>
			</g>
		</g>
	</g>
	<g>
		<path style="fill:#333333;" d="M210.057,189c-3.313,0-6-2.687-6-6v-32.927c0-2.692-1.515-5.195-3.859-6.375
			c-7.192-3.621-19.524-7.153-37.439-3.412c-3.244,0.674-6.422-1.403-7.1-4.647c-0.677-3.244,1.403-6.422,4.647-7.1
			c21.305-4.447,36.388-0.041,45.289,4.441c6.454,3.249,10.462,9.799,10.462,17.093V183C216.057,186.313,213.37,189,210.057,189z"/>
	</g>
	<path style="fill:#CCA971;" d="M130.795,140.7l-0.8,0.3h-1.5V94.5c0-48.12,38.4-87.26,86.22-88.47l2.28,0.97v71.56
		C194.705,106.3,165.085,127.97,130.795,140.7z"/>
	<path style="opacity:0.44;fill:#333333;enable-background:new    ;" d="M216.995,7v9.32c-27.96,14.87-46.99,44.3-46.99,78.18v26.51
		c-12.19,7.91-25.32,14.54-39.21,19.69l-0.8,0.3h-1.5V94.5c0-48.12,38.4-87.26,86.22-88.47L216.995,7z"/>
	<path style="fill:#CCA971;" d="M303.205,140.7c-34.3-12.73-63.92-34.4-86.21-62.14V7l-2.28-0.97c0.76-0.02,1.52-0.03,2.28-0.03
		h0.01c48.87,0,88.5,39.62,88.5,88.5V141h-1.51L303.205,140.7z"/>
	<path style="fill:#333333;" d="M216.995,263c-18.874,0-37.097-5.551-52.7-16.052c-0.227-0.147-0.484-0.32-0.731-0.503
		c-25.718-17.664-41.068-46.792-41.068-77.944v-74c0-24.82,9.548-48.266,26.885-66.018c17.305-17.72,40.455-27.824,65.184-28.45
		C215.369,0.011,216.182,0,216.995,0c52.118,0,94.51,42.393,94.51,94.5v74c0,31.175-15.366,60.32-41.106,77.977
		c-0.14,0.1-0.283,0.197-0.425,0.293l-0.106,0.071c-0.055,0.04-0.097,0.068-0.153,0.106C254.112,257.449,235.881,263,216.995,263z
		 M217.005,12c-0.717,0-1.425,0.01-2.132,0.028c-21.592,0.546-41.8,9.367-56.908,24.837c-15.135,15.498-23.47,35.966-23.47,57.634
		v74c0,27.236,13.443,52.702,35.96,68.12c0.1,0.068,0.197,0.139,0.292,0.213l0.157,0.1c0.023,0.016,0.067,0.044,0.091,0.06
		c13.616,9.164,29.522,14.007,46,14.007c16.466,0,32.355-4.829,45.958-13.965c0.109-0.077,0.224-0.155,0.339-0.232l0.116-0.079
		c0.054-0.04,0.092-0.066,0.147-0.104c22.511-15.414,35.95-40.879,35.95-68.12v-74C299.505,49.009,262.496,12,217.005,12z"/>
	<path style="fill:#333333;" d="M132.1,146.619l-4.21-11.237l0.8-0.3c32.815-12.183,61.728-33.025,83.627-60.28
		c1.139-1.417,2.859-2.242,4.677-2.242s3.538,0.824,4.677,2.242c21.901,27.256,50.816,48.099,83.621,60.273l0.831,0.315
		l-4.258,11.22l-0.79-0.3c-32.509-12.065-61.45-32.18-84.081-58.378c-22.63,26.197-51.57,46.313-84.111,58.394L132.1,146.619z"/>
	<rect x="210.995" y="7" style="fill:#333333;" width="12" height="71.56"/>
	<path style="fill:#FFFFFF;" d="M287.505,192c-3.313,0-6-2.687-6-6v-29c0-3.313,2.687-6,6-6s6,2.687,6,6v29
		C293.505,189.313,290.818,192,287.505,192z"/>
	<path style="fill:#9AD14B;" d="M127.505,59.975L127.505,59.975c49.639-47.966,128.361-47.966,178,0l0,0V110l0,0
		c-49.639-47.966-128.361-47.966-178,0l0,0C127.505,110,127.505,59.975,127.505,59.975z"/>
	<g style="opacity:0.44;">
		<path style="fill:#333333;" d="M164.501,37.975L164.501,37.975c1.964-1.898,3.979-3.713,6.031-5.46
			c-15.604,5.991-30.276,15.139-43.028,27.46l0,0V110l0,0c11.095-10.721,23.645-19.039,36.997-24.967V37.975z"/>
	</g>
	<path style="fill:#333333;" d="M305.506,116c-1.527,0-3.029-0.583-4.171-1.685l-6.051-5.847
		c-21.251-20.535-49.229-31.844-78.78-31.844s-57.529,11.309-78.78,31.844l-6.051,5.847c-1.732,1.673-4.295,2.148-6.513,1.208
		c-2.217-0.94-3.656-3.115-3.656-5.523V65.496c0-5.127,2.114-10.11,5.801-13.673l0,0c24.062-23.25,55.739-36.055,89.199-36.055
		c33.459,0,65.137,12.805,89.198,36.055c3.687,3.563,5.802,8.546,5.802,13.673V110c0,2.408-1.439,4.583-3.656,5.523
		C307.093,115.844,306.296,116,305.506,116z M216.505,64.625c30.804,0,60.061,11.111,83,31.406V65.496
		c0-1.891-0.78-3.729-2.14-5.044c-21.812-21.077-50.529-32.684-80.86-32.684c-30.332,0-59.048,11.607-80.86,32.685
		c-1.36,1.314-2.14,3.152-2.14,5.043V96.03C156.444,75.735,185.701,64.625,216.505,64.625z"/>
	<path style="fill:#FFFFFF;" d="M288.505,82c-3.313,0-6-2.687-6-6V65c0-3.313,2.687-6,6-6s6,2.687,6,6v11
		C294.505,79.313,291.818,82,288.505,82z"/>
</g>
<g>
</g>
<g>
</g>
<g>
</g>
<g>
</g>
<g>
</g>
<g>
</g>
<g>
</g>
<g>
</g>
<g>
</g>
<g>
</g>
<g>
</g>
<g>
</g>
<g>
</g>
<g>
</g>
<g>
</g>
</svg>
