<?xml version="1.0" encoding="iso-8859-1"?>
<!-- Generator: Adobe Illustrator 19.0.0, SVG Export Plug-In . SVG Version: 6.00 Build 0)  -->
<svg version="1.1" id="Layer_1" xmlns="http://www.w3.org/2000/svg" xmlns:xlink="http://www.w3.org/1999/xlink" x="0px" y="0px"
	 viewBox="0 0 464.001 464.001" style="enable-background:new 0 0 464.001 464.001;" xml:space="preserve">
<g>
	<polygon style="fill:#F7B239;" points="261.505,30.001 327.505,6.001 291.505,116.001 243.505,60.001 	"/>
	<polygon style="opacity:0.44;fill:#333333;enable-background:new    ;" points="324.505,11.001 276.505,41.001 270.505,29.001 	"/>
	<path style="fill:#333333;" d="M291.505,122.001c-1.732,0-3.403-0.751-4.556-2.095l-48-56c-1.681-1.961-1.918-4.777-0.589-6.992
		l18-30c0.708-1.181,1.801-2.082,3.094-2.552l66-24c2.159-0.785,4.574-0.269,6.224,1.328s2.243,3.995,1.529,6.177l-36,110
		c-0.674,2.06-2.406,3.596-4.532,4.019C292.285,121.963,291.894,122.001,291.505,122.001z M250.875,59.38l38.245,44.619
		l28.847-88.145l-52.412,19.059L250.875,59.38z"/>
	<g>
		<path style="fill:#3A88D6;" d="M281.355,286.971c0.19,0.05,0.39,0.09,0.58,0.14c10.46,2.53,20.19,6.93,28.83,12.81
			c23.39,15.92,38.75,42.77,38.75,73.19v84.89h-47.04h-140.96h-47.03v-84.89c0-30.42,15.35-57.27,38.74-73.19
			c8.64-5.88,18.37-10.28,28.83-12.81c0.19-0.05,0.39-0.09,0.58-0.14"/>
		<path style="fill:#F95428;" d="M161.515,334.001v124h-47.03v-84.89c0-30.42,15.35-57.27,38.74-73.19
			C158.525,310.121,161.515,321.711,161.515,334.001z"/>
		<path style="fill:#F95428;" d="M349.515,373.111v84.89h-47.04v-124c0-12.29,2.99-23.88,8.29-34.08
			C334.155,315.841,349.515,342.691,349.515,373.111z"/>
		<path style="fill:#333333;" d="M357.5,458.001h-12v-78.69c0-25.831-11.67-50.163-32.858-68.514
			c-21.429-18.57-49.979-28.796-80.392-28.796c-62.447,0-113.25,43.653-113.25,97.31v78.69h-12v-78.69
			c0-60.274,56.187-109.31,125.25-109.31c33.3,0,64.641,11.267,88.249,31.726c23.859,20.665,37.001,48.218,37.001,77.584V458.001z"
			/>
		<path style="fill:#333333;" d="M308.475,458.001h-12v-124c0-12.816,3.101-25.558,8.966-36.846l10.648,5.533
			c-5.053,9.724-7.614,20.259-7.614,31.313V458.001z"/>
		<path style="fill:#FFFFFF;" d="M329.515,444.001c-3.313,0-6-2.687-6-6v-73c0-3.313,2.687-6,6-6s6,2.687,6,6v73
			C335.515,441.315,332.828,444.001,329.515,444.001z"/>
		<g>
			<path style="opacity:0.44;fill:#333333;enable-background:new    ;" d="M158.165,311.921c-15.21,15.89-24.56,37.45-24.56,61.19
				v82.89h-19.12v-82.89c0-30.42,15.35-57.27,38.74-73.19C155.205,303.741,156.865,307.751,158.165,311.921z"/>
		</g>
		<path style="fill:#333333;" d="M167.515,458.001h-12v-124c0-11.055-2.562-21.59-7.614-31.313l10.648-5.533
			c5.865,11.288,8.966,24.029,8.966,36.847V458.001z"/>
		<g>
			<path style="fill:#333333;" d="M266.48,434.001h-68.96c-23.159,0-42-18.841-42-42h12c0,16.542,13.458,30,30,30h68.96
				c16.542,0,30-13.458,30-30h12C308.48,415.16,289.639,434.001,266.48,434.001z"/>
			<path style="fill:#FFFFFF;" d="M266.48,416.001c-3.313,0-6-2.687-6-6s2.687-6,6-6c6.617,0,12-5.383,12-12c0-3.313,2.687-6,6-6
				s6,2.687,6,6C290.48,405.235,279.713,416.001,266.48,416.001z"/>
		</g>
		<g>
			<path style="fill:#FFD3AE;" d="M273.792,278.001v50c0,23.196-18.804,42-42,42l0,0c-23.196,0-42-18.804-42-42v-50
				c12.5,6.75,26.8,10.58,41.99,10.58C246.992,288.581,261.292,284.751,273.792,278.001z"/>
			<path style="fill:#333333;" d="M231.792,376.001c-26.467,0-48-21.533-48-48v-50h12v50c0,19.851,16.149,36,36,36
				c19.85,0,36-16.149,36-36v-50h12v50C279.791,354.468,258.259,376.001,231.792,376.001z"/>
			<path style="fill:#333333;" d="M231.792,376.001c-3.313,0-6-2.687-6-6v-15c0-3.313,2.687-6,6-6c3.314,0,6,2.687,6,6v15
				C237.792,373.315,235.106,376.001,231.792,376.001z"/>
			<path style="opacity:0.44;fill:#333333;enable-background:new    ;" d="M273.792,278.001c-1.18,2.25,1.37,14.06,0,16.18
				c-6.42,10.03-14.81,18.67-24.62,25.39c-0.19,0.14-0.39,0.27-0.58,0.4c-14.1,9.49-31.08,15.03-49.36,15.03
				c-5.24,0-6.11-4.72-9.44-7.26v-49.74c11.87,5.92,29.24,12,43.41,12C251.062,290.001,259.892,287.091,273.792,278.001z"/>
		</g>
		<g>
			<path style="fill:#333333;" d="M363.5,464.001H100.73c-3.313,0-6-2.687-6-6s2.687-6,6-6H363.5c3.313,0,6,2.687,6,6
				S366.814,464.001,363.5,464.001z"/>
			<path style="fill:#333333;" d="M395.5,464.001h-11c-3.313,0-6-2.687-6-6s2.687-6,6-6h11c3.313,0,6,2.687,6,6
				S398.814,464.001,395.5,464.001z"/>
			<path style="fill:#333333;" d="M79.5,464.001h-11c-3.313,0-6-2.687-6-6s2.687-6,6-6h11c3.313,0,6,2.687,6,6
				S82.813,464.001,79.5,464.001z"/>
		</g>
	</g>
	<g>
		<g>
			<circle style="fill:#FFD3AE;" cx="151.432" cy="176.001" r="27.89"/>
			<circle style="fill:#FFD3AE;" cx="312.568" cy="176.001" r="27.89"/>
		</g>
		<g>
			<path style="fill:#333333;" d="M151.432,209.891c-18.687,0-33.89-15.203-33.89-33.89s15.203-33.89,33.89-33.89
				s33.89,15.203,33.89,33.89S170.119,209.891,151.432,209.891z M151.432,154.111c-12.07,0-21.89,9.82-21.89,21.89
				s9.82,21.89,21.89,21.89s21.89-9.82,21.89-21.89S163.503,154.111,151.432,154.111z"/>
			<path style="fill:#333333;" d="M312.568,209.891c-18.687,0-33.89-15.203-33.89-33.89s15.203-33.89,33.89-33.89
				s33.89,15.203,33.89,33.89S331.254,209.891,312.568,209.891z M312.568,154.111c-12.07,0-21.89,9.82-21.89,21.89
				s9.819,21.89,21.89,21.89s21.89-9.82,21.89-21.89S324.638,154.111,312.568,154.111z"/>
		</g>
	</g>
	<path style="fill:#FFD3AE;" d="M320.505,124.501v74c0,30.35-15.28,57.13-38.56,73.07c-0.19,0.14-0.4,0.27-0.58,0.4
		c-14.1,9.49-31.08,15.03-49.37,15.03c-18.27,0-35.25-5.54-49.35-15.03c-0.2-0.13-0.4-0.26-0.58-0.4
		c-23.28-15.94-38.57-42.72-38.57-73.07v-74c0-48.88,39.63-88.5,88.5-88.5h0.01c21.33,0,40.89,7.54,56.17,20.12
		c0.34,0.26,0.67,0.54,0.99,0.82C308.335,73.171,320.505,97.411,320.505,124.501z"/>
	<path style="fill:#333333;" d="M232,293.001c-18.88,0-37.107-5.551-52.71-16.052l-0.182-0.124c-0.169-0.114-0.34-0.23-0.507-0.351
		c-25.737-17.657-41.101-46.799-41.101-77.973v-74c0-52.107,42.393-94.5,94.5-94.5c52.108,0,94.5,42.393,94.5,94.5v74
		c0,31.174-15.363,60.316-41.101,77.973c-0.171,0.123-0.345,0.242-0.518,0.358l-0.133,0.09c-0.014,0.009-0.026,0.018-0.039,0.027
		C269.107,287.45,250.88,293.001,232,293.001z M232,42.001c-45.491,0-82.5,37.009-82.5,82.5v74c0,27.241,13.439,52.706,35.95,68.12
		c0.055,0.038,0.111,0.077,0.165,0.117l0.421,0.287c13.57,9.132,29.479,13.976,45.964,13.976s32.395-4.844,46.009-14.007
		l0.371-0.252c0.053-0.039,0.116-0.084,0.17-0.121c22.511-15.414,35.95-40.879,35.95-68.12v-74
		C314.5,79.01,277.491,42.001,232,42.001z"/>
	<g>
		<path style="fill:#F7774B;" d="M232,246.011c-4.869,0-9.738-0.513-14.573-1.538c-3.242-0.688-5.312-3.873-4.625-7.114
			c0.688-3.241,3.869-5.314,7.114-4.625c8.019,1.7,16.147,1.701,24.168,0c3.241-0.685,6.427,1.384,7.113,4.625
			c0.688,3.242-1.383,6.427-4.625,7.114C241.738,245.498,236.869,246.011,232,246.011z"/>
	</g>
	<g style="opacity:0.44;">
		<path style="fill:#333333;" d="M232.505,259.001h-1.01c-2.209,0-4-1.791-4-4s1.791-4,4-4h1.01c2.209,0,4,1.791,4,4
			S234.714,259.001,232.505,259.001z"/>
	</g>
	<g>
		<g>
			<path style="fill:#333333;" d="M287.473,170.415c-0.452,0-0.912-0.052-1.372-0.159c-7.916-1.853-16.285-1.853-24.201,0
				c-3.229,0.756-6.455-1.249-7.209-4.476c-0.755-3.227,1.248-6.454,4.475-7.209c9.704-2.27,19.962-2.271,29.67,0
				c3.227,0.755,5.229,3.982,4.475,7.209C292.663,168.547,290.198,170.415,287.473,170.415z"/>
		</g>
	</g>
	<g>
		<g>
			<g>
				<g>
					<circle style="fill:#333333;" cx="197.66" cy="187.117" r="8.009"/>
				</g>
				<path style="fill:#333333;" d="M182.33,194.209c-1.533,0-3.065-0.583-4.237-1.751c-2.346-2.34-2.352-6.139-0.012-8.485
					c6.153-6.17,15.544-7.745,23.375-3.919c2.977,1.455,4.211,5.048,2.756,8.025c-1.455,2.977-5.048,4.211-8.025,2.756
					c-3.217-1.573-7.08-0.926-9.609,1.611C185.407,193.621,183.868,194.209,182.33,194.209z"/>
			</g>
		</g>
		<g>
			<g>
				<g>
					<circle style="fill:#333333;" cx="266.34" cy="187.117" r="8.009"/>
				</g>
				<path style="fill:#333333;" d="M281.669,194.209c-1.539,0-3.077-0.588-4.249-1.764c-2.528-2.537-6.391-3.184-9.607-1.611
					c-2.978,1.456-6.57,0.221-8.025-2.756s-0.222-6.57,2.756-8.025c7.83-3.827,17.224-2.251,23.375,3.919
					c2.34,2.347,2.334,6.146-0.013,8.485C284.735,193.625,283.201,194.209,281.669,194.209z"/>
			</g>
		</g>
	</g>
	<g>
		<path style="fill:#333333;" d="M225.057,219.001c-3.313,0-6-2.687-6-6v-32.927c0-2.692-1.515-5.195-3.859-6.375
			c-7.192-3.621-19.524-7.154-37.439-3.412c-3.243,0.677-6.422-1.403-7.1-4.647c-0.677-3.244,1.403-6.422,4.647-7.1
			c21.306-4.447,36.389-0.041,45.289,4.441c6.454,3.249,10.462,9.799,10.462,17.093v32.927
			C231.057,216.315,228.37,219.001,225.057,219.001z"/>
	</g>
	<path style="opacity:0.44;fill:#333333;enable-background:new    ;" d="M213.06,271.571c-23.28-15.94-38.56-42.72-38.56-73.07
		v-22.5c0.412,0,0.822-0.01,1.229-0.031c5.066-0.257,9.522-2.177,13.047-5.129c8.453,14.585,22.22,31.292,35.729,17.16
		c21.667-22.667,35-77,35-77l-65.259,35.521c-2.426-4.875-5.754-10.572-7.198-12.894c-14.347-23.058-14.405-52.845,0.958-76.231
		l10.384-15.806c0-2.89-54.89-4.589-54.89,134.411v22.5c0,30.35,15.28,57.13,38.56,73.07c0.19,0.14,0.39,0.27,0.58,0.4
		c14.1,9.489,31.08,15.029,49.36,15.029c5.29,0,10.47-0.46,15.5-1.35c-12.36-2.19-23.84-6.94-33.86-13.68
		C213.45,271.841,213.25,271.711,213.06,271.571z"/>
	<g style="opacity:0.44;">
		<path style="fill:#EDD25F;" d="M222.05,180.366c0,0-48-41-111,3c0,0-5,64,56,66S222.05,180.366,222.05,180.366z"/>
		<path style="fill:#EDD25F;" d="M241.95,180.366c0,0,48-41,111,3c0,0,5,64-56,66S241.95,180.366,241.95,180.366z"/>
	</g>
	<g>
		<path style="fill:#2E3192;" d="M169.563,249.407c-0.895,0-1.797-0.015-2.71-0.045c-44.72-1.466-57.093-33.674-60.489-52.743
			c-2.429-13.638,4.261-27.11,16.646-33.524c30.501-15.797,56.784-13.206,73.461-8.252c18.131,5.386,29.021,14.572,29.476,14.961
			c1.201,1.025,1.949,2.483,2.082,4.057c0.129,1.531,2.929,37.74-17.859,59.627C200.13,244.058,186.478,249.407,169.563,249.407z
			 M170.086,162.965c-13.781,0-27.687,3.601-41.558,10.785c-7.693,3.984-11.852,12.329-10.35,20.766
			c3.37,18.926,14.618,41.724,49.068,42.853c14.573,0.479,26.082-3.596,34.188-12.109c14.248-14.962,14.928-39.806,14.747-47.822
			c-3.6-2.565-11.928-7.844-23.627-11.239C185.12,164.043,177.621,162.965,170.086,162.965z"/>
		<path style="fill:#FFFFFF;" d="M178.498,230.568c-2.788,0-5.286-1.954-5.871-4.791c-0.668-3.246,1.421-6.418,4.667-7.087
			c4.737-0.975,8.433-2.953,11.299-6.045c3.244-3.5,5.748-8.596,7.443-15.146c0.831-3.209,4.107-5.134,7.312-4.306
			c3.208,0.83,5.136,4.104,4.306,7.312c-2.198,8.495-5.649,15.324-10.258,20.297c-4.561,4.922-10.51,8.167-17.681,9.643
			C179.306,230.528,178.899,230.568,178.498,230.568z"/>
		<path style="fill:#FFFFFF;" d="M204.123,189.95c-0.39,0-0.79-0.04-1.18-0.11c-0.38-0.08-0.76-0.2-1.12-0.35s-0.71-0.33-1.04-0.55
			c-0.32-0.22-0.63-0.47-0.91-0.74c-1.11-1.12-1.75-2.67-1.75-4.25s0.64-3.12,1.75-4.24c0.28-0.28,0.59-0.53,0.91-0.74
			c0.33-0.22,0.68-0.41,1.04-0.56s0.74-0.26,1.12-0.34c1.95-0.39,4.02,0.25,5.42,1.64c1.12,1.12,1.76,2.66,1.76,4.24
			s-0.64,3.13-1.76,4.25C207.243,189.31,205.703,189.95,204.123,189.95z"/>
		<path style="fill:#2E3192;" d="M294.437,249.407c-16.917,0-30.566-5.348-40.606-15.919
			c-20.787-21.888-17.988-58.097-17.858-59.627c0.133-1.573,0.881-3.031,2.082-4.057c0.534-0.457,13.339-11.246,34.377-16.273
			c19.329-4.62,49.584-5.088,83.955,18.917c1.472,1.028,2.406,2.662,2.546,4.452c0.103,1.305,2.278,32.204-16.728,53.44
			c-10.735,11.995-25.895,18.396-45.058,19.023C296.236,249.393,295.33,249.407,294.437,249.407z M247.82,177.426
			c-0.183,8.002,0.492,32.865,14.747,47.834c8.105,8.513,19.6,12.581,34.188,12.109c15.729-0.516,27.994-5.554,36.457-14.976
			c12.638-14.07,13.839-34.444,13.83-41.797c-23.857-15.908-48.004-21.086-71.821-15.396
			C261.415,168.501,251.757,174.604,247.82,177.426z"/>
		<path style="fill:#FFFFFF;" d="M308.501,229.706c-2.651,0-5.076-1.77-5.793-4.453c-0.855-3.202,1.047-6.49,4.248-7.346
			c5.357-1.431,9.543-3.874,12.797-7.469c2.512-2.773,4.563-6.305,6.1-10.5c1.139-3.111,4.58-4.709,7.697-3.571
			c3.111,1.14,4.71,4.585,3.57,7.697c-2.069,5.652-4.92,10.506-8.472,14.429c-4.785,5.286-11.042,8.99-18.595,11.008
			C309.535,229.639,309.014,229.706,308.501,229.706z"/>
		<path style="fill:#FFFFFF;" d="M334.743,193.05c-0.391,0-0.79-0.04-1.171-0.11c-0.39-0.08-0.76-0.2-1.13-0.35
			c-0.359-0.15-0.71-0.33-1.029-0.55c-0.33-0.22-0.641-0.47-0.91-0.75c-1.12-1.11-1.76-2.66-1.76-4.24s0.64-3.13,1.76-4.24
			c0.27-0.28,0.58-0.53,0.91-0.75c0.319-0.21,0.67-0.4,1.029-0.55c0.37-0.15,0.74-0.26,1.13-0.34c0.771-0.15,1.57-0.16,2.341,0
			c0.38,0.08,0.76,0.19,1.12,0.34c0.369,0.15,0.71,0.34,1.039,0.55c0.33,0.22,0.631,0.47,0.91,0.75c0.28,0.27,0.53,0.58,0.75,0.91
			c0.21,0.33,0.4,0.67,0.551,1.04c0.149,0.36,0.26,0.74,0.34,1.12c0.08,0.39,0.12,0.78,0.12,1.17c0,1.58-0.641,3.13-1.761,4.24
			C337.863,192.41,336.323,193.05,334.743,193.05z"/>
	</g>
	<path style="fill:#2E3192;" d="M241.95,180.366h-19.9c-3.313,0-6-2.687-6-6s2.687-6,6-6h19.901c3.313,0,6,2.687,6,6
		S245.264,180.366,241.95,180.366z"/>
	<rect x="218.505" y="186.407" style="fill:#2E3192;" width="25" height="12"/>
	<path style="fill:#4CC18E;" d="M320.505,148.671c-37.667-4.67-64-39.67-64-39.67c-15,30-73,73-113.01,89.5
		c-40,16.5-64.99-1.5-64.99-1.5s63-16,50-71s30-106,88-109c53.06-2.74,69.3,33.01,71.67,39.12c0.23,0.57,0.33,0.88,0.33,0.88
		l0.66-0.06C320.838,70.668,334.172,115.334,320.505,148.671z"/>
	<path style="opacity:0.44;fill:#333333;enable-background:new    ;" d="M232.465,17.381c-42.84,14.23-68.55,57.09-61.96,104.16
		c10.33,73.79-77,78.46-77,78.46s15.03,3.05,35.15,3.3c-31.24,7.32-50.15-6.3-50.15-6.3s63-16,50-71s30-106,88-109
		C222.245,16.701,227.555,16.861,232.465,17.381z"/>
	<path style="fill:#333333;" d="M110.498,211.493c-21.781,0.001-34.725-9.065-35.5-9.623c-1.892-1.363-2.823-3.698-2.388-5.989
		s2.158-4.122,4.417-4.695c2.329-0.599,57.108-15.277,45.638-63.804c-6.324-26.755-0.631-53.724,16.029-75.938
		c18.063-24.083,46.31-38.821,77.5-40.434c23.969-1.231,43.828,4.707,59.043,17.666c10.363,8.826,15.627,18.649,17.732,23.37
		c25.343,11.184,34.876,31.972,38.4,47.594c4.882,21.639,0.542,45.323-6.406,53.046c-1.369,1.521-3.42,2.24-5.438,1.906
		c-31.041-5.133-52.537-24.632-62.185-35.211c-20.548,30.653-74.05,69.2-111.56,84.669
		C132.375,209.578,120.502,211.492,110.498,211.493z M94.423,197.444c10.169,2.757,26.213,3.997,46.784-4.489
		c38.01-15.675,95.521-57.816,109.932-86.637c0.939-1.88,2.796-3.132,4.892-3.298c2.083-0.168,4.124,0.776,5.351,2.484
		c0.211,0.292,21.255,28.948,56.213,36.505c2.926-6.639,5.933-22.616,2.071-39.73c-2.916-12.925-10.778-30.116-31.632-39.296
		c-2.386-0.187-4.477-1.792-5.235-4.13c-0.009-0.025-0.074-0.206-0.188-0.49c-2.485-6.406-17.2-37.892-65.795-35.37
		c-27.624,1.429-52.599,14.422-68.519,35.65c-14.487,19.316-19.442,42.748-13.952,65.978c5.899,24.956-1.814,46.484-22.304,62.26
		C106.037,191.503,99.791,194.956,94.423,197.444z"/>
	<path style="fill:#FFFFFF;" d="M309.018,132.915c-0.236,0-0.475-0.014-0.714-0.042c-3.291-0.39-5.643-3.374-5.252-6.665
		c0.593-5,1.077-14.883-2.333-24.906c-2.363-6.948-5.966-12.333-11.016-16.465c-2.564-2.098-2.942-5.878-0.844-8.443
		c2.097-2.564,5.877-2.944,8.443-0.844c6.741,5.516,11.713,12.88,14.777,21.887c4.172,12.264,3.601,24.175,2.888,30.184
		C314.607,130.671,312.016,132.915,309.018,132.915z"/>
	<path style="fill:#333333;" d="M277.499,80.002c-1.116,0-2.246-0.311-3.254-0.963c-2.782-1.8-3.578-5.515-1.777-8.297l11-17
		c1.8-2.782,5.512-3.579,8.297-1.778c2.782,1.8,3.578,5.515,1.777,8.297l-11,17C281.394,79.035,279.467,80.002,277.499,80.002z"/>
	<path style="fill:#333333;" d="M256.499,115.002c-1.009,0-2.032-0.255-2.971-0.792c-2.877-1.644-3.877-5.309-2.232-8.187l4-7
		c1.644-2.876,5.31-3.877,8.186-2.232c2.877,1.644,3.877,5.309,2.232,8.187l-4,7C260.607,113.916,258.582,115.002,256.499,115.002z"
		/>
</g>
<g>
</g>
<g>
</g>
<g>
</g>
<g>
</g>
<g>
</g>
<g>
</g>
<g>
</g>
<g>
</g>
<g>
</g>
<g>
</g>
<g>
</g>
<g>
</g>
<g>
</g>
<g>
</g>
<g>
</g>
</svg>
