<?xml version="1.0" encoding="iso-8859-1"?>
<!-- Generator: Adobe Illustrator 19.0.0, SVG Export Plug-In . SVG Version: 6.00 Build 0)  -->
<svg version="1.1" id="Layer_1" xmlns="http://www.w3.org/2000/svg" xmlns:xlink="http://www.w3.org/1999/xlink" x="0px" y="0px"
	 viewBox="0 0 441 441" style="enable-background:new 0 0 441 441;" xml:space="preserve">
<g>
	<g>
		<path style="fill:#F7B239;" d="M269.86,263.97c0.19,0.05,0.39,0.09,0.58,0.14c10.46,2.53,20.19,6.93,28.83,12.81
			c23.39,15.92,38.75,42.77,38.75,73.19V435h-47.04H150.02h-47.03v-84.89c0-30.42,15.35-57.27,38.74-73.19
			c8.64-5.88,18.37-10.28,28.83-12.81c0.19-0.05,0.39-0.09,0.58-0.14"/>
		<path style="fill:#A67C52;" d="M270.44,262.38v1.97c0,27.58-22.35,49.94-49.93,49.94c-27.59,0-49.94-22.36-49.94-49.94v-1.78
			c4.53-1.83,9.21-3.41,14.03-4.73c10.98,4.88,23.12,7.59,35.91,7.59c12.85,0,25.07-2.74,36.09-7.68
			C261.35,259.04,265.97,260.59,270.44,262.38z"/>
		<path style="opacity:0.44;fill:#333333;enable-background:new    ;" d="M268.885,251.05c-6.74,12.83-16.55,23.81-28.44,31.95
			c-0.19,0.14-0.39,0.27-0.58,0.4c-14.1,9.49-31.08,15.03-49.36,15.03c-6.5,0-6.267-7.273-12.367-8.613
			c-0.66-3.23-7.573-7.467-7.573-10.887v-28.39c0.19-0.05,0.39-0.09,0.58-0.14c14.1,9.49,31.08,15.03,49.36,15.03
			C238.365,265.43,254.985,260.14,268.885,251.05z"/>
		<g>
			<path style="fill:#333333;" d="M254.985,399h-68.961c-23.159,0-42-18.841-42-42h12c0,16.542,13.458,30,30,30h68.961
				c16.542,0,29.999-13.458,29.999-30h12C296.984,380.159,278.144,399,254.985,399z"/>
			<path style="fill:#FFFFFF;" d="M254.985,381c-3.313,0-6-2.687-6-6s2.687-6,6-6c6.617,0,12-5.383,12-12c0-3.313,2.687-6,6-6
				s6,2.687,6,6C278.985,370.234,268.219,381,254.985,381z"/>
		</g>
		<path style="fill:#A67C52;" d="M340,416.43V435h-49.02v-65v-13l41.29-37.34c4.99,11.39,7.73,23.74,7.73,36.65L340,416.43
			L340,416.43z"/>
		<path style="fill:#A67C52;" d="M150.02,370v65H101.5v-18.57v-60.12c0-12.79,2.68-25.04,7.58-36.34l40.94,37.02V370z"/>
		<path style="fill:#333333;" d="M145.994,361.439l-0.011-0.01l-40.928-37.009c-2.458-2.222-2.648-6.017-0.426-8.475
			c2.223-2.458,6.017-2.648,8.475-0.426l40.939,37.02L145.994,361.439z"/>
		<path style="fill:#333333;" d="M290.981,363c-1.637,0-3.268-0.666-4.452-1.976c-2.223-2.458-2.032-6.252,0.426-8.475l41.29-37.34
			c2.458-2.223,6.251-2.032,8.475,0.426c2.223,2.458,2.032,6.252-0.426,8.475l-41.29,37.34C293.855,362.488,292.416,363,290.981,363
			z"/>
		<path style="fill:#333333;" d="M220.51,320.29c-30.845,0-55.939-25.095-55.939-55.94v-1.78h12v1.78
			c0,24.229,19.711,43.94,43.939,43.94c24.223,0,43.93-19.711,43.93-43.94v-1.97h12v1.97
			C276.439,295.195,251.35,320.29,220.51,320.29z"/>
		<path style="fill:#333333;" d="M346,435h-12v-78.69c0-11.777-2.432-23.298-7.227-34.242c-5.657-12.918-14.281-24.448-25.63-34.271
			c-1.991-1.73-4.024-3.366-6.05-4.869c-8.116-6.082-17.148-11.113-26.867-14.971c-4.288-1.717-8.724-3.201-13.199-4.417
			c-0.662-0.185-1.282-0.349-1.911-0.504l2.867-11.652c0.752,0.185,1.491,0.381,2.231,0.587c4.879,1.325,9.757,2.957,14.455,4.839
			c10.689,4.242,20.654,9.795,29.599,16.499c2.248,1.669,4.522,3.499,6.736,5.422c12.702,10.994,22.381,23.957,28.761,38.522
			c5.464,12.471,8.234,25.612,8.234,39.057V435H346z"/>
		<path style="fill:#333333;" d="M107.5,435h-12v-78.69c0-13.341,2.717-26.371,8.075-38.727
			c7.351-16.918,19.546-32.13,35.271-43.993c8.919-6.723,18.838-12.303,29.484-16.586c4.731-1.912,9.674-3.579,14.684-4.951
			c0.673-0.188,1.382-0.374,2.093-0.559l3.067,11.602c-0.683,0.178-1.326,0.346-1.963,0.523c-4.588,1.257-9.085,2.773-13.394,4.514
			c-9.676,3.893-18.672,8.951-26.747,15.038c-14.073,10.618-24.963,24.17-31.488,39.19c-4.699,10.837-7.083,22.26-7.083,33.949
			L107.5,435L107.5,435z"/>
		<path style="fill:#333333;" d="M296.979,435h-12V311c0-12.494,2.791-24.442,8.295-35.516c0.165-0.345,0.342-0.69,0.517-1.031
			l0.135-0.262l10.688,5.457l-0.152,0.297c-0.125,0.242-0.252,0.488-0.369,0.733c-0.017,0.035-0.033,0.07-0.051,0.105
			c-4.686,9.41-7.062,19.576-7.062,30.216V435H296.979z"/>
		<path style="fill:#333333;" d="M156.02,435h-12V311c0-10.539-2.335-20.622-6.941-29.968c-0.016-0.032-0.031-0.065-0.047-0.098
			c-0.196-0.417-0.41-0.834-0.623-1.243l10.643-5.543c0.278,0.535,0.557,1.081,0.814,1.626c5.411,10.998,8.154,22.848,8.154,35.226
			L156.02,435L156.02,435z"/>
		<path style="fill:#333333;" d="M352,441H89.229c-3.313,0-6-2.687-6-6s2.687-6,6-6H352c3.313,0,6,2.687,6,6S355.313,441,352,441z"
			/>
		<path style="fill:#333333;" d="M384,441h-11c-3.313,0-6-2.687-6-6s2.687-6,6-6h11c3.313,0,6,2.687,6,6S387.313,441,384,441z"/>
		<path style="fill:#333333;" d="M68,441H57c-3.313,0-6-2.687-6-6s2.687-6,6-6h11c3.313,0,6,2.687,6,6S71.313,441,68,441z"/>
		<path style="fill:#FFFFFF;" d="M318.02,421c-3.313,0-6-2.687-6-6v-57c0-3.313,2.687-6,6-6s6,2.687,6,6v57
			C324.02,418.313,321.333,421,318.02,421z"/>
		<g>
			<path style="opacity:0.44;fill:#333333;enable-background:new    ;" d="M146.67,288.92c-15.21,15.89-24.56,37.45-24.56,61.19V433
				h-19.12v-82.89c0-30.42,15.35-57.27,38.74-73.19C143.71,280.74,145.37,284.75,146.67,288.92z"/>
		</g>
	</g>
	<path style="fill:#A67C52;" d="M269.86,252.97c-14.1,9.49-31.08,15.03-49.36,15.03s-35.26-5.54-49.36-15.03
		c-0.19-0.13-0.39-0.26-0.58-0.4C147.28,236.63,132,209.85,132,179.5V157v-51.5c0-48.877,39.623-88.5,88.5-88.5l0,0
		c48.877,0,88.5,39.623,88.5,88.5V157v22.5c0,30.35-15.28,57.13-38.56,73.07C270.25,252.71,270.05,252.84,269.86,252.97z"/>
	<g>
		<path style="fill:#F7774B;" d="M220.5,227.01c-4.869,0-9.738-0.513-14.572-1.538c-3.242-0.688-5.313-3.873-4.625-7.114
			c0.687-3.241,3.874-5.312,7.113-4.625c8.02,1.7,16.148,1.7,24.168,0c3.239-0.685,6.427,1.384,7.113,4.625
			c0.688,3.242-1.383,6.427-4.625,7.114C230.238,226.497,225.369,227.01,220.5,227.01z"/>
	</g>
	<g style="opacity:0.44;">
		<path style="fill:#333333;" d="M221.005,240h-1.01c-2.209,0-4-1.791-4-4s1.791-4,4-4h1.01c2.209,0,4,1.791,4,4
			S223.214,240,221.005,240z"/>
	</g>
	<g>
		<g>
			<path style="fill:#333333;" d="M275.973,151.414c-0.452,0-0.912-0.052-1.372-0.159c-7.916-1.853-16.285-1.853-24.201,0
				c-3.232,0.757-6.455-1.25-7.209-4.476c-0.755-3.227,1.248-6.454,4.475-7.209c9.705-2.27,19.963-2.271,29.67,0
				c3.227,0.755,5.229,3.982,4.475,7.209C281.163,149.546,278.697,151.414,275.973,151.414z"/>
		</g>
	</g>
	<path style="opacity:0.44;fill:#333333;enable-background:new    ;" d="M202.14,252.97c10.02,6.74,21.5,11.49,33.86,13.68
		c-5.03,0.89-10.21,1.35-15.5,1.35c-18.28,0-35.26-5.54-49.36-15.03c-0.19-0.13-0.39-0.26-0.58-0.4
		C147.28,236.63,132,209.85,132,179.5V157c0-139,54.89-137.301,54.89-134.411l-10.384,15.807
		c-15.364,23.387-15.306,53.174-0.958,76.231c2.423,3.895,10.151,17.294,10.019,20.366c-0.483,11.29-9.201,21.36-21.338,21.975
		C163.822,156.99,163.412,157,163,157v22.5c0,30.35,15.28,57.13,38.56,73.07C201.75,252.71,201.95,252.84,202.14,252.97z"/>
	<g>
		<g>
			<g>
				<g>
					<circle style="fill:#333333;" cx="186.16" cy="168.116" r="8.009"/>
				</g>
				<path style="fill:#333333;" d="M170.83,175.208c-1.533,0-3.065-0.583-4.236-1.751c-2.347-2.34-2.353-6.139-0.013-8.485
					c6.153-6.17,15.544-7.746,23.376-3.919c2.977,1.455,4.211,5.048,2.756,8.025c-1.454,2.977-5.044,4.212-8.025,2.756
					c-3.218-1.573-7.08-0.925-9.608,1.611C173.906,174.62,172.368,175.208,170.83,175.208z"/>
			</g>
		</g>
		<g>
			<g>
				<g>
					<circle style="fill:#333333;" cx="254.84" cy="168.116" r="8.009"/>
				</g>
				<path style="fill:#333333;" d="M270.169,175.208c-1.539,0-3.077-0.588-4.249-1.764c-2.528-2.537-6.39-3.183-9.607-1.611
					c-2.978,1.456-6.57,0.221-8.025-2.756c-1.455-2.977-0.222-6.57,2.756-8.025c7.83-3.827,17.224-2.251,23.375,3.919
					c2.34,2.347,2.334,6.146-0.013,8.485C273.234,174.624,271.701,175.208,270.169,175.208z"/>
			</g>
		</g>
	</g>
	<path style="fill:#4D4D4D;" d="M348.495,147c0,6.34-2.95,11.97-7.55,15.64c2.24,3.23,3.55,7.14,3.55,11.36
		c0,9.78-7.02,17.91-16.3,19.64c0.19,1.1,0.3,2.21,0.3,3.36c0,11.05-8.95,20-20,20c-2.53,0-4.96-0.47-7.19-1.34
		c4.95-11.04,7.7-23.27,7.7-36.16V157v-26.31c-3.15,2.1-6.94,3.31-11.01,3.31c-8.35,0-15.5-5.13-18.49-12.4
		c-3.43,2.75-7.77,4.4-12.51,4.4c-8.31,0-15.44-5.08-18.46-12.31c-3.56,3.29-8.31,5.31-13.54,5.31c-5.71,0-10.85-2.41-14.5-6.25
		c-3.64,3.84-8.78,6.25-14.5,6.25c-5.22,0-9.97-2.02-13.53-5.31c-3.02,7.23-10.15,12.31-18.47,12.31c-4.73,0-9.07-1.65-12.5-4.4
		c-2.99,7.27-10.14,12.4-18.5,12.4c-4.06,0-7.84-1.21-11-3.3V147v10v22.5c0,12.89,2.75,25.12,7.7,36.16
		c-2.23,0.87-4.66,1.34-7.2,1.34c-11.04,0-20-8.95-20-20c0-1.15,0.12-2.26,0.31-3.36c-9.28-1.73-16.31-9.86-16.31-19.64
		c0-4.22,1.32-8.13,3.56-11.36c-4.6-3.67-7.56-9.3-7.56-15.64c0-7.8,4.48-14.54,10.99-17.83c-4.27-3.67-6.99-9.1-6.99-15.17
		c0-9.82,7.08-17.97,16.41-19.66c-0.9-2.28-1.41-4.75-1.41-7.34c0-9.59,6.76-17.6,15.78-19.54c-0.49-1.74-0.78-3.57-0.78-5.46
		c0-11.05,8.96-20,20-20c2.67,0,5.2,0.53,7.53,1.48c-0.33-1.45-0.53-2.94-0.53-4.48c0-11.05,8.96-20,20-20
		c4.21,0,8.11,1.3,11.33,3.52c1.65-9.38,9.82-16.52,19.67-16.52c6.56,0,12.36,3.17,16,8.04c3.65-4.87,9.45-8.04,16-8.04
		c9.86,0,18.03,7.14,19.68,16.52c3.22-2.22,7.12-3.52,11.32-3.52c11.05,0,20,8.95,20,20c0,1.54-0.19,3.03-0.52,4.48
		c2.33-0.95,4.86-1.48,7.52-1.48c11.05,0,20,8.95,20,20c0,1.89-0.28,3.72-0.77,5.46c9.02,1.94,15.77,9.95,15.77,19.54
		c0,2.59-0.5,5.06-1.4,7.34c9.33,1.69,16.4,9.84,16.4,19.66c0,6.07-2.71,11.5-6.98,15.17C344.025,132.46,348.495,139.2,348.495,147z
		"/>
	<g>
		<path style="fill:#333333;" d="M213.557,200c-3.313,0-6-2.687-6-6v-32.927c0-2.692-1.515-5.195-3.858-6.375
			c-7.192-3.621-19.527-7.153-37.439-3.412c-3.245,0.674-6.422-1.403-7.1-4.647s1.403-6.422,4.646-7.1
			c21.303-4.447,36.388-0.041,45.289,4.44c6.453,3.25,10.462,9.799,10.462,17.094V194C219.557,197.313,216.87,200,213.557,200z"/>
	</g>
	<path style="fill:#333333;" d="M308.495,223c-3.241,0-6.395-0.589-9.371-1.75l4.361-11.18c1.581,0.617,3.267,0.93,5.01,0.93
		c7.72,0,14-6.28,14-14c0-0.744-0.069-1.51-0.213-2.341c-0.557-3.234,1.588-6.315,4.813-6.917
		c6.605-1.231,11.399-7.011,11.399-13.742c0-2.854-0.857-5.601-2.48-7.941c-1.799-2.595-1.279-6.14,1.188-8.108
		c3.363-2.684,5.292-6.675,5.292-10.95c0-5.299-2.945-10.079-7.687-12.475c-1.789-0.904-3.008-2.642-3.25-4.631
		c-0.242-1.99,0.525-3.968,2.046-5.275c3.107-2.671,4.891-6.542,4.891-10.619c0-6.767-4.824-12.552-11.47-13.756
		c-1.769-0.32-3.3-1.417-4.174-2.987s-0.997-3.45-0.337-5.121c0.65-1.648,0.98-3.376,0.98-5.136c0-6.549-4.64-12.299-11.032-13.674
		c-1.619-0.348-3.023-1.351-3.878-2.77c-0.854-1.419-1.085-3.128-0.636-4.723c0.362-1.285,0.546-2.574,0.546-3.833
		c0-7.72-6.28-14-14-14c-1.801,0-3.569,0.349-5.256,1.036c-2.071,0.845-4.44,0.467-6.147-0.982
		c-1.706-1.448-2.464-3.725-1.968-5.906c0.25-1.096,0.371-2.125,0.371-3.148c0-7.72-6.28-14-14-14c-2.844,0-5.58,0.851-7.915,2.46
		c-1.681,1.159-3.836,1.385-5.723,0.595c-1.885-0.789-3.238-2.483-3.592-4.495c-1.179-6.698-6.97-11.56-13.771-11.56
		c-4.432,0-8.514,2.055-11.198,5.638c-1.133,1.512-2.912,2.402-4.802,2.402c-0.001,0-0.002,0-0.004,0
		c-1.891-0.001-3.67-0.893-4.802-2.408c-2.676-3.58-6.756-5.632-11.194-5.632c-6.796,0-12.583,4.861-13.761,11.559
		c-0.354,2.012-1.707,3.706-3.591,4.495c-1.887,0.789-4.04,0.565-5.724-0.594c-2.335-1.61-5.075-2.46-7.925-2.46
		c-7.72,0-14,6.28-14,14c0,0.993,0.124,2.024,0.381,3.152c0.495,2.181-0.265,4.457-1.971,5.904c-1.704,1.446-4.073,1.826-6.146,0.98
		c-1.686-0.687-3.456-1.036-5.264-1.036c-7.72,0-14,6.28-14,14c0,1.235,0.187,2.525,0.556,3.835
		c0.448,1.595,0.218,3.303-0.638,4.722c-0.854,1.418-2.258,2.42-3.877,2.769c-6.397,1.376-11.041,7.127-11.041,13.674
		c0,1.744,0.333,3.471,0.99,5.136c0.66,1.671,0.537,3.551-0.337,5.121s-2.405,2.667-4.174,2.987
		c-6.651,1.205-11.479,6.991-11.479,13.756c0,4.072,1.786,7.943,4.9,10.62c1.52,1.307,2.287,3.285,2.045,5.275
		c-0.242,1.989-1.461,3.727-3.25,4.63c-4.746,2.399-7.695,7.179-7.695,12.475c0,4.271,1.933,8.262,5.302,10.95
		c2.468,1.969,2.987,5.515,1.188,8.109c-1.629,2.349-2.49,5.094-2.49,7.94c0,6.73,4.798,12.509,11.409,13.742
		c3.226,0.602,5.37,3.683,4.813,6.917c-0.149,0.869-0.223,1.635-0.223,2.341c0,7.72,6.28,14,14,14c1.75,0,3.438-0.313,5.02-0.93
		l4.361,11.18c-2.977,1.161-6.133,1.75-9.381,1.75c-14.002,0-25.455-11.125-25.981-25.001C96.978,194.047,90.49,184.666,90.49,174
		c0-3.563,0.723-7.041,2.117-10.263c-3.933-4.65-6.117-10.531-6.117-16.737c0-7.306,3.012-14.081,8.163-18.91
		c-2.691-4.161-4.163-9.04-4.163-14.09c0-10.383,6.121-19.524,15.218-23.655c-0.145-1.107-0.218-2.223-0.218-3.345
		c0-10.203,6.069-19.364,15.042-23.563c-0.028-0.481-0.042-0.96-0.042-1.438c0-14.336,11.663-26,26-26
		c0.391,0,0.78,0.009,1.169,0.026C149.145,23.085,160.164,13,173.495,13c2.688,0,5.326,0.409,7.841,1.204
		C185.664,5.665,194.491,0,204.495,0c5.92,0,11.493,1.957,16.003,5.51C225.011,1.957,230.582,0,236.495,0
		c10.007,0,18.838,5.665,23.168,14.203c2.512-0.794,5.146-1.203,7.832-1.203c13.331,0,24.351,10.085,25.831,23.026
		c0.389-0.018,0.778-0.026,1.169-0.026c14.337,0,26,11.664,26,26c0,0.478-0.014,0.956-0.041,1.435
		c8.971,4.197,15.041,13.36,15.041,23.565c0,1.123-0.072,2.239-0.215,3.343c9.095,4.129,15.215,13.271,15.215,23.657
		c0,5.053-1.47,9.932-4.156,14.09c5.147,4.828,8.156,11.603,8.156,18.91c0,6.209-2.183,12.09-6.109,16.738
		c1.389,3.219,2.109,6.696,2.109,10.262c0,10.669-6.487,20.053-16.02,24.002C333.948,211.876,322.496,223,308.495,223z"/>
	<g style="opacity:0.44;">
		<path style="fill:#333333;" d="M131.995,157v-10v-16.3c3.16,2.09,6.94,3.3,11,3.3c0.654,0,1.297-0.042,1.935-0.104
			c1.693-1.939,3.747-3.555,6.065-4.727c-4.27-3.67-6.99-9.1-6.99-15.17c0-9.82,7.08-17.97,16.41-19.66
			c-0.9-2.28-1.41-4.75-1.41-7.34c0-9.59,6.76-17.6,15.78-19.54c-0.49-1.74-0.78-3.57-0.78-5.46c0-11.05,8.96-20,20-20
			c2.67,0,5.2,0.53,7.53,1.48c-0.33-1.45-0.53-2.94-0.53-4.48c0-11.05,8.96-20,20-20c4.21,0,8.11,1.3,11.33,3.52
			c1.189-6.758,5.771-12.336,11.918-14.937C241.866,6.575,239.251,6,236.495,6c-6.55,0-12.35,3.17-16,8.04
			c-3.64-4.87-9.44-8.04-16-8.04c-9.85,0-18.02,7.14-19.67,16.52c-3.22-2.22-7.12-3.52-11.33-3.52c-11.04,0-20,8.95-20,20
			c0,1.54,0.2,3.03,0.53,4.48c-2.33-0.95-4.86-1.48-7.53-1.48c-11.04,0-20,8.95-20,20c0,1.89,0.29,3.72,0.78,5.46
			c-9.02,1.94-15.78,9.95-15.78,19.54c0,2.59,0.51,5.06,1.41,7.34c-9.33,1.69-16.41,9.84-16.41,19.66c0,6.07,2.72,11.5,6.99,15.17
			c-6.51,3.29-10.99,10.03-10.99,17.83c0,6.34,2.96,11.97,7.56,15.64c-2.24,3.23-3.56,7.14-3.56,11.36
			c0,9.78,7.03,17.91,16.31,19.64c-0.19,1.1-0.31,2.21-0.31,3.36c0,11.05,8.96,20,20,20c2.54,0,4.97-0.47,7.2-1.34
			c-4.95-11.04-7.7-23.27-7.7-36.16V157z"/>
	</g>
	<path style="fill:#FFFFFF;" d="M238.442,31.639c-0.39,0-0.779-0.04-1.17-0.12c-0.38-0.07-0.76-0.19-1.12-0.34
		c-0.359-0.15-0.71-0.33-1.04-0.55c-0.329-0.22-0.63-0.47-0.909-0.75c-1.12-1.11-1.761-2.66-1.761-4.24c0-0.39,0.04-0.79,0.12-1.17
		c0.08-0.39,0.19-0.76,0.34-1.13c0.15-0.36,0.341-0.71,0.561-1.03c0.21-0.33,0.47-0.64,0.74-0.91c0.279-0.28,0.58-0.53,0.909-0.75
		c0.33-0.21,0.681-0.4,1.04-0.55c0.36-0.15,0.74-0.27,1.12-0.34c1.95-0.4,4.021,0.24,5.42,1.64c1.11,1.12,1.75,2.66,1.75,4.24
		s-0.64,3.12-1.75,4.24C241.572,30.999,240.022,31.639,238.442,31.639z"/>
	<g>
		<path style="fill:#F7774B;" d="M308.063,253c-9.376,0-18.341-4.009-24.596-10.999c-2.21-2.469-2-6.262,0.47-8.472
			c2.469-2.208,6.264-2,8.472,0.47c3.982,4.449,9.688,7.001,15.654,7.001c11.579,0,21-9.42,21-21s-9.421-21-21-21
			c-3.313,0-6-2.687-6-6s2.687-6,6-6c18.196,0,33,14.804,33,33S326.259,253,308.063,253z"/>
		<path style="fill:#F7774B;" d="M132.938,253c-18.196,0-33-14.804-33-33s14.804-33,33-33c3.313,0,6,2.687,6,6s-2.687,6-6,6
			c-11.579,0-21,9.42-21,21s9.421,21,21,21c5.966,0,11.672-2.552,15.654-7.001c2.209-2.47,6.002-2.68,8.473-0.469
			c2.469,2.21,2.679,6.003,0.469,8.472C151.277,248.991,142.313,253,132.938,253z"/>
	</g>
	<path style="fill:#FFFFFF;" d="M324.003,120.999c-1.58,0-3.12-0.64-4.24-1.75c-0.28-0.28-0.53-0.59-0.75-0.92
		c-0.21-0.32-0.4-0.67-0.55-1.03c-0.15-0.37-0.26-0.74-0.34-1.13c-0.08-0.38-0.12-0.78-0.12-1.17s0.04-0.78,0.12-1.17
		c0.08-0.38,0.189-0.76,0.34-1.12c0.149-0.37,0.34-0.71,0.55-1.04c0.22-0.33,0.47-0.64,0.75-0.91c1.39-1.39,3.47-2.03,5.41-1.64
		c0.39,0.08,0.76,0.19,1.13,0.34c0.36,0.15,0.71,0.34,1.03,0.55c0.33,0.22,0.64,0.47,0.91,0.75c0.279,0.27,0.529,0.58,0.75,0.91
		c0.22,0.33,0.399,0.67,0.55,1.04c0.149,0.36,0.27,0.74,0.34,1.12c0.08,0.39,0.12,0.78,0.12,1.17c0,1.58-0.641,3.13-1.76,4.25
		c-0.271,0.27-0.58,0.52-0.91,0.74c-0.32,0.22-0.67,0.4-1.03,0.55c-0.37,0.15-0.74,0.27-1.13,0.34
		C324.793,120.959,324.393,120.999,324.003,120.999z"/>
	<path style="fill:#FFFFFF;" d="M329.003,152.999c-0.391,0-0.78-0.04-1.17-0.12c-0.38-0.07-0.761-0.19-1.12-0.34
		c-0.37-0.15-0.71-0.33-1.04-0.55c-0.33-0.22-0.64-0.47-0.91-0.75c-1.12-1.11-1.76-2.66-1.76-4.24s0.64-3.12,1.76-4.24
		s2.66-1.76,4.24-1.76s3.13,0.64,4.24,1.76c1.119,1.12,1.76,2.66,1.76,4.24s-0.641,3.13-1.76,4.24
		C332.133,152.359,330.583,152.999,329.003,152.999z"/>
	<path style="fill:#FFFFFF;" d="M269.43,45.487c-0.436,0-0.878-0.048-1.32-0.147c-1.458-0.327-2.672-1.16-3.499-2.272
		c-1.239-0.385-2.363-1.172-3.157-2.324c-1.88-2.728-1.193-6.464,1.535-8.345c1.327-0.915,2.886-1.398,4.507-1.398
		c4.411,0,8,3.589,8,8c0,0.561-0.071,1.15-0.217,1.8C274.651,43.59,272.175,45.487,269.43,45.487z M263.569,38.17
		C263.569,38.171,263.569,38.171,263.569,38.17C263.569,38.171,263.569,38.171,263.569,38.17z"/>
	<path style="fill:#FFFFFF;" d="M296.402,68.58c-0.537,0-1.082-0.072-1.624-0.225c-1.575-0.442-2.826-1.473-3.581-2.788
		c-1.308-0.62-2.395-1.711-2.982-3.157c-1.25-3.069,0.226-6.57,3.294-7.819c0.963-0.392,1.967-0.59,2.986-0.59c4.411,0,8,3.589,8,8
		c0,0.706-0.107,1.446-0.319,2.2C301.433,66.848,299.024,68.58,296.402,68.58z M290.623,60.957c-0.001,0-0.001,0.001-0.001,0.001
		C290.622,60.958,290.622,60.957,290.623,60.957z"/>
	<path style="fill:#FFFFFF;" d="M311.352,93.729c-0.73,0-1.475-0.134-2.195-0.418c-1.899-0.748-3.204-2.356-3.643-4.202
		c-1.265-1.384-1.863-3.339-1.439-5.312c0.697-3.24,3.893-5.301,7.127-4.605c3.646,0.784,6.294,4.068,6.294,7.809
		c0,1-0.188,1.984-0.559,2.926C316.007,92.288,313.745,93.729,311.352,93.729z"/>
	<path style="fill:#333333;" d="M220.495,274c-18.873,0-37.097-5.551-52.7-16.052c-0.231-0.151-0.484-0.321-0.729-0.5
		c-14.364-9.86-25.72-23.458-32.845-39.33c-5.459-12.175-8.227-25.167-8.227-38.617v-48.8c0-2.209,1.214-4.239,3.159-5.285
		c1.945-1.045,4.309-0.938,6.15,0.28c2.279,1.508,4.939,2.305,7.69,2.305c5.698,0,10.781-3.408,12.951-8.682
		c0.719-1.749,2.22-3.056,4.051-3.528c1.826-0.472,3.775-0.054,5.251,1.129c2.515,2.016,5.539,3.081,8.747,3.081
		c5.669,0,10.746-3.384,12.934-8.623c0.755-1.808,2.345-3.133,4.259-3.55s3.911,0.126,5.35,1.456
		c2.593,2.396,5.952,3.716,9.458,3.716c3.866,0,7.469-1.555,10.146-4.378c1.133-1.194,2.705-1.871,4.351-1.872
		c0.002,0,0.003,0,0.004,0c1.645,0,3.217,0.675,4.349,1.867c2.687,2.827,6.292,4.383,10.151,4.383c3.512,0,6.874-1.32,9.468-3.717
		c1.439-1.33,3.436-1.871,5.351-1.456c1.913,0.417,3.503,1.743,4.258,3.55c2.188,5.238,7.261,8.623,12.924,8.623
		c3.215,0,6.242-1.065,8.757-3.081c1.475-1.183,3.42-1.6,5.251-1.129c1.831,0.472,3.332,1.779,4.051,3.528
		c2.17,5.274,7.249,8.682,12.941,8.682c2.766,0,5.422-0.796,7.682-2.302c1.841-1.228,4.209-1.341,6.159-0.298
		c1.951,1.044,3.169,3.077,3.169,5.29v48.81c0,13.451-2.768,26.442-8.226,38.615c-7.121,15.886-18.49,29.497-32.882,39.363
		c-0.138,0.098-0.279,0.194-0.419,0.288l-0.106,0.072c-0.057,0.042-0.099,0.07-0.157,0.109C257.611,268.449,239.381,274,220.495,274
		z M137.995,139.518V179.5c0,11.747,2.414,23.087,7.175,33.705c6.237,13.895,16.19,25.795,28.783,34.414
		c0.096,0.065,0.189,0.134,0.28,0.205l0.167,0.107c0.022,0.014,0.072,0.047,0.094,0.062C188.11,257.156,204.018,262,220.495,262
		c16.464,0,32.354-4.828,45.955-13.964c0.111-0.078,0.228-0.157,0.346-0.236l0.116-0.079c0.053-0.039,0.091-0.065,0.145-0.103
		c12.597-8.621,22.546-20.521,28.772-34.413c0.001,0,0.001,0,0.001-0.001c4.761-10.618,7.175-21.958,7.175-33.705v-39.981
		c-1.637,0.319-3.313,0.481-5.01,0.481c-8.24,0-15.788-3.841-20.625-10.168c-3.258,1.417-6.796,2.168-10.375,2.168
		c-8.058,0-15.471-3.686-20.322-9.778c-3.592,1.815-7.579,2.778-11.678,2.778c-5.254,0-10.247-1.543-14.497-4.421
		c-4.247,2.878-9.242,4.421-14.503,4.421c-4.096,0-8.079-0.963-11.669-2.778c-4.853,6.093-12.269,9.778-20.331,9.778
		c-3.575,0-7.11-0.75-10.366-2.167C158.791,136.16,151.239,140,142.995,140C141.304,140,139.631,139.837,137.995,139.518z"/>
	<path style="fill:#FFFFFF;" d="M292.005,191c-3.313,0-6-2.687-6-6v-27c0-3.313,2.687-6,6-6s6,2.687,6,6v27
		C298.005,188.313,295.318,191,292.005,191z"/>
</g>
<g>
</g>
<g>
</g>
<g>
</g>
<g>
</g>
<g>
</g>
<g>
</g>
<g>
</g>
<g>
</g>
<g>
</g>
<g>
</g>
<g>
</g>
<g>
</g>
<g>
</g>
<g>
</g>
<g>
</g>
</svg>
