<?xml version="1.0" encoding="iso-8859-1"?>
<!-- Generator: Adobe Illustrator 19.0.0, SVG Export Plug-In . SVG Version: 6.00 Build 0)  -->
<svg version="1.1" id="Layer_1" xmlns="http://www.w3.org/2000/svg" xmlns:xlink="http://www.w3.org/1999/xlink" x="0px" y="0px"
	 viewBox="0 0 441.991 441.991" style="enable-background:new 0 0 441.991 441.991;" xml:space="preserve">
<g>
	<g>
		<g>
			<circle style="fill:#FFD3AE;" cx="140.423" cy="168.991" r="27.89"/>
			<circle style="fill:#FFD3AE;" cx="301.558" cy="168.991" r="27.89"/>
		</g>
		<g>
			<path style="fill:#333333;" d="M140.423,202.881c-18.687,0-33.89-15.203-33.89-33.89s15.203-33.89,33.89-33.89
				s33.89,15.203,33.89,33.89S159.11,202.881,140.423,202.881z M140.423,147.101c-12.07,0-21.89,9.82-21.89,21.89
				s9.82,21.89,21.89,21.89s21.89-9.82,21.89-21.89S152.493,147.101,140.423,147.101z"/>
			<path style="fill:#333333;" d="M301.558,202.881c-18.688,0-33.891-15.203-33.891-33.89s15.203-33.89,33.891-33.89
				c18.687,0,33.89,15.203,33.89,33.89S320.245,202.881,301.558,202.881z M301.558,147.101c-12.07,0-21.891,9.82-21.891,21.89
				s9.82,21.89,21.891,21.89s21.89-9.82,21.89-21.89S313.629,147.101,301.558,147.101z"/>
		</g>
	</g>
	<g>
		<path style="fill:#F7B239;" d="M270.351,264.961c0.19,0.05,0.39,0.09,0.58,0.14c10.46,2.53,20.19,6.93,28.83,12.81
			c23.39,15.92,38.75,42.77,38.75,73.19v84.89h-47.04h-140.96h-47.03v-84.89c0-30.42,15.35-57.27,38.74-73.19
			c8.64-5.88,18.37-10.28,28.83-12.81c0.19-0.05,0.39-0.09,0.58-0.14"/>
		<path style="fill:#333333;" d="M338.51,441.991H103.48c-3.314,0-6-2.686-6-6v-84.89c0-31.306,15.463-60.521,41.364-78.15
			c9.416-6.408,19.762-11.007,30.752-13.671c0.131-0.033,0.264-0.065,0.397-0.096l0.122-0.028l3.037,11.609
			c-0.153,0.04-0.309,0.077-0.465,0.113l-0.122,0.028c-0.017,0.004-0.087,0.022-0.104,0.026
			c-9.597,2.321-18.636,6.338-26.865,11.938c-22.614,15.392-36.115,40.898-36.115,68.229v78.89h223.03v-78.89
			c0-27.327-13.505-52.833-36.126-68.23c-8.229-5.6-17.267-9.617-26.865-11.938c-0.038-0.01-0.076-0.019-0.114-0.029l-0.113-0.026
			c-0.154-0.036-0.309-0.072-0.46-0.111l3.031-11.611l0.121,0.028c0.135,0.031,0.269,0.063,0.4,0.096
			c10.99,2.664,21.337,7.264,30.752,13.671c25.907,17.634,41.374,46.849,41.374,78.15v84.89
			C344.51,439.305,341.824,441.991,338.51,441.991z"/>
	</g>
	<path style="fill:#FFD3AE;" d="M150.511,311.991v124h-47.03v-84.89c0-30.42,15.35-57.27,38.74-73.19
		C147.521,288.111,150.511,299.701,150.511,311.991z"/>
	<path style="fill:#FFD3AE;" d="M338.511,351.101v84.89h-47.04v-124c0-12.29,2.99-23.88,8.29-34.08
		C323.151,293.831,338.511,320.681,338.511,351.101z"/>
	<path style="fill:#FFD3AE;" d="M270.931,265.101v13.808c0,27.58-22.36,49.94-49.94,49.94s-49.94-22.36-49.94-49.94v-13.808
		c0.19-0.05,0.39-0.09,0.58-0.14c14.1,9.49,31.08,15.03,49.36,15.03s35.26-5.54,49.36-15.03
		C270.541,265.011,270.741,265.051,270.931,265.101z"/>
	<path style="opacity:0.44;fill:#333333;enable-background:new    ;" d="M269.371,265.611c-6.74,12.83-16.55,23.81-28.44,31.95
		c-0.19,0.14-0.39,0.27-0.58,0.4c-14.1,9.49-31.08,15.03-49.36,15.03c-6.5,0-6.267-7.273-12.367-8.613
		c-0.66-3.23-7.573-7.467-7.573-10.887v-28.39c0.19-0.05,0.39-0.09,0.58-0.14c14.1,9.49,31.08,15.03,49.36,15.03
		C238.851,279.991,255.471,274.701,269.371,265.611z"/>
	<path style="fill:#FFD3AE;" d="M270.351,264.961c-14.1,9.49-31.08,15.03-49.36,15.03s-35.26-5.54-49.36-15.03
		c-0.19-0.13-0.39-0.26-0.58-0.4c-23.28-15.94-38.56-42.72-38.56-73.07v-22.5v-51.5c0-48.877,39.623-88.5,88.5-88.5l0,0
		c48.877,0,88.5,39.623,88.5,88.5v51.5v22.5c0,30.35-15.28,57.13-38.56,73.07C270.741,264.701,270.541,264.831,270.351,264.961z"/>
	<path style="opacity:0.44;fill:#333333;enable-background:new    ;" d="M202.631,264.961c10.02,6.74,21.5,11.49,33.86,13.68
		c-5.03,0.89-10.21,1.35-15.5,1.35c-18.28,0-35.26-5.54-49.36-15.03c-0.19-0.13-0.39-0.26-0.58-0.4
		c-23.28-15.94-38.56-42.72-38.56-73.07v-22.5c0-139,54.89-137.301,54.89-134.411l-10.384,15.807
		c-15.364,23.387-15.306,53.174-0.958,76.231c2.423,3.895,10.151,17.294,10.019,20.366c-0.483,11.29-9.201,21.36-21.338,21.975
		c-0.407,0.021-0.817,0.031-1.229,0.031v22.5c0,30.35,15.28,57.13,38.56,73.07C202.241,264.701,202.441,264.831,202.631,264.961z"/>
	<path style="fill:#333333;" d="M220.99,285.991c-18.88,0-37.107-5.551-52.71-16.052l-0.182-0.124
		c-0.169-0.114-0.34-0.23-0.507-0.351c-25.737-17.657-41.101-46.799-41.101-77.973v-74c0-52.107,42.393-94.5,94.5-94.5
		c52.108,0,94.5,42.393,94.5,94.5v74c0,31.174-15.363,60.316-41.101,77.973c-0.171,0.123-0.345,0.242-0.518,0.358l-0.133,0.09
		c-0.014,0.009-0.026,0.018-0.039,0.027C258.097,280.44,239.871,285.991,220.99,285.991z M220.99,34.991
		c-45.491,0-82.5,37.009-82.5,82.5v74c0,27.241,13.439,52.706,35.95,68.12c0.055,0.038,0.111,0.077,0.165,0.117l0.421,0.287
		c13.57,9.133,29.48,13.977,45.964,13.977c16.485,0,32.395-4.844,46.009-14.007l0.371-0.252c0.053-0.039,0.116-0.084,0.17-0.121
		c22.511-15.414,35.95-40.879,35.95-68.12v-74C303.491,72.001,266.481,34.991,220.99,34.991z"/>
	<path style="fill:#333333;" d="M220.99,334.85c-30.845,0-55.94-25.095-55.94-55.94v-14.348h12v14.348
		c0,24.229,19.711,43.94,43.94,43.94s43.94-19.711,43.94-43.94v-14.348h12v14.348C276.93,309.755,251.836,334.85,220.99,334.85z"/>
	<g>
		<path style="fill:#333333;" d="M189.381,189.428c-1.58,0-3.13-0.64-4.24-1.75c-1.12-1.12-1.76-2.67-1.76-4.25s0.64-3.12,1.76-4.24
			c1.39-1.39,3.46-2.03,5.41-1.64c0.39,0.08,0.76,0.19,1.13,0.34c0.36,0.15,0.71,0.34,1.03,0.55c0.33,0.22,0.64,0.47,0.91,0.75
			c0.28,0.28,0.53,0.58,0.75,0.91s0.4,0.68,0.55,1.04c0.15,0.36,0.27,0.74,0.34,1.12c0.08,0.39,0.12,0.78,0.12,1.17
			s-0.04,0.79-0.12,1.18c-0.07,0.38-0.19,0.76-0.34,1.12s-0.33,0.71-0.55,1.03c-0.22,0.33-0.47,0.64-0.75,0.92
			C192.51,188.788,190.961,189.428,189.381,189.428z"/>
		<path style="fill:#333333;" d="M257.381,189.428c-0.39,0-0.79-0.04-1.17-0.11c-0.38-0.08-0.76-0.2-1.12-0.35
			c-0.37-0.15-0.71-0.33-1.04-0.55c-0.33-0.22-0.64-0.47-0.91-0.74c-0.28-0.28-0.53-0.59-0.75-0.92c-0.22-0.32-0.4-0.67-0.55-1.03
			c-0.15-0.36-0.27-0.74-0.34-1.12c-0.08-0.39-0.12-0.79-0.12-1.18s0.04-0.78,0.12-1.17c0.07-0.38,0.19-0.76,0.34-1.12
			s0.33-0.71,0.55-1.04c0.22-0.33,0.47-0.63,0.75-0.91c0.27-0.28,0.58-0.53,0.91-0.75c0.33-0.21,0.67-0.4,1.04-0.55
			c0.36-0.15,0.74-0.26,1.12-0.34c1.95-0.39,4.02,0.25,5.41,1.64c0.28,0.28,0.53,0.58,0.75,0.91s0.4,0.68,0.55,1.04
			s0.27,0.74,0.34,1.12c0.08,0.39,0.12,0.78,0.12,1.17s-0.04,0.79-0.12,1.18c-0.07,0.38-0.19,0.76-0.34,1.12s-0.33,0.71-0.55,1.03
			c-0.22,0.33-0.47,0.64-0.75,0.92C260.51,188.788,258.961,189.428,257.381,189.428z"/>
	</g>
	<g>
		<path style="fill:#333333;" d="M214.047,202.991c-3.313,0-6-2.687-6-6v-16.856c0-3.204-2.606-5.81-5.81-5.81h-28.58
			c-3.313,0-6-2.687-6-6s2.687-6,6-6h28.58c9.82,0,17.81,7.99,17.81,17.81v16.856C220.047,200.305,217.361,202.991,214.047,202.991z
			"/>
		<path style="fill:#333333;" d="M257.496,174.325h-13.172c-3.313,0-6-2.687-6-6s2.687-6,6-6h13.172c3.313,0,6,2.687,6,6
			S260.809,174.325,257.496,174.325z"/>
	</g>
	<g>
		<path style="fill:#333333;" d="M273.668,174.325h-1.172c-3.313,0-6-2.687-6-6s2.687-6,6-6h1.172c3.313,0,6,2.687,6,6
			S276.981,174.325,273.668,174.325z"/>
	</g>
	<g>
		<path style="fill:#333333;" d="M232.991,238.325h-24c-3.313,0-6-2.687-6-6s2.687-6,6-6h24c3.313,0,6,2.687,6,6
			S236.304,238.325,232.991,238.325z"/>
	</g>
	<g>
		<path style="fill:#F7B239;" d="M338.511,351.101v19.89h-45.7h-1.34v-59c0-12.29,2.99-23.88,8.29-34.08
			C323.151,293.831,338.511,320.681,338.511,351.101z"/>
		<path style="fill:#333333;" d="M338.51,376.991h-47.04c-3.313,0-6-2.687-6-6v-59c0-12.816,3.101-25.558,8.966-36.846
			c0.791-1.522,2.194-2.632,3.857-3.052c1.663-0.419,3.425-0.107,4.843,0.858c25.907,17.633,41.374,46.848,41.374,78.15v19.89
			C344.51,374.305,341.824,376.991,338.51,376.991z M297.47,364.991h35.04v-13.89c0-24.925-11.237-48.337-30.378-63.943
			c-3.097,7.868-4.662,16.191-4.662,24.833L297.47,364.991L297.47,364.991z"/>
	</g>
	<g>
		<path style="fill:#F7B239;" d="M150.511,311.991v59h-47.03v-19.89c0-30.42,15.35-57.27,38.74-73.19
			C147.521,288.111,150.511,299.701,150.511,311.991z"/>
		<path style="fill:#333333;" d="M150.511,376.991h-47.03c-3.313,0-6-2.687-6-6v-19.89c0-31.306,15.463-60.521,41.364-78.15
			c1.417-0.965,3.181-1.277,4.843-0.858c1.663,0.419,3.067,1.53,3.857,3.051c5.865,11.288,8.966,24.029,8.966,36.847v59
			C156.511,374.305,153.824,376.991,150.511,376.991z M109.481,364.991h35.03v-53c0-8.642-1.565-16.966-4.662-24.833
			c-19.135,15.603-30.368,39.014-30.368,63.943V364.991z"/>
	</g>
	<path style="fill:#333333;" d="M297.47,435.991h-12v-124c0-12.816,3.101-25.558,8.966-36.846l10.648,5.533
		c-5.053,9.724-7.614,20.259-7.614,31.313V435.991z"/>
	<rect x="292.81" y="364.991" style="fill:#333333;" width="47.03" height="12"/>
	<path style="fill:#FFFFFF;" d="M318.51,421.991c-3.313,0-6-2.687-6-6v-27c0-3.313,2.687-6,6-6s6,2.687,6,6v27
		C324.51,419.305,321.824,421.991,318.51,421.991z"/>
	<g>
		<path style="opacity:0.44;fill:#333333;enable-background:new    ;" d="M147.161,289.911c-15.21,15.89-24.56,37.45-24.56,61.19
			v82.89h-19.12v-82.89c0-30.42,15.35-57.27,38.74-73.19C144.201,281.731,145.861,285.741,147.161,289.911z"/>
	</g>
	<path style="fill:#333333;" d="M338.51,441.991H103.48c-3.314,0-6-2.686-6-6v-84.89c0-31.306,15.463-60.521,41.364-78.15
		c9.416-6.408,19.762-11.007,30.752-13.671c0.131-0.033,0.264-0.065,0.397-0.096l0.122-0.028l3.037,11.609
		c-0.153,0.04-0.309,0.077-0.465,0.113l-0.122,0.028c-0.017,0.004-0.087,0.022-0.104,0.026c-9.597,2.321-18.636,6.338-26.865,11.938
		c-22.614,15.392-36.115,40.898-36.115,68.229v78.89h223.03v-78.89c0-27.327-13.505-52.833-36.126-68.23
		c-8.229-5.6-17.267-9.617-26.865-11.938c-0.038-0.01-0.076-0.019-0.114-0.029l-0.113-0.026c-0.154-0.036-0.309-0.072-0.46-0.111
		l3.031-11.611l0.121,0.028c0.135,0.031,0.269,0.063,0.4,0.096c10.99,2.664,21.337,7.264,30.752,13.671
		c25.907,17.634,41.374,46.849,41.374,78.15v84.89C344.51,439.305,341.824,441.991,338.51,441.991z"/>
	<path style="fill:#333333;" d="M156.511,435.991h-12v-124c0-11.055-2.562-21.59-7.614-31.313l10.648-5.533
		c5.865,11.288,8.966,24.029,8.966,36.847V435.991z"/>
	<rect x="103.481" y="364.991" style="fill:#333333;" width="47.03" height="12"/>
	<path style="fill:#CCCCCC;" d="M315.496,5.991c0,0-17,19-40,15s-95-29-99,21c-2.648,33.097,29.758,35.961,54.001,29.764
		C242.877,68.59,312.496,39.991,315.496,5.991z"/>
	<g style="opacity:0.44;">
		<path style="fill:#333333;" d="M203.648,41.991c1.524-19.056,12.93-27.211,27.732-29.794
			c-25.936-3.166-52.499-0.021-54.885,29.794c-2.452,30.649,25.153,35.365,48.502,30.974
			C211.878,69.762,202.15,60.72,203.648,41.991z"/>
	</g>
	<g>
		<path style="fill:#333333;" d="M157.49,95.991h-19c-3.313,0-6-2.687-6-6s2.687-6,6-6h19c3.313,0,6,2.687,6,6
			S160.804,95.991,157.49,95.991z"/>
		<path style="fill:#333333;" d="M153.49,115.991h-19c-3.313,0-6-2.687-6-6s2.687-6,6-6h19c3.313,0,6,2.687,6,6
			S156.804,115.991,153.49,115.991z"/>
		<g>
			<path style="fill:#333333;" d="M303.491,95.991h-19c-3.313,0-6-2.687-6-6s2.687-6,6-6h19c3.313,0,6,2.687,6,6
				S306.804,95.991,303.491,95.991z"/>
			<path style="fill:#333333;" d="M307.491,115.991h-19c-3.313,0-6-2.687-6-6s2.687-6,6-6h19c3.313,0,6,2.687,6,6
				S310.804,115.991,307.491,115.991z"/>
		</g>
	</g>
	<path style="fill:#FFFFFF;" d="M290.496,200.991c-3.313,0-6-2.687-6-6v-45c0-3.313,2.687-6,6-6s6,2.687,6,6v45
		C296.496,198.305,293.809,200.991,290.496,200.991z"/>
	<path style="fill:#FFFFFF;" d="M290.499,139.99c-1.58,0-3.13-0.64-4.25-1.76c-0.271-0.27-0.521-0.58-0.74-0.91
		c-0.22-0.32-0.4-0.67-0.55-1.03c-0.15-0.37-0.271-0.74-0.351-1.13c-0.069-0.38-0.109-0.78-0.109-1.17c0-1.58,0.64-3.12,1.75-4.24
		c0.28-0.28,0.59-0.53,0.92-0.75c0.32-0.21,0.67-0.4,1.03-0.55c0.359-0.15,0.739-0.26,1.119-0.34c0.78-0.16,1.58-0.16,2.351,0
		c0.38,0.08,0.76,0.19,1.12,0.34c0.359,0.15,0.71,0.34,1.04,0.55c0.33,0.22,0.63,0.47,0.91,0.75c1.119,1.12,1.76,2.66,1.76,4.24
		c0,0.39-0.04,0.79-0.12,1.17c-0.08,0.39-0.19,0.76-0.34,1.13c-0.15,0.36-0.34,0.71-0.55,1.03c-0.221,0.33-0.471,0.64-0.75,0.91
		C293.619,139.35,292.068,139.99,290.499,139.99z"/>
	<path style="fill:#333333;" d="M210.363,80.354c-9.857,0-20.885-1.973-29.138-8.927c-5.6-4.719-12.004-13.739-10.71-29.914
		c0.986-12.322,5.766-21.699,14.208-27.872c20.457-14.958,56.251-6.643,79.94-1.139c4.729,1.099,8.814,2.048,11.862,2.578
		c19.326,3.359,34.362-12.938,34.513-13.103c1.73-1.911,4.495-2.508,6.855-1.477c2.362,1.032,3.807,3.451,3.58,6.018
		c-1.454,16.487-15.529,32.986-41.833,49.04c-19.583,11.951-40.702,20.232-47.658,22.01
		C228.156,78.546,219.796,80.354,210.363,80.354z M216.469,17.211c-9.672,0-18.493,1.605-24.664,6.117
		c-5.572,4.075-8.624,10.336-9.328,19.142c-0.722,9.027,1.398,15.497,6.481,19.78c9.354,7.88,26.824,7.074,40.052,3.692
		c6.149-1.572,26.107-9.476,44.379-20.627c11.811-7.208,20.969-14.583,27.119-21.73c-7.219,3.104-16.095,5.047-26.04,3.318
		c-3.379-0.587-7.616-1.572-12.521-2.711C249.502,21.299,231.902,17.211,216.469,17.211z"/>
	<path style="fill:#FFFFFF;" d="M192.37,440.116c-1.536,0-3.071-0.585-4.243-1.757c-2.343-2.343-2.343-6.142,0-8.485l37.383-37.382
		h-20.015c-2.427,0-4.615-1.462-5.543-3.704c-0.929-2.242-0.415-4.823,1.301-6.539l47.126-47.125c2.343-2.343,6.144-2.343,8.484,0
		c2.344,2.343,2.344,6.142,0,8.485l-36.882,36.882h20.015c2.427,0,4.614,1.462,5.543,3.704s0.416,4.823-1.301,6.539l-47.625,47.625
		C195.442,439.53,193.906,440.116,192.37,440.116z"/>
	<path style="fill:#FFFFFF;" d="M222.496,423.991c-20.402,0-37-16.598-37-37s16.598-37,37-37s37,16.598,37,37
		S242.898,423.991,222.496,423.991z M222.496,361.991c-13.785,0-25,11.215-25,25s11.215,25,25,25s25-11.215,25-25
		S236.281,361.991,222.496,361.991z"/>
	<g>
		<path style="fill:#333333;" d="M352.496,441.991H89.726c-3.313,0-6-2.687-6-6s2.687-6,6-6h262.77c3.313,0,6,2.687,6,6
			S355.809,441.991,352.496,441.991z"/>
		<path style="fill:#333333;" d="M384.496,441.991h-11c-3.313,0-6-2.687-6-6s2.687-6,6-6h11c3.313,0,6,2.687,6,6
			S387.809,441.991,384.496,441.991z"/>
		<path style="fill:#333333;" d="M68.495,441.991h-11c-3.313,0-6-2.687-6-6s2.687-6,6-6h11c3.313,0,6,2.687,6,6
			S71.809,441.991,68.495,441.991z"/>
	</g>
</g>
<g>
</g>
<g>
</g>
<g>
</g>
<g>
</g>
<g>
</g>
<g>
</g>
<g>
</g>
<g>
</g>
<g>
</g>
<g>
</g>
<g>
</g>
<g>
</g>
<g>
</g>
<g>
</g>
<g>
</g>
</svg>
