<?xml version="1.0" encoding="iso-8859-1"?>
<!-- Generator: Adobe Illustrator 19.0.0, SVG Export Plug-In . SVG Version: 6.00 Build 0)  -->
<svg version="1.1" id="Layer_1" xmlns="http://www.w3.org/2000/svg" xmlns:xlink="http://www.w3.org/1999/xlink" x="0px" y="0px"
	 viewBox="0 0 434 434" style="enable-background:new 0 0 434 434;" xml:space="preserve">
<g>
	<path style="fill:#4CC18E;" d="M266.355,256.97c0.19,0.05,0.39,0.09,0.58,0.14c10.46,2.53,20.19,6.93,28.83,12.81
		c23.39,15.92,38.75,42.77,38.75,73.19V428h-47.04h-140.96h-47.03v-84.89c0-30.42,15.35-57.27,38.74-73.19
		c8.64-5.88,18.37-10.28,28.83-12.81c0.19-0.05,0.39-0.09,0.58-0.14"/>
	<path style="fill:#FFD3AE;" d="M146.515,304v124h-47.03v-84.89c0-30.42,15.35-57.27,38.74-73.19
		C143.525,280.12,146.515,291.71,146.515,304z"/>
	<path style="fill:#FFD3AE;" d="M334.515,343.11V428h-47.04V304c0-12.29,2.99-23.88,8.29-34.08
		C319.155,285.84,334.515,312.69,334.515,343.11z"/>
	<path style="fill:#333333;" d="M293.475,428h-12V304c0-12.816,3.101-25.558,8.966-36.846l10.648,5.533
		c-5.053,9.724-7.614,20.259-7.614,31.313V428z"/>
	<path style="fill:#FFFFFF;" d="M314.515,414c-3.313,0-6-2.687-6-6v-73c0-3.313,2.687-6,6-6s6,2.687,6,6v73
		C320.515,411.313,317.828,414,314.515,414z"/>
	<g>
		<path style="opacity:0.44;fill:#333333;enable-background:new    ;" d="M143.165,281.92c-15.21,15.89-24.56,37.45-24.56,61.19V426
			h-19.12v-82.89c0-30.42,15.35-57.27,38.74-73.19C140.205,273.74,141.865,277.75,143.165,281.92z"/>
	</g>
	<path style="fill:#333333;" d="M152.515,428h-12V304c0-11.054-2.562-21.59-7.614-31.313l10.648-5.533
		c5.865,11.289,8.966,24.03,8.966,36.846V428z"/>
	<g>
		<path style="fill:#333333;" d="M251.479,404h-68.96c-23.159,0-42-18.841-42-42h12c0,16.542,13.458,30,30,30h68.96
			c16.542,0,30-13.458,30-30h12C293.479,385.159,274.639,404,251.479,404z"/>
		<path style="fill:#FFFFFF;" d="M251.479,386c-3.313,0-6-2.687-6-6s2.687-6,6-6c6.617,0,12-5.383,12-12c0-3.313,2.687-6,6-6
			s6,2.687,6,6C275.479,375.234,264.713,386,251.479,386z"/>
	</g>
	<path style="fill:#FFD3AE;" d="M258.792,248v50c0,23.196-18.804,42-42,42l0,0c-23.196,0-42-18.804-42-42v-50
		c12.5,6.75,26.8,10.58,41.99,10.58C231.992,258.58,246.292,254.75,258.792,248z"/>
	<path style="fill:#CE4DAA;" d="M216.792,307c-26.468,0-48-21.533-48-48v-50c0-3.313,2.687-6,6-6s6,2.687,6,6v50
		c0,19.851,16.149,36,36,36s36-16.149,36-36v-50c0-3.313,2.687-6,6-6s6,2.687,6,6v50C264.792,285.467,243.26,307,216.792,307z"/>
	<path style="fill:#333333;" d="M216.792,346c-26.468,0-48-21.533-48-48v-50h12v50c0,19.851,16.149,36,36,36s36-16.149,36-36v-50h12
		v50C264.792,324.467,243.26,346,216.792,346z"/>
	<path style="fill:#333333;" d="M216.792,346c-3.313,0-6-2.687-6-6v-15c0-3.313,2.687-6,6-6s6,2.687,6,6v15
		C222.792,343.313,220.105,346,216.792,346z"/>
	<path style="opacity:0.44;fill:#333333;enable-background:new    ;" d="M258.792,246c-1.18,2.25,1.37,16.06,0,18.18
		c-6.42,10.03-14.81,18.67-24.62,25.39c-0.19,0.14-0.39,0.27-0.58,0.4c-14.1,9.49-31.08,15.03-49.36,15.03
		c-5.24,0-6.11-4.72-9.44-7.26V248c11.87,5.92,29.24,12,43.41,12C236.062,260,244.892,255.09,258.792,246z"/>
	<g>
		<path style="fill:#333333;" d="M348.5,434H85.729c-3.313,0-6-2.687-6-6s2.687-6,6-6H348.5c3.313,0,6,2.687,6,6
			S351.813,434,348.5,434z"/>
		<path style="fill:#333333;" d="M380.5,434h-11c-3.313,0-6-2.687-6-6s2.687-6,6-6h11c3.313,0,6,2.687,6,6S383.813,434,380.5,434z"
			/>
		<path style="fill:#333333;" d="M64.5,434h-11c-3.313,0-6-2.687-6-6s2.687-6,6-6h11c3.313,0,6,2.687,6,6S67.813,434,64.5,434z"/>
	</g>
	<g>
		<g>
			<circle style="fill:#FFD3AE;" cx="136.432" cy="146" r="27.89"/>
			<circle style="fill:#FFD3AE;" cx="297.567" cy="146" r="27.89"/>
		</g>
		<g>
			<path style="fill:#333333;" d="M136.433,179.89c-18.688,0-33.891-15.203-33.891-33.89s15.203-33.89,33.891-33.89
				c18.687,0,33.89,15.203,33.89,33.89S155.119,179.89,136.433,179.89z M136.433,124.11c-12.07,0-21.891,9.82-21.891,21.89
				s9.82,21.89,21.891,21.89s21.89-9.82,21.89-21.89S148.503,124.11,136.433,124.11z"/>
			<path style="fill:#333333;" d="M297.567,179.89c-18.687,0-33.89-15.203-33.89-33.89s15.203-33.89,33.89-33.89
				s33.89,15.203,33.89,33.89S316.254,179.89,297.567,179.89z M297.567,124.11c-12.07,0-21.89,9.82-21.89,21.89
				s9.819,21.89,21.89,21.89s21.89-9.82,21.89-21.89S309.638,124.11,297.567,124.11z"/>
		</g>
	</g>
	<path style="fill:#FFD3AE;" d="M266.36,241.97C252.26,251.46,235.28,257,217,257s-35.26-5.54-49.36-15.03
		c-0.19-0.13-0.39-0.26-0.58-0.4c-23.28-15.94-38.56-42.72-38.56-73.07V146V94.5C128.5,45.623,168.123,6,217,6l0,0
		c48.877,0,88.5,39.623,88.5,88.5V146v22.5c0,30.35-15.28,57.13-38.56,73.07C266.75,241.71,266.55,241.84,266.36,241.97z"/>
	<g>
		<path style="fill:#F7774B;" d="M217,216.01c-4.869,0-9.738-0.513-14.572-1.538c-3.242-0.688-5.313-3.873-4.625-7.114
			c0.687-3.241,3.874-5.313,7.113-4.625c8.02,1.7,16.148,1.7,24.168,0c3.239-0.688,6.427,1.384,7.113,4.625
			c0.688,3.242-1.383,6.427-4.625,7.114C226.738,215.497,221.869,216.01,217,216.01z"/>
	</g>
	<g style="opacity:0.44;">
		<path style="fill:#333333;" d="M217.505,229h-1.01c-2.209,0-4-1.791-4-4s1.791-4,4-4h1.01c2.209,0,4,1.791,4,4
			S219.714,229,217.505,229z"/>
	</g>
	<g>
		<g>
			<path style="fill:#333333;" d="M272.473,140.414c-0.452,0-0.912-0.052-1.372-0.159c-7.916-1.853-16.285-1.853-24.201,0
				c-3.232,0.755-6.455-1.249-7.209-4.476c-0.755-3.227,1.248-6.454,4.475-7.209c9.705-2.27,19.963-2.27,29.67,0
				c3.227,0.755,5.229,3.982,4.475,7.209C277.663,138.546,275.197,140.414,272.473,140.414z"/>
		</g>
	</g>
	<path style="opacity:0.44;fill:#333333;enable-background:new    ;" d="M198.64,241.97c10.02,6.74,21.5,11.49,33.86,13.68
		c-5.03,0.89-10.21,1.35-15.5,1.35c-18.28,0-35.26-5.54-49.36-15.03c-0.19-0.13-0.39-0.26-0.58-0.4
		c-23.28-15.94-38.56-42.72-38.56-73.07V146c0-139,54.89-137.301,54.89-134.411l-10.384,15.807
		c-15.364,23.387-15.306,53.174-0.958,76.231c2.423,3.895,10.151,17.294,10.019,20.366c-0.483,11.29-9.201,21.36-21.338,21.975
		c-0.407,0.021-0.817,0.031-1.229,0.031v22.5c0,30.35,15.28,57.13,38.56,73.07C198.25,241.71,198.45,241.84,198.64,241.97z"/>
	<g>
		<g>
			<g>
				<g>
					<circle style="fill:#333333;" cx="182.66" cy="157.116" r="8.009"/>
				</g>
				<path style="fill:#333333;" d="M167.33,164.208c-1.533,0-3.065-0.583-4.236-1.751c-2.347-2.34-2.353-6.139-0.013-8.485
					c6.153-6.17,15.544-7.745,23.376-3.919c2.977,1.455,4.211,5.048,2.756,8.025c-1.454,2.977-5.044,4.212-8.025,2.756
					c-3.218-1.573-7.08-0.925-9.608,1.611C170.406,163.62,168.868,164.208,167.33,164.208z"/>
			</g>
		</g>
		<g>
			<g>
				<g>
					<circle style="fill:#333333;" cx="251.34" cy="157.116" r="8.009"/>
				</g>
				<path style="fill:#333333;" d="M266.669,164.208c-1.539,0-3.077-0.588-4.249-1.764c-2.528-2.537-6.39-3.183-9.607-1.611
					c-2.978,1.456-6.57,0.222-8.025-2.756c-1.455-2.977-0.222-6.57,2.756-8.025c7.83-3.826,17.224-2.251,23.375,3.919
					c2.34,2.347,2.334,6.146-0.013,8.485C269.734,163.624,268.201,164.208,266.669,164.208z"/>
			</g>
		</g>
	</g>
	<g>
		<path style="fill:#333333;" d="M210.057,189c-3.313,0-6-2.687-6-6v-32.927c0-2.692-1.515-5.195-3.858-6.375
			c-7.192-3.621-19.527-7.153-37.439-3.412c-3.245,0.675-6.422-1.403-7.1-4.647s1.403-6.422,4.646-7.1
			c21.303-4.446,36.388-0.041,45.289,4.44c6.453,3.25,10.462,9.799,10.462,17.094V183C216.057,186.313,213.37,189,210.057,189z"/>
	</g>
	<g style="opacity:0.83;">
		<path style="fill:#142963;" d="M261,135.3L261,135.3c-7.8-7.8-20.446-7.8-28.246,0l0,0c-7.8,7.8-7.8,20.446,0,28.246l0,0
			L261,191.792l28.246-28.246l0,0c7.8-7.8,7.8-20.446,0-28.246l0,0C281.446,127.5,268.8,127.5,261,135.3L261,135.3z"/>
		<path style="fill:#142963;" d="M173,135.3L173,135.3c-7.8-7.8-20.446-7.8-28.246,0l0,0c-7.8,7.8-7.8,20.446,0,28.246l0,0
			L173,191.792l28.246-28.246l0,0c7.8-7.8,7.8-20.446,0-28.246l0,0C193.446,127.5,180.8,127.5,173,135.3L173,135.3z"/>
	</g>
	<g>
		<path style="fill:#CE4DAA;" d="M261,197.792c-1.535,0-3.071-0.586-4.242-1.757l-28.246-28.246
			c-4.906-4.906-7.607-11.428-7.607-18.366s2.701-13.46,7.607-18.366c8.81-8.811,22.428-9.956,32.488-3.436
			c10.061-6.521,23.679-5.376,32.488,3.436c4.906,4.906,7.607,11.428,7.607,18.366s-2.701,13.46-7.607,18.366l-28.246,28.246
			C264.071,197.206,262.535,197.792,261,197.792z M246.877,135.457c-3.578,0-7.156,1.362-9.881,4.086
			c-2.639,2.639-4.092,6.148-4.092,9.88s1.453,7.241,4.092,9.88L261,183.307l24.004-24.003c2.639-2.639,4.092-6.148,4.092-9.88
			s-1.453-7.241-4.092-9.88c-5.449-5.448-14.313-5.448-19.762,0c-2.342,2.343-6.143,2.343-8.484,0
			C254.033,136.818,250.455,135.457,246.877,135.457z"/>
		<path style="fill:#CE4DAA;" d="M173,197.792c-1.535,0-3.071-0.586-4.242-1.757l-28.246-28.246
			c-4.906-4.906-7.607-11.428-7.607-18.366s2.701-13.46,7.607-18.366c8.81-8.811,22.429-9.956,32.488-3.436
			c10.06-6.521,23.679-5.376,32.488,3.436c4.906,4.906,7.607,11.428,7.607,18.366s-2.701,13.46-7.607,18.366l-28.246,28.246
			C176.071,197.206,174.535,197.792,173,197.792z M158.877,135.457c-3.578,0-7.156,1.362-9.881,4.086
			c-2.639,2.639-4.092,6.148-4.092,9.88s1.453,7.241,4.092,9.88L173,183.307l24.004-24.003c2.639-2.639,4.092-6.148,4.092-9.88
			s-1.453-7.241-4.092-9.88c-5.449-5.448-14.313-5.448-19.762,0c-2.342,2.343-6.143,2.343-8.484,0
			C166.033,136.818,162.455,135.457,158.877,135.457z"/>
	</g>
	<rect x="206.505" y="143" style="fill:#CE4DAA;" width="20" height="12"/>
	<path style="fill:#A67C52;" d="M167.645,241.97c4.85,3.27,10.03,6.06,15.5,8.32c-21.33,5.5-40.16,16.04-54.65,30.03
		c0-13.6,0-75.68,0-111.82c0,30.35,15.29,57.13,38.57,73.07C167.245,241.71,167.445,241.84,167.645,241.97z"/>
	<path style="fill:#A67C52;" d="M305.505,173v106.84c-1.28-1.22-2.59-2.42-3.94-3.58c-13.89-12.03-31.17-21.11-50.51-26.05
		c5.4-2.25,10.52-5.01,15.31-8.24c0.18-0.13,0.39-0.26,0.58-0.4c22.12-15.15,37.02-40.09,38.45-68.58L305.505,173z"/>
	<path style="opacity:0.44;fill:#333333;enable-background:new    ;" d="M167.645,241.97c4.85,3.27,10.03,6.06,15.5,8.32
		c-21.33,5.5-40.16,16.04-54.65,30.03c0-13.6,0-75.68,0-111.82c0,30.35,15.29,57.13,38.57,73.07
		C167.245,241.71,167.445,241.84,167.645,241.97z"/>
	<path style="opacity:0.44;fill:#333333;enable-background:new    ;" d="M305.505,173v106.84c-1.28-1.22-2.59-2.42-3.94-3.58
		c-13.89-12.03-31.17-21.11-50.51-26.05c5.4-2.25,10.52-5.01,15.31-8.24c0.18-0.13,0.39-0.26,0.58-0.4
		c22.12-15.15,37.02-40.09,38.45-68.58L305.505,173z"/>
	<path style="fill:#A67C52;" d="M195.505,108c-37-3-67.01,15.5-67.01,38v-10V94.5c0-48.88,39.63-88.5,88.5-88.5h0.01
		c48.87,0,88.5,39.62,88.5,88.5v23.48c-41.29-0.73-59-46.98-59-46.98S232.505,111,195.505,108z"/>
	<g style="opacity:0.44;">
		<path style="fill:#333333;" d="M167.505,94.5c0-42.178,29.51-77.457,69-86.339C230.23,6.75,223.705,6,217.005,6h-0.01
			c-48.87,0-88.5,39.62-88.5,88.5V136v10c0-16.42,15.992-30.699,39.01-36.056V94.5z"/>
	</g>
	<path style="fill:#333333;" d="M342.495,428h-12v-78.69c0-24.101-10.345-47.229-29.129-65.126
		c-1.328-1.265-2.541-2.368-3.711-3.372c-13.403-11.61-30.024-20.176-48.086-24.789l2.971-11.627
		c19.855,5.072,38.167,14.522,52.952,27.329c1.309,1.123,2.673,2.362,4.151,3.771c21.185,20.184,32.852,46.398,32.852,73.814V428z"
		/>
	<path style="fill:#333333;" d="M103.995,428h-12v-78.69c0-27.17,11.483-53.205,32.336-73.309
		c15.475-14.942,35.295-25.843,57.315-31.521l2.996,11.62c-20.016,5.161-37.99,15.029-51.979,28.537
		c-18.488,17.824-28.668,40.792-28.668,64.673C103.995,349.31,103.995,428,103.995,428z"/>
	<path style="fill:#333333;" d="M216.995,263c-12.503,0-24.664-2.411-36.146-7.167c-5.78-2.388-11.354-5.379-16.558-8.888
		c-0.229-0.149-0.481-0.319-0.725-0.499c-25.72-17.664-41.071-46.792-41.071-77.947h12c0,27.236,13.442,52.702,35.959,68.12
		c0.096,0.065,0.188,0.133,0.279,0.204l0.167,0.107c0.023,0.015,0.075,0.049,0.098,0.064c4.538,3.059,9.396,5.667,14.438,7.75
		c10.024,4.151,20.641,6.255,31.56,6.255c11.015,0,21.691-2.128,31.736-6.326c0.065-0.027,0.131-0.053,0.197-0.078
		c4.913-2.061,9.628-4.603,14.02-7.558c0.112-0.079,0.229-0.158,0.348-0.238l0.116-0.079c0.052-0.038,0.09-0.064,0.143-0.101
		c21.481-14.713,34.547-38.015,35.848-63.931c0.067-1.431,0.103-2.846,0.103-4.189v-74c0-45.491-37.01-82.5-82.5-82.5
		c-45.5,0-82.51,37.009-82.51,82.5V146h-12V94.5c0-52.107,42.393-94.5,94.5-94.5c52.117,0,94.51,42.393,94.51,94.5v74
		c0,1.533-0.039,3.139-0.117,4.775c-1.468,29.244-16.789,56.598-40.99,73.204c-0.138,0.098-0.279,0.194-0.419,0.288l-0.106,0.072
		c-0.056,0.041-0.096,0.068-0.152,0.106c-5.12,3.453-10.624,6.415-16.357,8.804c-0.065,0.027-0.132,0.053-0.197,0.078
		C241.703,260.586,229.535,263,216.995,263z"/>
	<path style="fill:#FFFFFF;" d="M238.503,33.352c-0.607,0-1.225-0.093-1.834-0.289c-2.385-0.765-4.845-1.397-7.311-1.877
		c-3.253-0.634-5.376-3.784-4.742-7.037s3.784-5.376,7.037-4.742c2.928,0.57,5.849,1.321,8.682,2.23
		c3.155,1.012,4.893,4.391,3.88,7.546C243.398,31.729,241.041,33.352,238.503,33.352z"/>
	<path style="fill:#FFFFFF;" d="M287.505,100.5c-3.313,0-6-2.687-6-6c0-20.936-10.263-40.664-27.453-52.771
		c-2.709-1.908-3.358-5.651-1.45-8.36s5.651-3.358,8.36-1.45c20.377,14.352,32.543,37.747,32.543,62.582
		C293.505,97.813,290.818,100.5,287.505,100.5z"/>
	<path style="fill:#333333;" d="M134.495,283h-12V146c0-9.674,4.388-18.835,12.69-26.491c13.992-12.904,36.72-19.44,60.805-17.49
		c31.994,2.603,44.727-32.646,44.852-33.001c0.832-2.376,3.059-3.981,5.576-4.018c2.521-0.037,4.789,1.502,5.69,3.854
		c0.16,0.416,16.838,42.478,53.503,43.126c0.085,0.001,0.171,0.005,0.257,0.01c0.21,0.013,0.421,0.009,0.637,0.009v12
		c-0.414,0-0.816-0.003-1.219-0.023c-18.649-0.365-35.729-9.335-49.398-25.949c-3.905-4.746-7.003-9.469-9.345-13.504
		c-1.854,3.109-4.198,6.56-7.078,9.971c-11.934,14.137-27.291,20.873-44.445,19.485c-20.486-1.662-40.3,3.837-51.699,14.35
		c-4.026,3.713-8.825,9.792-8.825,17.669L134.495,283L134.495,283z"/>
	<rect x="299.505" y="173" style="fill:#333333;" width="12" height="106.84"/>
	<path style="fill:#FFFFFF;" d="M189.503,152.999c-0.391,0-0.78-0.04-1.17-0.12c-0.38-0.07-0.761-0.19-1.12-0.34
		c-0.37-0.15-0.71-0.33-1.04-0.55c-0.33-0.22-0.64-0.47-0.91-0.75c-1.12-1.11-1.76-2.66-1.76-4.24c0-0.39,0.04-0.78,0.12-1.17
		c0.08-0.38,0.189-0.76,0.34-1.12c0.149-0.37,0.34-0.71,0.55-1.04c0.22-0.33,0.47-0.64,0.75-0.91c1.12-1.12,2.66-1.76,4.24-1.76
		s3.13,0.64,4.24,1.76c0.279,0.27,0.529,0.58,0.75,0.91c0.22,0.33,0.399,0.67,0.55,1.04c0.149,0.36,0.27,0.74,0.34,1.12
		c0.08,0.39,0.12,0.78,0.12,1.17c0,1.58-0.641,3.13-1.76,4.24C192.633,152.359,191.083,152.999,189.503,152.999z"/>
	<path style="fill:#FFFFFF;" d="M276.503,152.999c-0.391,0-0.78-0.04-1.17-0.12c-0.38-0.07-0.761-0.19-1.12-0.34
		c-0.37-0.15-0.71-0.33-1.04-0.55c-0.33-0.22-0.64-0.47-0.91-0.75c-1.12-1.11-1.76-2.66-1.76-4.24s0.64-3.13,1.76-4.24
		c0.271-0.28,0.58-0.53,0.91-0.75c0.33-0.21,0.67-0.4,1.04-0.55c0.359-0.15,0.74-0.27,1.12-0.34c1.96-0.39,4.02,0.25,5.41,1.64
		c1.119,1.11,1.76,2.66,1.76,4.24s-0.641,3.13-1.76,4.24C279.633,152.359,278.083,152.999,276.503,152.999z"/>
</g>
<g>
</g>
<g>
</g>
<g>
</g>
<g>
</g>
<g>
</g>
<g>
</g>
<g>
</g>
<g>
</g>
<g>
</g>
<g>
</g>
<g>
</g>
<g>
</g>
<g>
</g>
<g>
</g>
<g>
</g>
</svg>
