<?xml version="1.0" encoding="iso-8859-1"?>
<!-- Generator: Adobe Illustrator 19.0.0, SVG Export Plug-In . SVG Version: 6.00 Build 0)  -->
<svg version="1.1" id="Layer_1" xmlns="http://www.w3.org/2000/svg" xmlns:xlink="http://www.w3.org/1999/xlink" x="0px" y="0px"
	 viewBox="0 0 492 492" style="enable-background:new 0 0 492 492;" xml:space="preserve">
<g>
	<path style="fill:#665A52;" d="M294.495,54.5c0,2.26-0.15,4.48-0.46,6.66c-2.54,18.59-15.63,33.82-33.03,39.47
		c-0.02,0.01-0.05,0.02-0.07,0.02c-0.57,0.19-1.14,0.36-1.72,0.52c-0.57,0.17-1.14,0.32-1.72,0.45c-0.05,0.02-0.1,0.03-0.16,0.04
		c-0.42,0.11-0.85,0.2-1.28,0.29c-0.09,0.02-0.19,0.04-0.29,0.06c-0.25,0.06-0.51,0.11-0.77,0.15c-0.42,0.08-0.84,0.16-1.26,0.22
		c-0.02,0.01-0.05,0.01-0.07,0.01c-0.49,0.08-0.99,0.16-1.49,0.22c-0.05,0.01-0.1,0.01-0.15,0.02c-0.21,0.02-0.42,0.05-0.63,0.07
		c-0.38,0.04-0.77,0.08-1.16,0.11c-0.17,0.02-0.34,0.03-0.51,0.05c-0.56,0.04-1.12,0.07-1.68,0.09c-0.11,0.01-0.21,0.02-0.31,0.01
		c-0.58,0.03-1.16,0.04-1.74,0.04h-0.01c-0.77,0-1.53-0.02-2.29-0.05c-2.13-0.1-4.23-0.34-6.29-0.71c-0.8-0.14-1.58-0.3-2.36-0.48
		c-0.39-0.09-0.78-0.19-1.17-0.29c-0.83-0.21-1.66-0.44-2.47-0.71c-0.32-0.1-0.64-0.2-0.96-0.31c-0.41-0.13-0.81-0.27-1.22-0.43
		c-0.34-0.12-0.68-0.25-1.01-0.38c-0.37-0.15-0.73-0.3-1.09-0.45c-0.72-0.3-1.44-0.62-2.15-0.97c-0.66-0.32-1.31-0.65-1.95-1
		c-1.42-0.76-2.8-1.59-4.14-2.5c-0.54-0.36-1.06-0.729-1.58-1.11c-0.73-0.53-1.45-1.09-2.15-1.68c-0.3-0.25-0.6-0.5-0.89-0.75
		c-1.46-1.26-2.85-2.62-4.16-4.06c-0.27-0.29-0.52-0.58-0.78-0.88c-0.76-0.88-1.5-1.78-2.19-2.72c-0.23-0.31-0.46-0.62-0.68-0.94
		c-0.22-0.3-0.42-0.6-0.63-0.9c-0.23-0.34-0.46-0.68-0.68-1.03c-0.21-0.33-0.42-0.66-0.62-1c-0.41-0.66-0.8-1.34-1.17-2.03
		c-0.33-0.61-0.65-1.23-0.96-1.86c-0.23-0.47-0.45-0.95-0.67-1.43c-0.14-0.31-0.27-0.63-0.41-0.95c-0.09-0.2-0.17-0.4-0.25-0.61
		c-0.13-0.31-0.25-0.61-0.37-0.93c-0.1-0.25-0.2-0.51-0.29-0.77c-0.12-0.33-0.24-0.67-0.35-1.01c-0.39-1.14-0.73-2.29-1.03-3.47
		c-0.1-0.37-0.19-0.75-0.28-1.13c-0.09-0.39-0.18-0.79-0.25-1.18c-0.17-0.79-0.31-1.59-0.43-2.39c-0.06-0.38-0.11-0.75-0.16-1.13
		c-0.02-0.09-0.03-0.19-0.03-0.28c-0.05-0.34-0.08-0.68-0.12-1.02c-0.05-0.43-0.09-0.86-0.11-1.29c-0.02-0.22-0.03-0.44-0.05-0.66
		c-0.02-0.35-0.04-0.71-0.05-1.06c-0.03-0.65-0.04-1.3-0.04-1.95c0-2.93,0.26-5.8,0.76-8.59c0.14-0.79,0.3-1.58,0.48-2.37
		c0.81-3.52,2.01-6.89,3.54-10.07c0.34-0.71,0.7-1.4,1.07-2.09c0.74-1.38,1.56-2.71,2.43-4c0.44-0.65,0.89-1.28,1.35-1.9
		c0.7-0.94,1.43-1.84,2.19-2.72c0.51-0.59,1.03-1.17,1.57-1.73c8.82-9.26,21.28-15.03,35.09-15.03h0.01c0.58,0,1.16,0.01,1.74,0.04
		c0.1-0.01,0.2,0,0.31,0.01c0.56,0.02,1.12,0.05,1.68,0.09c0.17,0.02,0.34,0.03,0.51,0.05c0.39,0.03,0.78,0.07,1.16,0.11
		c0.21,0.02,0.42,0.05,0.63,0.07c0.05,0.01,0.1,0.01,0.15,0.02c0.5,0.06,1,0.14,1.49,0.22c0.02,0,0.05,0,0.07,0.01
		c0.42,0.06,0.84,0.14,1.26,0.22c0.26,0.04,0.52,0.09,0.77,0.15c0.1,0.02,0.2,0.04,0.29,0.06c0.43,0.09,0.86,0.18,1.28,0.29
		c0.06,0.01,0.11,0.02,0.16,0.04c0.58,0.13,1.15,0.28,1.72,0.45c0.58,0.16,1.15,0.33,1.72,0.52c0.02,0,0.05,0.01,0.07,0.02
		C280.445,14.69,294.495,32.95,294.495,54.5z"/>
	<path style="opacity:0.44;fill:#333333;enable-background:new    ;" d="M294.035,61.16c-2.54,18.59-15.63,33.82-33.03,39.47
		c-0.02,0.01-0.05,0.02-0.07,0.02c-0.57,0.19-1.14,0.36-1.72,0.52c-0.57,0.17-1.14,0.32-1.72,0.45c-0.05,0.02-0.1,0.03-0.16,0.04
		c-0.42,0.11-0.85,0.2-1.28,0.29c-0.09,0.02-0.19,0.04-0.29,0.06c-0.25,0.06-0.51,0.11-0.77,0.15c-0.42,0.08-0.84,0.16-1.26,0.22
		c-0.02,0.01-0.05,0.01-0.07,0.01c-0.49,0.08-0.99,0.16-1.49,0.22c-0.05,0.01-0.1,0.01-0.15,0.02c-0.21,0.02-0.42,0.05-0.63,0.07
		c-0.38,0.04-0.77,0.08-1.16,0.11c-0.17,0.02-0.34,0.03-0.51,0.05c-0.56,0.04-1.12,0.07-1.68,0.09c-0.11,0.01-0.21,0.02-0.31,0.01
		c-0.58,0.03-1.16,0.04-1.74,0.04h-0.01c-0.77,0-1.53-0.02-2.29-0.05c-2.13-0.1-4.23-0.34-6.29-0.71c-0.8-0.14-1.58-0.3-2.36-0.48
		c-0.39-0.09-0.78-0.19-1.17-0.29c-0.83-0.21-1.66-0.44-2.47-0.71c-0.32-0.1-0.64-0.2-0.96-0.31c-0.41-0.13-0.81-0.27-1.22-0.43
		c-0.34-0.12-0.68-0.25-1.01-0.38c-0.37-0.15-0.73-0.3-1.09-0.45c-0.72-0.3-1.44-0.62-2.15-0.97c-0.66-0.32-1.31-0.65-1.95-1
		c-1.42-0.76-2.8-1.59-4.14-2.5c-0.53-0.35-1.06-0.72-1.58-1.11c-0.73-0.53-1.45-1.09-2.15-1.68c-0.3-0.25-0.6-0.5-0.89-0.75
		c-1.46-1.26-2.85-2.62-4.16-4.06c-0.27-0.29-0.52-0.58-0.78-0.88c-0.76-0.88-1.5-1.78-2.19-2.72c-0.23-0.31-0.46-0.62-0.68-0.94
		c-0.22-0.3-0.42-0.6-0.63-0.9c-0.23-0.34-0.46-0.68-0.68-1.03c-0.21-0.33-0.42-0.66-0.62-1c-0.41-0.66-0.8-1.34-1.17-2.03
		c-0.34-0.61-0.66-1.23-0.96-1.86c-0.23-0.47-0.45-0.95-0.67-1.43c-0.14-0.31-0.27-0.63-0.41-0.95c-0.09-0.2-0.17-0.4-0.25-0.61
		c-0.13-0.31-0.25-0.61-0.37-0.93c-0.1-0.25-0.2-0.51-0.29-0.77c-0.12-0.33-0.24-0.67-0.35-1.01c-0.39-1.14-0.73-2.29-1.03-3.47
		c-0.1-0.37-0.19-0.75-0.28-1.13c-0.09-0.39-0.18-0.79-0.25-1.18c-0.17-0.79-0.31-1.59-0.43-2.39c-0.04-0.24-0.08-0.48-0.11-0.73
		c-0.02-0.13-0.04-0.27-0.05-0.4c-0.02-0.09-0.03-0.19-0.03-0.28c-0.05-0.34-0.08-0.68-0.12-1.02c-0.05-0.43-0.09-0.86-0.11-1.29
		c-0.02-0.22-0.03-0.44-0.05-0.66c-0.02-0.35-0.04-0.71-0.05-1.06c-0.03-0.65-0.04-1.3-0.04-1.95c0-2.93,0.26-5.8,0.76-8.59
		c0.14-0.79,0.3-1.58,0.48-2.37c0.81-3.52,2.01-6.89,3.54-10.07c0.34-0.71,0.7-1.4,1.07-2.09c0.74-1.38,1.56-2.71,2.43-4
		c0.44-0.65,0.89-1.28,1.35-1.9c0.7-0.94,1.43-1.84,2.19-2.72c0.51-0.59,1.03-1.17,1.57-1.73c8.82-9.26,21.28-15.03,35.09-15.03
		h0.01c0.58,0,1.16,0.01,1.74,0.04c0.1-0.01,0.2,0,0.31,0.01c0.56,0.02,1.12,0.05,1.68,0.09c0.17,0.02,0.34,0.03,0.51,0.05
		c0.39,0.03,0.78,0.07,1.16,0.11c0.21,0.02,0.42,0.05,0.63,0.07c0.05,0.01,0.1,0.01,0.15,0.02c0.5,0.06,1,0.14,1.49,0.22
		c0.02,0,0.05,0,0.07,0.01c0.42,0.06,0.84,0.14,1.26,0.22c0.26,0.04,0.52,0.09,0.77,0.15c0.1,0.02,0.2,0.04,0.29,0.06
		c0.43,0.09,0.86,0.18,1.28,0.29c0.06,0.01,0.11,0.02,0.16,0.04c0.58,0.13,1.15,0.28,1.72,0.45c0.58,0.16,1.15,0.33,1.72,0.52
		c0.02,0,0.05,0.01,0.07,0.02c-17.73,5.75-30.97,21.44-33.17,40.5c5.85-1.23,11.94-1.87,18.15-1.87h0.02
		C263.695,47,280.185,52.2,294.035,61.16z"/>
	<path style="fill:#333333;" d="M246,109c-30.051,0-54.5-24.449-54.5-54.5S215.948,0,246,0s54.5,24.449,54.5,54.5
		S276.051,109,246,109z M246,12c-23.435,0-42.5,19.065-42.5,42.5S222.565,97,246,97s42.5-19.065,42.5-42.5S269.435,12,246,12z"/>
	<path style="fill:#FFFFFF;" d="M275.292,52.003c-2.601,0-4.997-1.704-5.759-4.328c-2.511-8.642-9.525-15.2-18.307-17.115
		c-3.237-0.706-5.29-3.903-4.584-7.141s3.903-5.29,7.141-4.584c13.084,2.853,23.534,12.621,27.273,25.492
		c0.925,3.182-0.905,6.511-4.088,7.436C276.41,51.926,275.846,52.003,275.292,52.003z"/>
	<path style="fill:#4CC18E;" d="M295.355,314.97c0.19,0.05,0.39,0.09,0.58,0.14c10.46,2.53,20.19,6.93,28.83,12.81
		c23.39,15.92,38.75,42.77,38.75,73.19V486h-47.04h-140.96h-47.03v-84.89c0-30.42,15.35-57.27,38.74-73.19
		c8.64-5.88,18.37-10.28,28.83-12.81c0.19-0.05,0.39-0.09,0.58-0.14"/>
	<path style="fill:#333333;" d="M322.475,486h-12V362c0-12.816,3.101-25.558,8.966-36.846l10.648,5.533
		c-5.053,9.724-7.614,20.259-7.614,31.313V486z"/>
	<path style="fill:#FFFFFF;" d="M343.515,472c-3.313,0-6-2.687-6-6v-73c0-3.313,2.687-6,6-6s6,2.687,6,6v73
		C349.515,469.313,346.828,472,343.515,472z"/>
	<g>
		<path style="opacity:0.44;fill:#333333;enable-background:new    ;" d="M172.165,339.92c-15.21,15.89-24.56,37.45-24.56,61.19V484
			h-19.12v-82.89c0-30.42,15.35-57.27,38.74-73.19C169.205,331.74,170.865,335.75,172.165,339.92z"/>
	</g>
	<path style="fill:#333333;" d="M181.515,486h-12V362c0-11.055-2.562-21.59-7.614-31.313l10.648-5.533
		c5.865,11.288,8.966,24.029,8.966,36.847V486z"/>
	<g>
		<path style="fill:#333333;" d="M280.48,462h-68.96c-23.159,0-42-18.841-42-42h12c0,16.542,13.458,30,30,30h68.96
			c16.542,0,30-13.458,30-30h12C322.48,443.159,303.639,462,280.48,462z"/>
		<path style="fill:#FFFFFF;" d="M280.48,444c-3.313,0-6-2.687-6-6s2.687-6,6-6c6.617,0,12-5.383,12-12c0-3.313,2.687-6,6-6
			s6,2.687,6,6C304.48,433.234,293.713,444,280.48,444z"/>
	</g>
	<path style="fill:#FFD3AE;" d="M287.792,306v50c0,23.196-18.804,42-42,42l0,0c-23.196,0-42-18.804-42-42v-50
		c12.5,6.75,26.8,10.58,41.99,10.58C260.992,316.58,275.292,312.75,287.792,306z"/>
	<path style="fill:#333333;" d="M245.792,404c-26.467,0-48-21.533-48-48v-50h12v50c0,19.851,16.149,36,36,36
		c19.85,0,36-16.149,36-36v-50h12v50C293.791,382.467,272.259,404,245.792,404z"/>
	<path style="fill:#333333;" d="M245.792,404c-3.313,0-6-2.687-6-6v-15c0-3.313,2.687-6,6-6c3.314,0,6,2.687,6,6v15
		C251.792,401.313,249.106,404,245.792,404z"/>
	<path style="opacity:0.44;fill:#333333;enable-background:new    ;" d="M287.792,304c-1.18,2.25,1.37,16.06,0,18.18
		c-6.42,10.03-14.81,18.67-24.62,25.39c-0.19,0.14-0.39,0.27-0.58,0.4c-14.1,9.49-31.08,15.03-49.36,15.03
		c-5.24,0-6.11-4.72-9.44-7.26V306c11.87,5.92,29.24,12,43.41,12C265.062,318,273.892,313.09,287.792,304z"/>
	<g>
		<path style="fill:#333333;" d="M377.5,492H114.73c-3.313,0-6-2.687-6-6s2.687-6,6-6H377.5c3.313,0,6,2.687,6,6
			S380.814,492,377.5,492z"/>
		<path style="fill:#333333;" d="M409.5,492h-11c-3.313,0-6-2.687-6-6s2.687-6,6-6h11c3.313,0,6,2.687,6,6S412.814,492,409.5,492z"
			/>
		<path style="fill:#333333;" d="M93.5,492h-11c-3.313,0-6-2.687-6-6s2.687-6,6-6h11c3.313,0,6,2.687,6,6S96.813,492,93.5,492z"/>
	</g>
	<path style="fill:#333333;" d="M371.495,486h-12v-78.69c0-24.101-10.345-47.229-29.129-65.126
		c-1.327-1.264-2.541-2.367-3.711-3.373c-13.404-11.608-30.025-20.175-48.086-24.788l2.971-11.627
		c19.855,5.072,38.166,14.521,52.952,27.328c1.311,1.125,2.674,2.364,4.151,3.771c21.185,20.184,32.852,46.398,32.852,73.814V486z"
		/>
	<path style="fill:#333333;" d="M132.995,486h-12v-78.69c0-27.17,11.483-53.205,32.335-73.31
		c15.477-14.942,35.297-25.843,57.316-31.521l2.996,11.62c-20.015,5.161-37.99,15.029-51.98,28.536
		c-18.487,17.825-28.667,40.792-28.667,64.674V486z"/>
	<g>
		<g>
			<circle style="fill:#FFD3AE;" cx="165.432" cy="203" r="27.89"/>
			<circle style="fill:#FFD3AE;" cx="326.568" cy="203" r="27.89"/>
		</g>
		<g>
			<path style="fill:#333333;" d="M165.432,236.89c-18.687,0-33.89-15.203-33.89-33.89s15.203-33.89,33.89-33.89
				s33.89,15.203,33.89,33.89S184.119,236.89,165.432,236.89z M165.432,181.11c-12.07,0-21.89,9.82-21.89,21.89
				s9.82,21.89,21.89,21.89s21.89-9.82,21.89-21.89S177.503,181.11,165.432,181.11z"/>
			<path style="fill:#333333;" d="M326.568,236.89c-18.687,0-33.89-15.203-33.89-33.89s15.203-33.89,33.89-33.89
				s33.89,15.203,33.89,33.89S345.254,236.89,326.568,236.89z M326.568,181.11c-12.07,0-21.89,9.82-21.89,21.89
				s9.819,21.89,21.89,21.89s21.89-9.82,21.89-21.89S338.638,181.11,326.568,181.11z"/>
		</g>
	</g>
	<path style="fill:#FFD3AE;" d="M295.36,298.97C281.26,308.46,264.28,314,246,314s-35.26-5.54-49.36-15.03
		c-0.19-0.13-0.39-0.26-0.58-0.4c-23.28-15.94-38.56-42.72-38.56-73.07V203v-51.5c0-48.877,39.623-88.5,88.5-88.5l0,0
		c48.877,0,88.5,39.623,88.5,88.5V203v22.5c0,30.35-15.28,57.13-38.56,73.07C295.75,298.71,295.55,298.84,295.36,298.97z"/>
	<g>
		<path style="fill:#F7774B;" d="M246,273.01c-4.869,0-9.738-0.513-14.573-1.538c-3.242-0.688-5.312-3.873-4.625-7.114
			c0.688-3.241,3.869-5.313,7.114-4.625c8.019,1.7,16.147,1.701,24.168,0c3.241-0.687,6.427,1.384,7.113,4.625
			c0.688,3.242-1.383,6.427-4.625,7.114C255.738,272.497,250.869,273.01,246,273.01z"/>
	</g>
	<g style="opacity:0.44;">
		<path style="fill:#333333;" d="M246.505,286h-1.01c-2.209,0-4-1.791-4-4s1.791-4,4-4h1.01c2.209,0,4,1.791,4,4
			S248.714,286,246.505,286z"/>
	</g>
	<g>
		<g>
			<path style="fill:#333333;" d="M274.528,197.414c-2.725,0-5.19-1.868-5.838-4.635c-0.754-3.227,1.25-6.454,4.477-7.209
				c9.702-2.269,19.962-2.269,29.668,0c3.227,0.754,5.23,3.982,4.477,7.208c-0.755,3.226-3.978,5.232-7.209,4.476
				c-7.919-1.852-16.288-1.852-24.203,0C275.44,197.362,274.98,197.414,274.528,197.414z"/>
		</g>
	</g>
	<path style="opacity:0.44;fill:#333333;enable-background:new    ;" d="M227.64,298.97c10.02,6.74,21.5,11.49,33.86,13.68
		c-5.03,0.89-10.21,1.35-15.5,1.35c-18.28,0-35.26-5.54-49.36-15.03c-0.19-0.13-0.39-0.26-0.58-0.4
		c-23.28-15.94-38.56-42.72-38.56-73.07V203c0-139,54.89-137.301,54.89-134.411l-10.384,15.807
		c-15.364,23.387,38.633,6.599,41.499,33.604c3.145,29.636-32.307,59.922-32.438,62.994c-0.483,11.29-9.201,21.36-21.338,21.975
		c-0.407,0.021-0.817,0.031-1.229,0.031v22.5c0,30.35,15.28,57.13,38.56,73.07C227.25,298.71,227.45,298.84,227.64,298.97z"/>
	<g>
		<g>
			<g>
				<g>
					<circle style="fill:#333333;" cx="211.66" cy="214.116" r="8.009"/>
				</g>
				<path style="fill:#333333;" d="M196.33,221.208c-1.533,0-3.065-0.583-4.236-1.751c-2.347-2.34-2.352-6.139-0.013-8.485
					c6.152-6.171,15.546-7.747,23.376-3.919c2.977,1.456,4.211,5.048,2.756,8.025c-1.457,2.978-5.05,4.209-8.025,2.756
					c-3.219-1.573-7.08-0.925-9.608,1.611C199.407,220.62,197.868,221.208,196.33,221.208z"/>
			</g>
		</g>
		<g>
			<g>
				<g>
					<circle style="fill:#333333;" cx="280.34" cy="214.116" r="8.009"/>
				</g>
				<path style="fill:#333333;" d="M295.669,221.208c-1.539,0-3.077-0.588-4.249-1.764c-2.53-2.537-6.391-3.183-9.607-1.611
					c-2.978,1.457-6.57,0.221-8.025-2.755c-1.455-2.977-0.222-6.57,2.756-8.025c7.827-3.827,17.224-2.252,23.375,3.919
					c2.34,2.347,2.334,6.146-0.013,8.485C298.735,220.624,297.201,221.208,295.669,221.208z"/>
			</g>
		</g>
	</g>
	<g>
		<path style="fill:#333333;" d="M239.057,246c-3.313,0-6-2.687-6-6v-32.927c0-2.692-1.515-5.195-3.859-6.375
			c-7.191-3.622-19.522-7.154-37.44-3.412c-3.239,0.676-6.421-1.403-7.1-4.647c-0.677-3.244,1.403-6.422,4.647-7.1
			c21.307-4.449,36.389-0.04,45.289,4.441c6.453,3.249,10.462,9.799,10.462,17.093V240C245.057,243.313,242.37,246,239.057,246z"/>
	</g>
	<path style="fill:#665A52;" d="M334.505,151.5V195c0-54.33-52-72-52-72s-20.33,37.67-52,48l-1-24c0,0-56,5-72,52h-0.01v-47.5
		c0-48.88,39.63-88.5,88.5-88.5h0.01C294.875,63,334.505,102.62,334.505,151.5z"/>
	<path style="fill:#333333;" d="M245.995,320c-18.874,0-37.097-5.551-52.7-16.052c-0.228-0.148-0.485-0.322-0.734-0.506
		c-25.718-17.664-41.066-46.789-41.066-77.942v-74c0-52.107,42.393-94.5,94.5-94.5c52.118,0,94.51,42.393,94.51,94.5v74
		c0,31.174-15.365,60.317-41.102,77.973c-0.141,0.101-0.285,0.199-0.428,0.295l-0.103,0.069c-0.058,0.042-0.1,0.071-0.158,0.11
		C283.112,314.449,264.881,320,245.995,320z M246.005,69c-45.501,0-82.51,37.009-82.51,82.5v74c0,27.237,13.443,52.702,35.96,68.119
		c0.103,0.07,0.203,0.143,0.3,0.219l0.149,0.094c0.023,0.016,0.067,0.044,0.09,0.06c13.616,9.164,29.522,14.007,46,14.007
		c16.464,0,32.355-4.829,45.957-13.965c0.107-0.075,0.22-0.151,0.333-0.228l0.113-0.076c0.059-0.043,0.097-0.071,0.157-0.112
		c22.511-15.413,35.95-40.878,35.95-68.119v-74C328.505,106.009,291.495,69,246.005,69z"/>
	<path style="fill:#FFFFFF;" d="M308.562,125.001c-2.164,0-4.254-1.175-5.324-3.226c-8.161-15.642-22.52-27.402-39.396-32.266
		c-3.184-0.917-5.021-4.243-4.104-7.427c0.918-3.185,4.243-5.021,7.428-4.104c20.014,5.769,37.04,19.708,46.711,38.246
		c1.533,2.938,0.394,6.562-2.544,8.095C310.446,124.781,309.497,125.001,308.562,125.001z"/>
	<path style="fill:#FFFFFF;" d="M245.993,86.999c-1.58,0-3.12-0.64-4.24-1.76c-1.12-1.11-1.76-2.66-1.76-4.24s0.64-3.13,1.76-4.24
		c0.28-0.28,0.58-0.53,0.91-0.75c0.33-0.21,0.68-0.4,1.04-0.55s0.74-0.27,1.12-0.34c1.95-0.4,4.02,0.24,5.41,1.64
		c0.28,0.27,0.53,0.58,0.75,0.91c0.221,0.33,0.4,0.67,0.551,1.04c0.149,0.36,0.27,0.74,0.34,1.12c0.08,0.39,0.12,0.78,0.12,1.17
		s-0.04,0.79-0.12,1.17c-0.07,0.39-0.19,0.76-0.34,1.13c-0.15,0.36-0.33,0.71-0.551,1.03c-0.22,0.33-0.47,0.64-0.75,0.91
		c-0.27,0.28-0.58,0.53-0.91,0.75c-0.319,0.22-0.67,0.4-1.029,0.55c-0.37,0.15-0.74,0.27-1.13,0.34
		C246.783,86.959,246.383,86.999,245.993,86.999z"/>
	<path style="fill:#333333;" d="M163.185,200.934l-11.359-3.867c17.062-50.119,74.701-55.824,77.146-56.042
		c1.638-0.145,3.257,0.384,4.49,1.465c1.233,1.082,1.97,2.622,2.038,4.261l0.644,15.455c24.836-12.378,40.906-41.73,41.081-42.054
		c1.391-2.576,4.436-3.774,7.211-2.832c0.575,0.196,14.262,4.929,27.987,16.763c18.371,15.84,28.082,36.905,28.082,60.918h-12
		c0-40.373-31.616-58.915-43.494-64.454c-6.808,10.883-25.659,37.356-52.645,46.158c-1.786,0.582-3.74,0.296-5.283-0.776
		c-1.542-1.071-2.495-2.802-2.573-4.678l-0.72-17.265C209.474,156.861,174.666,167.207,163.185,200.934z"/>
	<path style="fill:#333333;" d="M229.505,153c-3.313,0-6-2.687-6-6v-11c0-3.313,2.687-6,6-6s6,2.687,6,6v11
		C235.505,150.313,232.819,153,229.505,153z"/>
	<path style="fill:#FFFFFF;" d="M315.505,230c-3.313,0-6-2.687-6-6v-29c0-3.313,2.687-6,6-6s6,2.687,6,6v29
		C321.505,227.313,318.819,230,315.505,230z"/>
</g>
<g>
</g>
<g>
</g>
<g>
</g>
<g>
</g>
<g>
</g>
<g>
</g>
<g>
</g>
<g>
</g>
<g>
</g>
<g>
</g>
<g>
</g>
<g>
</g>
<g>
</g>
<g>
</g>
<g>
</g>
</svg>
