<?xml version="1.0" encoding="iso-8859-1"?>
<!-- Generator: Adobe Illustrator 19.0.0, SVG Export Plug-In . SVG Version: 6.00 Build 0)  -->
<svg version="1.1" id="Layer_1" xmlns="http://www.w3.org/2000/svg" xmlns:xlink="http://www.w3.org/1999/xlink" x="0px" y="0px"
	 viewBox="0 0 455.001 455.001" style="enable-background:new 0 0 455.001 455.001;" xml:space="preserve">
<g>
	<path style="fill:#3A88D6;" d="M276.855,277.971c0.19,0.05,0.39,0.09,0.58,0.14c10.46,2.53,20.19,6.93,28.83,12.81
		c23.39,15.92,38.75,42.77,38.75,73.19v84.89h-47.04h-140.96h-47.03v-84.89c0-30.42,15.35-57.27,38.74-73.19
		c8.64-5.88,18.37-10.28,28.83-12.81c0.19-0.05,0.39-0.09,0.58-0.14l10.87-7.97"/>
	<path style="fill:#FFD3AE;" d="M157.015,325.001v124h-47.03v-84.89c0-30.42,15.35-57.27,38.74-73.19
		C154.025,301.121,157.015,312.711,157.015,325.001z"/>
	<path style="fill:#FFD3AE;" d="M345.015,364.111v84.89h-47.04v-124c0-12.29,2.99-23.88,8.29-34.08
		C329.655,306.841,345.015,333.691,345.015,364.111z"/>
	<path style="fill:#FFFFFF;" d="M325.015,435.001c-3.313,0-6-2.687-6-6v-73c0-3.313,2.687-6,6-6s6,2.687,6,6v73
		C331.015,432.315,328.328,435.001,325.015,435.001z"/>
	<g>
		<path style="fill:#333333;" d="M261.98,403.001h-68.96c-23.159,0-42-18.841-42-42h12c0,16.542,13.458,30,30,30h68.96
			c16.542,0,30-13.458,30-30h12C303.98,384.16,285.139,403.001,261.98,403.001z"/>
		<path style="fill:#FFFFFF;" d="M261.98,385.001c-3.313,0-6-2.687-6-6s2.687-6,6-6c6.617,0,12-5.383,12-12c0-3.313,2.687-6,6-6
			s6,2.687,6,6C285.98,374.235,275.213,385.001,261.98,385.001z"/>
	</g>
	<g>
		<path style="fill:#333333;" d="M359,455.001H96.23c-3.313,0-6-2.687-6-6s2.687-6,6-6H359c3.313,0,6,2.687,6,6
			S362.314,455.001,359,455.001z"/>
		<path style="fill:#333333;" d="M391,455.001h-11c-3.313,0-6-2.687-6-6s2.687-6,6-6h11c3.313,0,6,2.687,6,6
			S394.314,455.001,391,455.001z"/>
		<path style="fill:#333333;" d="M75,455.001H64c-3.313,0-6-2.687-6-6s2.687-6,6-6h11c3.313,0,6,2.687,6,6
			S78.314,455.001,75,455.001z"/>
	</g>
	<g>
		<g>
			<circle style="fill:#FFD3AE;" cx="146.932" cy="167.001" r="27.89"/>
			<circle style="fill:#FFD3AE;" cx="308.067" cy="167.001" r="27.89"/>
		</g>
		<g>
			<path style="fill:#333333;" d="M146.933,200.891c-18.688,0-33.891-15.203-33.891-33.89s15.203-33.89,33.891-33.89
				c18.687,0,33.89,15.203,33.89,33.89S165.619,200.891,146.933,200.891z M146.933,145.111c-12.07,0-21.891,9.82-21.891,21.89
				s9.82,21.89,21.891,21.89s21.89-9.82,21.89-21.89S159.003,145.111,146.933,145.111z"/>
			<path style="fill:#333333;" d="M308.068,200.891c-18.687,0-33.89-15.203-33.89-33.89s15.203-33.89,33.89-33.89
				s33.89,15.203,33.89,33.89S326.754,200.891,308.068,200.891z M308.068,145.111c-12.07,0-21.89,9.82-21.89,21.89
				s9.819,21.89,21.89,21.89s21.89-9.82,21.89-21.89S320.138,145.111,308.068,145.111z"/>
		</g>
	</g>
	<path style="fill:#FFD3AE;" d="M276.86,262.971c-14.1,9.49-31.08,15.03-49.36,15.03s-35.26-5.54-49.36-15.03
		c-0.19-0.13-0.39-0.26-0.58-0.4c-23.28-15.94-38.56-42.72-38.56-73.07v-22.5v-51.5c0-48.877,39.623-88.5,88.5-88.5l0,0
		c48.877,0,88.5,39.623,88.5,88.5v51.5v22.5c0,30.35-15.28,57.13-38.56,73.07C277.25,262.711,277.05,262.841,276.86,262.971z"/>
	<path style="fill:#333333;" d="M227.5,284.001c-18.88,0-37.106-5.551-52.71-16.052l-0.192-0.13
		c-0.165-0.111-0.331-0.225-0.494-0.342C148.364,249.821,133,220.678,133,189.501v-74c0-52.107,42.393-94.5,94.5-94.5
		s94.5,42.393,94.5,94.5v74c0,31.174-15.363,60.316-41.101,77.973c-0.171,0.123-0.345,0.242-0.518,0.358l-0.133,0.09
		c-0.014,0.009-0.026,0.018-0.039,0.027C264.607,278.451,246.38,284.001,227.5,284.001z M227.5,33.001
		c-45.49,0-82.5,37.01-82.5,82.5v74c0,27.241,13.439,52.707,35.949,68.12c0.054,0.037,0.106,0.074,0.158,0.112l0.434,0.295
		c13.565,9.13,29.475,13.973,45.959,13.973s32.395-4.844,46.009-14.007l0.371-0.252c0.053-0.039,0.116-0.084,0.17-0.121
		c22.511-15.414,35.95-40.879,35.95-68.12v-74C310,70.011,272.99,33.001,227.5,33.001z"/>
	<g>
		<path style="fill:#F7774B;" d="M227.5,237.011c-4.869,0-9.738-0.513-14.572-1.538c-3.242-0.688-5.313-3.873-4.625-7.114
			c0.687-3.241,3.875-5.313,7.113-4.625c8.02,1.7,16.148,1.7,24.168,0c3.241-0.686,6.428,1.383,7.113,4.625
			c0.688,3.242-1.383,6.427-4.625,7.114C237.238,236.498,232.369,237.011,227.5,237.011z"/>
	</g>
	<g style="opacity:0.44;">
		<path style="fill:#333333;" d="M228.005,250.001h-1.01c-2.209,0-4-1.791-4-4s1.791-4,4-4h1.01c2.209,0,4,1.791,4,4
			S230.214,250.001,228.005,250.001z"/>
	</g>
	<g>
		<g>
			<path style="fill:#333333;" d="M282.973,161.415c-0.452,0-0.912-0.052-1.372-0.159c-7.916-1.853-16.285-1.853-24.201,0
				c-3.231,0.756-6.455-1.249-7.209-4.476c-0.755-3.227,1.248-6.454,4.475-7.209c9.705-2.27,19.963-2.271,29.67,0
				c3.227,0.755,5.229,3.982,4.475,7.209C288.163,159.547,285.697,161.415,282.973,161.415z"/>
		</g>
	</g>
	<path style="opacity:0.44;fill:#333333;enable-background:new    ;" d="M209.14,262.971c10.02,6.74,21.5,11.49,33.86,13.68
		c-5.03,0.89-10.21,1.35-15.5,1.35c-18.28,0-35.26-5.54-49.36-15.03c-0.19-0.13-0.39-0.26-0.58-0.4
		c-23.28-15.94-38.56-42.72-38.56-73.07v-22.5c0-139,54.89-137.3,54.89-134.41l-10.384,15.807
		c-15.364,23.387-15.305,53.174-0.958,76.231c2.423,3.895,10.151,17.294,10.019,20.366c-0.483,11.29-9.201,21.36-21.338,21.975
		c-0.407,0.021-0.817,0.031-1.229,0.031v22.5c0,30.35,15.28,57.13,38.56,73.07C208.75,262.711,208.95,262.841,209.14,262.971z"/>
	<g>
		<path style="fill:#333333;" d="M220.557,210.001c-3.313,0-6-2.687-6-6v-32.927c0-2.692-1.515-5.195-3.858-6.375
			c-7.192-3.621-19.527-7.153-37.439-3.412c-3.247,0.676-6.423-1.403-7.1-4.647c-0.678-3.244,1.403-6.422,4.646-7.1
			c21.303-4.447,36.388-0.041,45.289,4.44c6.453,3.25,10.462,9.799,10.462,17.094v32.927
			C226.557,207.315,223.87,210.001,220.557,210.001z"/>
	</g>
	<polygon style="fill:#D68D51;" points="298.995,96.001 310.995,177.001 340.995,148.001 316.995,110.001 346.995,108.001 
		308.995,79.001 340.995,67.001 290.995,45.001 308.995,26.001 256.995,24.001 266.995,6.001 227.5,14.001 188.005,6.001 
		198.005,24.001 146.005,26.001 164.005,45.001 114.005,67.001 146.005,79.001 108.005,108.001 138.005,110.001 114.005,148.001 
		144.005,177.001 156.005,96.001 174.005,116.001 178.005,96.001 208.005,121.001 208.005,94.001 227.5,120.001 237.005,96.001 
		272.005,122.001 274.005,96.001 290.005,114.001 	"/>
	<g style="opacity:0.44;">
		<path style="fill:#333333;" d="M169.005,108.001l7.789-5.944l1.211-6.056l3.214,2.679l25.786-19.679l-32-12l50-22l-19-6L258,24.04
			l-1.005-0.039l10-18l-16.17,3.275c-11.28,2.285-23.325,4.725-23.325,4.725l-39.495-8l10,18l-52,2l18,19l-50,22l32,12l-38,29l30,2
			l-24,38l30,29l12-81l18,20l1.513-7.566L169.005,108.001z"/>
	</g>
	<path style="fill:#333333;" d="M138.005,183.001c-1.764,0-3.468-0.779-4.622-2.175l-24-29c-1.654-1.999-1.837-4.835-0.451-7.029
		l18.619-29.479l-19.945-1.33c-2.494-0.167-4.624-1.862-5.346-4.256c-0.721-2.394,0.117-4.984,2.105-6.5l29.378-22.42l-21.845-8.192
		c-2.285-0.857-3.823-3.012-3.892-5.451c-0.067-2.439,1.349-4.676,3.582-5.659l42.199-18.568L141.65,30.128
		c-1.62-1.71-2.09-4.209-1.201-6.391c0.89-2.181,2.973-3.641,5.326-3.731l42.244-1.625l-5.259-9.466
		c-1.212-2.181-0.947-4.885,0.664-6.79c1.612-1.905,4.233-2.613,6.586-1.78l37.49,13.29l37.489-13.29
		c2.354-0.832,4.976-0.125,6.586,1.78c1.611,1.905,1.876,4.608,0.664,6.79l-5.259,9.466l42.244,1.625
		c2.354,0.09,4.437,1.55,5.326,3.731c0.889,2.182,0.419,4.681-1.201,6.391l-12.138,12.813l42.199,18.568
		c2.233,0.982,3.649,3.22,3.582,5.659c-0.068,2.439-1.606,4.594-3.892,5.451l-21.845,8.192l29.378,22.42
		c1.988,1.517,2.826,4.107,2.105,6.5c-0.722,2.394-2.852,4.089-5.346,4.256l-19.945,1.33l18.619,29.479
		c1.409,2.231,1.194,5.122-0.528,7.121l-24.989,29c-1.489,1.729-3.83,2.462-6.042,1.894c-2.21-0.57-3.905-2.344-4.375-4.578
		l-13.469-64.137l-1.291,2.585c-0.89,1.782-2.605,3.006-4.58,3.268c-1.97,0.258-3.949-0.473-5.272-1.962l-6.616-7.444l-0.917,11.917
		c-0.168,2.179-1.506,4.094-3.494,5c-1.99,0.905-4.313,0.659-6.066-0.644l-28.723-21.337l-6.626,16.73
		c-0.8,2.02-2.629,3.449-4.781,3.737c-2.154,0.288-4.294-0.61-5.598-2.347l-8.694-11.596v8.998c0,2.328-1.347,4.446-3.455,5.434
		c-2.106,0.987-4.597,0.667-6.386-0.824l-22.253-18.544l-2.022,10.112c-0.445,2.225-2.108,4.009-4.297,4.609
		c-2.185,0.601-4.528-0.084-6.047-1.772l-10.209-11.344l-15.474,69.632c-0.497,2.237-2.225,3.995-4.452,4.531
		C138.944,182.947,138.472,183.001,138.005,183.001z M298.992,90.001c0.255,0,0.511,0.016,0.769,0.049
		c2.532,0.326,4.58,2.219,5.105,4.718l14.517,69.122l14.166-16.441l-21.628-34.244c-1.129-1.788-1.233-4.039-0.275-5.924
		c0.959-1.885,2.84-3.126,4.949-3.267l14.058-0.937l-25.298-19.306c-1.735-1.324-2.615-3.486-2.296-5.646
		c0.318-2.16,1.785-3.976,3.829-4.742l18.201-6.825l-36.511-16.065c-1.787-0.786-3.08-2.392-3.466-4.306s0.184-3.896,1.526-5.313
		l8.893-9.387l-38.768-1.491c-2.083-0.08-3.976-1.236-4.998-3.053s-1.029-4.034-0.017-5.857l2.294-4.129l-24.538,8.699
		c-1.297,0.46-2.713,0.46-4.01,0l-24.539-8.699l2.294,4.129c1.013,1.823,1.006,4.04-0.017,5.857s-2.915,2.973-4.998,3.053
		l-38.768,1.491l8.893,9.387c1.343,1.417,1.912,3.399,1.526,5.313s-1.679,3.52-3.466,4.306L129.91,66.558l18.201,6.825
		c2.044,0.767,3.511,2.583,3.829,4.742c0.319,2.159-0.561,4.321-2.296,5.646l-25.298,19.307l14.058,0.937
		c2.109,0.141,3.99,1.382,4.949,3.267c0.958,1.885,0.854,4.136-0.275,5.924L121.4,147.528l13.408,16.201l15.339-69.028
		c0.487-2.193,2.159-3.93,4.332-4.501c2.173-0.573,4.48,0.119,5.985,1.789l10.001,11.113l1.655-8.276
		c0.415-2.074,1.892-3.777,3.887-4.481c1.997-0.705,4.213-0.305,5.838,1.048l20.159,16.799V94.001c0-2.583,1.652-4.875,4.103-5.692
		c2.451-0.816,5.149,0.027,6.698,2.093l13.063,17.423l5.558-14.033c0.687-1.734,2.141-3.05,3.935-3.561
		c1.794-0.512,3.723-0.159,5.222,0.954l26.273,19.518l1.166-15.161c0.185-2.4,1.786-4.458,4.067-5.226
		c2.281-0.768,4.8-0.099,6.399,1.7l10.109,11.373l5.027-10.067C294.652,91.269,296.742,90.001,298.992,90.001z"/>
	<path style="fill:#FFFFFF;" d="M300.005,210.001c-3.313,0-6-2.687-6-6v-14c0-3.313,2.687-6,6-6s6,2.687,6,6v14
		C306.005,207.315,303.319,210.001,300.005,210.001z"/>
	<path style="fill:#FFFFFF;" d="M302.007,70.722c-0.579,0-1.168-0.084-1.751-0.262l-8-2.438c-3.17-0.965-4.956-4.318-3.99-7.488
		c0.966-3.169,4.318-4.958,7.488-3.991l8,2.438c3.17,0.965,4.956,4.318,3.99,7.488C306.956,69.056,304.578,70.722,302.007,70.722z"
		/>
	<path style="fill:#333333;" d="M196.886,323.001c-1.435,0-2.854-0.515-3.972-1.501c-0.817-0.722-20.073-17.95-24.714-42.347
		c-0.07-0.37-0.105-0.745-0.105-1.121l6.027-0.005l5.867-1.116c2.18,11.462,8.44,21.23,13.54,27.617
		c7.788-18.211,30.163-29.47,31.308-30.035c1.674-0.828,3.641-0.828,5.316,0c1.144,0.565,23.503,11.817,31.299,30.017
		c5.135-6.442,11.45-16.296,13.583-27.774l11.799,2.192c-4.556,24.512-23.938,41.847-24.76,42.573
		c-1.769,1.561-4.286,1.94-6.437,0.969c-2.15-0.97-3.532-3.11-3.532-5.469c0-13.46-15.872-25.326-24.603-30.322
		c-8.726,5.014-24.617,16.917-24.617,30.322c0,2.359-1.382,4.499-3.532,5.469C198.562,322.827,197.721,323.001,196.886,323.001z"/>
	<rect x="222.005" y="285.001" style="fill:#333333;" width="12" height="166"/>
	<g>
		<path style="fill:#3A88D6;" d="M346.965,368.001h-48.99v-43c0-11.82,2.76-22.99,7.69-32.89c2.2,1.64,4.34,3.36,6.4,5.15
			C333.065,315.441,346.265,340.391,346.965,368.001z"/>
		<path style="fill:#3A88D6;" d="M157.015,325.001v43h-48.49c0.76-30.17,16.45-57.15,40.93-75.62
			C154.305,302.221,157.015,313.291,157.015,325.001z"/>
	</g>
	<path style="fill:#333333;" d="M203.005,358.001h-29c-3.313,0-6-2.687-6-6s2.687-6,6-6h29c3.313,0,6,2.687,6,6
		S206.319,358.001,203.005,358.001z"/>
	<g>
		<path style="opacity:0.44;fill:#333333;enable-background:new    ;" d="M153.665,302.921c-15.21,15.89-24.56,37.45-24.56,61.19
			v82.89h-19.12v-82.89c0-30.42,15.35-57.27,38.74-73.19C150.705,294.741,152.365,298.751,153.665,302.921z"/>
	</g>
	<g>
		<path style="fill:#333333;" d="M352.995,449.001h-12v-78.69c0-0.719-0.01-1.438-0.028-2.158
			c-0.635-25.012-12.293-48.578-32.829-66.356c-1.935-1.681-3.971-3.319-6.059-4.876c-12.322-9.227-26.457-15.919-42.021-19.897
			l2.973-11.626c17.097,4.37,32.65,11.742,46.23,21.91c2.316,1.728,4.588,3.555,6.738,5.424
			c23.112,20.008,36.242,46.688,36.963,75.117c0.021,0.82,0.032,1.641,0.032,2.462L352.995,449.001L352.995,449.001z"/>
		<path style="fill:#333333;" d="M114.495,449.001h-12v-78.69c0-0.821,0.011-1.642,0.031-2.462
			c0.777-30.822,16.564-60.075,43.315-80.257c13.564-10.243,29.144-17.682,46.304-22.11l2.998,11.619
			c-15.62,4.031-29.775,10.783-42.073,20.068c-23.813,17.968-37.863,43.839-38.548,70.983c-0.019,0.72-0.027,1.439-0.027,2.159
			V449.001z"/>
		<path style="fill:#333333;" d="M303.975,449.001h-12v-124c0-12.496,2.79-24.444,8.295-35.516c0.175-0.366,0.362-0.732,0.549-1.093
			l0.108-0.211l10.676,5.479l-0.118,0.23c-0.134,0.261-0.271,0.525-0.397,0.79c-0.017,0.036-0.033,0.071-0.051,0.106
			c-4.686,9.408-7.062,19.574-7.062,30.215V449.001z"/>
		<path style="fill:#333333;" d="M163.015,449.001h-12v-124c0-10.539-2.336-20.622-6.941-29.968
			c-0.016-0.032-0.031-0.065-0.047-0.098c-0.196-0.417-0.41-0.834-0.623-1.243l10.643-5.543c0.278,0.535,0.557,1.081,0.814,1.626
			c5.411,10.998,8.154,22.848,8.154,35.226L163.015,449.001L163.015,449.001z"/>
		<rect x="297.975" y="362.001" style="fill:#333333;" width="48.99" height="12"/>
		<rect x="108.525" y="362.001" style="fill:#333333;" width="48.49" height="12"/>
	</g>
	<g>
		<g>
			<g>
				<g>
					<circle style="fill:#333333;" cx="193.16" cy="179.886" r="8.009"/>
				</g>
				<path style="fill:#333333;" d="M177.83,187.209c-1.533,0-3.065-0.583-4.236-1.751c-2.347-2.34-2.353-6.139-0.013-8.485
					c6.153-6.169,15.544-7.745,23.376-3.919c2.977,1.455,4.211,5.048,2.756,8.025c-1.454,2.977-5.045,4.212-8.025,2.756
					c-3.218-1.573-7.08-0.924-9.608,1.611C180.906,186.621,179.368,187.209,177.83,187.209z"/>
			</g>
		</g>
		<g>
			<g>
				<g>
					<circle style="fill:#333333;" cx="261.84" cy="179.886" r="8.009"/>
				</g>
				<path style="fill:#333333;" d="M277.169,187.209c-1.539,0-3.077-0.588-4.249-1.764c-2.528-2.537-6.391-3.183-9.607-1.611
					c-2.978,1.456-6.569,0.221-8.025-2.756c-1.455-2.977-0.222-6.57,2.756-8.025c7.83-3.826,17.224-2.251,23.375,3.919
					c2.34,2.347,2.334,6.146-0.013,8.485C280.235,186.625,278.701,187.209,277.169,187.209z"/>
			</g>
		</g>
	</g>
</g>
<g>
</g>
<g>
</g>
<g>
</g>
<g>
</g>
<g>
</g>
<g>
</g>
<g>
</g>
<g>
</g>
<g>
</g>
<g>
</g>
<g>
</g>
<g>
</g>
<g>
</g>
<g>
</g>
<g>
</g>
</svg>
