<?xml version="1.0" encoding="iso-8859-1"?>
<!-- Generator: Adobe Illustrator 19.0.0, SVG Export Plug-In . SVG Version: 6.00 Build 0)  -->
<svg version="1.1" id="Layer_1" xmlns="http://www.w3.org/2000/svg" xmlns:xlink="http://www.w3.org/1999/xlink" x="0px" y="0px"
	 viewBox="0 0 418.999 418.999" style="enable-background:new 0 0 418.999 418.999;" xml:space="preserve">
<g>
	<g>
		<g>
			<circle style="fill:#FFD3AE;" cx="128.932" cy="145.999" r="27.89"/>
			<circle style="fill:#FFD3AE;" cx="290.066" cy="145.999" r="27.89"/>
		</g>
		<g>
			<path style="fill:#333333;" d="M128.932,179.889c-18.687,0-33.89-15.203-33.89-33.89s15.203-33.89,33.89-33.89
				s33.89,15.203,33.89,33.89S147.617,179.889,128.932,179.889z M128.932,124.109c-12.07,0-21.89,9.82-21.89,21.89
				s9.819,21.89,21.89,21.89s21.89-9.82,21.89-21.89C150.82,133.929,141.001,124.109,128.932,124.109z"/>
			<path style="fill:#333333;" d="M290.065,179.889c-18.687,0-33.89-15.203-33.89-33.89s15.203-33.89,33.89-33.89
				c18.688,0,33.891,15.203,33.891,33.89S308.753,179.889,290.065,179.889z M290.065,124.109c-12.07,0-21.89,9.82-21.89,21.89
				s9.819,21.89,21.89,21.89c12.071,0,21.891-9.82,21.891-21.89C311.956,133.929,302.136,124.109,290.065,124.109z"/>
		</g>
	</g>
	<path style="fill:#3C5CD3;" d="M258.854,241.969c0.19,0.05,0.39,0.09,0.58,0.14c10.46,2.53,20.19,6.93,28.83,12.81
		c23.39,15.92,38.75,42.77,38.75,73.19v84.89h-47.04h-140.96h-47.03v-84.89c0-30.42,15.35-57.27,38.74-73.19
		c8.64-5.88,18.37-10.28,28.83-12.81c0.19-0.05,0.39-0.09,0.58-0.14"/>
	<path style="fill:#FFD3AE;" d="M139.014,288.999v124h-47.03v-84.89c0-30.42,15.35-57.27,38.74-73.19
		C136.024,265.119,139.014,276.709,139.014,288.999z"/>
	<path style="fill:#FFD3AE;" d="M327.015,328.109v84.89h-47.04v-124c0-12.29,2.99-23.88,8.29-34.08
		C311.654,270.839,327.015,297.689,327.015,328.109z"/>
	<path style="fill:#3C5CD3;" d="M327.015,328.109v19.89h-45.7h-1.34v-59c0-12.29,2.99-23.88,8.29-34.08
		C311.654,270.839,327.015,297.689,327.015,328.109z"/>
	<path style="fill:#3C5CD3;" d="M139.014,288.999v59h-47.03v-19.89c0-30.42,15.35-57.27,38.74-73.19
		C136.024,265.119,139.014,276.709,139.014,288.999z"/>
	<path style="fill:#333333;" d="M285.974,412.999h-12v-124c0-12.816,3.101-25.558,8.966-36.846l10.648,5.533
		c-5.053,9.724-7.614,20.259-7.614,31.313V412.999z"/>
	<rect x="281.313" y="341.999" style="fill:#333333;" width="47.03" height="12"/>
	<path style="fill:#FFFFFF;" d="M307.015,398.999c-3.313,0-6-2.686-6-6v-27c0-3.314,2.687-6,6-6s6,2.686,6,6v27
		C313.015,396.313,310.328,398.999,307.015,398.999z"/>
	<g>
		<path style="opacity:0.44;fill:#333333;enable-background:new    ;" d="M135.664,266.919c-15.21,15.89-24.56,37.45-24.56,61.19
			v19.89h-19.12v-19.89c0-30.42,15.35-57.27,38.74-73.19C132.704,258.739,134.365,262.749,135.664,266.919z"/>
		<rect x="93.051" y="347.999" style="opacity:0.44;fill:#333333;enable-background:new    ;" width="16.63" height="65"/>
	</g>
	<path style="fill:#333333;" d="M327.015,418.999H91.983c-3.313,0-6-2.686-6-6v-84.89c0-31.306,15.463-60.521,41.364-78.15
		c9.416-6.408,19.762-11.008,30.751-13.671c0.129-0.033,0.261-0.064,0.393-0.094l0.119-0.028l3.056,11.604
		c-0.155,0.041-0.314,0.079-0.475,0.116l-0.119,0.028c-0.019,0.005-0.09,0.023-0.108,0.027c-9.596,2.321-18.635,6.338-26.864,11.939
		c-22.615,15.392-36.116,40.899-36.116,68.229v78.89h223.03v-78.89c0-27.327-13.505-52.834-36.126-68.23
		c-8.229-5.6-17.267-9.617-26.864-11.938c-0.041-0.01-0.082-0.02-0.122-0.031l-0.11-0.026c-0.155-0.036-0.311-0.073-0.463-0.113
		l3.051-11.606l-1.525,5.803l1.519-5.805l0.119,0.028c0.134,0.031,0.269,0.063,0.399,0.096c10.99,2.664,21.335,7.263,30.749,13.67
		c25.907,17.633,41.374,46.848,41.374,78.15v84.892C333.015,416.313,330.328,418.999,327.015,418.999z"/>
	<path style="fill:#333333;" d="M145.014,412.999h-12v-124c0-11.054-2.562-21.59-7.614-31.313l10.648-5.533
		c5.865,11.289,8.966,24.03,8.966,36.846V412.999z"/>
	<rect x="91.983" y="341.999" style="fill:#333333;" width="47.03" height="12"/>
	<path style="fill:#FFD3AE;" d="M258.854,241.969c-14.1,9.49-31.08,15.03-49.36,15.03s-35.26-5.54-49.36-15.03
		c-0.19-0.13-0.39-0.26-0.58-0.4c-23.28-15.94-38.56-42.72-38.56-73.07v-22.5v-51.5c0-48.877,39.623-88.5,88.5-88.5l0,0
		c48.877,0,88.5,39.623,88.5,88.5v51.5v22.5c0,30.35-15.28,57.13-38.56,73.07C259.245,241.709,259.044,241.839,258.854,241.969z"/>
	<path style="opacity:0.44;fill:#333333;enable-background:new    ;" d="M191.134,241.969c10.02,6.74,21.5,11.49,33.86,13.68
		c-5.03,0.89-10.21,1.35-15.5,1.35c-18.28,0-35.26-5.54-49.36-15.03c-0.19-0.13-0.39-0.26-0.58-0.4
		c-23.28-15.94-38.56-42.72-38.56-73.07v-74c13.19,0,23.89,17.74,23.89,4.54l0,0c0-7.95,6.53-13.83,13.81-13.83
		c1.81,0,3.68,0.37,5.5,1.16c4.58,1.98,9.26,3.65,14,5.01c-1.45,2.16-2.31,4.77-2.31,7.66v23.07c0,13.2-10.7,23.89-23.89,23.89v22.5
		c0,30.35,15.28,57.13,38.56,73.07C190.744,241.709,190.945,241.839,191.134,241.969z"/>
	<path style="fill:#995B28;" d="M297.998,94.499v21.5c-29.39,17.4-66.73,13.38-91.74-9.87l-23.82-22.13
		c-7.89,18.21-25.85,30-45.7,30h-15.74v-19.5c0-48.88,39.62-88.5,88.5-88.5c24.44,0,46.56,9.9,62.58,25.92
		C288.089,47.939,297.998,70.059,297.998,94.499z"/>
	<path style="fill:#333333;" d="M258.885,132.76c-3.001,0-6.016-0.162-9.04-0.487c-17.959-1.933-34.443-9.453-47.671-21.75
		l-18.079-16.797c-10.083,16.187-27.894,26.273-47.356,26.273h-15.74v-12h15.74c17.472,0,33.249-10.357,40.194-26.385
		c0.774-1.787,2.368-3.087,4.274-3.487c1.909-0.4,3.889,0.151,5.315,1.477l23.819,22.13c22.902,21.291,57.689,25.032,84.6,9.103
		l6.113,10.326C288.13,128.814,273.704,132.76,258.885,132.76z"/>
	<path style="fill:#FFD3AE;" d="M259.435,242.109v17.89c0,27.58-22.36,49.94-49.94,49.94s-49.94-22.36-49.94-49.94v-17.89
		c0.19-0.05,0.39-0.09,0.58-0.14c14.1,9.49,31.08,15.03,49.36,15.03s35.26-5.54,49.36-15.03
		C259.044,242.019,259.245,242.059,259.435,242.109z"/>
	<path style="opacity:0.44;fill:#333333;enable-background:new    ;" d="M257.875,242.619c-6.74,12.83-16.55,23.81-28.44,31.95
		c-0.19,0.14-0.39,0.27-0.58,0.4c-14.1,9.49-31.08,15.03-49.36,15.03c-6.5,0-12.84-0.7-18.94-2.04c-0.66-3.23-1-6.57-1-9.99v-35.86
		c0.19-0.05,0.39-0.09,0.58-0.14c14.1,9.49,31.08,15.03,49.36,15.03C227.354,256.999,243.975,251.709,257.875,242.619z"/>
	<g>
		<path style="fill:#333333;" d="M243.12,34.835c16.565,9.373,28.862,25.444,33.184,44.509"/>
		<path style="fill:#FFFFFF;" d="M276.299,85.345c-2.74,0-5.214-1.889-5.846-4.675c-3.88-17.115-14.92-31.918-30.288-40.613
			c-2.884-1.632-3.898-5.293-2.267-8.177s5.293-3.899,8.177-2.268c18.304,10.357,31.455,27.999,36.081,48.404
			c0.732,3.232-1.293,6.446-4.525,7.178C277.185,85.296,276.739,85.345,276.299,85.345z"/>
	</g>
	<g>
		<path style="fill:#333333;" d="M209.494,25.999c4.631,0,9.156,0.462,13.531,1.342"/>
		<path style="fill:#FFFFFF;" d="M223.031,33.342c-0.392,0-0.79-0.039-1.188-0.119c-4.039-0.812-8.195-1.224-12.349-1.224
			c-3.313,0-6-2.686-6-6s2.687-6,6-6c4.947,0,9.898,0.491,14.714,1.46c3.249,0.654,5.353,3.817,4.699,7.065
			C228.335,31.374,225.83,33.342,223.031,33.342z"/>
	</g>
	<path style="fill:#333333;" d="M209.494,315.939c-30.846,0-55.94-25.095-55.94-55.94v-18.43h12v18.43
		c0,24.229,19.712,43.94,43.94,43.94s43.939-19.711,43.939-43.94v-18.43h12v18.43C265.435,290.844,240.339,315.939,209.494,315.939z
		"/>
	<g>
		<path style="fill:#333333;" d="M177.884,166.436c-1.58,0-3.13-0.64-4.24-1.75c-1.12-1.12-1.76-2.67-1.76-4.25s0.64-3.12,1.76-4.24
			c1.39-1.39,3.46-2.03,5.41-1.64c0.39,0.08,0.76,0.19,1.13,0.34c0.36,0.15,0.71,0.34,1.03,0.55c0.33,0.22,0.64,0.47,0.91,0.75
			c0.28,0.28,0.53,0.58,0.75,0.91s0.4,0.68,0.55,1.04c0.15,0.36,0.27,0.74,0.34,1.12c0.08,0.39,0.12,0.78,0.12,1.17
			s-0.04,0.79-0.12,1.18c-0.07,0.38-0.19,0.76-0.34,1.12s-0.33,0.71-0.55,1.03c-0.22,0.33-0.47,0.64-0.75,0.92
			C181.014,165.796,179.464,166.436,177.884,166.436z"/>
		<path style="fill:#333333;" d="M245.884,166.436c-0.39,0-0.79-0.04-1.17-0.11c-0.38-0.08-0.76-0.2-1.12-0.35
			c-0.37-0.15-0.71-0.33-1.04-0.55c-0.33-0.22-0.64-0.47-0.91-0.74c-0.28-0.28-0.53-0.59-0.75-0.92c-0.22-0.32-0.4-0.67-0.55-1.03
			c-0.15-0.36-0.27-0.74-0.34-1.12c-0.08-0.39-0.12-0.79-0.12-1.18s0.04-0.78,0.12-1.17c0.07-0.38,0.19-0.76,0.34-1.12
			s0.33-0.71,0.55-1.04c0.22-0.33,0.47-0.63,0.75-0.91c0.27-0.28,0.58-0.53,0.91-0.75c0.33-0.21,0.67-0.4,1.04-0.55
			c0.36-0.15,0.74-0.26,1.12-0.34c1.95-0.39,4.02,0.25,5.41,1.64c0.28,0.28,0.53,0.58,0.75,0.91s0.4,0.68,0.55,1.04
			c0.15,0.36,0.27,0.74,0.34,1.12c0.08,0.39,0.12,0.78,0.12,1.17s-0.04,0.79-0.12,1.18c-0.07,0.38-0.19,0.76-0.34,1.12
			s-0.33,0.71-0.55,1.03c-0.22,0.33-0.47,0.64-0.75,0.92C249.014,165.796,247.464,166.436,245.884,166.436z"/>
	</g>
	<g>
		<path style="fill:#333333;" d="M202.551,179.999c-3.313,0-6-2.686-6-6v-16.857c0-3.204-2.606-5.81-5.811-5.81h-28.58
			c-3.313,0-6-2.686-6-6s2.687-6,6-6h28.58c9.82,0,17.811,7.99,17.811,17.81v16.857
			C208.551,177.313,205.865,179.999,202.551,179.999z"/>
		<path style="fill:#333333;" d="M256.828,151.332h-24c-3.313,0-6-2.686-6-6s2.687-6,6-6h24c3.313,0,6,2.686,6,6
			S260.141,151.332,256.828,151.332z"/>
	</g>
	<g>
		<path style="fill:#333333;" d="M221.494,215.332h-24c-3.313,0-6-2.686-6-6s2.687-6,6-6h24c3.313,0,6,2.686,6,6
			S224.809,215.332,221.494,215.332z"/>
	</g>
	<g>
		<path style="fill:#333333;" d="M341,418.999H78.228c-3.313,0-6-2.686-6-6s2.687-6,6-6H341c3.313,0,6,2.686,6,6
			S344.313,418.999,341,418.999z"/>
		<path style="fill:#333333;" d="M373,418.999h-11c-3.313,0-6-2.686-6-6s2.687-6,6-6h11c3.313,0,6,2.686,6,6
			S376.313,418.999,373,418.999z"/>
		<path style="fill:#333333;" d="M56.999,418.999h-11c-3.313,0-6-2.686-6-6s2.687-6,6-6h11c3.313,0,6,2.686,6,6
			S60.312,418.999,56.999,418.999z"/>
	</g>
	<path style="opacity:0.44;fill:#333333;enable-background:new    ;" d="M226.658,7.659c-40.68,7.97-71.37,43.82-71.37,86.84v15.91
		c-5.79,2.33-12.07,3.59-18.55,3.59h-15.74v-19.5c0-48.88,39.62-88.5,88.5-88.5C215.368,5.999,221.108,6.569,226.658,7.659z"/>
	<path style="fill:#333333;" d="M209.498,262.999c-18.88,0-37.106-5.551-52.71-16.052l-0.175-0.118
		c-0.173-0.117-0.348-0.236-0.519-0.359c-25.734-17.656-41.097-46.798-41.097-77.97v-74c0-52.107,42.393-94.5,94.5-94.5
		c25.244,0,48.976,9.829,66.823,27.677c17.848,17.86,27.677,41.591,27.677,66.823v74c0,31.176-15.362,60.318-41.102,77.974
		c-0.168,0.121-0.34,0.238-0.511,0.353l-0.135,0.092C246.604,257.448,228.378,262.999,209.498,262.999z M209.498,11.999
		c-45.49,0-82.5,37.009-82.5,82.5v74c0,27.241,13.439,52.706,35.95,68.119c0.059,0.04,0.117,0.082,0.175,0.124l0.407,0.278
		c13.573,9.135,29.484,13.979,45.968,13.979s32.395-4.844,46.011-14.008l0.167-0.114c0.07-0.047,0.142-0.094,0.211-0.144
		c0.053-0.039,0.107-0.078,0.162-0.115c22.51-15.413,35.949-40.879,35.949-68.119v-74c0-22.028-8.582-42.746-24.164-58.339
		C252.255,20.58,231.536,11.999,209.498,11.999z"/>
</g>
<g>
</g>
<g>
</g>
<g>
</g>
<g>
</g>
<g>
</g>
<g>
</g>
<g>
</g>
<g>
</g>
<g>
</g>
<g>
</g>
<g>
</g>
<g>
</g>
<g>
</g>
<g>
</g>
<g>
</g>
</svg>
