<?xml version="1.0" encoding="iso-8859-1"?>
<!-- Generator: Adobe Illustrator 19.0.0, SVG Export Plug-In . SVG Version: 6.00 Build 0)  -->
<svg version="1.1" id="Layer_1" xmlns="http://www.w3.org/2000/svg" xmlns:xlink="http://www.w3.org/1999/xlink" x="0px" y="0px"
	 viewBox="0 0 419 419" style="enable-background:new 0 0 419 419;" xml:space="preserve">
<g>
	<g>
		<rect x="248.5" y="83" style="fill:#666666;" width="90" height="40"/>
		<path style="fill:#333333;" d="M338.5,129h-90c-3.313,0-6-2.687-6-6V83c0-3.313,2.687-6,6-6h90c3.313,0,6,2.687,6,6v40
			C344.5,126.313,341.813,129,338.5,129z M254.5,117h78V89h-78V117z"/>
	</g>
	<g>
		<polygon style="fill:#666666;" points="376.5,139 286.5,139 286.5,99 376.5,99 362.5,119 		"/>
		<path style="fill:#333333;" d="M376.5,145h-90c-3.313,0-6-2.687-6-6V99c0-3.313,2.687-6,6-6h90c2.237,0,4.289,1.245,5.322,3.229
			s0.876,4.379-0.407,6.212L369.824,119l11.591,16.559c1.283,1.833,1.44,4.228,0.407,6.212S378.737,145,376.5,145z M292.5,133
			h72.476l-7.391-10.559c-1.446-2.066-1.446-4.816,0-6.882l7.39-10.559H292.5V133z"/>
	</g>
	<g>
		<g>
			<circle style="fill:#FFD3AE;" cx="125.427" cy="146" r="27.89"/>
			<circle style="fill:#FFD3AE;" cx="286.562" cy="146" r="27.89"/>
		</g>
		<g>
			<path style="fill:#333333;" d="M125.428,179.89c-18.688,0-33.891-15.203-33.891-33.89s15.203-33.89,33.891-33.89
				c18.687,0,33.89,15.203,33.89,33.89S144.114,179.89,125.428,179.89z M125.428,124.11c-12.07,0-21.891,9.82-21.891,21.89
				s9.82,21.89,21.891,21.89s21.89-9.82,21.89-21.89S137.498,124.11,125.428,124.11z"/>
			<path style="fill:#333333;" d="M286.562,179.89c-18.687,0-33.89-15.203-33.89-33.89s15.203-33.89,33.89-33.89
				s33.89,15.203,33.89,33.89S305.249,179.89,286.562,179.89z M286.562,124.11c-12.07,0-21.89,9.82-21.89,21.89
				s9.819,21.89,21.89,21.89s21.89-9.82,21.89-21.89S298.633,124.11,286.562,124.11z"/>
		</g>
	</g>
	<path style="fill:#FFD3AE;" d="M255.355,241.97c0.19,0.05,0.39,0.09,0.58,0.14c10.46,2.53,20.19,6.93,28.83,12.81
		c23.39,15.92,38.75,42.77,38.75,73.19V413h-47.04h-140.96h-47.03v-84.89c0-30.42,15.35-57.27,38.74-73.19
		c8.64-5.88,18.37-10.28,28.83-12.81c0.19-0.05,0.39-0.09,0.58-0.14"/>
	<path style="fill:#FFD3AE;" d="M255.355,241.97c-14.1,9.49-31.08,15.03-49.36,15.03s-35.26-5.54-49.36-15.03
		c-0.19-0.13-0.39-0.26-0.58-0.4c-23.28-15.94-38.56-42.72-38.56-73.07V146V94.5c0-48.877,39.623-88.5,88.5-88.5l0,0
		c48.877,0,88.5,39.623,88.5,88.5V146v22.5c0,30.35-15.28,57.13-38.56,73.07C255.745,241.71,255.545,241.84,255.355,241.97z"/>
	<path style="fill:#333333;" d="M205.995,263c-18.881,0-37.107-5.551-52.711-16.052l-0.191-0.13
		c-0.165-0.111-0.331-0.225-0.494-0.342c-25.739-17.656-41.104-46.799-41.104-77.976v-74c0-52.107,42.393-94.5,94.5-94.5
		s94.5,42.393,94.5,94.5v74c0,31.174-15.363,60.316-41.101,77.973c-0.171,0.123-0.345,0.242-0.518,0.358l-0.133,0.09
		c-0.014,0.009-0.026,0.018-0.039,0.027C243.101,257.449,224.875,263,205.995,263z M205.995,12c-45.49,0-82.5,37.009-82.5,82.5v74
		c0,27.241,13.439,52.707,35.949,68.12c0.054,0.037,0.106,0.074,0.158,0.112l0.434,0.295C173.6,246.156,189.51,251,205.995,251
		c16.484,0,32.395-4.844,46.009-14.007l0.371-0.252c0.053-0.039,0.116-0.084,0.17-0.121c22.511-15.414,35.95-40.879,35.95-68.12v-74
		C288.495,49.009,251.485,12,205.995,12z"/>
	<g>
		<path style="fill:#333333;" d="M174.385,166.437c-1.58,0-3.13-0.64-4.24-1.75c-1.12-1.12-1.76-2.67-1.76-4.25s0.64-3.12,1.76-4.24
			c1.39-1.39,3.46-2.03,5.41-1.64c0.39,0.08,0.76,0.19,1.13,0.34c0.36,0.15,0.71,0.34,1.03,0.55c0.33,0.22,0.64,0.47,0.91,0.75
			c0.28,0.28,0.53,0.58,0.75,0.91s0.4,0.68,0.55,1.04c0.15,0.36,0.27,0.74,0.34,1.12c0.08,0.39,0.12,0.78,0.12,1.17
			s-0.04,0.79-0.12,1.18c-0.07,0.38-0.19,0.76-0.34,1.12s-0.33,0.71-0.55,1.03c-0.22,0.33-0.47,0.64-0.75,0.92
			C177.515,165.797,175.965,166.437,174.385,166.437z"/>
		<path style="fill:#333333;" d="M242.385,166.437c-0.39,0-0.79-0.04-1.17-0.11c-0.38-0.08-0.76-0.2-1.12-0.35
			c-0.37-0.15-0.71-0.33-1.04-0.55c-0.33-0.22-0.64-0.47-0.91-0.74c-0.28-0.28-0.53-0.59-0.75-0.92c-0.22-0.32-0.4-0.67-0.55-1.03
			c-0.15-0.36-0.27-0.74-0.34-1.12c-0.08-0.39-0.12-0.79-0.12-1.18s0.04-0.78,0.12-1.17c0.07-0.38,0.19-0.76,0.34-1.12
			s0.33-0.71,0.55-1.04c0.22-0.33,0.47-0.63,0.75-0.91c0.27-0.28,0.58-0.53,0.91-0.75c0.33-0.21,0.67-0.4,1.04-0.55
			c0.36-0.15,0.74-0.26,1.12-0.34c1.95-0.39,4.02,0.25,5.41,1.64c0.28,0.28,0.53,0.58,0.75,0.91s0.4,0.68,0.55,1.04
			c0.15,0.36,0.27,0.74,0.34,1.12c0.08,0.39,0.12,0.78,0.12,1.17s-0.04,0.79-0.12,1.18c-0.07,0.38-0.19,0.76-0.34,1.12
			s-0.33,0.71-0.55,1.03c-0.22,0.33-0.47,0.64-0.75,0.92C245.515,165.797,243.965,166.437,242.385,166.437z"/>
	</g>
	<path style="fill:#666666;" d="M135.52,348v65H88.48v-65v-19.89c0-30.42,15.35-57.27,38.74-73.19c5.3,10.2,8.3,21.79,8.3,34.08V348
		z"/>
	<path style="fill:#666666;" d="M323.52,348v65h-47.04v-65v-59c0-12.29,2.98-23.88,8.28-34.08c23.4,15.92,38.76,42.77,38.76,73.19
		V348z"/>
	<g>
		<path style="fill:#333333;" d="M199.052,180c-3.313,0-6-2.687-6-6v-16.857c0-3.204-2.606-5.81-5.811-5.81h-28.58
			c-3.313,0-6-2.687-6-6s2.687-6,6-6h28.58c9.82,0,17.811,7.989,17.811,17.81V174C205.052,177.313,202.365,180,199.052,180z"/>
		<path style="fill:#333333;" d="M253.328,151.333h-24c-3.313,0-6-2.687-6-6s2.687-6,6-6h24c3.313,0,6,2.687,6,6
			S256.642,151.333,253.328,151.333z"/>
	</g>
	<g>
		<path style="fill:#333333;" d="M217.995,215.333h-24c-3.313,0-6-2.687-6-6s2.687-6,6-6h24c3.313,0,6,2.687,6,6
			S221.309,215.333,217.995,215.333z"/>
	</g>
	<path style="opacity:0.44;fill:#333333;enable-background:new    ;" d="M187.635,241.97c10.02,6.74,21.5,11.49,33.86,13.68
		c-5.03,0.89-10.21,1.35-15.5,1.35c-18.28,0-35.26-5.54-49.36-15.03c-0.19-0.13-0.39-0.26-0.58-0.4
		c-23.28-15.94-38.56-42.72-38.56-73.07V146c0-139,54.89-137.301,54.89-134.411l-10.384,15.807
		c-15.364,23.387-15.305,53.174-0.958,76.231c2.423,3.895,10.151,17.294,10.019,20.366c-0.483,11.29-9.201,21.36-21.338,21.975
		c-0.407,0.021-0.817,0.031-1.229,0.031v22.5c0,30.35,15.28,57.13,38.56,73.07C187.245,241.71,187.445,241.84,187.635,241.97z"/>
	<path style="fill:#FFFFFF;" d="M303.515,399c-3.313,0-6-2.687-6-6v-78c0-3.313,2.687-6,6-6s6,2.687,6,6v78
		C309.515,396.313,306.828,399,303.515,399z"/>
	<path style="fill:#FFFFFF;" d="M279.5,180c-3.313,0-6-2.687-6-6v-27c0-3.313,2.687-6,6-6s6,2.687,6,6v27
		C285.5,177.313,282.813,180,279.5,180z"/>
	<g>
		<path style="opacity:0.44;fill:#333333;enable-background:new    ;" d="M132.165,266.92c-15.21,15.89-24.56,37.45-24.56,61.19V411
			h-19.12v-82.89c0-30.42,15.35-57.27,38.74-73.19C129.205,258.74,130.865,262.75,132.165,266.92z"/>
	</g>
	<g>
		<path style="fill:#333333;" d="M337.5,419H74.729c-3.313,0-6-2.687-6-6s2.687-6,6-6H337.5c3.313,0,6,2.687,6,6
			S340.813,419,337.5,419z"/>
		<path style="fill:#333333;" d="M369.5,419h-11c-3.313,0-6-2.687-6-6s2.687-6,6-6h11c3.313,0,6,2.687,6,6S372.813,419,369.5,419z"
			/>
		<path style="fill:#333333;" d="M53.5,419h-11c-3.313,0-6-2.687-6-6s2.687-6,6-6h11c3.313,0,6,2.687,6,6S56.813,419,53.5,419z"/>
	</g>
	<path style="opacity:0.44;fill:#333333;enable-background:new    ;" d="M255.82,242.62c-6.74,12.83-16.55,23.81-28.44,31.95
		c-0.19,0.14-0.39,0.27-0.58,0.4c-14.1,9.49-31.08,15.03-49.36,15.03c-6.5,0-6.267-7.273-12.367-8.613
		c-0.66-3.23-7.573-7.467-7.573-10.887v-28.39c0.19-0.05,0.39-0.09,0.58-0.14c14.1,9.49,31.08,15.03,49.36,15.03
		C225.3,257,241.92,251.71,255.82,242.62z"/>
	<g>
		<rect x="109.99" y="73" style="fill:#666666;" width="192" height="56"/>
	</g>
	<rect x="109.99" y="73" style="opacity:0.44;fill:#333333;enable-background:new    ;" width="48.51" height="54"/>
	<g>
		<path style="fill:#333333;" d="M301.99,135h-192c-3.313,0-6-2.687-6-6V73c0-3.313,2.687-6,6-6h192c3.313,0,6,2.687,6,6v56
			C307.99,132.313,305.304,135,301.99,135z M115.99,123h180V79h-180C115.99,79,115.99,123,115.99,123z"/>
	</g>
	<path style="fill:#FFFFFF;" d="M285.5,116.5c-3.313,0-6-2.687-6-6v-19c0-3.313,2.687-6,6-6s6,2.687,6,6v19
		C291.5,113.813,288.813,116.5,285.5,116.5z"/>
	<path style="fill:#666666;" d="M255.94,242.11c8.68,2.1,16.85,5.48,24.31,9.94C268.08,277.99,223.82,368.97,181.5,413h-31
		c18.13-18.86,37.07-46.78,53.82-74.65c27.42-45.64,48.96-91.11,51.4-96.29C255.79,242.07,255.87,242.09,255.94,242.11z"/>
	<path style="fill:#666666;" d="M150.5,413h-14.98v-65v-59c0-12.29-3-23.88-8.3-34.08c8.3-5.65,17.62-9.93,27.62-12.5l0.66,2.58
		c0,0,20.74,46.11,48.5,93.16l0.32,0.19C187.57,366.22,168.63,394.14,150.5,413z"/>
	<path style="fill:#666666;" d="M280.25,252.05c1.53,0.91,3.04,1.87,4.51,2.87c-5.3,10.2-8.28,21.79-8.28,34.08v59v65H181.5
		C223.82,368.97,268.08,277.99,280.25,252.05z"/>
	<path style="fill:#333333;" d="M282.479,413h-12V289c0-12.829,3.097-25.57,8.956-36.846l10.648,5.533
		c-5.046,9.711-7.604,20.247-7.604,31.313V413z"/>
	<path style="fill:#333333;" d="M323.519,419H88.479c-3.313,0-6-2.686-6-6v-84.89c0-31.306,15.463-60.521,41.364-78.15
		c9.033-6.149,18.959-10.641,29.503-13.351c0.344-0.095,0.782-0.204,1.227-0.313c0.155-0.041,0.317-0.079,0.482-0.117l0.136-0.032
		l2.896,11.646l-0.468,0.11c-0.057,0.016-0.08,0.022-0.138,0.036c-0.354,0.086-0.709,0.172-1.055,0.267
		c-9.289,2.389-17.949,6.308-25.832,11.674c-22.615,15.393-36.116,40.899-36.116,68.23V407h223.04v-78.89
		c0-27.33-13.509-52.836-36.135-68.229c-1.357-0.924-2.771-1.823-4.2-2.673c-7.061-4.221-14.679-7.336-22.656-9.267
		c-0.008-0.002-0.017-0.004-0.024-0.006c-0.076-0.016-0.152-0.033-0.229-0.052c-0.222-0.054-0.358-0.088-0.479-0.121l2.382-8.844
		l0.408-2.796c0.107,0.016,0.217,0.034,0.327,0.055l0.001-0.003l0.076,0.019c0.148,0.03,0.299,0.066,0.449,0.106
		c9.121,2.216,17.831,5.782,25.89,10.601c1.626,0.967,3.248,1.999,4.806,3.059c25.914,17.629,41.385,46.845,41.385,78.15V413
		C329.519,416.314,326.833,419,323.519,419z M254.275,247.875c0.003,0.001,0.006,0.001,0.009,0.002
		C254.281,247.876,254.278,247.875,254.275,247.875z"/>
	<path style="fill:#333333;" d="M141.519,413h-12V289c0-11.042-2.565-21.577-7.624-31.313l10.648-5.533
		c5.872,11.301,8.976,24.042,8.976,36.846V413z"/>
	<path style="fill:#333333;" d="M154.825,417.158l-8.65-8.316c15.544-16.17,33.377-40.927,53.003-73.583
		c26.944-44.848,48.529-90.271,51.079-95.682c0.162-0.37,0.255-0.565,0.255-0.565l10.855,5.115l-5.428-2.558l5.433,2.547
		l-0.153,0.343c-0.023,0.052-0.047,0.104-0.071,0.155c-3.927,8.34-24.877,52.203-51.684,96.824
		C189.374,374.866,170.991,400.341,154.825,417.158z"/>
	<path style="fill:#333333;" d="M198.832,341.209c-27.608-46.794-48.596-93.284-48.804-93.748l10.943-4.923
		c0.206,0.458,20.937,46.37,48.196,92.573L198.832,341.209z"/>
	<path style="fill:#333333;" d="M185.826,417.158l-8.652-8.315c41.489-43.165,85.228-132.874,97.645-159.34l10.863,5.097
		C273.067,281.486,228.587,372.669,185.826,417.158z"/>
</g>
<g>
</g>
<g>
</g>
<g>
</g>
<g>
</g>
<g>
</g>
<g>
</g>
<g>
</g>
<g>
</g>
<g>
</g>
<g>
</g>
<g>
</g>
<g>
</g>
<g>
</g>
<g>
</g>
<g>
</g>
</svg>
