<?xml version="1.0" encoding="iso-8859-1"?>
<!-- Generator: Adobe Illustrator 19.0.0, SVG Export Plug-In . SVG Version: 6.00 Build 0)  -->
<svg version="1.1" id="Layer_1" xmlns="http://www.w3.org/2000/svg" xmlns:xlink="http://www.w3.org/1999/xlink" x="0px" y="0px"
	 viewBox="0 0 473 473" style="enable-background:new 0 0 473 473;" xml:space="preserve">
<g>
	<path style="fill:#A5536E;" d="M285.86,295.97c0.19,0.05,0.39,0.09,0.58,0.14c10.46,2.53,20.19,6.93,28.83,12.81
		c23.39,15.92,38.75,42.77,38.75,73.19V467h-47.04H166.02h-47.03v-84.89c0-30.42,15.35-57.27,38.74-73.19
		c8.64-5.88,18.37-10.28,28.83-12.81c0.19-0.05,0.39-0.09,0.58-0.14"/>
	<path style="fill:#E8B691;" d="M286.44,294.38v1.97c0,27.58-22.35,49.94-49.93,49.94c-27.59,0-49.94-22.36-49.94-49.94L185.005,284
		c4.53-1.83,10.775,7.16,15.595,5.84c10.98,4.88,23.12,7.59,35.91,7.59c12.85,0,38.475-10.49,49.495-15.43
		C290.755,283.29,281.97,292.59,286.44,294.38z"/>
	<path style="opacity:0.44;fill:#333333;enable-background:new    ;" d="M284.885,283.05c-6.74,12.83-16.55,23.81-28.44,31.95
		c-0.19,0.14-0.39,0.27-0.58,0.4c-14.1,9.49-31.08,15.03-49.36,15.03c-6.5,0-6.267-7.273-12.367-8.613
		c-0.66-3.23-7.573-7.467-7.573-10.887v-28.39c0.19-0.05,0.39-0.09,0.58-0.14c14.1,9.49,31.08,15.03,49.36,15.03
		C254.365,297.43,270.985,292.14,284.885,283.05z"/>
	<g>
		<path style="fill:#333333;" d="M270.985,431h-68.96c-23.159,0-42-18.841-42-42h12c0,16.542,13.458,30,30,30h68.96
			c16.542,0,30-13.458,30-30h12C312.985,412.159,294.144,431,270.985,431z"/>
		<path style="fill:#FFFFFF;" d="M270.985,413c-3.313,0-6-2.687-6-6s2.687-6,6-6c6.617,0,12-5.383,12-12c0-3.313,2.687-6,6-6
			s6,2.687,6,6C294.985,402.234,284.219,413,270.985,413z"/>
	</g>
	<path style="fill:#FFD3AE;" d="M356,448.43V467h-49.02v-65v-13l41.29-37.34c4.99,11.39,7.73,23.74,7.73,36.65L356,448.43
		L356,448.43z"/>
	<path style="fill:#FFD3AE;" d="M166.02,402v65H117.5v-18.57v-60.12c0-12.79,2.68-25.04,7.58-36.34l40.94,37.02V402z"/>
	<path style="fill:#333333;" d="M166.022,394.998c-1.457,0-2.915-0.528-4.066-1.593l-40.9-36.984
		c-2.458-2.222-2.648-6.017-0.426-8.475c2.221-2.458,6.015-2.649,8.475-0.426l40.94,37.02c0.038,0.035,0.076,0.07,0.113,0.105
		c2.4,2.285,2.498,6.088,0.212,8.487C169.189,394.373,167.607,394.998,166.022,394.998z"/>
	<path style="fill:#333333;" d="M306.982,395c-1.637,0-3.268-0.666-4.452-1.976c-2.223-2.458-2.032-6.252,0.426-8.475l41.29-37.34
		c2.458-2.222,6.252-2.031,8.475,0.426c2.223,2.458,2.032,6.252-0.426,8.475l-41.29,37.34C309.857,394.489,308.417,395,306.982,395z
		"/>
	<path style="fill:#333333;" d="M236.51,352.29c-30.845,0-55.94-28.547-55.94-63.636h12c0,28.472,19.711,51.636,43.94,51.636
		c24.223,0,43.93-23.164,43.93-51.636v-2.274h12v2.274C292.44,323.743,267.35,352.29,236.51,352.29z"/>
	<path style="fill:#333333;" d="M312.98,467h-12V343c0-12.496,2.791-24.445,8.295-35.517c0.171-0.357,0.354-0.714,0.535-1.065
		l0.119-0.232l10.682,5.468l-0.131,0.255c-0.132,0.256-0.267,0.515-0.39,0.775c-0.016,0.034-0.032,0.067-0.049,0.101
		c-4.686,9.408-7.061,19.574-7.061,30.215L312.98,467L312.98,467z"/>
	<path style="fill:#333333;" d="M172.02,467h-12V343c0-10.539-2.335-20.622-6.941-29.968c-0.017-0.034-0.033-0.068-0.049-0.102
		c-0.195-0.416-0.408-0.831-0.62-1.239l10.643-5.543c0.279,0.536,0.558,1.083,0.815,1.629c5.41,10.997,8.153,22.847,8.153,35.222
		V467H172.02z"/>
	<path style="fill:#333333;" d="M368,473H105.23c-3.313,0-6-2.687-6-6s2.687-6,6-6H368c3.313,0,6,2.687,6,6S371.314,473,368,473z"/>
	<path style="fill:#333333;" d="M400,473h-11c-3.313,0-6-2.687-6-6s2.687-6,6-6h11c3.313,0,6,2.687,6,6S403.314,473,400,473z"/>
	<path style="fill:#333333;" d="M84,473H73c-3.313,0-6-2.687-6-6s2.687-6,6-6h11c3.313,0,6,2.687,6,6S87.314,473,84,473z"/>
	<path style="fill:#FFFFFF;" d="M334.02,453c-3.313,0-6-2.687-6-6v-57c0-3.313,2.687-6,6-6s6,2.687,6,6v57
		C340.02,450.314,337.333,453,334.02,453z"/>
	<g>
		<path style="opacity:0.44;fill:#333333;enable-background:new    ;" d="M162.67,320.92c-15.21,15.89-24.56,37.45-24.56,61.19V465
			h-19.12v-82.89c0-30.42,15.35-57.27,38.74-73.19C159.71,312.74,161.37,316.75,162.67,320.92z"/>
	</g>
	<path style="fill:#FFD3AE;" d="M285.86,280.97c-14.1,9.49-31.08,15.03-49.36,15.03s-35.26-5.54-49.36-15.03
		c-0.19-0.13-0.39-0.26-0.58-0.4C163.28,264.63,148,237.85,148,207.5V185v-51.5c0-48.877,39.623-88.5,88.5-88.5l0,0
		c48.877,0,88.5,39.623,88.5,88.5V185v22.5c0,30.35-15.28,57.13-38.56,73.07C286.25,280.71,286.05,280.84,285.86,280.97z"/>
	<g>
		<path style="fill:#F7774B;" d="M236.5,255.01c-4.869,0-9.738-0.513-14.573-1.538c-3.242-0.688-5.312-3.873-4.625-7.114
			c0.688-3.241,3.87-5.314,7.114-4.625c8.018,1.7,16.148,1.7,24.167,0c3.24-0.689,6.427,1.383,7.114,4.625s-1.383,6.427-4.625,7.114
			C246.238,254.497,241.369,255.01,236.5,255.01z"/>
	</g>
	<g style="opacity:0.44;">
		<path style="fill:#333333;" d="M237.005,268h-1.01c-2.209,0-4-1.791-4-4s1.791-4,4-4h1.01c2.209,0,4,1.791,4,4
			S239.214,268,237.005,268z"/>
	</g>
	<g>
		<g>
			<path style="fill:#333333;" d="M291.973,179.414c-0.453,0-0.912-0.052-1.372-0.159c-7.917-1.853-16.286-1.852-24.203,0
				c-3.224,0.754-6.454-1.249-7.209-4.476s1.249-6.454,4.476-7.209c9.705-2.271,19.964-2.271,29.669,0
				c3.227,0.755,5.23,3.982,4.476,7.209C297.163,177.546,294.697,179.414,291.973,179.414z"/>
		</g>
	</g>
	<path style="opacity:0.44;fill:#333333;enable-background:new    ;" d="M218.14,280.97c10.02,6.74,21.5,11.49,33.86,13.68
		c-5.03,0.89-10.21,1.35-15.5,1.35c-18.28,0-35.26-5.54-49.36-15.03c-0.19-0.13-0.39-0.26-0.58-0.4
		C163.28,264.63,148,237.85,148,207.5V185c0-139,54.89-137.3,54.89-134.41l-10.384,15.807
		C177.142,89.783,293.139,110.995,296.005,138c1.254,11.819-65.631-14.258-71.966-4c-9.549,15.464-22.394,27.146-22.473,28.993
		c-0.483,11.29-9.201,21.36-21.338,21.975l-0.012,0.001c-0.74,0.037-1.381,0.525-1.616,1.228l-2.945,8.843
		c-2.242,6.73-1.52,14.075,1.894,20.292c14.376,26.182,19.193,50.983,40.011,65.237C217.75,280.71,217.95,280.84,218.14,280.97z"/>
	<g>
		<g>
			<g>
				<g>
					<circle style="fill:#333333;" cx="202.16" cy="196.116" r="8.009"/>
				</g>
				<path style="fill:#333333;" d="M186.83,203.208c-1.533,0-3.065-0.583-4.237-1.751c-2.346-2.34-2.352-6.139-0.012-8.485
					c6.153-6.17,15.545-7.746,23.375-3.919c2.977,1.455,4.211,5.048,2.756,8.025c-1.455,2.977-5.047,4.211-8.025,2.756
					c-3.217-1.573-7.079-0.926-9.609,1.611C189.907,202.62,188.368,203.208,186.83,203.208z"/>
			</g>
		</g>
		<g>
			<g>
				<g>
					<circle style="fill:#333333;" cx="270.84" cy="196.116" r="8.009"/>
				</g>
				<path style="fill:#333333;" d="M286.17,203.208c-1.539,0-3.076-0.588-4.249-1.763c-2.53-2.537-6.392-3.184-9.609-1.611
					c-2.976,1.457-6.57,0.222-8.025-2.756s-0.221-6.57,2.756-8.025c7.831-3.826,17.223-2.251,23.375,3.919
					c2.34,2.347,2.334,6.146-0.012,8.485C289.235,202.624,287.702,203.208,286.17,203.208z"/>
			</g>
		</g>
	</g>
	<g>
		<path style="fill:#333333;" d="M229.557,228c-3.313,0-6-2.687-6-6v-32.927c0-2.692-1.515-5.195-3.859-6.375
			c-7.192-3.62-19.524-7.153-37.439-3.412c-3.244,0.676-6.422-1.403-7.1-4.647c-0.677-3.244,1.403-6.422,4.647-7.1
			c21.305-4.448,36.388-0.041,45.289,4.441c6.454,3.249,10.462,9.799,10.462,17.093V222C235.557,225.314,232.87,228,229.557,228z"/>
	</g>
	<path style="opacity:0.44;fill:#333333;enable-background:new    ;" d="M284.005,151c0,0,30,33,15.99,74
		c-6.979,20.425,33.01-27,33.01-27l-31-46L284.005,151z"/>
	<path style="fill:#F7774B;" d="M313.605,54c16.54,10.9,14.1,45.74,13.52,52.02c-57.34-27.25-123.91-27.25-181.25,0
		c-0.58-6.28-3.02-41.12,13.52-52.02c0,0-3.84-17,6.7-24s33.05-23,70.41-24c37.35,1,59.86,17,70.4,24S313.605,54,313.605,54z"/>
	<g style="opacity:0.44;">
		<path style="fill:#333333;" d="M196.992,54c0,0-3.84-17,6.7-24c8.636-5.735,25.316-17.508,51.609-22.126
			c-5.795-1.018-12.05-1.693-18.796-1.874c-37.36,1-59.87,17-70.41,24c-10.54,7-6.7,24-6.7,24c-16.54,10.9-14.1,45.74-13.52,52.02
			c12.037-5.721,24.485-10.224,37.165-13.543C183.336,79.462,185.874,61.327,196.992,54z"/>
	</g>
	<path style="fill:#F7774B;" d="M333.055,108.95v36.55c-30.3-15.58-63.43-23.37-96.55-23.37c-33.13,0-66.26,7.79-96.56,23.37v-36.55
		c1.97-1.01,3.94-1.99,5.93-2.93c57.34-27.25,123.91-27.25,181.25,0C329.115,106.96,331.085,107.94,333.055,108.95z"/>
	<g style="opacity:0.44;">
		<path style="fill:#333333;" d="M165.895,98.368c1.31-0.672,2.622-1.324,3.938-1.966c-8.125,2.705-16.13,5.898-23.958,9.619
			c-1.99,0.94-3.96,1.92-5.93,2.93v36.55c8.448-4.344,17.123-8.06,25.95-11.193V98.368z"/>
	</g>
	<path style="fill:#333333;" d="M139.901,106.572c-0.901-9.756-2.427-41.13,13.05-55.143c-0.661-6.525-0.499-19.571,9.825-26.427
		l1.269-0.846c11.25-7.513,34.659-23.146,72.3-24.154c0.107-0.003,0.214-0.003,0.321,0c37.631,1.008,61.04,16.641,72.29,24.154
		l1.269,0.846c10.322,6.855,10.486,19.897,9.826,26.423c6.69,6.041,10.952,15.959,12.687,29.558
		c1.427,11.186,0.729,21.621,0.363,25.588l-11.949-1.103c1.271-13.764,0.415-39.037-10.847-46.459
		c-2.085-1.374-3.101-3.896-2.551-6.332c0.024-0.11,2.654-13.15-4.167-17.68l-1.295-0.863
		c-11.088-7.405-31.714-21.179-65.786-22.133c-34.082,0.954-54.708,14.728-65.796,22.133l-1.294,0.863
		c-6.821,4.53-4.191,17.57-4.163,17.7c0.53,2.424-0.483,4.946-2.555,6.312c-11.264,7.423-12.118,32.696-10.847,46.458
		L139.901,106.572z"/>
	<path style="fill:#333333;" d="M159.395,60.002c-2.457,0-4.761-1.52-5.644-3.963c-1.126-3.117,0.488-6.556,3.604-7.682l16.61-6
		c3.119-1.126,6.556,0.488,7.682,3.604s-0.488,6.556-3.604,7.682l-16.61,6C160.76,59.886,160.071,60.002,159.395,60.002z"/>
	<path style="fill:#333333;" d="M313.605,60.002c-0.677,0-1.365-0.115-2.038-0.358l-16.61-6c-3.116-1.125-4.73-4.565-3.604-7.682
		c1.125-3.116,4.565-4.729,7.682-3.604l16.61,6c3.116,1.125,4.73,4.565,3.604,7.682C318.366,58.482,316.061,60.002,313.605,60.002z"
		/>
	<path style="fill:#F7B239;" d="M260.195,123.47c25.09,2.82,49.79,10.17,72.86,22.03c0,0,11.94,12.5,8.94,34.5s-20,50-10,76
		c9.45,24.58-5.21,60.16-6.84,63.98c-0.05-0.04-0.1-0.09-0.15-0.14c-1.28-1.22-2.59-2.42-3.94-3.58
		c-9.98-8.64-21.7-15.76-34.68-20.92c0.58-4.81,6.64-10.53,5.86-19.11c-1.54-17.03-1-37.84,7.75-51.23c17-26,18-41,10-45
		C277.275,162.24,262.035,127.87,260.195,123.47z"/>
	<path style="fill:#F7B239;" d="M163.005,180c-8,4-7,19,10,45c8.75,13.39,9.29,34.2,7.75,51.23c-0.8,8.79,3.64,14,4.25,18.77
		c-14.99,5.94-26.13,14.82-37.01,25.32c0,0-16.99-38.32-6.99-64.32s-7-54-10-76s8.94-34.5,8.94-34.5
		c23.06-11.86,47.76-19.2,72.86-22.03C210.965,127.87,195.725,162.24,163.005,180z"/>
	<path style="fill:#333333;" d="M236.495,302c-12.393,0-24.43-2.362-35.778-7.019c-5.926-2.417-11.625-5.459-16.928-9.037
		c-0.223-0.145-0.479-0.317-0.727-0.5c-2.161-1.484-4.214-3.021-6.107-4.57l7.6-9.287c1.662,1.36,3.479,2.717,5.401,4.034
		c0.099,0.068,0.196,0.139,0.291,0.212l0.157,0.1c0.025,0.017,0.071,0.047,0.097,0.064c4.619,3.116,9.585,5.767,14.76,7.878
		c9.907,4.066,20.412,6.125,31.234,6.125c10.435,0,20.589-1.916,30.182-5.692c5.527-2.17,10.832-4.953,15.775-8.273
		c0.11-0.077,0.224-0.154,0.34-0.232l0.116-0.078c0.055-0.041,0.094-0.068,0.151-0.107c1.86-1.272,3.672-2.628,5.386-4.03
		l7.601,9.286c-1.959,1.604-4.027,3.152-6.147,4.605c-0.139,0.1-0.282,0.197-0.424,0.292l-0.106,0.071
		c-0.055,0.04-0.097,0.069-0.153,0.106c-5.685,3.826-11.79,7.031-18.147,9.527C260.075,299.804,248.441,302,236.495,302z"/>
	<path style="fill:#333333;" d="M333.055,151.5c-0.939,0-1.88-0.22-2.743-0.664c-22.214-11.42-46.03-18.621-70.787-21.403
		c-15.055-1.721-30.689-1.738-46.046,0c-24.794,2.796-48.611,9.997-70.79,21.403c-1.86,0.957-4.083,0.875-5.87-0.214
		c-1.785-1.089-2.875-3.03-2.875-5.122v-30.09c0-6.292,3.625-12.074,9.241-14.754c0.043-0.021,0.086-0.042,0.114-0.055
		c59.229-28.148,127.17-28.148,186.4,0c0.044,0.021,0.087,0.042,0.13,0.063c5.607,2.683,9.224,8.459,9.224,14.746v30.09
		c0,2.091-1.089,4.032-2.874,5.122C335.223,151.206,334.14,151.5,333.055,151.5z M236.505,116.13c8.168,0,16.368,0.464,24.372,1.379
		c22.978,2.583,45.197,8.764,66.178,18.401v-20.5c0-1.694-0.952-3.238-2.426-3.931c-0.05-0.024-0.101-0.048-0.15-0.074
		c-55.924-26.551-120.054-26.549-175.974,0.008c-0.049,0.025-0.101,0.05-0.134,0.066c-1.474,0.693-2.426,2.237-2.426,3.931v20.5
		c20.954-9.625,43.173-15.807,66.188-18.402C220.217,116.594,228.418,116.13,236.505,116.13z"/>
	<path style="fill:#333333;" d="M142.51,322.752c-0.735-1.657-17.872-40.911-7.105-68.906c6.101-15.863,0.76-33.081-4.406-49.732
		c-2.533-8.166-4.926-15.878-5.938-23.304c-3.352-24.582,9.977-38.859,10.546-39.455l8.709,8.255
		c-0.405,0.438-9.906,10.948-7.365,29.579c0.878,6.44,3.128,13.692,5.51,21.369c5.503,17.739,11.742,37.846,4.146,57.595
		c-8.979,23.344,6.717,59.377,6.876,59.738L142.51,322.752z"/>
	<path style="fill:#333333;" d="M180.985,295.359c-0.342-0.798-0.923-1.823-1.539-2.909c-2.252-3.969-5.336-9.405-4.666-16.764
		c1.923-21.263-0.428-37.656-6.797-47.404c-12.719-19.452-17.809-34.345-15.127-44.264c1.145-4.236,3.69-7.46,7.363-9.333
		c31.036-16.886,45.502-49.827,47.05-53.53c0.022-0.052,0.045-0.104,0.068-0.156l0.077-0.176l11.209,4.284
		c0,0-0.093,0.257-0.314,0.753c-1.874,4.458-17.946,40.689-52.441,59.413c-0.059,0.032-0.119,0.063-0.179,0.093
		c-0.46,0.23-0.93,0.605-1.249,1.783c-0.619,2.288-1.467,11.543,13.587,34.566c7.976,12.205,10.903,30.728,8.704,55.054
		c-0.33,3.62,1.362,6.602,3.152,9.758c0.751,1.324,1.528,2.693,2.133,4.106L180.985,295.359z"/>
	<path style="fill:#333333;" d="M330.474,322.789l-10.938-4.937l0.117-0.267c5.771-13.524,13.707-41.314,6.741-59.432
		c-7.596-19.749-1.357-39.855,4.146-57.595c2.382-7.677,4.631-14.929,5.51-21.369c2.541-18.63-6.96-29.14-7.365-29.579l8.709-8.255
		c0.569,0.596,13.898,14.874,10.546,39.455c-1.012,7.426-3.405,15.138-5.938,23.304c-5.166,16.651-10.507,33.869-4.406,49.732
		c4.388,11.414,4.725,25.947,1,43.195c-2.8,12.968-7.09,23.345-7.921,25.293L330.474,322.789z"/>
	<path style="fill:#333333;" d="M280.559,298.323c-0.25-1.211-0.292-2.478-0.123-3.764c0.339-2.813,1.66-5.388,2.937-7.878
		c1.659-3.234,3.226-6.29,2.896-9.907c-2.2-24.33,0.728-42.852,8.703-55.056c15.055-23.025,14.207-32.28,13.588-34.568
		c-0.318-1.178-0.789-1.553-1.249-1.783c-0.061-0.03-0.12-0.062-0.179-0.093c-34.496-18.724-50.567-54.955-52.441-59.413
		c-0.222-0.496-0.314-0.753-0.314-0.753l11.236-4.214l0.049,0.106c0.023,0.052,0.046,0.104,0.068,0.156
		c1.548,3.704,16.014,36.644,47.05,53.53c3.673,1.872,6.218,5.097,7.363,9.333c2.682,9.919-2.408,24.812-15.127,44.266
		c-6.369,9.746-8.72,26.14-6.796,47.406c0.644,7.081-2.138,12.506-4.17,16.467c-0.721,1.406-1.619,3.157-1.708,3.901
		c-0.005,0.037-0.005-0.035-0.031-0.161L280.559,298.323z"/>
	<path style="fill:#333333;" d="M362,467h-12v-78.69c0-11.777-2.431-23.298-7.226-34.242c-5.658-12.917-14.281-24.448-25.631-34.271
		c-1.99-1.729-4.022-3.365-6.049-4.869c-8.116-6.082-17.148-11.113-26.868-14.971l4.427-11.153
		c10.707,4.25,20.671,9.803,29.615,16.505c2.25,1.67,4.524,3.5,6.737,5.422c12.702,10.994,22.381,23.957,28.76,38.522
		C359.23,361.724,362,374.865,362,388.31V467z"/>
	<path style="fill:#333333;" d="M123.5,467h-12v-78.69c0-13.341,2.717-26.371,8.075-38.727
		c7.352-16.919,19.548-32.131,35.272-43.993c8.917-6.723,18.837-12.303,29.484-16.586l4.479,11.133
		c-9.668,3.889-18.664,8.948-26.737,15.034c-14.073,10.617-24.962,24.169-31.489,39.19c-4.699,10.836-7.083,22.26-7.083,33.949
		L123.5,467L123.5,467z"/>
	<path style="fill:#FFFFFF;" d="M326.005,176c-3.313,0-6-2.687-6-6c0-5.458-3.746-7.665-3.784-7.685
		c-2.935-1.538-4.068-5.164-2.531-8.099c1.538-2.935,5.164-4.068,8.099-2.531c3.794,1.987,10.216,8.082,10.216,18.315
		C332.005,173.314,329.318,176,326.005,176z"/>
	<path style="fill:#FFFFFF;" d="M316.009,299.002c-0.489,0-0.985-0.06-1.48-0.186c-3.212-0.815-5.155-4.08-4.34-7.292
		c4.85-19.113-2.785-30.621-3.112-31.102c-1.913-2.705-1.257-6.428,1.449-8.342c2.706-1.913,6.465-1.25,8.378,1.455
		c0.46,0.65,11.192,16.209,4.917,40.94C321.131,297.193,318.69,299.002,316.009,299.002z"/>
	<path style="fill:#FFFFFF;" d="M310.002,85.002c-2.639,0-5.058-1.754-5.785-4.423l-3-11c-0.872-3.197,1.013-6.495,4.21-7.367
		c3.196-0.871,6.496,1.013,7.367,4.21l3,11c0.872,3.197-1.013,6.495-4.21,7.367C311.055,84.933,310.524,85.002,310.002,85.002z"/>
</g>
<g>
</g>
<g>
</g>
<g>
</g>
<g>
</g>
<g>
</g>
<g>
</g>
<g>
</g>
<g>
</g>
<g>
</g>
<g>
</g>
<g>
</g>
<g>
</g>
<g>
</g>
<g>
</g>
<g>
</g>
</svg>
