<?xml version="1.0" encoding="iso-8859-1"?>
<!-- Generator: Adobe Illustrator 19.0.0, SVG Export Plug-In . SVG Version: 6.00 Build 0)  -->
<svg version="1.1" id="Layer_1" xmlns="http://www.w3.org/2000/svg" xmlns:xlink="http://www.w3.org/1999/xlink" x="0px" y="0px"
	 viewBox="0 0 418.995 418.995" style="enable-background:new 0 0 418.995 418.995;" xml:space="preserve">
<g>
	<g>
		<g>
			<circle style="fill:#FFD3AE;" cx="128.925" cy="145.995" r="27.89"/>
			<circle style="fill:#FFD3AE;" cx="290.06" cy="145.995" r="27.89"/>
		</g>
		<g>
			<path style="fill:#333333;" d="M128.925,179.885c-18.687,0-33.89-15.203-33.89-33.89s15.203-33.89,33.89-33.89
				s33.89,15.203,33.89,33.89S147.612,179.885,128.925,179.885z M128.925,124.105c-12.07,0-21.89,9.82-21.89,21.89
				c0,12.07,9.82,21.89,21.89,21.89s21.89-9.82,21.89-21.89C150.815,133.925,140.995,124.105,128.925,124.105z"/>
			<path style="fill:#333333;" d="M290.06,179.885c-18.687,0-33.89-15.203-33.89-33.89s15.203-33.89,33.89-33.89
				s33.89,15.203,33.89,33.89S308.747,179.885,290.06,179.885z M290.06,124.105c-12.07,0-21.89,9.82-21.89,21.89
				c0,12.07,9.82,21.89,21.89,21.89s21.89-9.82,21.89-21.89C311.95,133.925,302.13,124.105,290.06,124.105z"/>
		</g>
	</g>
	<path style="fill:#F7774B;" d="M258.852,241.965c0.19,0.05,0.39,0.09,0.58,0.14c10.46,2.53,20.19,6.93,28.83,12.81
		c23.39,15.92,38.75,42.77,38.75,73.19v84.89h-47.04h-140.96h-47.03v-84.89c0-30.42,15.35-57.27,38.74-73.19
		c8.64-5.88,18.37-10.28,28.83-12.81c0.19-0.05,0.39-0.09,0.58-0.14"/>
	<path style="fill:#FFD3AE;" d="M139.012,288.995v124h-47.03v-84.89c0-30.42,15.35-57.27,38.74-73.19
		C136.022,265.115,139.012,276.705,139.012,288.995z"/>
	<path style="fill:#FFD3AE;" d="M327.012,328.105v84.89h-47.04v-124c0-12.29,2.99-23.88,8.29-34.08
		C311.652,270.835,327.012,297.685,327.012,328.105z"/>
	<path style="fill:#FFD3AE;" d="M258.852,241.965c-14.1,9.49-31.08,15.03-49.36,15.03s-35.26-5.54-49.36-15.03
		c-0.19-0.13-0.39-0.26-0.58-0.4c-23.28-15.94-38.56-42.72-38.56-73.07v-22.5v-51.5c0-48.877,39.623-88.5,88.5-88.5l0,0
		c48.877,0,88.5,39.623,88.5,88.5v51.5v22.5c0,30.35-15.28,57.13-38.56,73.07C259.242,241.705,259.042,241.835,258.852,241.965z"/>
	<g>
		<path style="fill:#333333;" d="M177.882,166.432c-1.58,0-3.13-0.64-4.24-1.75c-1.12-1.12-1.76-2.67-1.76-4.25s0.64-3.12,1.76-4.24
			c1.39-1.39,3.46-2.03,5.41-1.64c0.39,0.08,0.76,0.19,1.13,0.34c0.36,0.15,0.71,0.34,1.03,0.55c0.33,0.22,0.64,0.47,0.91,0.75
			c0.28,0.28,0.53,0.58,0.75,0.91s0.4,0.68,0.55,1.04c0.15,0.36,0.27,0.74,0.34,1.12c0.08,0.39,0.12,0.78,0.12,1.17
			s-0.04,0.79-0.12,1.18c-0.07,0.38-0.19,0.76-0.34,1.12s-0.33,0.71-0.55,1.03c-0.22,0.33-0.47,0.64-0.75,0.92
			C181.012,165.792,179.463,166.432,177.882,166.432z"/>
		<path style="fill:#333333;" d="M245.882,166.432c-0.39,0-0.79-0.04-1.17-0.11c-0.38-0.08-0.76-0.2-1.12-0.35
			c-0.37-0.15-0.71-0.33-1.04-0.55c-0.33-0.22-0.64-0.47-0.91-0.74c-0.28-0.28-0.53-0.59-0.75-0.92c-0.22-0.32-0.4-0.67-0.55-1.03
			c-0.15-0.36-0.27-0.74-0.34-1.12c-0.08-0.39-0.12-0.79-0.12-1.18s0.04-0.78,0.12-1.17c0.07-0.38,0.19-0.76,0.34-1.12
			s0.33-0.71,0.55-1.04c0.22-0.33,0.47-0.63,0.75-0.91c0.27-0.28,0.58-0.53,0.91-0.75c0.33-0.21,0.67-0.4,1.04-0.55
			c0.36-0.15,0.74-0.26,1.12-0.34c1.95-0.39,4.02,0.25,5.41,1.64c0.28,0.28,0.53,0.58,0.75,0.91s0.4,0.68,0.55,1.04
			c0.15,0.36,0.27,0.74,0.34,1.12c0.08,0.39,0.12,0.78,0.12,1.17s-0.04,0.79-0.12,1.18c-0.07,0.38-0.19,0.76-0.34,1.12
			s-0.33,0.71-0.55,1.03c-0.22,0.33-0.47,0.64-0.75,0.92C249.012,165.792,247.463,166.432,245.882,166.432z"/>
	</g>
	<g>
		<path style="fill:#333333;" d="M226.789,323.38c-0.39,0-0.79-0.04-1.17-0.11c-0.38-0.08-0.76-0.2-1.12-0.35
			c-0.37-0.15-0.71-0.33-1.04-0.55c-0.33-0.22-0.64-0.47-0.91-0.74c-0.28-0.28-0.53-0.59-0.75-0.92c-0.22-0.32-0.4-0.67-0.55-1.03
			c-0.15-0.36-0.27-0.74-0.34-1.12c-0.08-0.39-0.12-0.79-0.12-1.18c0-0.39,0.04-0.78,0.12-1.17c0.07-0.38,0.19-0.76,0.34-1.12
			s0.33-0.71,0.55-1.04s0.47-0.63,0.75-0.91c0.27-0.28,0.58-0.53,0.91-0.75c0.33-0.21,0.67-0.4,1.04-0.55
			c0.36-0.15,0.74-0.26,1.12-0.34c1.95-0.39,4.02,0.25,5.41,1.64c0.28,0.28,0.53,0.58,0.75,0.91s0.4,0.68,0.55,1.04
			c0.15,0.36,0.27,0.74,0.34,1.12c0.08,0.39,0.12,0.78,0.12,1.17s-0.04,0.79-0.12,1.18c-0.07,0.38-0.19,0.76-0.34,1.12
			s-0.33,0.71-0.55,1.03c-0.22,0.33-0.47,0.64-0.75,0.92C229.919,322.74,228.369,323.38,226.789,323.38z"/>
	</g>
	<g>
		<path style="fill:#333333;" d="M202.549,179.995c-3.313,0-6-2.686-6-6v-16.857c0-3.204-2.606-5.81-5.81-5.81h-28.58
			c-3.313,0-6-2.686-6-6s2.687-6,6-6h28.58c9.82,0,17.81,7.99,17.81,17.81v16.857C208.549,177.309,205.862,179.995,202.549,179.995z
			"/>
		<path style="fill:#333333;" d="M256.826,151.329h-24c-3.313,0-6-2.686-6-6s2.687-6,6-6h24c3.313,0,6,2.686,6,6
			S260.139,151.329,256.826,151.329z"/>
	</g>
	<g>
		<path style="fill:#333333;" d="M221.492,215.329h-24c-3.313,0-6-2.686-6-6s2.687-6,6-6h24c3.313,0,6,2.686,6,6
			S224.806,215.329,221.492,215.329z"/>
	</g>
	<path style="fill:#F7774B;" d="M327.012,328.105v19.89h-45.7h-1.34v-59c0-12.29,2.99-23.88,8.29-34.08
		C311.652,270.835,327.012,297.685,327.012,328.105z"/>
	<path style="fill:#F7774B;" d="M139.012,288.995v59h-47.03v-19.89c0-30.42,15.35-57.27,38.74-73.19
		C136.022,265.115,139.012,276.705,139.012,288.995z"/>
	<path style="fill:#333333;" d="M285.971,412.995h-12v-124c0-12.816,3.1-25.558,8.966-36.846l10.648,5.533
		c-5.052,9.724-7.614,20.259-7.614,31.313V412.995z"/>
	<rect x="281.313" y="341.995" style="fill:#333333;" width="47.03" height="12"/>
	<path style="fill:#FFFFFF;" d="M307.012,398.995c-3.313,0-6-2.686-6-6v-27c0-3.314,2.687-6,6-6s6,2.686,6,6v27
		C313.012,396.309,310.326,398.995,307.012,398.995z"/>
	<g>
		<path style="opacity:0.44;fill:#333333;enable-background:new    ;" d="M135.662,266.915c-15.21,15.89-24.56,37.45-24.56,61.19
			v19.89h-19.12v-19.89c0-30.42,15.35-57.27,38.74-73.19C132.702,258.735,134.362,262.745,135.662,266.915z"/>
		<rect x="93.049" y="347.995" style="opacity:0.44;fill:#333333;enable-background:new    ;" width="16.63" height="65"/>
	</g>
	<rect x="91.983" y="341.995" style="fill:#333333;" width="47.03" height="12"/>
	<g>
		<path style="fill:#333333;" d="M340.997,418.995H78.228c-3.313,0-6-2.686-6-6c0-3.314,2.687-6,6-6h262.77c3.313,0,6,2.686,6,6
			C346.997,416.309,344.311,418.995,340.997,418.995z"/>
		<path style="fill:#333333;" d="M372.997,418.995h-11c-3.313,0-6-2.686-6-6c0-3.314,2.687-6,6-6h11c3.313,0,6,2.686,6,6
			C378.997,416.309,376.311,418.995,372.997,418.995z"/>
		<path style="fill:#333333;" d="M56.998,418.995h-11c-3.313,0-6-2.686-6-6c0-3.314,2.687-6,6-6h11c3.313,0,6,2.686,6,6
			C62.998,416.309,60.311,418.995,56.998,418.995z"/>
	</g>
	<path style="opacity:0.44;fill:#333333;enable-background:new    ;" d="M191.132,241.965c10.02,6.74,21.5,11.49,33.86,13.68
		c-5.03,0.89-10.21,1.35-15.5,1.35c-18.28,0-35.26-5.54-49.36-15.03c-0.19-0.13-0.39-0.26-0.58-0.4
		c-23.28-15.94-38.56-42.72-38.56-73.07v-22.5c0-139,54.89-137.301,54.89-134.411l-10.384,15.807
		c-15.364,23.387-15.305,53.174-0.958,76.231c2.423,3.895,10.151,17.294,10.019,20.366c-0.483,11.29-9.201,21.36-21.338,21.975
		c-0.407,0.021-0.817,0.031-1.229,0.031v22.5c0,30.35,15.28,57.13,38.56,73.07C190.742,241.705,190.943,241.835,191.132,241.965z"/>
	<path style="fill:#F7774B;" d="M297.992,146v22.5c0,4.69-0.37,9.3-1.07,13.8h-18.93v-38.89C284.392,145.05,291.082,146,297.992,146
		z"/>
	<path style="fill:#F7774B;" d="M297.992,94.5V146c-6.91,0-13.6-0.95-20-2.59c-37.94-9.64-65.44-43.11-65.44-43.11v33.33
		c-49.34,0-69.34-46-69.34-46v30v64.67h-20l-1.13,0.14c-0.72-4.54-1.09-9.2-1.09-13.94V146V94.5c0-48.88,39.62-88.5,88.5-88.5
		c24.44,0,46.57,9.91,62.58,25.92C288.082,47.93,297.992,70.06,297.992,94.5z"/>
	<path style="fill:#333333;" d="M143.213,188.3h-20v-12h14V87.63c0-2.843,1.995-5.295,4.778-5.874
		c2.784-0.58,5.591,0.875,6.724,3.482c0.722,1.641,17.502,38.731,57.837,42.142V100.3c0-2.534,1.592-4.794,3.977-5.649
		c2.384-0.854,5.05-0.119,6.659,1.84c0.261,0.316,26.775,32.082,62.282,41.104c6.233,1.597,12.46,2.405,18.522,2.405v12
		c-7.066,0-14.296-0.935-21.489-2.778c-25.456-6.468-46.168-22.825-57.951-33.971v18.379c0,3.314-2.687,6-6,6
		c-21.833,0-41.709-8.583-57.477-24.82c-2.17-2.234-4.122-4.468-5.863-6.629V182.3C149.213,185.614,146.526,188.3,143.213,188.3z"/>
	<path style="fill:#333333;" d="M297.992,188.3h-20c-3.313,0-6-2.686-6-6v-38.89h12v32.89h14V188.3z"/>
	<g>
		<path style="fill:#333333;" d="M209.492,25.995c4.631,0,9.156,0.462,13.531,1.342"/>
		<path style="fill:#FFFFFF;" d="M223.03,33.339c-0.392,0-0.79-0.039-1.189-0.119c-4.039-0.812-8.193-1.224-12.348-1.224
			c-3.313,0-6-2.686-6-6s2.687-6,6-6c4.948,0,9.898,0.491,14.714,1.46c3.249,0.653,5.353,3.817,4.699,7.065
			C228.333,31.37,225.829,33.339,223.03,33.339z"/>
	</g>
	<path style="fill:#FFFFFF;" d="M276.303,112.963c-3.313,0-6-2.686-6-6V92.617c0-21.182-10.934-40.963-28.534-51.625
		c-0.53-0.321-1.066-0.635-1.607-0.941c-2.883-1.633-3.896-5.294-2.263-8.178c1.634-2.883,5.294-3.897,8.178-2.263
		c0.642,0.364,1.278,0.736,1.909,1.118c21.168,12.822,34.318,36.537,34.318,61.889v14.346
		C282.303,110.277,279.616,112.963,276.303,112.963z"/>
	<path style="fill:#333333;" d="M209.498,330.63c-3.313,0-6-2.686-6-6v-63.865c0-3.314,2.687-6,6-6s6,2.686,6,6v63.865
		C215.498,327.944,212.811,330.63,209.498,330.63z"/>
	<path style="opacity:0.44;fill:#333333;enable-background:new    ;" d="M142.706,248.061l17.626-6.321
		c0.19-0.05,0.39-0.09,0.58-0.14c14.1,9.49,31.08,15.03,49.36,15.03c17.86,0-2.647,12.963-2.647,12.963s-7.792,6.843-16.236,17.649
		c-3.933,5.033-29.019-9.262-29.019-9.262L142.706,248.061z"/>
	<path style="opacity:0.44;fill:#333333;enable-background:new    ;" d="M174.199,295.975c0,0-27.056-18.345-35.186-0.345l-4.797-45
		l8.49-2.569L174.199,295.975z"/>
	<path style="fill:#333333;" d="M327.012,418.995H91.983c-3.314,0-6-2.686-6-6v-84.89c0-31.306,15.463-60.521,41.364-78.15
		c9.415-6.408,19.76-11.007,30.749-13.671c0.131-0.033,0.264-0.065,0.397-0.096l0.119-0.028l3.05,11.606
		c-0.154,0.041-0.311,0.078-0.469,0.114l-0.119,0.028c-0.018,0.004-0.093,0.024-0.11,0.028c-9.597,2.321-18.636,6.338-26.865,11.938
		c-22.614,15.392-36.116,40.899-36.116,68.23v78.89h223.03v-78.89c0-27.327-13.505-52.833-36.126-68.23
		c-8.229-5.6-17.267-9.617-26.865-11.938c-0.04-0.01-0.079-0.02-0.118-0.03l-0.112-0.026c-0.157-0.036-0.314-0.073-0.467-0.114
		l3.05-11.606l0.12,0.028c0.133,0.031,0.266,0.062,0.396,0.095c10.99,2.664,21.334,7.263,30.749,13.67
		c25.907,17.633,41.374,46.848,41.374,78.15v84.89C333.012,416.309,330.326,418.995,327.012,418.995z"/>
	<path style="fill:#333333;" d="M145.012,412.995h-12v-124c0-11.055-2.562-21.59-7.614-31.313l10.648-5.533
		c5.865,11.288,8.966,24.029,8.966,36.846V412.995z"/>
	<path style="fill:#333333;" d="M209.492,263c-18.88,0-37.107-5.551-52.71-16.052l-0.173-0.117
		c-0.173-0.116-0.347-0.236-0.518-0.359c-21.353-14.651-35.906-37.643-39.935-63.094c-0.772-4.869-1.164-9.875-1.164-14.878v-74
		c0-52.107,42.393-94.5,94.5-94.5c25.244,0,48.975,9.829,66.823,27.677s27.677,41.579,27.677,66.823v74
		c0,4.903-0.384,9.856-1.141,14.722c0,0.002,0,0.004-0.001,0.006c-4,25.524-18.561,48.57-39.957,63.243
		c-0.171,0.123-0.345,0.242-0.518,0.359l-0.131,0.089C246.6,257.449,228.373,263,209.492,263z M209.492,12
		c-45.491,0-82.5,37.009-82.5,82.5v74c0,4.375,0.342,8.749,1.016,13c3.52,22.237,16.253,42.326,34.934,55.12
		c0.058,0.04,0.115,0.081,0.172,0.122l0.409,0.278c13.575,9.136,29.484,13.98,45.969,13.98s32.395-4.844,46.01-14.008l0.161-0.109
		c0.069-0.046,0.14-0.092,0.207-0.142c0.056-0.041,0.116-0.084,0.173-0.123c18.715-12.81,31.454-32.945,34.95-55.241l0,0
		c0.663-4.258,0.999-8.591,0.999-12.877v-74c0-22.038-8.581-42.756-24.163-58.337C252.249,20.581,231.53,12,209.492,12z"/>
	<path style="fill:#333333;" d="M239.108,310.63c-0.018,0-0.036,0-0.054,0c-2.039-0.018-3.929-1.071-5.018-2.795l-24.538-38.837
		l-24.538,38.837c-1.089,1.724-2.979,2.777-5.019,2.795c-2.004,0.044-3.948-1-5.068-2.704l-37.181-56.569l10.028-6.591
		l32.067,48.789l24.638-38.995c1.099-1.74,3.014-2.795,5.072-2.795s3.973,1.055,5.072,2.795l24.637,38.995l32.067-48.789
		l10.028,6.591l-37.181,56.569C243.011,309.614,241.126,310.63,239.108,310.63z"/>
</g>
<g>
</g>
<g>
</g>
<g>
</g>
<g>
</g>
<g>
</g>
<g>
</g>
<g>
</g>
<g>
</g>
<g>
</g>
<g>
</g>
<g>
</g>
<g>
</g>
<g>
</g>
<g>
</g>
<g>
</g>
</svg>
