<?xml version="1.0" encoding="iso-8859-1"?>
<!-- Generator: Adobe Illustrator 19.0.0, SVG Export Plug-In . SVG Version: 6.00 Build 0)  -->
<svg version="1.1" id="Layer_1" xmlns="http://www.w3.org/2000/svg" xmlns:xlink="http://www.w3.org/1999/xlink" x="0px" y="0px"
	 viewBox="0 0 418.999 418.999" style="enable-background:new 0 0 418.999 418.999;" xml:space="preserve">
<g>
	<g>
		<g>
			<circle style="fill:#FFD3AE;" cx="128.926" cy="145.999" r="27.89"/>
			<circle style="fill:#FFD3AE;" cx="290.063" cy="145.999" r="27.89"/>
		</g>
		<g>
			<path style="fill:#333333;" d="M128.926,179.889c-18.687,0-33.89-15.203-33.89-33.89s15.203-33.89,33.89-33.89
				s33.89,15.203,33.89,33.89S147.615,179.889,128.926,179.889z M128.926,124.109c-12.07,0-21.89,9.82-21.89,21.89
				s9.82,21.89,21.89,21.89s21.89-9.82,21.89-21.89C150.817,133.929,140.997,124.109,128.926,124.109z"/>
			<path style="fill:#333333;" d="M290.063,179.889c-18.688,0-33.891-15.203-33.891-33.89s15.203-33.89,33.891-33.89
				c18.687,0,33.89,15.203,33.89,33.89S308.748,179.889,290.063,179.889z M290.063,124.109c-12.07,0-21.891,9.82-21.891,21.89
				s9.82,21.89,21.891,21.89s21.89-9.82,21.89-21.89C311.951,133.929,302.133,124.109,290.063,124.109z"/>
		</g>
	</g>
	<path style="fill:#F7774B;" d="M258.854,241.969c0.19,0.05,0.39,0.09,0.58,0.14c10.46,2.53,20.19,6.93,28.83,12.81
		c23.39,15.92,38.75,42.77,38.75,73.19v84.89h-47.04h-140.96h-47.03v-84.89c0-30.42,15.35-57.27,38.74-73.19
		c8.64-5.88,18.37-10.28,28.83-12.81c0.19-0.05,0.39-0.09,0.58-0.14"/>
	<path style="fill:#FFD3AE;" d="M139.014,288.999v124h-47.03v-84.89c0-30.42,15.35-57.27,38.74-73.19
		C136.024,265.119,139.014,276.709,139.014,288.999z"/>
	<path style="fill:#FFD3AE;" d="M327.015,328.109v84.89h-47.04v-124c0-12.29,2.99-23.88,8.29-34.08
		C311.654,270.839,327.015,297.689,327.015,328.109z"/>
	<path style="fill:#FFD3AE;" d="M259.435,242.109v13.808c0,27.58-22.36,49.94-49.94,49.94s-49.94-22.36-49.94-49.94v-13.808
		c0.19-0.05,0.39-0.09,0.58-0.14c14.1,9.49,31.08,15.03,49.36,15.03s35.26-5.54,49.36-15.03
		C259.044,242.019,259.245,242.059,259.435,242.109z"/>
	<path style="opacity:0.44;fill:#333333;enable-background:new    ;" d="M257.875,242.619c-6.74,12.83-16.55,23.81-28.44,31.95
		c-0.19,0.14-0.39,0.27-0.58,0.4c-14.1,9.49-31.08,15.03-49.36,15.03c-6.5,0-6.267-7.273-12.367-8.613
		c-0.66-3.23-7.573-7.467-7.573-10.887v-28.39c0.19-0.05,0.39-0.09,0.58-0.14c14.1,9.49,31.08,15.03,49.36,15.03
		C227.354,256.999,243.975,251.709,257.875,242.619z"/>
	<path style="fill:#FFD3AE;" d="M258.854,241.969c-14.1,9.49-31.08,15.03-49.36,15.03s-35.26-5.54-49.36-15.03
		c-0.19-0.13-0.39-0.26-0.58-0.4c-23.28-15.94-38.56-42.72-38.56-73.07v-22.5v-51.5c0-48.877,39.623-88.5,88.5-88.5l0,0
		c48.877,0,88.5,39.623,88.5,88.5v51.5v22.5c0,30.35-15.28,57.13-38.56,73.07C259.245,241.709,259.044,241.839,258.854,241.969z"/>
	<path style="fill:#333333;" d="M209.494,262.999c-18.88,0-37.107-5.551-52.71-16.052l-0.167-0.113
		c-0.174-0.117-0.35-0.237-0.522-0.361c-25.737-17.656-41.101-46.799-41.101-77.973v-74c0-52.107,42.393-94.5,94.5-94.5
		c52.108,0,94.5,42.393,94.5,94.5v74c0,31.172-15.362,60.313-41.097,77.97c-0.177,0.127-0.357,0.251-0.537,0.372l-0.126,0.085
		c-0.01,0.007-0.021,0.014-0.03,0.021C246.602,257.448,228.374,262.999,209.494,262.999z M209.494,11.999
		c-45.491,0-82.5,37.009-82.5,82.5v74c0,27.241,13.439,52.706,35.95,68.119c0.057,0.039,0.113,0.079,0.168,0.12
		c0.068,0.05,0.14,0.096,0.21,0.144l0.199,0.135c13.579,9.138,29.488,13.982,45.973,13.982s32.395-4.844,46.009-14.008l0.157-0.106
		c0.069-0.047,0.142-0.093,0.21-0.143c0.054-0.04,0.118-0.086,0.174-0.124c22.511-15.413,35.95-40.878,35.95-68.119v-74
		C291.995,49.008,254.985,11.999,209.494,11.999z"/>
	<g>
		<path style="fill:#333333;" d="M209.494,25.999c4.631,0,9.156,0.462,13.531,1.342"/>
		<path style="fill:#FFFFFF;" d="M223.031,33.342c-0.392,0-0.79-0.039-1.188-0.119c-4.039-0.812-8.194-1.224-12.349-1.224
			c-3.313,0-6-2.686-6-6s2.687-6,6-6c4.948,0,9.899,0.491,14.714,1.46c3.249,0.654,5.353,3.817,4.699,7.065
			C228.335,31.374,225.83,33.342,223.031,33.342z"/>
	</g>
	<path style="fill:#333333;" d="M209.494,311.857c-30.845,0-55.94-25.094-55.94-55.94v-14.348h12v14.348
		c0,24.229,19.711,43.94,43.94,43.94s43.94-19.711,43.94-43.94v-14.348h12v14.348C265.435,286.763,240.339,311.857,209.494,311.857z
		"/>
	<g>
		<path style="fill:#333333;" d="M177.884,166.436c-1.58,0-3.13-0.64-4.24-1.75c-1.12-1.12-1.76-2.67-1.76-4.25s0.64-3.12,1.76-4.24
			c1.39-1.39,3.46-2.03,5.41-1.64c0.39,0.08,0.76,0.19,1.13,0.34c0.36,0.15,0.71,0.34,1.03,0.55c0.33,0.22,0.64,0.47,0.91,0.75
			c0.28,0.28,0.53,0.58,0.75,0.91s0.4,0.68,0.55,1.04c0.15,0.36,0.27,0.74,0.34,1.12c0.08,0.39,0.12,0.78,0.12,1.17
			s-0.04,0.79-0.12,1.18c-0.07,0.38-0.19,0.76-0.34,1.12s-0.33,0.71-0.55,1.03c-0.22,0.33-0.47,0.64-0.75,0.92
			C181.014,165.796,179.464,166.436,177.884,166.436z"/>
		<path style="fill:#333333;" d="M245.884,166.436c-0.39,0-0.79-0.04-1.17-0.11c-0.38-0.08-0.76-0.2-1.12-0.35
			c-0.37-0.15-0.71-0.33-1.04-0.55c-0.33-0.22-0.64-0.47-0.91-0.74c-0.28-0.28-0.53-0.59-0.75-0.92c-0.22-0.32-0.4-0.67-0.55-1.03
			c-0.15-0.36-0.27-0.74-0.34-1.12c-0.08-0.39-0.12-0.79-0.12-1.18s0.04-0.78,0.12-1.17c0.07-0.38,0.19-0.76,0.34-1.12
			s0.33-0.71,0.55-1.04c0.22-0.33,0.47-0.63,0.75-0.91c0.27-0.28,0.58-0.53,0.91-0.75c0.33-0.21,0.67-0.4,1.04-0.55
			c0.36-0.15,0.74-0.26,1.12-0.34c1.95-0.39,4.02,0.25,5.41,1.64c0.28,0.28,0.53,0.58,0.75,0.91s0.4,0.68,0.55,1.04
			c0.15,0.36,0.27,0.74,0.34,1.12c0.08,0.39,0.12,0.78,0.12,1.17s-0.04,0.79-0.12,1.18c-0.07,0.38-0.19,0.76-0.34,1.12
			s-0.33,0.71-0.55,1.03c-0.22,0.33-0.47,0.64-0.75,0.92C249.014,165.796,247.464,166.436,245.884,166.436z"/>
	</g>
	<g>
		<path style="fill:#333333;" d="M202.551,179.999c-3.313,0-6-2.686-6-6v-16.857c0-3.204-2.606-5.81-5.81-5.81h-28.58
			c-3.313,0-6-2.686-6-6s2.687-6,6-6h28.58c9.82,0,17.81,7.99,17.81,17.81v16.857C208.551,177.313,205.865,179.999,202.551,179.999z
			"/>
		<path style="fill:#333333;" d="M256.828,151.332h-24c-3.313,0-6-2.686-6-6s2.687-6,6-6h24c3.313,0,6,2.686,6,6
			S260.141,151.332,256.828,151.332z"/>
	</g>
	<g>
		<path style="fill:#333333;" d="M221.494,215.332h-24c-3.313,0-6-2.686-6-6s2.687-6,6-6h24c3.313,0,6,2.686,6,6
			S224.809,215.332,221.494,215.332z"/>
	</g>
	<path style="fill:#F7774B;" d="M327.015,328.109v19.89h-45.7h-1.34v-59c0-12.29,2.99-23.88,8.29-34.08
		C311.654,270.839,327.015,297.689,327.015,328.109z"/>
	<path style="fill:#F7774B;" d="M139.014,288.999v59h-47.03v-19.89c0-30.42,15.35-57.27,38.74-73.19
		C136.024,265.119,139.014,276.709,139.014,288.999z"/>
	<path style="fill:#333333;" d="M285.974,412.999h-12v-124c0-12.816,3.101-25.558,8.966-36.846l10.648,5.533
		c-5.053,9.724-7.614,20.259-7.614,31.313V412.999z"/>
	<rect x="281.315" y="341.999" style="fill:#333333;" width="47.03" height="12"/>
	<path style="fill:#FFFFFF;" d="M307.015,398.999c-3.313,0-6-2.686-6-6v-27c0-3.314,2.687-6,6-6s6,2.686,6,6v27
		C313.015,396.313,310.328,398.999,307.015,398.999z"/>
	<g>
		<path style="opacity:0.44;fill:#333333;enable-background:new    ;" d="M135.664,266.919c-15.21,15.89-24.56,37.45-24.56,61.19
			v19.89h-19.12v-19.89c0-30.42,15.35-57.27,38.74-73.19C132.704,258.739,134.365,262.749,135.664,266.919z"/>
		<rect x="93.051" y="347.999" style="opacity:0.44;fill:#333333;enable-background:new    ;" width="16.63" height="65"/>
	</g>
	<path style="fill:#333333;" d="M327.015,418.999H91.984c-3.314,0-6-2.686-6-6v-84.89c0-31.306,15.463-60.521,41.364-78.15
		c9.415-6.408,19.76-11.007,30.749-13.671c0.131-0.033,0.264-0.065,0.397-0.096l0.119-0.028l3.05,11.606
		c-0.154,0.041-0.311,0.078-0.469,0.114l-0.119,0.028c-0.018,0.004-0.093,0.024-0.11,0.028c-9.597,2.321-18.636,6.338-26.865,11.938
		c-22.614,15.392-36.116,40.899-36.116,68.23v78.891h223.03v-78.89c0-27.327-13.505-52.833-36.126-68.23
		c-8.229-5.6-17.267-9.617-26.864-11.938c-0.041-0.01-0.082-0.02-0.122-0.031l-0.11-0.026c-0.155-0.036-0.311-0.073-0.463-0.113
		l3.051-11.606l-1.525,5.803l1.519-5.805l0.119,0.028c0.135,0.031,0.269,0.063,0.399,0.096c10.99,2.664,21.335,7.263,30.749,13.67
		c25.907,17.634,41.374,46.848,41.374,78.15v84.892C333.015,416.313,330.328,418.999,327.015,418.999z"/>
	<path style="fill:#333333;" d="M145.014,412.999h-12v-124c0-11.055-2.562-21.59-7.614-31.313l10.648-5.533
		c5.865,11.288,8.966,24.029,8.966,36.846V412.999z"/>
	<rect x="91.984" y="341.999" style="fill:#333333;" width="47.03" height="12"/>
	<path style="fill:#FFFFFF;" d="M276.305,122.999c-3.313,0-6-2.686-6-6V92.621c0-21.182-10.934-40.963-28.534-51.625
		c-0.53-0.321-1.065-0.635-1.604-0.94c-2.884-1.632-3.898-5.293-2.267-8.177c1.632-2.883,5.292-3.899,8.177-2.266
		c0.645,0.365,1.281,0.738,1.912,1.12c21.167,12.821,34.316,36.535,34.316,61.888v24.378
		C282.305,120.313,279.617,122.999,276.305,122.999z"/>
	<g>
		<path style="fill:#FFFFFF;" d="M212.328,414.09c-8.013,0-15.546-3.121-21.213-8.787c-5.666-5.666-8.787-13.2-8.787-21.213
			s3.121-15.547,8.787-21.213c5.667-5.666,13.2-8.787,21.213-8.787c8.014,0,15.548,3.12,21.214,8.787h-0.001
			c0.001,0,0.001,0,0.001,0c5.666,5.666,8.786,13.2,8.786,21.213s-3.12,15.547-8.787,21.213
			C227.876,410.969,220.342,414.09,212.328,414.09z M212.328,366.09c-4.808,0-9.328,1.872-12.728,5.272s-5.272,7.92-5.272,12.728
			c0,4.808,1.872,9.328,5.272,12.728s7.92,5.272,12.728,5.272c4.809,0,9.328-1.872,12.728-5.272s5.272-7.92,5.272-12.728
			c0-4.808-1.872-9.328-5.271-12.728h-0.001C221.656,367.962,217.137,366.09,212.328,366.09z"/>
		<path style="fill:#FFFFFF;" d="M184.049,416.101c-2.713,0-4.946-0.89-6.722-2.667c-5.13-5.129-2.896-14.062,6.831-27.31
			c1.961-2.671,5.715-3.247,8.387-1.285c2.671,1.961,3.247,5.716,1.286,8.387c-3.104,4.228-4.923,7.421-5.949,9.647
			c1.763-0.811,4.14-2.12,7.166-4.183c5.465-3.711,11.438-8.758,17.282-14.601c5.842-5.843,10.889-11.815,14.594-17.272
			c2.066-3.031,3.377-5.41,4.189-7.175c-2.227,1.026-5.419,2.845-9.647,5.949c-2.671,1.962-6.427,1.385-8.388-1.286
			s-1.385-6.426,1.286-8.387c13.25-9.727,22.182-11.96,27.311-6.83c4.746,4.745,3.166,12.753-4.83,24.48
			c-4.115,6.063-9.661,12.638-16.03,19.007c-6.369,6.37-12.945,11.915-19.017,16.037C194.466,413.611,188.585,416.1,184.049,416.101
			z"/>
	</g>
	<g>
		<path style="fill:#333333;" d="M341,418.999H78.229c-3.313,0-6-2.686-6-6s2.687-6,6-6H341c3.313,0,6,2.686,6,6
			S344.313,418.999,341,418.999z"/>
		<path style="fill:#333333;" d="M373,418.999h-11c-3.313,0-6-2.686-6-6s2.687-6,6-6h11c3.313,0,6,2.686,6,6
			S376.313,418.999,373,418.999z"/>
		<path style="fill:#333333;" d="M56.999,418.999h-11c-3.313,0-6-2.686-6-6s2.687-6,6-6h11c3.313,0,6,2.686,6,6
			S60.312,418.999,56.999,418.999z"/>
	</g>
	<path style="opacity:0.44;fill:#333333;enable-background:new    ;" d="M191.134,241.969c10.02,6.74,21.5,11.49,33.86,13.68
		c-5.03,0.89-10.21,1.35-15.5,1.35c-18.28,0-35.26-5.54-49.36-15.03c-0.19-0.13-0.39-0.26-0.58-0.4
		c-23.28-15.94-38.56-42.72-38.56-73.07v-22.5c0-139,54.89-137.301,54.89-134.411L165.5,27.395
		c-15.364,23.387-15.305,53.174-0.958,76.231c2.423,3.895,10.151,17.294,10.019,20.366c-0.483,11.29-9.201,21.36-21.338,21.975
		c-0.407,0.021-0.817,0.031-1.229,0.031v22.5c0,30.35,15.28,57.13,38.56,73.07C190.744,241.709,190.945,241.839,191.134,241.969z"/>
</g>
<g>
</g>
<g>
</g>
<g>
</g>
<g>
</g>
<g>
</g>
<g>
</g>
<g>
</g>
<g>
</g>
<g>
</g>
<g>
</g>
<g>
</g>
<g>
</g>
<g>
</g>
<g>
</g>
<g>
</g>
</svg>
