<?xml version="1.0" encoding="iso-8859-1"?>
<!-- Generator: Adobe Illustrator 19.0.0, SVG Export Plug-In . SVG Version: 6.00 Build 0)  -->
<svg version="1.1" id="Layer_1" xmlns="http://www.w3.org/2000/svg" xmlns:xlink="http://www.w3.org/1999/xlink" x="0px" y="0px"
	 viewBox="0 0 464 464" style="enable-background:new 0 0 464 464;" xml:space="preserve">
<g>
	<path style="fill:#333333;" d="M139.324,431.001c-1.287,0-2.583-0.412-3.677-1.263c-2.051-1.594-50.222-39.472-48.726-77.024
		c0.566-14.219,6.32-27.356,11.884-40.061c8.937-20.405,16.655-38.028,4.131-57.968c-8.512-13.553-19.469-23.167-29.135-31.65
		c-15.15-13.295-29.46-25.852-17.928-45.348c1.687-2.852,5.368-3.798,8.219-2.109c2.852,1.687,3.796,5.367,2.109,8.219
		c-5.964,10.083-1.096,15.643,15.515,30.219c9.774,8.577,21.938,19.251,31.382,34.287c15.902,25.318,5.7,48.613-3.301,69.165
		c-5.353,12.223-10.409,23.768-10.886,35.724c-0.64,16.073,11.193,33.318,21.233,44.954c11.256,13.046,22.751,22.029,22.866,22.118
		c2.617,2.033,3.089,5.803,1.056,8.419C142.883,430.204,141.113,431.001,139.324,431.001z"/>
	<path style="fill:#666666;" d="M292.178,286.97c0.19,0.05,0.39,0.09,0.58,0.14c10.46,2.53,20.19,6.93,28.83,12.81
		c23.39,15.92,38.75,42.77,38.75,73.19V458h-47.04h-140.96h-47.03v-84.89c0-30.42,15.35-57.27,38.74-73.19
		c8.64-5.88,18.37-10.28,28.83-12.81c0.19-0.05,0.39-0.09,0.58-0.14"/>
	<path style="fill:#666666;" d="M172.338,334v124h-47.03v-84.89c0-30.42,15.35-57.27,38.74-73.19
		C169.348,310.12,172.338,321.71,172.338,334z"/>
	<path style="fill:#666666;" d="M360.338,373.11V458h-47.04V334c0-12.29,2.99-23.88,8.29-34.08
		C344.978,315.84,360.338,342.69,360.338,373.11z"/>
	<path style="fill:#333333;" d="M368.323,458h-12v-78.69c0-25.831-11.669-50.164-32.857-68.515
		C302.036,292.226,273.486,282,243.073,282c-62.446,0-113.25,43.653-113.25,97.31V458h-12v-78.69
		c0-60.274,56.187-109.31,125.25-109.31c33.299,0,64.64,11.267,88.25,31.725c23.859,20.665,37,48.219,37,77.585V458z"/>
	<path style="fill:#333333;" d="M319.298,458h-12V334c0-12.816,3.101-25.558,8.966-36.846l10.648,5.533
		c-5.053,9.724-7.614,20.259-7.614,31.313V458z"/>
	<path style="fill:#FFFFFF;" d="M340.338,444c-3.313,0-6-2.687-6-6v-73c0-3.313,2.687-6,6-6s6,2.687,6,6v73
		C346.338,441.314,343.651,444,340.338,444z"/>
	<g>
		<path style="opacity:0.44;fill:#333333;enable-background:new    ;" d="M168.988,311.92c-15.21,15.89-24.56,37.45-24.56,61.19V456
			h-19.12v-82.89c0-30.42,15.35-57.27,38.74-73.19C166.028,303.74,167.688,307.75,168.988,311.92z"/>
	</g>
	<path style="fill:#333333;" d="M178.338,458h-12V334c0-11.054-2.562-21.59-7.614-31.313l10.648-5.533
		c5.866,11.289,8.966,24.03,8.966,36.846V458z"/>
	<g>
		<path style="fill:#333333;" d="M277.304,434h-68.96c-23.159,0-42-18.841-42-42h12c0,16.542,13.458,30,30,30h68.96
			c16.542,0,30-13.458,30-30h12C319.304,415.159,300.463,434,277.304,434z"/>
		<path style="fill:#FFFFFF;" d="M277.304,416c-3.313,0-6-2.687-6-6s2.687-6,6-6c6.617,0,12-5.383,12-12c0-3.313,2.687-6,6-6
			s6,2.687,6,6C301.304,405.234,290.537,416,277.304,416z"/>
	</g>
	<g>
		<path style="fill:#FFD3AE;" d="M284.682,278v65.36c0,14.71-11.93,26.64-26.64,26.64h-30.72c-14.71,0-26.64-11.93-26.64-26.64V278
			c12.5,6.75,26.8,10.58,41.99,10.58C257.882,288.58,272.182,284.75,284.682,278z"/>
		<path style="fill:#333333;" d="M258.042,376h-30.72c-17.998,0-32.64-14.642-32.64-32.64V278h12v65.36
			c0,11.381,9.259,20.64,20.64,20.64h30.72c11.381,0,20.641-9.259,20.641-20.64V278h12v65.36
			C290.682,361.358,276.04,376,258.042,376z"/>
		<path style="fill:#333333;" d="M242.683,376c-3.313,0-6-2.687-6-6v-15c0-3.313,2.687-6,6-6s6,2.687,6,6v15
			C248.683,373.314,245.996,376,242.683,376z"/>
		<path style="opacity:0.44;fill:#333333;enable-background:new    ;" d="M283.097,275c-1.18,2.25,2.955,17.06,1.585,19.18
			c-6.42,10.03-14.81,18.67-24.62,25.39c-0.19,0.14-0.39,0.27-0.58,0.4c-14.1,9.49-31.08,15.03-49.36,15.03
			c-5.24,0-6.11-4.72-9.44-7.26V278c11.87,5.92,29.24,12,43.41,12C261.952,290,269.197,284.09,283.097,275z"/>
	</g>
	<g>
		<path style="fill:#333333;" d="M374.323,464h-262.77c-3.313,0-6-2.687-6-6s2.687-6,6-6h262.77c3.313,0,6,2.687,6,6
			S377.637,464,374.323,464z"/>
		<path style="fill:#333333;" d="M406.323,464h-11c-3.313,0-6-2.687-6-6s2.687-6,6-6h11c3.313,0,6,2.687,6,6
			S409.637,464,406.323,464z"/>
		<path style="fill:#333333;" d="M90.323,464h-11c-3.313,0-6-2.687-6-6s2.687-6,6-6h11c3.313,0,6,2.687,6,6S93.637,464,90.323,464z"
			/>
	</g>
	<path style="fill:#FFD3AE;" d="M292.183,271.97c-14.1,9.49-31.08,15.03-49.36,15.03s-35.26-5.54-49.36-15.03
		c-0.19-0.13-0.39-0.26-0.58-0.4c-23.28-15.94-38.56-42.72-38.56-73.07V176v-51.5c0-48.877,39.623-88.5,88.5-88.5l0,0
		c48.877,0,88.5,39.623,88.5,88.5V176v22.5c0,30.35-15.28,57.13-38.56,73.07C292.573,271.71,292.373,271.84,292.183,271.97z"/>
	<g>
		<path style="fill:#F7774B;" d="M242.823,246.01c-4.869,0-9.738-0.513-14.573-1.538c-3.242-0.688-5.312-3.873-4.625-7.114
			c0.688-3.241,3.872-5.313,7.114-4.625c8.019,1.7,16.148,1.7,24.167,0c3.241-0.687,6.428,1.384,7.113,4.625
			c0.688,3.242-1.383,6.427-4.625,7.114C252.561,245.497,247.692,246.01,242.823,246.01z"/>
	</g>
	<path style="fill:#666666;" d="M331.318,123.76c0.01,0.24,0.01,0.49,0.01,0.74V176l-19.18,14.15c0-18.28-14.82-33.11-33.11-33.11
		c-18.28,0-33.11,14.83-33.11,33.11h-6.21c0-18.28-14.83-33.11-33.11-33.11c-18.29,0-33.11,14.83-33.11,33.11L154.318,176v-49v-2.5
		c0-35.2,20.55-65.59,50.3-79.85c11.56-5.55,24.52-8.65,38.2-8.65h0.01c13.68,0,26.63,3.1,38.19,8.64
		C310.568,58.8,331.038,88.87,331.318,123.76z"/>
	<path style="opacity:0.44;fill:#333333;enable-background:new    ;" d="M224.463,271.97c10.02,6.74,21.5,11.49,33.86,13.68
		c-5.03,0.89-10.21,1.35-15.5,1.35c-18.28,0-35.26-5.54-49.36-15.03c-0.19-0.13-0.39-0.26-0.58-0.4
		c-23.28-15.94-38.56-42.72-38.56-73.07V176c0-139,54.89-137.301,54.89-134.411l-10.384,15.807
		c-15.364,23.387-15.305,53.174-0.958,76.231c2.423,3.895,10.151,17.294,10.019,20.366c-0.483,11.29,0.575,8.391-11.562,9.006
		c-0.407,0.021-11.588,1-12,1l-11,26c0,7.057,12.821,22.421,14.382,29c5.151,21.717,18.306,40.336,36.173,52.57
		C224.073,271.71,224.273,271.84,224.463,271.97z"/>
	<g>
		<g>
			<g>
				<path style="fill:#333333;" d="M197.836,194.208c-1.533,0-3.065-0.583-4.236-1.751c-2.347-2.339-2.353-6.139-0.013-8.485
					c6.152-6.171,15.546-7.747,23.375-3.919c2.977,1.456,4.211,5.048,2.756,8.025c-1.456,2.977-5.05,4.21-8.025,2.756
					c-3.217-1.573-7.079-0.926-9.608,1.611C200.913,193.619,199.375,194.208,197.836,194.208z"/>
			</g>
		</g>
		<g>
			<g>
				<path style="fill:#333333;" d="M284.165,194.208c-1.539,0-3.077-0.588-4.249-1.764c-2.528-2.536-6.39-3.183-9.608-1.61
					c-2.978,1.456-6.57,0.221-8.025-2.756s-0.222-6.57,2.756-8.025c7.83-3.827,17.225-2.251,23.376,3.92
					c2.34,2.347,2.334,6.146-0.013,8.485C287.23,193.624,285.697,194.208,284.165,194.208z"/>
			</g>
		</g>
	</g>
	<path style="fill:#666666;" d="M331.328,6l-0.01,117.76c-0.28-34.89-20.75-64.96-50.3-79.12l0.3-0.64L331.328,6z"/>
	<path style="fill:#666666;" d="M204.318,44l0.3,0.65c-29.75,14.26-50.3,44.65-50.3,79.85V6L204.318,44z"/>
	<path style="opacity:0.44;fill:#333333;enable-background:new    ;" d="M204.318,44l0.3,0.65c-29.75,14.26-50.3,44.65-50.3,79.85V6
		L204.318,44z"/>
	<path style="fill:#333333;" d="M242.818,293c-18.874,0-37.097-5.551-52.7-16.052c-0.218-0.141-0.479-0.317-0.733-0.505
		c-25.717-17.663-41.066-46.79-41.066-77.942V127h12v71.5c0,27.236,13.443,52.702,35.959,68.119c0.1,0.068,0.198,0.14,0.294,0.214
		l0.167,0.106c13.696,9.217,29.603,14.061,46.08,14.061c16.464,0,32.354-4.829,45.956-13.964c0.109-0.077,0.224-0.155,0.34-0.233
		l0.115-0.078c0.055-0.041,0.093-0.067,0.149-0.106c22.51-15.414,35.949-40.878,35.949-68.119v-74c0-0.167,0.002-0.335-0.005-0.497
		c-0.003-0.065-0.004-0.13-0.005-0.195c-0.255-31.757-18.224-60.02-46.893-73.757C267.278,44.709,255.301,42,242.828,42
		c-12.496,0-24.475,2.711-35.613,8.059c-28.49,13.656-46.896,42.875-46.896,74.441h-12c0-36.155,21.081-69.622,53.707-85.261
		C214.794,33.109,228.52,30,242.818,30c14.292,0,28.014,3.105,40.793,9.229c15.728,7.536,29.064,19.271,38.568,33.934
		c9.743,15.033,14.978,32.48,15.138,50.462c0.01,0.285,0.011,0.58,0.011,0.875v74c0,31.176-15.366,60.32-41.105,77.977
		c-0.139,0.099-0.281,0.196-0.422,0.291l-0.104,0.071c-0.058,0.041-0.1,0.07-0.158,0.109C279.934,287.449,261.704,293,242.818,293z"
		/>
	<path style="fill:#FFFFFF;" d="M313.328,138c-3.313,0-6-2.687-6-6l-0.002-7.55c-0.003-0.071-0.004-0.141-0.005-0.212l-0.002-0.293
		c-0.2-24.82-14.252-46.918-36.672-57.661c-8.7-4.169-18.061-6.283-27.819-6.283c-3.313,0-6-2.687-6-6s2.687-6,6-6
		c11.568,0,22.673,2.511,33.005,7.462c26.586,12.739,43.249,38.946,43.486,68.394l0.004,0.252c0.003,0.084,0.005,0.168,0.005,0.252
		V132C319.328,135.313,316.641,138,313.328,138z"/>
	<path style="fill:#FFFFFF;" d="M313.33,155.999c-0.391,0-0.79-0.04-1.17-0.12c-0.391-0.07-0.771-0.19-1.13-0.34
		c-0.36-0.15-0.71-0.33-1.03-0.55c-0.33-0.22-0.641-0.47-0.92-0.75c-1.11-1.11-1.75-2.66-1.75-4.24s0.64-3.13,1.75-4.24
		c0.279-0.28,0.59-0.53,0.92-0.75c0.32-0.21,0.67-0.4,1.03-0.55c0.359-0.15,0.739-0.26,1.13-0.34c1.949-0.4,4.02,0.24,5.41,1.64
		c0.279,0.27,0.529,0.58,0.75,0.91c0.21,0.32,0.399,0.67,0.55,1.04c0.149,0.36,0.26,0.74,0.34,1.12c0.08,0.39,0.12,0.78,0.12,1.17
		c0,1.58-0.641,3.13-1.76,4.24C316.45,155.359,314.91,155.999,313.33,155.999z"/>
	<path style="fill:#333333;" d="M206.608,219c-25.952,0-39.11-9.707-39.11-28.85c0-21.565,17.545-39.11,39.11-39.11
		s39.11,17.544,39.11,39.11C245.719,209.293,232.56,219,206.608,219z M206.608,163.04c-14.949,0-27.11,12.162-27.11,27.11
		c0,14.809,13.03,16.85,27.11,16.85c23.826,0,27.11-8.099,27.11-16.85C233.719,175.202,221.557,163.04,206.608,163.04z"/>
	<path style="fill:#333333;" d="M279.038,219c-25.951,0-39.109-9.707-39.109-28.85c0-21.565,17.544-39.11,39.109-39.11
		s39.11,17.544,39.11,39.11C318.148,209.293,304.99,219,279.038,219z M279.038,163.04c-14.948,0-27.109,12.162-27.109,27.11
		c0,14.809,13.029,16.85,27.109,16.85c23.826,0,27.11-8.099,27.11-16.85C306.148,175.202,293.986,163.04,279.038,163.04z"/>
	<path style="fill:#333333;" d="M173.493,196.15c-1.237,0-2.485-0.381-3.557-1.172l-19.18-14.15
		c-2.667-1.967-3.233-5.724-1.266-8.39c1.967-2.667,5.723-3.233,8.39-1.266l19.18,14.15c2.667,1.967,3.233,5.724,1.266,8.39
		C177.15,195.307,175.333,196.15,173.493,196.15z"/>
	<path style="fill:#333333;" d="M312.153,196.15c-1.841,0-3.656-0.844-4.833-2.438c-1.968-2.667-1.4-6.423,1.266-8.39l19.18-14.15
		c2.667-1.968,6.423-1.401,8.391,1.266s1.4,6.423-1.266,8.39l-19.18,14.15C314.639,195.769,313.391,196.15,312.153,196.15z"/>
	<path style="fill:#333333;" d="M154.318,133c-3.313,0-6-2.687-6-6V6c0-2.279,1.292-4.362,3.334-5.375
		c2.042-1.013,4.481-0.782,6.296,0.598l50,38c2.638,2.005,3.152,5.769,1.146,8.407c-2.005,2.639-5.77,3.151-8.407,1.146
		l-40.37-30.681V127C160.318,130.313,157.632,133,154.318,133z"/>
	<path style="fill:#333333;" d="M331.318,133c-3.313,0-6-2.687-6-6l0.009-108.904l-40.379,30.682
		c-2.64,2.005-6.402,1.491-8.407-1.147s-1.491-6.402,1.147-8.407l50.01-38c1.813-1.379,4.254-1.61,6.297-0.598
		c2.042,1.013,3.333,3.096,3.333,5.375l-0.01,121C337.318,130.313,334.632,133,331.318,133z"/>
	<path style="fill:#333333;" d="M245.929,196.15h-6.21c-3.313,0-6-2.687-6-6s2.687-6,6-6h6.21c3.313,0,6,2.687,6,6
		S249.242,196.15,245.929,196.15z"/>
	<path style="fill:#FFFFFF;" d="M316.328,55c-3.313,0-6-2.687-6-6V38c0-3.313,2.687-6,6-6s6,2.687,6,6v11
		C322.328,52.313,319.641,55,316.328,55z"/>
</g>
<g>
</g>
<g>
</g>
<g>
</g>
<g>
</g>
<g>
</g>
<g>
</g>
<g>
</g>
<g>
</g>
<g>
</g>
<g>
</g>
<g>
</g>
<g>
</g>
<g>
</g>
<g>
</g>
<g>
</g>
</svg>
