<?xml version="1.0" encoding="iso-8859-1"?>
<!-- Generator: Adobe Illustrator 19.0.0, SVG Export Plug-In . SVG Version: 6.00 Build 0)  -->
<svg version="1.1" id="Layer_1" xmlns="http://www.w3.org/2000/svg" xmlns:xlink="http://www.w3.org/1999/xlink" x="0px" y="0px"
	 viewBox="0 0 453.999 453.999" style="enable-background:new 0 0 453.999 453.999;" xml:space="preserve">
<g>
	<g>
		<g>
			<circle style="fill:#FFE8B0;" cx="146.427" cy="180.999" r="27.89"/>
			<circle style="fill:#FFE8B0;" cx="307.562" cy="180.999" r="27.89"/>
		</g>
		<g>
			<path style="fill:#333333;" d="M146.427,214.889c-18.687,0-33.89-15.203-33.89-33.89s15.203-33.89,33.89-33.89
				s33.89,15.203,33.89,33.89S165.114,214.889,146.427,214.889z M146.427,159.109c-12.07,0-21.89,9.82-21.89,21.89
				s9.82,21.89,21.89,21.89s21.89-9.82,21.89-21.89S158.498,159.109,146.427,159.109z"/>
			<path style="fill:#333333;" d="M307.563,214.889c-18.687,0-33.89-15.203-33.89-33.89s15.203-33.89,33.89-33.89
				s33.89,15.203,33.89,33.89S326.25,214.889,307.563,214.889z M307.563,159.109c-12.07,0-21.89,9.82-21.89,21.89
				s9.82,21.89,21.89,21.89s21.89-9.82,21.89-21.89S319.632,159.109,307.563,159.109z"/>
		</g>
	</g>
	<path style="fill:#F7B239;" d="M276.355,276.969c0.19,0.05,0.39,0.09,0.58,0.14c10.46,2.53,20.19,6.93,28.83,12.81
		c23.39,15.92,38.75,42.77,38.75,73.19v84.89h-47.04h-140.96h-47.03v-84.89c0-30.42,15.35-57.27,38.74-73.19
		c8.64-5.88,18.37-10.28,28.83-12.81c0.19-0.05,0.39-0.09,0.58-0.14"/>
	<path style="fill:#F7B239;" d="M156.515,323.999v124h-47.03v-84.89c0-30.42,15.35-57.27,38.74-73.19
		C153.525,300.119,156.515,311.709,156.515,323.999z"/>
	<path style="fill:#F7B239;" d="M344.515,363.109v84.89h-47.04v-124c0-12.29,2.99-23.88,8.29-34.08
		C329.155,305.839,344.515,332.689,344.515,363.109z"/>
	<path style="fill:#FFE8B0;" d="M276.935,277.109v13.808c0,27.58-22.36,49.94-49.94,49.94s-49.94-22.36-49.94-49.94v-13.808
		c0.19-0.05,0.39-0.09,0.58-0.14c14.1,9.49,31.08,15.03,49.36,15.03s35.26-5.54,49.36-15.03
		C276.545,277.019,276.745,277.059,276.935,277.109z"/>
	<path style="opacity:0.44;fill:#333333;enable-background:new    ;" d="M275.375,277.619c-6.74,12.83-16.55,23.81-28.44,31.95
		c-0.19,0.14-0.39,0.27-0.58,0.4c-14.1,9.49-31.08,15.03-49.36,15.03c-6.5,0-6.267-7.273-12.367-8.613
		c-0.66-3.23-7.573-7.467-7.573-10.887v-28.39c0.19-0.05,0.39-0.09,0.58-0.14c14.1,9.49,31.08,15.03,49.36,15.03
		C244.855,291.999,261.475,286.709,275.375,277.619z"/>
	<path style="fill:#FFE8B0;" d="M276.355,276.969c-14.1,9.49-31.08,15.03-49.36,15.03s-35.26-5.54-49.36-15.03
		c-0.19-0.13-0.39-0.26-0.58-0.4c-23.28-15.94-38.56-42.72-38.56-73.07v-22.5v-51.5c0-48.877,39.623-88.5,88.5-88.5l0,0
		c48.877,0,88.5,39.623,88.5,88.5v51.5v22.5c0,30.35-15.28,57.13-38.56,73.07C276.745,276.709,276.545,276.839,276.355,276.969z"/>
	<path style="fill:#333333;" d="M226.995,297.999c-18.88,0-37.107-5.551-52.71-16.052l-0.182-0.124
		c-0.169-0.114-0.339-0.23-0.506-0.35c-25.737-17.657-41.102-46.8-41.102-77.974v-74c0-52.107,42.393-94.5,94.5-94.5
		s94.5,42.393,94.5,94.5v74c0,31.176-15.362,60.318-41.102,77.974c-0.167,0.12-0.337,0.236-0.506,0.351l-0.136,0.092
		c-0.015,0.01-0.03,0.021-0.045,0.031C264.102,292.448,245.875,297.999,226.995,297.999z M226.995,46.999
		c-45.491,0-82.5,37.009-82.5,82.5v74c0,27.241,13.439,52.706,35.95,68.12c0.055,0.038,0.111,0.077,0.165,0.117l0.421,0.287
		c13.57,9.133,29.48,13.977,45.964,13.977s32.395-4.844,46.01-14.007l0.167-0.114c0.069-0.047,0.141-0.093,0.208-0.143
		c0.054-0.04,0.109-0.079,0.165-0.117c22.51-15.414,35.95-40.879,35.95-68.12v-74C309.495,84.008,272.485,46.999,226.995,46.999z"/>
	<path style="fill:#333333;" d="M226.995,346.857c-30.845,0-55.94-25.095-55.94-55.94v-14.348h12v14.348
		c0,24.229,19.711,43.94,43.94,43.94s43.94-19.711,43.94-43.94v-14.348h12v14.348C282.935,321.763,257.84,346.857,226.995,346.857z"
		/>
	<g>
		<path style="fill:#333333;" d="M220.051,214.999c-3.313,0-6-2.687-6-6v-16.856c0-3.204-2.606-5.81-5.81-5.81h-28.58
			c-3.313,0-6-2.687-6-6s2.687-6,6-6h28.58c9.82,0,17.81,7.99,17.81,17.81v16.856C226.051,212.313,223.365,214.999,220.051,214.999z
			"/>
		<path style="fill:#333333;" d="M274.328,186.332h-24c-3.313,0-6-2.687-6-6s2.687-6,6-6h24c3.313,0,6,2.687,6,6
			S277.642,186.332,274.328,186.332z"/>
	</g>
	<g>
		<path style="fill:#333333;" d="M238.995,250.332h-24c-3.313,0-6-2.687-6-6s2.687-6,6-6h24c3.313,0,6,2.687,6,6
			S242.308,250.332,238.995,250.332z"/>
	</g>
	<path style="fill:#333333;" d="M303.475,447.999h-12v-124c0-12.816,3.1-25.558,8.966-36.846l10.648,5.533
		c-5.052,9.724-7.614,20.259-7.614,31.313V447.999z"/>
	<path style="fill:#FFFFFF;" d="M324.515,430.562c-3.313,0-6-2.687-6-6v-64.125c0-3.313,2.687-6,6-6s6,2.687,6,6v64.125
		C330.515,427.875,327.828,430.562,324.515,430.562z"/>
	<g>
		<path style="opacity:0.44;fill:#333333;enable-background:new    ;" d="M153.165,301.919c-15.21,15.89-24.56,37.45-24.56,61.19
			v82.89h-19.12v-82.89c0-30.42,15.35-57.27,38.74-73.19C150.205,293.739,151.865,297.749,153.165,301.919z"/>
	</g>
	<path style="fill:#333333;" d="M344.515,453.999h-235.03c-3.314,0-6-2.686-6-6v-84.89c0-31.306,15.463-60.521,41.364-78.15
		c9.416-6.408,19.762-11.007,30.752-13.671c0.131-0.033,0.264-0.065,0.397-0.096l0.122-0.028l3.037,11.609
		c-0.153,0.04-0.309,0.077-0.465,0.113l-0.122,0.028c-0.017,0.004-0.087,0.022-0.104,0.026c-9.597,2.321-18.636,6.338-26.865,11.938
		c-22.614,15.392-36.115,40.898-36.115,68.229v78.892h223.03v-78.89c0-27.327-13.505-52.833-36.126-68.23
		c-8.229-5.6-17.267-9.617-26.865-11.938c-0.037-0.009-0.074-0.019-0.111-0.028l-0.116-0.027c-0.156-0.036-0.312-0.073-0.464-0.113
		l3.038-11.609l0.122,0.028c0.133,0.031,0.266,0.062,0.396,0.095c10.991,2.665,21.337,7.264,30.751,13.671
		c25.907,17.633,41.374,46.848,41.374,78.15v84.891C350.515,451.313,347.828,453.999,344.515,453.999z"/>
	<path style="fill:#333333;" d="M162.515,447.999h-12v-124c0-11.055-2.562-21.59-7.614-31.313l10.648-5.533
		c5.865,11.288,8.966,24.029,8.966,36.847V447.999z"/>
	<g>
		<path style="fill:#333333;" d="M358.5,453.999H95.73c-3.313,0-6-2.687-6-6s2.687-6,6-6H358.5c3.313,0,6,2.687,6,6
			S361.813,453.999,358.5,453.999z"/>
		<path style="fill:#333333;" d="M390.5,453.999h-11c-3.313,0-6-2.687-6-6s2.687-6,6-6h11c3.313,0,6,2.687,6,6
			S393.813,453.999,390.5,453.999z"/>
		<path style="fill:#333333;" d="M74.5,453.999h-11c-3.313,0-6-2.687-6-6s2.687-6,6-6h11c3.313,0,6,2.687,6,6
			S77.813,453.999,74.5,453.999z"/>
	</g>
	<path style="opacity:0.44;fill:#333333;enable-background:new    ;" d="M208.635,276.969c10.02,6.74,21.5,11.49,33.86,13.68
		c-5.03,0.89-10.21,1.35-15.5,1.35c-18.28,0-35.26-5.54-49.36-15.03c-0.19-0.13-0.39-0.26-0.58-0.4
		c-23.28-15.94-38.56-42.72-38.56-73.07v-22.5c0-139,54.89-137.301,54.89-134.411l-10.384,15.807
		c-15.364,23.387,108.76,59.858,135.499,64.604c34.601,6.141-126.307,28.922-126.438,31.994c-0.483,11.29-9.201,21.36-21.338,21.975
		c-0.407,0.021-0.817,0.031-1.229,0.031v22.5c0,30.35,15.28,57.13,38.56,73.07C208.245,276.709,208.445,276.839,208.635,276.969z"/>
	<path style="fill:#FFFFFF;" d="M295.5,199.999c-3.313,0-6-2.687-6-6v-45c0-3.313,2.687-6,6-6s6,2.687,6,6v45
		C301.5,197.313,298.813,199.999,295.5,199.999z"/>
	<g>
		<path style="fill:#333333;" d="M268.49,201.999h-14.148c-3.313,0-6-2.687-6-6s2.687-6,6-6h14.148c3.313,0,6,2.687,6,6
			S271.803,201.999,268.49,201.999z"/>
		<path style="fill:#333333;" d="M199.648,201.999H185.5c-3.313,0-6-2.687-6-6s2.687-6,6-6h14.148c3.313,0,6,2.687,6,6
			S202.961,201.999,199.648,201.999z"/>
	</g>
	<polygon style="fill:#F7B239;" points="387.99,129.999 65.99,129.999 226.99,5.999 	"/>
	<polygon style="opacity:0.44;fill:#333333;enable-background:new    ;" points="226.99,5.999 166.5,129.999 65.99,129.999 	"/>
	<path style="fill:#333333;" d="M387.99,135.999h-322c-2.568,0-4.852-1.635-5.68-4.066s-0.016-5.12,2.019-6.687l161-124
		c2.158-1.662,5.164-1.662,7.322,0l161,124c2.035,1.567,2.847,4.256,2.019,6.687C392.842,134.365,390.558,135.999,387.99,135.999z
		 M83.613,123.999h286.753L226.99,13.572L83.613,123.999z"/>
	<path style="fill:#FFFFFF;" d="M335.116,117.999c-1.278,0-2.566-0.407-3.657-1.247l-64.618-49.768
		c-2.625-2.022-3.114-5.789-1.092-8.415c2.021-2.625,5.79-3.115,8.415-1.092l64.618,49.768c2.625,2.022,3.114,5.789,1.092,8.415
		C338.692,117.194,336.914,117.999,335.116,117.999z"/>
	<path style="fill:#FFFFFF;" d="M254.497,55.908c-1.278,0-2.566-0.407-3.657-1.247l-6.998-5.39
		c-2.625-2.022-3.114-5.789-1.092-8.415c2.022-2.625,5.79-3.114,8.415-1.092l6.998,5.39c2.625,2.022,3.114,5.789,1.092,8.415
		C258.073,55.103,256.295,55.908,254.497,55.908z"/>
</g>
<g>
</g>
<g>
</g>
<g>
</g>
<g>
</g>
<g>
</g>
<g>
</g>
<g>
</g>
<g>
</g>
<g>
</g>
<g>
</g>
<g>
</g>
<g>
</g>
<g>
</g>
<g>
</g>
<g>
</g>
</svg>
