<?xml version="1.0" encoding="iso-8859-1"?>
<!-- Generator: Adobe Illustrator 19.0.0, SVG Export Plug-In . SVG Version: 6.00 Build 0)  -->
<svg version="1.1" id="Layer_1" xmlns="http://www.w3.org/2000/svg" xmlns:xlink="http://www.w3.org/1999/xlink" x="0px" y="0px"
	 viewBox="0 0 418.996 418.996" style="enable-background:new 0 0 418.996 418.996;" xml:space="preserve">
<g>
	<g>
		<g>
			<path style="fill:#F7B239;" d="M258.853,241.966c0.19,0.05,0.39,0.09,0.58,0.14c10.46,2.53,20.19,6.93,28.83,12.81
				c23.39,15.92,38.75,42.77,38.75,73.19v84.89h-47.04h-140.96h-47.03v-84.89c0-30.42,15.35-57.27,38.74-73.19
				c8.64-5.88,18.37-10.28,28.83-12.81c0.19-0.05,0.39-0.09,0.58-0.14"/>
			<path style="fill:#333333;" d="M327.013,418.996H91.983c-3.314,0-6-2.686-6-6v-84.89c0-31.306,15.463-60.521,41.364-78.15
				c9.415-6.408,19.76-11.007,30.749-13.671c0.131-0.033,0.264-0.065,0.397-0.096l0.119-0.028l3.05,11.606
				c-0.154,0.041-0.311,0.078-0.469,0.114l-0.119,0.028c-0.018,0.004-0.093,0.024-0.11,0.028
				c-9.597,2.321-18.636,6.338-26.865,11.938c-22.614,15.392-36.116,40.899-36.116,68.23v78.89h223.03v-78.89
				c0-27.327-13.505-52.833-36.126-68.23c-8.229-5.6-17.268-9.617-26.865-11.938c-0.04-0.01-0.079-0.02-0.118-0.03l-0.112-0.026
				c-0.157-0.036-0.314-0.073-0.467-0.114l3.05-11.606l0.12,0.028c0.133,0.031,0.266,0.062,0.396,0.095
				c10.989,2.664,21.333,7.263,30.749,13.67c25.907,17.633,41.374,46.848,41.374,78.15v84.89
				C333.013,416.309,330.326,418.996,327.013,418.996z"/>
		</g>
		<path style="fill:#FFD3AE;" d="M139.013,288.996v124h-47.03v-84.89c0-30.42,15.35-57.27,38.74-73.19
			C136.023,265.116,139.013,276.706,139.013,288.996z"/>
		<path style="fill:#FFD3AE;" d="M327.013,328.106v84.89h-47.04v-124c0-12.29,2.99-23.88,8.29-34.08
			C311.653,270.836,327.013,297.686,327.013,328.106z"/>
		<g>
			<path style="fill:#333333;" d="M226.79,323.38c-0.39,0-0.79-0.04-1.17-0.11c-0.38-0.08-0.76-0.2-1.12-0.35
				c-0.37-0.15-0.71-0.33-1.04-0.55c-0.33-0.22-0.64-0.47-0.91-0.74c-0.28-0.28-0.53-0.59-0.75-0.92c-0.22-0.32-0.4-0.67-0.55-1.03
				c-0.15-0.36-0.27-0.74-0.34-1.12c-0.08-0.39-0.12-0.79-0.12-1.18c0-0.39,0.04-0.78,0.12-1.17c0.07-0.38,0.19-0.76,0.34-1.12
				s0.33-0.71,0.55-1.04c0.22-0.33,0.47-0.63,0.75-0.91c0.27-0.28,0.58-0.53,0.91-0.75c0.33-0.21,0.67-0.4,1.04-0.55
				c0.36-0.15,0.74-0.26,1.12-0.34c1.95-0.39,4.02,0.25,5.41,1.64c0.28,0.28,0.53,0.58,0.75,0.91c0.22,0.33,0.4,0.68,0.55,1.04
				c0.15,0.36,0.27,0.74,0.34,1.12c0.08,0.39,0.12,0.78,0.12,1.17s-0.04,0.79-0.12,1.18c-0.07,0.38-0.19,0.76-0.34,1.12
				s-0.33,0.71-0.55,1.03c-0.22,0.33-0.47,0.64-0.75,0.92C229.92,322.74,228.37,323.38,226.79,323.38z"/>
		</g>
		<g>
			<path style="fill:#333333;" d="M226.79,388.929c-0.39,0-0.79-0.04-1.17-0.11c-0.38-0.08-0.76-0.2-1.12-0.35
				c-0.37-0.15-0.71-0.33-1.04-0.55c-0.33-0.22-0.64-0.47-0.91-0.74c-0.28-0.28-0.53-0.59-0.75-0.92c-0.22-0.32-0.4-0.67-0.55-1.03
				c-0.15-0.36-0.27-0.74-0.34-1.12c-0.08-0.39-0.12-0.79-0.12-1.18c0-0.39,0.04-0.78,0.12-1.17c0.07-0.38,0.19-0.76,0.34-1.12
				s0.33-0.71,0.55-1.04c0.22-0.33,0.47-0.63,0.75-0.91c0.27-0.28,0.58-0.53,0.91-0.75c0.33-0.21,0.67-0.4,1.04-0.55
				c0.36-0.15,0.74-0.26,1.12-0.34c1.95-0.39,4.02,0.25,5.41,1.64c0.28,0.28,0.53,0.58,0.75,0.91c0.22,0.33,0.4,0.68,0.55,1.04
				c0.15,0.36,0.27,0.74,0.34,1.12c0.08,0.39,0.12,0.78,0.12,1.17s-0.04,0.79-0.12,1.18c-0.07,0.38-0.19,0.76-0.34,1.12
				s-0.33,0.71-0.55,1.03c-0.22,0.33-0.47,0.64-0.75,0.92C229.92,388.289,228.37,388.929,226.79,388.929z"/>
		</g>
		<g>
			<path style="fill:#333333;" d="M226.79,356.155c-0.39,0-0.79-0.04-1.17-0.11c-0.38-0.08-0.76-0.2-1.12-0.35
				c-0.37-0.15-0.71-0.33-1.04-0.55c-0.33-0.22-0.64-0.47-0.91-0.74c-0.28-0.28-0.53-0.59-0.75-0.92c-0.22-0.32-0.4-0.67-0.55-1.03
				c-0.15-0.36-0.27-0.74-0.34-1.12c-0.08-0.39-0.12-0.79-0.12-1.18c0-0.39,0.04-0.78,0.12-1.17c0.07-0.38,0.19-0.76,0.34-1.12
				s0.33-0.71,0.55-1.04c0.22-0.33,0.47-0.63,0.75-0.91c0.27-0.28,0.58-0.53,0.91-0.75c0.33-0.21,0.67-0.4,1.04-0.55
				c0.36-0.15,0.74-0.26,1.12-0.34c1.95-0.39,4.02,0.25,5.41,1.64c0.28,0.28,0.53,0.58,0.75,0.91c0.22,0.33,0.4,0.68,0.55,1.04
				c0.15,0.36,0.27,0.74,0.34,1.12c0.08,0.39,0.12,0.78,0.12,1.17s-0.04,0.79-0.12,1.18c-0.07,0.38-0.19,0.76-0.34,1.12
				s-0.33,0.71-0.55,1.03c-0.22,0.33-0.47,0.64-0.75,0.92C229.92,355.515,228.37,356.155,226.79,356.155z"/>
		</g>
		<g>
			<path style="fill:#F7B239;" d="M327.013,328.106v19.89h-45.7h-1.34v-59c0-12.29,2.99-23.88,8.29-34.08
				C311.653,270.836,327.013,297.686,327.013,328.106z"/>
			<path style="fill:#333333;" d="M327.013,353.996h-47.04c-3.313,0-6-2.686-6-6v-59c0-12.816,3.1-25.558,8.966-36.846
				c0.791-1.522,2.194-2.632,3.857-3.052c1.661-0.419,3.425-0.107,4.843,0.858c25.907,17.633,41.374,46.848,41.374,78.15v19.89
				C333.013,351.309,330.326,353.996,327.013,353.996z M285.973,341.996h35.04v-13.89c0-24.925-11.237-48.337-30.377-63.943
				c-3.097,7.868-4.663,16.191-4.663,24.833V341.996z"/>
		</g>
		<g>
			<path style="fill:#F7B239;" d="M139.013,288.996v59h-47.03v-19.89c0-30.42,15.35-57.27,38.74-73.19
				C136.023,265.116,139.013,276.706,139.013,288.996z"/>
			<path style="fill:#333333;" d="M139.013,353.996h-47.03c-3.313,0-6-2.686-6-6v-19.89c0-31.306,15.463-60.521,41.364-78.15
				c1.418-0.965,3.182-1.277,4.843-0.858c1.663,0.419,3.066,1.53,3.857,3.051c5.865,11.288,8.966,24.029,8.966,36.846v59
				C145.013,351.309,142.326,353.996,139.013,353.996z M97.983,341.996h35.03v-53c0-8.642-1.565-16.966-4.662-24.833
				c-19.135,15.603-30.368,39.014-30.368,63.943V341.996z"/>
		</g>
		<path style="fill:#333333;" d="M285.973,412.996h-12v-124c0-12.816,3.1-25.558,8.966-36.846l10.648,5.533
			c-5.052,9.724-7.614,20.259-7.614,31.313V412.996z"/>
		<rect x="281.313" y="341.996" style="fill:#333333;" width="47.03" height="12"/>
		<path style="fill:#FFFFFF;" d="M307.013,398.996c-3.313,0-6-2.686-6-6v-27c0-3.314,2.687-6,6-6s6,2.686,6,6v27
			C313.013,396.309,310.326,398.996,307.013,398.996z"/>
		<g>
			<path style="opacity:0.44;fill:#333333;enable-background:new    ;" d="M135.663,266.916c-15.21,15.89-24.56,37.45-24.56,61.19
				v19.89h-19.12v-19.89c0-30.42,15.35-57.27,38.74-73.19C132.703,258.736,134.363,262.746,135.663,266.916z"/>
			<rect x="93.05" y="347.996" style="opacity:0.44;fill:#333333;enable-background:new    ;" width="16.63" height="65"/>
		</g>
		<rect x="91.983" y="341.996" style="fill:#333333;" width="47.03" height="12"/>
		<g>
			<path style="fill:#333333;" d="M340.998,418.996H78.228c-3.313,0-6-2.686-6-6s2.687-6,6-6h262.77c3.313,0,6,2.686,6,6
				S344.311,418.996,340.998,418.996z"/>
			<path style="fill:#333333;" d="M372.998,418.996h-11c-3.313,0-6-2.686-6-6s2.687-6,6-6h11c3.313,0,6,2.686,6,6
				S376.311,418.996,372.998,418.996z"/>
			<path style="fill:#333333;" d="M56.998,418.996h-11c-3.313,0-6-2.686-6-6s2.687-6,6-6h11c3.313,0,6,2.686,6,6
				S60.311,418.996,56.998,418.996z"/>
		</g>
		<path style="fill:#333333;" d="M209.498,418.996c-3.313,0-6-2.686-6-6V257c0-3.314,2.687-6,6-6c3.313,0,6,2.686,6,6v155.995
			C215.498,416.309,212.811,418.996,209.498,418.996z"/>
		<path style="opacity:0.44;fill:#333333;enable-background:new    ;" d="M142.707,248.061l17.626-6.321
			c0.19-0.05,0.39-0.09,0.58-0.14c14.1,9.49,31.08,15.03,49.36,15.03c17.86,0-2.647,12.963-2.647,12.963s-7.792,6.843-16.236,17.649
			c-3.933,5.033-29.019-9.262-29.019-9.262L142.707,248.061z"/>
		<path style="opacity:0.44;fill:#333333;enable-background:new    ;" d="M174.199,295.975c0,0-27.056-18.345-35.186-0.345
			l-4.797-45l8.49-2.569L174.199,295.975z"/>
		<path style="fill:#333333;" d="M327.013,418.996H91.983c-3.314,0-6-2.686-6-6v-84.89c0-31.306,15.463-60.521,41.364-78.15
			c9.415-6.408,19.76-11.007,30.749-13.671c0.131-0.033,0.264-0.065,0.397-0.096l0.119-0.028l3.05,11.606
			c-0.154,0.041-0.311,0.078-0.469,0.114l-0.119,0.028c-0.018,0.004-0.093,0.024-0.11,0.028
			c-9.597,2.321-18.636,6.338-26.865,11.938c-22.614,15.392-36.116,40.899-36.116,68.23v78.89h223.03v-78.89
			c0-27.327-13.505-52.833-36.126-68.23c-8.229-5.6-17.268-9.617-26.865-11.938c-0.04-0.01-0.079-0.02-0.118-0.03l-0.112-0.026
			c-0.157-0.036-0.314-0.073-0.467-0.114l3.05-11.606l0.12,0.028c0.133,0.031,0.266,0.062,0.396,0.095
			c10.989,2.664,21.333,7.263,30.749,13.67c25.907,17.633,41.374,46.848,41.374,78.15v84.89
			C333.013,416.309,330.326,418.996,327.013,418.996z"/>
		<path style="fill:#333333;" d="M145.013,412.996h-12v-124c0-11.055-2.562-21.59-7.614-31.313l10.648-5.533
			c5.865,11.288,8.966,24.029,8.966,36.846V412.996z"/>
		<path style="fill:#333333;" d="M179.887,310.63c-2.018,0-3.903-1.015-5.014-2.705l-37.181-56.569l10.028-6.591l32.026,48.726
			l24.655-39.659c1.095-1.761,3.022-2.832,5.096-2.832c2.074,0,4,1.071,5.096,2.832l24.655,39.66l32.026-48.727l10.028,6.591
			l-37.181,56.569c-1.124,1.71-3.017,2.737-5.09,2.704c-2.047-0.026-3.939-1.093-5.02-2.832l-24.515-39.433l-24.514,39.433
			c-1.081,1.739-2.973,2.806-5.02,2.832C179.938,310.63,179.913,310.63,179.887,310.63z"/>
	</g>
	<g>
		<g>
			<circle style="fill:#FFD3AE;" cx="128.931" cy="145.996" r="27.89"/>
			<circle style="fill:#FFD3AE;" cx="290.066" cy="145.996" r="27.89"/>
		</g>
		<g>
			<path style="fill:#333333;" d="M128.93,179.886c-18.687,0-33.89-15.203-33.89-33.89s15.203-33.89,33.89-33.89
				c18.687,0,33.89,15.203,33.89,33.89S147.617,179.886,128.93,179.886z M128.93,124.106c-12.07,0-21.89,9.82-21.89,21.89
				s9.82,21.89,21.89,21.89c12.07,0,21.89-9.82,21.89-21.89C150.821,133.926,141.001,124.106,128.93,124.106z"/>
			<path style="fill:#333333;" d="M290.066,179.886c-18.687,0-33.89-15.203-33.89-33.89s15.203-33.89,33.89-33.89
				s33.89,15.203,33.89,33.89S308.753,179.886,290.066,179.886z M290.066,124.106c-12.07,0-21.89,9.82-21.89,21.89
				s9.82,21.89,21.89,21.89s21.89-9.82,21.89-21.89C311.956,133.926,302.136,124.106,290.066,124.106z"/>
		</g>
	</g>
	<path style="fill:#FFD3AE;" d="M258.858,241.966c-14.1,9.49-31.08,15.03-49.36,15.03s-35.26-5.54-49.36-15.03
		c-0.19-0.13-0.39-0.26-0.58-0.4c-23.28-15.94-38.56-42.72-38.56-73.07v-22.5v-51.5c0-48.877,39.623-88.5,88.5-88.5l0,0
		c48.877,0,88.5,39.623,88.5,88.5v51.5v22.5c0,30.35-15.28,57.13-38.56,73.07C259.248,241.706,259.048,241.836,258.858,241.966z"/>
	<g>
		<path style="fill:#333333;" d="M209.498,25.996c4.631,0,9.156,0.462,13.531,1.342"/>
		<path style="fill:#FFFFFF;" d="M223.035,33.339c-0.392,0-0.79-0.039-1.189-0.119c-4.039-0.812-8.193-1.224-12.348-1.224
			c-3.313,0-6-2.686-6-6s2.687-6,6-6c4.948,0,9.898,0.491,14.714,1.46c3.249,0.653,5.353,3.817,4.699,7.065
			C228.338,31.37,225.834,33.339,223.035,33.339z"/>
	</g>
	<path style="fill:#FFFFFF;" d="M251.524,46.489c-1.309,0-2.627-0.426-3.731-1.304c-1.908-1.518-3.933-2.928-6.02-4.192
		c-0.529-0.321-1.064-0.634-1.605-0.94c-2.884-1.632-3.898-5.293-2.266-8.177c1.633-2.884,5.292-3.899,8.177-2.266
		c0.643,0.364,1.28,0.737,1.911,1.119c2.521,1.527,4.968,3.231,7.272,5.064c2.594,2.063,3.023,5.837,0.961,8.431
		C255.039,45.713,253.29,46.489,251.524,46.489z"/>
	<path style="opacity:0.44;fill:#333333;enable-background:new    ;" d="M191.138,241.966c10.02,6.74,21.5,11.49,33.86,13.68
		c-5.03,0.89-10.21,1.35-15.5,1.35c-18.28,0-35.26-5.54-49.36-15.03c-0.19-0.13-0.39-0.26-0.58-0.4
		c-23.28-15.94-38.56-42.72-38.56-73.07v-22.5c0-139,54.89-137.301,54.89-134.411l-10.384,15.807
		c-15.364,23.387-15.305,53.174-0.958,76.231c2.423,3.895,10.151,17.294,10.019,20.366c-0.483,11.29-9.201,21.36-21.338,21.975
		c-0.407,0.021-0.817,0.031-1.229,0.031v22.5c0,30.35,15.28,57.13,38.56,73.07C190.748,241.706,190.948,241.836,191.138,241.966z"/>
	<g>
		<g id="XMLID_7_">
			<g>
				<path style="fill:#A67C52;" d="M298.002,94.5v9.61c-19.9-5.86-34.42-24.26-34.42-46.05c0-9.84,2.96-18.98,8.04-26.59
					c0.16,0.15,0.31,0.3,0.46,0.45C288.092,47.94,298.002,70.06,298.002,94.5z"/>
				<path style="fill:#936841;" d="M147.382,31.47c5.07,7.61,8.03,16.75,8.03,26.59c0,21.79-14.52,40.19-34.41,46.04v-9.6
					C121.002,69.83,131.092,47.52,147.382,31.47z"/>
			</g>
			<g>
				<path style="fill:#333333;" d="M209.502,263c-18.88,0-37.107-5.551-52.71-16.052l-0.173-0.118
					c-0.172-0.116-0.346-0.235-0.516-0.357c-25.737-17.656-41.1-46.799-41.1-77.973v-74c0-25.504,10.004-49.407,28.169-67.304
					C160.953,9.659,184.51,0,209.502,0c24.97,0,48.508,9.642,66.287,27.152c0.172,0.163,0.336,0.325,0.499,0.488
					c17.886,17.897,27.714,41.628,27.714,66.86v74c0,31.174-15.363,60.316-41.1,77.973c-0.17,0.122-0.343,0.241-0.516,0.357
					l-0.133,0.09C246.609,257.449,228.382,263,209.502,263z M209.502,12c-21.818,0-42.383,8.432-57.907,23.742
					c-15.859,15.626-24.593,36.493-24.593,58.758v74c0,27.241,13.439,52.706,35.95,68.119c0.057,0.039,0.113,0.079,0.168,0.12
					c0.068,0.05,0.139,0.096,0.209,0.143l0.204,0.138c13.575,9.136,29.485,13.98,45.969,13.98c16.484,0,32.394-4.844,46.01-14.008
					l0.372-0.253c0.053-0.039,0.114-0.082,0.168-0.12c22.51-15.414,35.95-40.879,35.95-68.119v-74
					c0-22.028-8.582-42.746-24.164-58.339c-0.121-0.121-0.219-0.219-0.323-0.317c-0.036-0.034-0.071-0.068-0.106-0.102
					C251.885,20.432,231.32,12,209.502,12z"/>
				<path style="fill:#333333;" d="M122.695,109.856l-3.386-11.512c17.724-5.213,30.103-21.778,30.103-40.284
					c0-8.323-2.429-16.367-7.023-23.263l9.986-6.653c5.912,8.874,9.037,19.219,9.037,29.917
					C161.412,81.852,145.491,103.151,122.695,109.856z"/>
				<path style="fill:#333333;" d="M296.307,109.865c-22.801-6.714-38.725-28.017-38.725-51.805c0-10.706,3.129-21.053,9.05-29.921
					l9.98,6.663c-4.599,6.89-7.03,14.932-7.03,23.259c0,18.503,12.384,35.073,30.115,40.294L296.307,109.865z"/>
			</g>
		</g>
	</g>
	<g>
		<path style="fill:#333333;" d="M215.029,228.297h-11.061c-3.313,0-6-2.686-6-6s2.687-6,6-6h11.061c3.313,0,6,2.686,6,6
			S218.342,228.297,215.029,228.297z"/>
	</g>
	
		<rect x="285.51" y="120.284" transform="matrix(-0.8521 -0.5234 0.5234 -0.8521 470.4428 398.3685)" style="fill:#333333;" width="12" height="24.854"/>
	
		<rect x="115.064" y="126.718" transform="matrix(-0.5234 -0.8521 0.8521 -0.5234 81.1309 310.8158)" style="fill:#333333;" width="24.854" height="12"/>
	<path style="fill:#FFFFFF;" d="M276.362,129.63c-3.313,0-6-2.686-6-6v-10.57c0-3.314,2.687-6,6-6s6,2.686,6,6v10.571
		C282.362,126.944,279.676,129.63,276.362,129.63z"/>
	<g>
		<path style="fill:#333333;" d="M217.656,149.307h-16.315c-3.313,0-6-2.686-6-6s2.687-6,6-6h16.315c3.313,0,6,2.686,6,6
			S220.969,149.307,217.656,149.307z"/>
		<g>
			<g>
				<g>
					<path style="fill:#F7B239;" d="M195.498,143.307c0,18.594-27.876,44.156-46.469,44.156s-20.864-25.563-20.864-44.156
						S195.498,124.713,195.498,143.307z"/>
					<path style="fill:#F7B239;" d="M223.498,143.307c0,18.594,27.876,44.156,46.469,44.156c18.594,0,20.864-25.563,20.864-44.156
						S223.498,124.713,223.498,143.307z"/>
				</g>
				<g>
					<path style="fill:#333333;" d="M154.871,193.463c-26.864,0-26.864-37.751-26.864-50.156c0-14.722,21.368-19.945,39.667-19.945
						s39.667,5.224,39.667,19.945C207.341,164.87,177.428,193.463,154.871,193.463z M167.674,135.362
						c-17.901,0-27.667,5.249-27.667,7.945c0,38.156,11.188,38.156,14.864,38.156c15.885,0,40.469-23.179,40.469-38.156
						c0-1.195-2.039-3.151-6.594-4.829C183.367,136.498,175.686,135.362,167.674,135.362z"/>
					<path style="fill:#333333;" d="M264.125,193.463c-22.557,0-52.469-28.594-52.469-50.156c0-14.722,21.368-19.945,39.667-19.945
						c18.299,0,39.667,5.224,39.667,19.945C290.989,155.712,290.989,193.463,264.125,193.463z M251.322,135.362
						c-17.901,0-27.667,5.249-27.667,7.945c0,14.977,24.584,38.156,40.469,38.156c14.864,0,14.864-28.719,14.864-38.156
						c0-1.195-2.039-3.151-6.594-4.829C267.015,136.498,259.334,135.362,251.322,135.362z"/>
				</g>
				<g>
					<path style="fill:#333333;" d="M177.888,156.932c-1.58,0-3.13-0.64-4.24-1.75c-1.12-1.12-1.76-2.67-1.76-4.25
						s0.64-3.12,1.76-4.24c1.39-1.39,3.46-2.03,5.41-1.64c0.39,0.08,0.76,0.19,1.13,0.34c0.36,0.15,0.71,0.34,1.03,0.55
						c0.33,0.22,0.64,0.47,0.91,0.75c0.28,0.28,0.53,0.58,0.75,0.91s0.4,0.68,0.55,1.04s0.27,0.74,0.34,1.12
						c0.08,0.39,0.12,0.78,0.12,1.17s-0.04,0.79-0.12,1.18c-0.07,0.38-0.19,0.76-0.34,1.12s-0.33,0.71-0.55,1.03
						c-0.22,0.33-0.47,0.64-0.75,0.92C181.018,156.292,179.468,156.932,177.888,156.932z"/>
					<path style="fill:#333333;" d="M245.888,156.932c-0.39,0-0.79-0.04-1.17-0.11c-0.38-0.08-0.76-0.2-1.12-0.35
						c-0.37-0.15-0.71-0.33-1.04-0.55s-0.64-0.47-0.91-0.74c-0.28-0.28-0.53-0.59-0.75-0.92c-0.22-0.32-0.4-0.67-0.55-1.03
						s-0.27-0.74-0.34-1.12c-0.08-0.39-0.12-0.79-0.12-1.18s0.04-0.78,0.12-1.17c0.07-0.38,0.19-0.76,0.34-1.12s0.33-0.71,0.55-1.04
						c0.22-0.33,0.47-0.63,0.75-0.91c0.27-0.28,0.58-0.53,0.91-0.75c0.33-0.21,0.67-0.4,1.04-0.55c0.36-0.15,0.74-0.26,1.12-0.34
						c1.95-0.39,4.02,0.25,5.41,1.64c0.28,0.28,0.53,0.58,0.75,0.91s0.4,0.68,0.55,1.04s0.27,0.74,0.34,1.12
						c0.08,0.39,0.12,0.78,0.12,1.17s-0.04,0.79-0.12,1.18c-0.07,0.38-0.19,0.76-0.34,1.12s-0.33,0.71-0.55,1.03
						c-0.22,0.33-0.47,0.64-0.75,0.92C249.018,156.292,247.468,156.932,245.888,156.932z"/>
				</g>
			</g>
		</g>
	</g>
	<g>
		<path style="fill:#333333;" d="M202.555,190.963c-3.313,0-6-2.686-6-6v-27.824c0-3.204-2.606-5.81-5.81-5.81h-28.58
			c-3.313,0-6-2.686-6-6s2.687-6,6-6h28.58c9.82,0,17.81,7.99,17.81,17.81v27.824C208.555,188.277,205.868,190.963,202.555,190.963z
			"/>
		<path style="fill:#333333;" d="M256.831,151.329h-24c-3.313,0-6-2.686-6-6s2.687-6,6-6h24c3.313,0,6,2.686,6,6
			S260.145,151.329,256.831,151.329z"/>
	</g>
	<path style="fill:#FFFFFF;" d="M185.691,150.225c-0.39,0-0.78-0.04-1.17-0.12c-0.38-0.07-0.76-0.19-1.12-0.34
		c-0.36-0.15-0.71-0.33-1.04-0.55c-0.32-0.22-0.63-0.47-0.91-0.75c-1.12-1.11-1.76-2.66-1.76-4.24s0.64-3.12,1.76-4.24
		c0.28-0.28,0.59-0.53,0.91-0.75c0.33-0.21,0.68-0.4,1.04-0.55c0.36-0.15,0.74-0.26,1.12-0.34c0.78-0.16,1.57-0.16,2.35,0
		c0.38,0.08,0.76,0.19,1.12,0.34c0.36,0.15,0.71,0.34,1.04,0.55c0.32,0.22,0.63,0.47,0.91,0.75c0.27,0.28,0.52,0.58,0.74,0.91
		s0.4,0.67,0.55,1.04c0.15,0.36,0.27,0.74,0.35,1.12c0.07,0.39,0.11,0.78,0.11,1.17c0,1.58-0.64,3.13-1.75,4.24
		C188.821,149.584,187.271,150.225,185.691,150.225z"/>
	<path style="fill:#FFFFFF;" d="M267.862,164.027c-3.313,0-6-2.686-6-6v-10.571c0-3.314,2.687-6,6-6s6,2.686,6,6v10.571
		C273.862,161.341,271.176,164.027,267.862,164.027z"/>
</g>
<g>
</g>
<g>
</g>
<g>
</g>
<g>
</g>
<g>
</g>
<g>
</g>
<g>
</g>
<g>
</g>
<g>
</g>
<g>
</g>
<g>
</g>
<g>
</g>
<g>
</g>
<g>
</g>
<g>
</g>
</svg>
