<?xml version="1.0" encoding="iso-8859-1"?>
<!-- Generator: Adobe Illustrator 19.0.0, SVG Export Plug-In . SVG Version: 6.00 Build 0)  -->
<svg version="1.1" id="Layer_1" xmlns="http://www.w3.org/2000/svg" xmlns:xlink="http://www.w3.org/1999/xlink" x="0px" y="0px"
	 viewBox="0 0 419 419" style="enable-background:new 0 0 419 419;" xml:space="preserve">
<g>
	<g>
		<g>
			<circle style="fill:#FFD3AE;" cx="128.927" cy="146" r="27.89"/>
			<circle style="fill:#FFD3AE;" cx="290.062" cy="146" r="27.89"/>
		</g>
		<g>
			<path style="fill:#333333;" d="M128.928,179.89c-18.688,0-33.891-15.203-33.891-33.89s15.203-33.89,33.891-33.89
				c18.687,0,33.89,15.203,33.89,33.89S147.614,179.89,128.928,179.89z M128.928,124.11c-12.07,0-21.891,9.82-21.891,21.89
				s9.82,21.89,21.891,21.89s21.89-9.82,21.89-21.89S140.998,124.11,128.928,124.11z"/>
			<path style="fill:#333333;" d="M290.063,179.89c-18.687,0-33.89-15.203-33.89-33.89s15.203-33.89,33.89-33.89
				s33.89,15.203,33.89,33.89S308.749,179.89,290.063,179.89z M290.063,124.11c-12.07,0-21.89,9.82-21.89,21.89
				s9.819,21.89,21.89,21.89s21.89-9.82,21.89-21.89S302.133,124.11,290.063,124.11z"/>
		</g>
	</g>
	<path style="fill:#F7774B;" d="M258.855,241.97c0.19,0.05,0.39,0.09,0.58,0.14c10.46,2.53,20.19,6.93,28.83,12.81
		c23.39,15.92,38.75,42.77,38.75,73.19V413h-47.04h-140.96h-47.03v-84.89c0-30.42,15.35-57.27,38.74-73.19
		c8.64-5.88,18.37-10.28,28.83-12.81c0.19-0.05,0.39-0.09,0.58-0.14"/>
	<path style="fill:#F7774B;" d="M139.015,289v124h-47.03v-84.89c0-30.42,15.35-57.27,38.74-73.19
		C136.025,265.12,139.015,276.71,139.015,289z"/>
	<path style="fill:#F7774B;" d="M327.015,328.11V413h-47.04V289c0-12.29,2.99-23.88,8.29-34.08
		C311.655,270.84,327.015,297.69,327.015,328.11z"/>
	<path style="fill:#FFD3AE;" d="M259.43,242.11v1.77l-24.17,54.82c-7.52,4.55-16.34,7.16-25.77,7.16c-8.87,0-17.19-2.31-24.4-6.37
		l-4.19-9.51l-21.13-47.92c0.13-0.03,0.25-0.06,0.37-0.09c14.1,9.49,31.08,15.03,49.36,15.03c1.67,0,3.34-0.05,4.99-0.14
		c0.24-0.01,0.48-0.03,0.73-0.04c0.85-0.06,1.71-0.12,2.56-0.2c0.78-0.07,1.56-0.16,2.34-0.25c0.39-0.05,0.78-0.1,1.16-0.15
		c1.1-0.14,2.2-0.31,3.29-0.5c0.53-0.09,1.07-0.19,1.6-0.28c0.03-0.01,0.06-0.02,0.1-0.02c0.51-0.11,1.03-0.21,1.54-0.32
		c0.52-0.11,1.03-0.22,1.54-0.33c0.08-0.02,0.16-0.04,0.24-0.06c0.48-0.11,0.95-0.23,1.43-0.35c1.06-0.26,2.11-0.55,3.16-0.85
		c1.56-0.45,3.11-0.95,4.64-1.49c0.51-0.18,1.02-0.36,1.53-0.55c0.5-0.19,1.01-0.38,1.51-0.58c0.5-0.19,1-0.39,1.49-0.6
		c1-0.41,1.98-0.84,2.96-1.29c0.46-0.21,0.92-0.42,1.38-0.64c0.27-0.13,0.53-0.26,0.79-0.39c0.43-0.21,0.86-0.43,1.29-0.65
		c0.77-0.38,1.52-0.78,2.27-1.2c0.45-0.24,0.91-0.5,1.35-0.76c0.19-0.1,0.37-0.2,0.55-0.31c0.44-0.25,0.87-0.51,1.3-0.77
		c0.89-0.54,1.77-1.09,2.64-1.66c0.33-0.21,0.65-0.43,0.98-0.65C259.04,242.02,259.24,242.06,259.43,242.11z"/>
	<path style="opacity:0.44;fill:#333333;enable-background:new    ;" d="M257.88,242.62c-6.74,12.83-16.55,23.81-28.44,31.95
		c-0.19,0.14-0.4,0.27-0.58,0.4c-13.74,9.25-30.21,14.74-47.96,15.01l-21.13-47.92c0.13-0.03,0.25-0.06,0.37-0.09
		c14.1,9.49,31.08,15.03,49.36,15.03c1.67,0,3.34-0.05,4.99-0.14c0.24-0.01,0.49-0.03,0.73-0.04c0.85-0.06,1.71-0.12,2.56-0.2
		c0.78-0.07,1.56-0.16,2.34-0.25c0.39-0.05,0.77-0.09,1.16-0.15c1.1-0.14,2.2-0.31,3.29-0.5c0.54-0.09,1.07-0.18,1.6-0.28
		c0.03-0.01,0.06-0.02,0.1-0.02c0.51-0.1,1.03-0.21,1.54-0.32c0.52-0.1,1.03-0.22,1.54-0.33c0.08-0.02,0.16-0.04,0.24-0.06
		c0.48-0.11,0.95-0.22,1.43-0.35c1.06-0.26,2.11-0.54,3.16-0.85c1.56-0.45,3.11-0.95,4.64-1.49c0.52-0.17,1.02-0.36,1.53-0.55
		c0.51-0.18,1.01-0.37,1.51-0.58c0.5-0.19,1-0.39,1.49-0.6c1-0.41,1.98-0.84,2.96-1.29c0.46-0.21,0.92-0.42,1.38-0.64
		c0.27-0.13,0.53-0.26,0.79-0.39c0.44-0.21,0.87-0.43,1.29-0.65c0.77-0.38,1.52-0.78,2.27-1.2c0.46-0.25,0.91-0.5,1.35-0.76
		c0.19-0.1,0.37-0.2,0.55-0.31c0.44-0.25,0.87-0.51,1.3-0.77C256.13,243.74,257.01,243.19,257.88,242.62z"/>
	<path style="fill:#FFD3AE;" d="M258.855,241.97c-14.1,9.49-31.08,15.03-49.36,15.03s-35.26-5.54-49.36-15.03
		c-0.19-0.13-0.39-0.26-0.58-0.4c-23.28-15.94-38.56-42.72-38.56-73.07V146V94.5c0-48.877,39.623-88.5,88.5-88.5l0,0
		c48.877,0,88.5,39.623,88.5,88.5V146v22.5c0,30.35-15.28,57.13-38.56,73.07C259.245,241.71,259.045,241.84,258.855,241.97z"/>
	<g>
		<path style="fill:#333333;" d="M209.495,26c4.631,0,9.156,0.462,13.531,1.342"/>
		<path style="fill:#FFFFFF;" d="M223.033,33.343c-0.393,0-0.791-0.039-1.19-0.119C217.805,32.412,213.65,32,209.495,32
			c-3.313,0-6-2.687-6-6s2.687-6,6-6c4.948,0,9.898,0.491,14.715,1.46c3.248,0.654,5.353,3.817,4.698,7.066
			C228.335,31.375,225.831,33.343,223.033,33.343z"/>
	</g>
	<rect x="253.43" y="241.57" style="fill:#333333;" width="12" height="2.31"/>
	<g>
		<path style="fill:#333333;" d="M177.885,166.437c-1.58,0-3.13-0.64-4.24-1.75c-1.12-1.12-1.76-2.67-1.76-4.25s0.64-3.12,1.76-4.24
			c1.39-1.39,3.46-2.03,5.41-1.64c0.39,0.08,0.76,0.19,1.13,0.34c0.36,0.15,0.71,0.34,1.03,0.55c0.33,0.22,0.64,0.47,0.91,0.75
			c0.28,0.28,0.53,0.58,0.75,0.91s0.4,0.68,0.55,1.04c0.15,0.36,0.27,0.74,0.34,1.12c0.08,0.39,0.12,0.78,0.12,1.17
			s-0.04,0.79-0.12,1.18c-0.07,0.38-0.19,0.76-0.34,1.12s-0.33,0.71-0.55,1.03c-0.22,0.33-0.47,0.64-0.75,0.92
			C181.015,165.797,179.465,166.437,177.885,166.437z"/>
		<path style="fill:#333333;" d="M245.885,166.437c-0.39,0-0.79-0.04-1.17-0.11c-0.38-0.08-0.76-0.2-1.12-0.35
			c-0.37-0.15-0.71-0.33-1.04-0.55c-0.33-0.22-0.64-0.47-0.91-0.74c-0.28-0.28-0.53-0.59-0.75-0.92c-0.22-0.32-0.4-0.67-0.55-1.03
			c-0.15-0.36-0.27-0.74-0.34-1.12c-0.08-0.39-0.12-0.79-0.12-1.18s0.04-0.78,0.12-1.17c0.07-0.38,0.19-0.76,0.34-1.12
			s0.33-0.71,0.55-1.04c0.22-0.33,0.47-0.63,0.75-0.91c0.27-0.28,0.58-0.53,0.91-0.75c0.33-0.21,0.67-0.4,1.04-0.55
			c0.36-0.15,0.74-0.26,1.12-0.34c1.95-0.39,4.02,0.25,5.41,1.64c0.28,0.28,0.53,0.58,0.75,0.91s0.4,0.68,0.55,1.04
			c0.15,0.36,0.27,0.74,0.34,1.12c0.08,0.39,0.12,0.78,0.12,1.17s-0.04,0.79-0.12,1.18c-0.07,0.38-0.19,0.76-0.34,1.12
			s-0.33,0.71-0.55,1.03c-0.22,0.33-0.47,0.64-0.75,0.92C249.015,165.797,247.465,166.437,245.885,166.437z"/>
	</g>
	<g>
		<path style="fill:#333333;" d="M202.552,180c-3.313,0-6-2.687-6-6v-16.856c0-3.204-2.606-5.81-5.811-5.81h-28.58
			c-3.313,0-6-2.687-6-6s2.687-6,6-6h28.58c9.82,0,17.811,7.99,17.811,17.81V174C208.552,177.313,205.865,180,202.552,180z"/>
		<path style="fill:#333333;" d="M256.828,151.333h-24c-3.313,0-6-2.687-6-6s2.687-6,6-6h24c3.313,0,6,2.687,6,6
			S260.142,151.333,256.828,151.333z"/>
	</g>
	<g>
		<path style="fill:#333333;" d="M221.495,220h-24c-3.313,0-6-2.687-6-6s2.687-6,6-6h24c3.313,0,6,2.687,6,6
			S224.809,220,221.495,220z"/>
	</g>
	<path style="fill:#333333;" d="M285.975,413h-12V289c0-12.816,3.101-25.558,8.966-36.846l10.648,5.533
		c-5.053,9.724-7.614,20.259-7.614,31.313V413z"/>
	<path style="fill:#FFFFFF;" d="M307.015,395.094c-3.313,0-6-2.687-6-6v-69.188c0-3.313,2.687-6,6-6s6,2.687,6,6v69.188
		C313.015,392.407,310.328,395.094,307.015,395.094z"/>
	<g>
		<path style="opacity:0.44;fill:#333333;enable-background:new    ;" d="M135.665,266.92c-15.21,15.89-24.56,37.45-24.56,61.19V414
			h-19.12v-85.89c0-30.42,15.35-57.27,38.74-73.19C132.705,258.74,134.365,262.75,135.665,266.92z"/>
	</g>
	<path style="fill:#333333;" d="M327.015,419H91.984c-3.313,0-6-2.686-6-6v-84.89c0-31.306,15.463-60.521,41.364-78.15
		c9.417-6.408,19.763-11.008,30.752-13.671c0.131-0.033,0.263-0.064,0.396-0.095l0.121-0.028l3.043,11.607
		c-0.154,0.041-0.313,0.078-0.472,0.115l-0.121,0.028c-0.018,0.004-0.084,0.021-0.102,0.026
		c-9.597,2.321-18.636,6.338-26.865,11.938c-22.615,15.392-36.116,40.898-36.116,68.229V407h223.03v-78.89
		c0-27.327-13.505-52.833-36.126-68.23c-8.229-5.6-17.267-9.617-26.865-11.938c-0.038-0.01-0.076-0.019-0.114-0.029l-0.113-0.026
		c-0.154-0.036-0.309-0.072-0.46-0.111l3.037-11.609l-1.519,5.805l1.513-5.806l0.121,0.028c0.135,0.031,0.269,0.063,0.4,0.096
		c10.991,2.664,21.337,7.264,30.752,13.671c25.907,17.633,41.374,46.848,41.374,78.15V413C333.015,416.314,330.328,419,327.015,419z
		"/>
	<path style="fill:#333333;" d="M145.015,413h-12V289c0-11.054-2.562-21.59-7.614-31.313l10.648-5.533
		c5.865,11.289,8.966,24.03,8.966,36.846V413z"/>
	<g>
		<path style="fill:#333333;" d="M341,419H78.229c-3.313,0-6-2.687-6-6s2.687-6,6-6H341c3.313,0,6,2.687,6,6S344.313,419,341,419z"
			/>
		<path style="fill:#333333;" d="M373,419h-11c-3.313,0-6-2.687-6-6s2.687-6,6-6h11c3.313,0,6,2.687,6,6S376.313,419,373,419z"/>
		<path style="fill:#333333;" d="M57,419H46c-3.313,0-6-2.687-6-6s2.687-6,6-6h11c3.313,0,6,2.687,6,6S60.313,419,57,419z"/>
	</g>
	<path style="opacity:0.44;fill:#333333;enable-background:new    ;" d="M191.135,241.97c10.02,6.74,21.5,11.49,33.86,13.68
		c-5.03,0.89-10.21,1.35-15.5,1.35c-18.28,0-35.26-5.54-49.36-15.03c-0.19-0.13-0.39-0.26-0.58-0.4
		c-23.28-15.94-38.56-42.72-38.56-73.07V146c0-139,54.89-137.301,54.89-134.411l-10.384,15.807
		c-15.364,23.387-15.305,53.174-0.958,76.231c2.423,3.895,10.151,17.294,10.019,20.366c-0.483,11.29-9.201,21.36-21.338,21.975
		c-0.407,0.021-0.817,0.031-1.229,0.031v22.5c0,30.35,15.28,57.13,38.56,73.07C190.745,241.71,190.945,241.84,191.135,241.97z"/>
	<path style="fill:#FFFFFF;" d="M278,197c-3.313,0-6-2.687-6-6v-25c0-3.313,2.687-6,6-6s6,2.687,6,6v25
		C284,194.313,281.313,197,278,197z"/>
	<path style="fill:#603813;" d="M184.139,210.085c-3.251,0-6.521-0.943-9.355-2.884l-3.071-2.101
		c-2.735-1.871-3.436-5.605-1.564-8.34c1.87-2.734,5.604-3.437,8.34-1.564l3.071,2.101c1.895,1.296,4.485,0.992,6.026-0.709
		l1.971-2.174c3.226-3.56,7.818-5.321,12.595-4.836c2.72,0.276,5.232,1.253,7.345,2.807c2.111-1.553,4.625-2.531,7.345-2.807
		c4.776-0.487,9.368,1.278,12.595,4.837l1.969,2.173c1.543,1.702,4.133,2.005,6.028,0.71l3.069-2.101
		c2.735-1.872,6.47-1.17,8.34,1.563c1.872,2.735,1.172,6.469-1.563,8.34l-3.07,2.101c-6.82,4.665-16.147,3.568-21.695-2.555
		l-1.97-2.173c-0.874-0.964-1.937-1.015-2.49-0.957c-0.555,0.057-1.585,0.318-2.246,1.438c-1.315,2.223-3.733,3.602-6.312,3.602
		c-0.002,0-0.002,0-0.004,0c-2.579-0.001-4.996-1.382-6.309-3.603c-0.66-1.118-1.69-1.379-2.245-1.436
		c-0.561-0.057-1.618-0.007-2.491,0.956l-1.97,2.173C193.236,208.223,188.705,210.085,184.139,210.085z"/>
	<path style="fill:#603813;" d="M210,244c-3.313,0-6-2.687-6-6v-9c0-3.313,2.687-6,6-6s6,2.687,6,6v9
		C216,241.313,213.313,244,210,244z"/>
	<g id="XMLID_19_">
		<g>
			<path style="fill:#4CC18E;" d="M235.26,298.7L210,356l-24.91-56.51c7.21,4.06,15.53,6.37,24.4,6.37
				C218.92,305.86,227.74,303.25,235.26,298.7z"/>
		</g>
		<g>
			<path style="fill:#333333;" d="M209.49,311.86c-9.592,0-19.048-2.47-27.345-7.142l5.889-10.456
				c6.503,3.662,13.922,5.598,21.456,5.598c8.022,0,15.859-2.176,22.663-6.293l6.213,10.267
				C229.688,309.084,219.703,311.86,209.49,311.86z"/>
			<path style="fill:#333333;" d="M210,362c-2.378,0-4.531-1.404-5.49-3.58l-50.435-114.394l10.949-4.912l0.22,0.49L210,341.125
				l44.962-101.98l10.977,4.85l-25.188,57.125l-25.26,57.3C214.531,360.596,212.378,362,210,362z"/>
		</g>
	</g>
	<rect x="204" y="356" style="fill:#333333;" width="12" height="58"/>
	<path style="fill:#8C6239;" d="M264.92,97.74c-7.78-2.68-16.72-4.01-26.68-2.71c-18.07,2.36-36.43,2.36-54.5,0
		c-12.07-1.57-22.64,0.72-31.46,4.58c-7.21,3.16-11.78,10.4-11.78,18.28v16.09c0,11.27-8.47,20.63-19.51,21.89V146V94.5
		c0-48.88,39.63-88.5,88.5-88.5h0.01c48.87,0,88.49,39.62,88.49,88.5V146v9.87c-11.03-1.27-19.5-10.63-19.5-21.89l0.01-17.24
		C278.5,108.16,273.04,100.53,264.92,97.74z"/>
	<g style="opacity:0.44;">
		<path style="fill:#333333;" d="M156.667,94.5c0-42.77,30.334-78.45,70.663-86.702C221.569,6.619,215.604,6,209.495,6
			c-48.88,0-88.5,39.62-88.5,88.5c0,0-2.005,68.5,0,68.5c33.005-29.5,13.056-58.313,35.672-65.623L156.667,94.5L156.667,94.5z"/>
	</g>
	<path style="fill:#FFFFFF;" d="M274.166,81.702c-2.674,0-5.111-1.8-5.808-4.509c-3.941-15.344-13.383-28.199-26.587-36.198
		c-0.529-0.32-1.064-0.634-1.605-0.94c-2.884-1.632-3.898-5.293-2.267-8.177c1.632-2.883,5.293-3.898,8.177-2.266
		c0.643,0.364,1.279,0.736,1.91,1.118c15.906,9.635,27.269,25.076,31.995,43.478c0.824,3.209-1.109,6.479-4.319,7.304
		C275.162,81.64,274.659,81.702,274.166,81.702z"/>
	<path style="fill:#333333;" d="M209.49,263c-18.881,0-37.107-5.551-52.711-16.052l-0.173-0.118
		c-0.172-0.115-0.344-0.233-0.513-0.354c-25.739-17.656-41.104-46.799-41.104-77.976v-74c0-52.107,42.393-94.5,94.5-94.5
		c52.112,0,94.5,42.393,94.5,94.5v74c0,31.174-15.363,60.316-41.101,77.973c-0.126,0.091-0.254,0.18-0.381,0.267l-0.139,0.096
		c-0.054,0.039-0.107,0.077-0.162,0.113C246.596,257.45,228.366,263,209.49,263z M209.5,12c-45.5,0-82.51,37.009-82.51,82.5v74
		c0,27.241,13.439,52.707,35.949,68.12c0.054,0.037,0.106,0.074,0.158,0.112c0.072,0.053,0.147,0.102,0.221,0.151l0.201,0.136
		c13.576,9.137,29.485,13.98,45.971,13.98c16.455,0,32.343-4.828,45.954-13.964c0.088-0.062,0.178-0.124,0.269-0.187l0.157-0.108
		c0.053-0.04,0.115-0.083,0.17-0.121c22.511-15.414,35.95-40.879,35.95-68.12v-74C291.99,49.009,254.985,12,209.5,12z"/>
	<path style="fill:#333333;" d="M299.255,161.996c-0.612-0.024-1.247-0.078-1.996-0.17c-14.101-1.623-24.769-13.597-24.769-27.845
		l0.01-17.243c0-6.008-3.83-11.364-9.529-13.322c-7.773-2.678-15.83-3.495-23.954-2.435c-18.598,2.428-37.458,2.428-56.054,0
		c-9.64-1.255-19.154,0.134-28.277,4.126c-4.972,2.179-8.186,7.197-8.186,12.784v16.09c0,14.235-10.635,26.19-24.75,27.842
		c-0.638,0.088-1.296,0.145-2.01,0.173l-0.48-11.99c0.332-0.013,0.63-0.039,0.885-0.075c0.055-0.008,0.11-0.015,0.165-0.021
		c8.09-0.923,14.19-7.771,14.19-15.929v-16.09c0-10.35,6.034-19.683,15.372-23.775c11.152-4.88,22.807-6.575,34.643-5.034
		c17.569,2.294,35.383,2.295,52.948,0c9.98-1.302,19.876-0.298,29.411,2.987c10.541,3.622,17.626,13.538,17.626,24.673l-0.01,17.243
		c0,8.146,6.099,14.995,14.187,15.926c0.372,0.045,0.707,0.082,1.049,0.095L299.255,161.996z"/>
</g>
<g>
</g>
<g>
</g>
<g>
</g>
<g>
</g>
<g>
</g>
<g>
</g>
<g>
</g>
<g>
</g>
<g>
</g>
<g>
</g>
<g>
</g>
<g>
</g>
<g>
</g>
<g>
</g>
<g>
</g>
</svg>
