<?xml version="1.0" encoding="iso-8859-1"?>
<!-- Generator: Adobe Illustrator 19.0.0, SVG Export Plug-In . SVG Version: 6.00 Build 0)  -->
<svg version="1.1" id="Layer_1" xmlns="http://www.w3.org/2000/svg" xmlns:xlink="http://www.w3.org/1999/xlink" x="0px" y="0px"
	 viewBox="0 0 419 419" style="enable-background:new 0 0 419 419;" xml:space="preserve">
<g>
	<path style="fill:#A5CDEF;" d="M258.855,241.968c0.19,0.05,0.39,0.09,0.58,0.14c10.46,2.53,20.19,6.93,28.83,12.81
		c23.39,15.92,38.75,42.77,38.75,73.19v84.89h-47.04h-140.96h-47.03v-84.89c0-30.42,15.35-57.27,38.74-73.19
		c8.64-5.88,18.37-10.28,28.83-12.81c0.19-0.05,0.39-0.09,0.58-0.14"/>
	<path style="fill:#A5CDEF;" d="M139.015,288.998v124h-47.03v-84.89c0-30.42,15.35-57.27,38.74-73.19
		C136.025,265.118,139.015,276.708,139.015,288.998z"/>
	<path style="fill:#A5CDEF;" d="M327.015,328.108v84.89h-47.04v-124c0-12.29,2.99-23.88,8.29-34.08
		C311.655,270.838,327.015,297.688,327.015,328.108z"/>
	<path style="fill:#333333;" d="M285.975,412.998h-12v-124c0-12.816,3.1-25.558,8.966-36.846l10.648,5.533
		c-5.052,9.724-7.614,20.259-7.614,31.313V412.998z"/>
	<path style="fill:#FFFFFF;" d="M307.015,398.998c-3.313,0-6-2.687-6-6v-74.583c0-3.313,2.687-6,6-6s6,2.687,6,6v74.583
		C313.015,396.311,310.328,398.998,307.015,398.998z"/>
	<g>
		<path style="opacity:0.44;fill:#333333;enable-background:new    ;" d="M135.665,266.918c-15.21,15.89-24.56,37.45-24.56,61.19
			v85.522h-19.12v-85.522c0-30.42,15.35-57.27,38.74-73.19C132.705,258.738,134.365,262.748,135.665,266.918z"/>
	</g>
	<g>
		<path style="fill:#333333;" d="M341,418.998H78.23c-3.313,0-6-2.687-6-6s2.687-6,6-6H341c3.313,0,6,2.687,6,6
			S344.313,418.998,341,418.998z"/>
		<path style="fill:#333333;" d="M373,418.998h-11c-3.313,0-6-2.687-6-6s2.687-6,6-6h11c3.313,0,6,2.687,6,6
			S376.313,418.998,373,418.998z"/>
		<path style="fill:#333333;" d="M57,418.998H46c-3.313,0-6-2.687-6-6s2.687-6,6-6h11c3.313,0,6,2.687,6,6
			S60.313,418.998,57,418.998z"/>
	</g>
	<path style="opacity:0.44;fill:#333333;enable-background:new    ;" d="M142.708,248.063l17.626-6.321
		c0.19-0.05,0.39-0.09,0.58-0.14c14.1,9.49,31.08,15.03,49.36,15.03c17.86,0-2.647,12.963-2.647,12.963s-7.792,6.843-16.236,17.648
		c-3.933,5.033-29.019-9.262-29.019-9.262L142.708,248.063z"/>
	<path style="opacity:0.44;fill:#333333;enable-background:new    ;" d="M174.201,295.977c0,0-27.056-18.345-35.186-0.345l-4.797-45
		l8.49-2.569L174.201,295.977z"/>
	<path style="fill:#333333;" d="M145.015,412.998h-12v-124c0-11.055-2.562-21.59-7.614-31.313l10.648-5.533
		c5.865,11.288,8.966,24.029,8.966,36.846V412.998z"/>
	<g>
		<g>
			<circle style="fill:#FFD3AE;" cx="128.932" cy="145.998" r="27.89"/>
			<circle style="fill:#FFD3AE;" cx="290.067" cy="145.998" r="27.89"/>
		</g>
		<g>
			<path style="fill:#333333;" d="M128.932,179.888c-18.687,0-33.89-15.203-33.89-33.89s15.203-33.89,33.89-33.89
				s33.89,15.203,33.89,33.89S147.619,179.888,128.932,179.888z M128.932,124.108c-12.07,0-21.89,9.82-21.89,21.89
				s9.82,21.89,21.89,21.89s21.89-9.82,21.89-21.89C150.822,133.928,141.002,124.108,128.932,124.108z"/>
			<path style="fill:#333333;" d="M290.067,179.888c-18.687,0-33.89-15.203-33.89-33.89s15.203-33.89,33.89-33.89
				s33.89,15.203,33.89,33.89S308.754,179.888,290.067,179.888z M290.067,124.108c-12.07,0-21.89,9.82-21.89,21.89
				s9.82,21.89,21.89,21.89s21.89-9.82,21.89-21.89C311.958,133.928,302.138,124.108,290.067,124.108z"/>
		</g>
	</g>
	<path style="fill:#FFD3AE;" d="M258.86,241.968c-14.1,9.49-31.08,15.03-49.36,15.03s-35.26-5.54-49.36-15.03
		c-0.19-0.13-0.39-0.26-0.58-0.4c-23.28-15.94-38.56-42.72-38.56-73.07v-22.5v-51.5c0-48.877,39.623-88.5,88.5-88.5l0,0
		c48.877,0,88.5,39.623,88.5,88.5v51.5v22.5c0,30.35-15.28,57.13-38.56,73.07C259.25,241.708,259.05,241.838,258.86,241.968z"/>
	<g>
		<path style="fill:#333333;" d="M209.5,25.998c4.631,0,9.156,0.462,13.531,1.342"/>
	</g>
	<path style="fill:#CCA971;" d="M298,146v22.5c0,30.35-15.28,57.13-38.56,73.07c-0.19,0.14-0.39,0.27-0.58,0.4
		c-14.1,9.49-31.08,15.03-49.36,15.03s-35.26-5.54-49.36-15.03c-0.19-0.13-0.39-0.26-0.58-0.4C136.28,225.63,121,198.85,121,168.5
		V146c0,0,1.09,10.42,4.85,22.83c3.77,12.42,10.22,26.82,20.94,34.8c20.02-8.62,41.36-12.93,62.71-12.93s42.69,4.31,62.71,12.93
		C293.65,187.68,298,146,298,146z"/>
	<g>
		<path style="fill:#333333;" d="M177.89,166.434c-1.58,0-3.13-0.64-4.24-1.75c-1.12-1.12-1.76-2.67-1.76-4.25s0.64-3.12,1.76-4.24
			c1.39-1.39,3.46-2.03,5.41-1.64c0.39,0.08,0.76,0.19,1.13,0.34c0.36,0.15,0.71,0.34,1.03,0.55c0.33,0.22,0.64,0.47,0.91,0.75
			c0.28,0.28,0.53,0.58,0.75,0.91s0.4,0.68,0.55,1.04c0.15,0.36,0.27,0.74,0.34,1.12c0.08,0.39,0.12,0.78,0.12,1.17
			s-0.04,0.79-0.12,1.18c-0.07,0.38-0.19,0.76-0.34,1.12s-0.33,0.71-0.55,1.03c-0.22,0.33-0.47,0.64-0.75,0.92
			C181.02,165.794,179.47,166.434,177.89,166.434z"/>
		<path style="fill:#333333;" d="M245.89,166.434c-0.39,0-0.79-0.04-1.17-0.11c-0.38-0.08-0.76-0.2-1.12-0.35
			c-0.37-0.15-0.71-0.33-1.04-0.55c-0.33-0.22-0.64-0.47-0.91-0.74c-0.28-0.28-0.53-0.59-0.75-0.92c-0.22-0.32-0.4-0.67-0.55-1.03
			c-0.15-0.36-0.27-0.74-0.34-1.12c-0.08-0.39-0.12-0.79-0.12-1.18s0.04-0.78,0.12-1.17c0.07-0.38,0.19-0.76,0.34-1.12
			s0.33-0.71,0.55-1.04c0.22-0.33,0.47-0.63,0.75-0.91c0.27-0.28,0.58-0.53,0.91-0.75c0.33-0.21,0.67-0.4,1.04-0.55
			c0.36-0.15,0.74-0.26,1.12-0.34c1.95-0.39,4.02,0.25,5.41,1.64c0.28,0.28,0.53,0.58,0.75,0.91s0.4,0.68,0.55,1.04
			c0.15,0.36,0.27,0.74,0.34,1.12c0.08,0.39,0.12,0.78,0.12,1.17s-0.04,0.79-0.12,1.18c-0.07,0.38-0.19,0.76-0.34,1.12
			s-0.33,0.71-0.55,1.03c-0.22,0.33-0.47,0.64-0.75,0.92C249.02,165.794,247.47,166.434,245.89,166.434z"/>
	</g>
	<g>
		<path style="fill:#333333;" d="M202.557,179.998c-3.313,0-6-2.687-6-6v-16.856c0-3.204-2.606-5.81-5.81-5.81h-28.58
			c-3.313,0-6-2.687-6-6s2.687-6,6-6h28.58c9.82,0,17.81,7.99,17.81,17.81v16.856C208.557,177.311,205.87,179.998,202.557,179.998z"
			/>
		<path style="fill:#333333;" d="M256.833,151.331h-24c-3.313,0-6-2.687-6-6s2.687-6,6-6h24c3.313,0,6,2.687,6,6
			S260.146,151.331,256.833,151.331z"/>
	</g>
	<g>
		<path style="fill:#333333;" d="M221.5,221.63h-19.291c-3.313,0-6-2.687-6-6s2.687-6,6-6H221.5c3.313,0,6,2.687,6,6
			S224.813,221.63,221.5,221.63z"/>
	</g>
	<path style="fill:#CCA971;" d="M298,94.5v29.05c0,0-23.17-33.48-61.25-28.52c-18.07,2.36-36.43,2.36-54.5,0
		C144.17,90.07,121,123.55,121,123.55V94.5C121,45.62,160.62,6,209.5,6c24.44,0,46.57,9.91,62.58,25.92S298,70.06,298,94.5z"/>
	<path style="fill:#FFFFFF;" d="M223.037,33.341c-0.392,0-0.79-0.039-1.189-0.119c-4.039-0.812-8.193-1.224-12.348-1.224
		c-3.313,0-6-2.686-6-6s2.687-6,6-6c4.948,0,9.898,0.491,14.714,1.46c3.249,0.653,5.353,3.817,4.699,7.065
		C228.34,31.372,225.836,33.341,223.037,33.341z"/>
	<g style="opacity:0.44;">
		<path style="fill:#333333;" d="M156.672,94.5c0-42.77,30.334-78.45,70.663-86.702C221.574,6.619,215.609,6,209.5,6
			C160.62,6,121,45.62,121,94.5v29.05c0,0,13.056-18.863,35.672-26.173V94.5z"/>
	</g>
	<path style="fill:#FFFFFF;" d="M274.17,81.702c-2.673,0-5.111-1.8-5.807-4.509c-3.941-15.344-13.383-28.2-26.587-36.198
		c-0.53-0.321-1.064-0.634-1.604-0.939c-2.885-1.631-3.9-5.292-2.269-8.176c1.631-2.885,5.292-3.9,8.176-2.269
		c0.645,0.364,1.282,0.738,1.914,1.121c15.903,9.633,27.265,25.073,31.992,43.476c0.824,3.209-1.109,6.48-4.319,7.304
		C275.167,81.64,274.664,81.702,274.17,81.702z"/>
	<path style="opacity:0.44;fill:#333333;enable-background:new    ;" d="M160.55,96.27c1.18,2.52,2.51,4.97,4,7.36
		c2.42,3.89,10.15,17.29,10.02,20.36c-0.49,11.29-9.2,21.36-21.34,21.98c-0.41,0.02-0.82,0.03-1.23,0.03v22.5
		c0,30.35,15.28,57.13,38.56,73.07c0.19,0.14,0.39,0.27,0.58,0.4c10.02,6.74,21.5,11.49,33.86,13.68
		c-5.03,0.89-10.21,1.35-15.5,1.35c-18.28,0-35.26-5.54-49.36-15.03c-0.19-0.13-0.39-0.26-0.58-0.4
		C136.28,225.63,121,198.85,121,168.5V146c0-8.22,0.19-15.95,0.55-23.21L160.55,96.27z"/>
	<path style="fill:#333333;" d="M146.791,209.63c-1.271,0-2.53-0.403-3.583-1.187c-9.947-7.404-17.719-20.146-23.099-37.87
		c-3.882-12.813-5.029-23.5-5.076-23.949l11.935-1.248c0.01,0.095,1.092,10.053,4.625,21.714
		c4.044,13.323,9.621,23.469,16.236,29.604c19.671-7.961,40.4-11.994,61.671-11.994s42,4.034,61.672,11.995
		c6.612-6.13,12.187-16.275,16.231-29.604c3.56-11.729,4.619-21.616,4.629-21.714l11.936,1.246
		c-0.189,1.809-4.892,44.499-28.177,61.821c-1.718,1.278-3.988,1.543-5.954,0.697c-19.173-8.255-39.474-12.44-60.337-12.44
		s-41.164,4.186-60.337,12.44C148.401,209.469,147.594,209.63,146.791,209.63z"/>
	<path style="fill:#333333;" d="M298.005,129.551c-1.901,0-3.77-0.901-4.935-2.58c-0.921-1.317-21.714-30.397-55.545-25.991
		c-18.595,2.429-37.454,2.429-56.052,0c-34.062-4.438-55.329,25.68-55.54,25.985c-1.886,2.725-5.623,3.406-8.348,1.519
		c-2.725-1.886-3.405-5.623-1.519-8.348c1.031-1.489,25.723-36.426,66.958-31.055c17.568,2.294,35.382,2.295,52.948,0
		c41.232-5.37,65.93,29.565,66.96,31.055c1.886,2.725,1.206,6.462-1.519,8.348C300.373,129.205,299.183,129.551,298.005,129.551z"/>
	<path style="fill:#FFFFFF;" d="M281.457,154.963c-3.313,0-6-2.687-6-6v-16c0-3.313,2.687-6,6-6s6,2.687,6,6v16
		C287.457,152.277,284.77,154.963,281.457,154.963z"/>
	<polygon style="fill:#CCCCCC;" points="231.08,291.71 209.5,313.29 187.92,291.71 209.5,257 	"/>
	<path style="fill:#F2F2F2;" d="M209.5,257l-21.58,34.71l-8.03,12.92l-37.18-56.57c5.35-2.53,10.98-4.53,16.84-5.95
		c0.19-0.05,0.39-0.09,0.58-0.14h0.01C174.24,251.46,191.22,257,209.5,257z"/>
	<path style="fill:#F2F2F2;" d="M276.28,248.07l-37.17,56.56l-8.03-12.92L209.5,257c18.28,0,35.25-5.54,49.35-15.03h0.01
		c0.19,0.05,0.38,0.09,0.57,0.14C265.3,243.53,270.93,245.54,276.28,248.07z"/>
	<path style="fill:#333333;" d="M327.01,419H91.98c-3.314,0-6-2.687-6-6v-84.89c0-31.306,15.463-60.521,41.364-78.15
		c4.103-2.785,8.408-5.248,12.803-7.325c5.734-2.711,11.772-4.847,17.949-6.347c0.131-0.033,0.265-0.065,0.398-0.096l0.122-0.028
		l3.037,11.609c-0.153,0.04-0.309,0.077-0.465,0.113l-0.122,0.028c-0.016,0.004-0.085,0.021-0.102,0.025
		c-5.399,1.309-10.677,3.174-15.688,5.543c-3.837,1.813-7.6,3.966-11.186,6.4c-22.608,15.389-36.109,40.895-36.109,68.226V407
		h223.03v-78.89c0-27.327-13.505-52.833-36.126-68.23c-3.558-2.421-7.313-4.568-11.162-6.382
		c-5.048-2.388-10.329-4.256-15.703-5.557c-0.036-0.008-0.071-0.018-0.107-0.027l-0.146-0.035c-0.143-0.034-0.286-0.068-0.429-0.105
		l3.044-11.607l0.145,0.035c0.119,0.028,0.238,0.057,0.357,0.087c6.154,1.492,12.197,3.631,17.961,6.358
		c4.409,2.077,8.714,4.539,12.791,7.313c25.907,17.633,41.374,46.849,41.374,78.15V413C333.01,416.313,330.323,419,327.01,419z"/>
	<path style="fill:#333333;" d="M179.89,310.63c-2.019,0-3.904-1.015-5.014-2.705l-37.18-56.57l10.028-6.591l32.025,48.726
		l24.655-39.659c1.095-1.761,3.022-2.832,5.096-2.832s4,1.071,5.096,2.832l24.655,39.658l32.015-48.715
		c0.224-0.341,0.483-0.659,0.771-0.947l4.273,4.263l4.984,3.275l-37.17,56.56c-1.125,1.711-3.03,2.739-5.09,2.704
		c-2.047-0.026-3.939-1.094-5.02-2.833L209.5,268.364l-24.514,39.433c-1.081,1.739-2.973,2.807-5.02,2.833
		C179.941,310.63,179.916,310.63,179.89,310.63z"/>
	<path style="fill:#333333;" d="M209.5,263c-18.794,0-36.94-5.5-52.495-15.908c-0.088-0.054-0.176-0.11-0.262-0.169
		c-0.216-0.147-0.432-0.296-0.647-0.453C130.361,228.813,115,199.672,115,168.5v-74C115,42.393,157.393,0,209.5,0
		c25.243,0,48.974,9.829,66.823,27.677C294.171,45.526,304,69.257,304,94.5v74c0,31.174-15.364,60.317-41.101,77.974
		c-0.172,0.124-0.347,0.243-0.521,0.36l-0.131,0.089c-0.085,0.058-0.171,0.114-0.259,0.167C246.432,257.5,228.288,263,209.5,263z
		 M163.313,236.878c0.06,0.037,0.119,0.075,0.177,0.115C177.105,246.156,193.015,251,209.5,251c16.478,0,32.384-4.844,46-14.007
		c0.067-0.045,0.136-0.089,0.205-0.132c0.061-0.041,0.122-0.081,0.181-0.125c0.054-0.04,0.109-0.079,0.165-0.117
		c22.51-15.414,35.95-40.879,35.95-68.12v-74c0-22.038-8.581-42.756-24.163-58.337C252.255,20.581,231.538,12,209.5,12
		C164.009,12,127,49.009,127,94.5v74c0,27.241,13.439,52.706,35.95,68.12c0.056,0.038,0.11,0.077,0.165,0.117
		C163.181,236.785,163.247,236.832,163.313,236.878z"/>
	<path style="fill:#333333;" d="M209.5,319.29c-1.536,0-3.071-0.586-4.243-1.757l-21.58-21.58l8.485-8.485l17.337,17.337
		l17.337-17.337l8.485,8.485l-21.58,21.58C212.571,318.704,211.036,319.29,209.5,319.29z"/>
	<rect x="203.5" y="257" style="fill:#333333;" width="12" height="56.29"/>
</g>
<g>
</g>
<g>
</g>
<g>
</g>
<g>
</g>
<g>
</g>
<g>
</g>
<g>
</g>
<g>
</g>
<g>
</g>
<g>
</g>
<g>
</g>
<g>
</g>
<g>
</g>
<g>
</g>
<g>
</g>
</svg>
