<?xml version="1.0" encoding="iso-8859-1"?>
<!-- Generator: Adobe Illustrator 19.0.0, SVG Export Plug-In . SVG Version: 6.00 Build 0)  -->
<svg version="1.1" id="Layer_1" xmlns="http://www.w3.org/2000/svg" xmlns:xlink="http://www.w3.org/1999/xlink" x="0px" y="0px"
	 viewBox="0 0 441.72 441.72" style="enable-background:new 0 0 441.72 441.72;" xml:space="preserve">
<g>
	<g>
		<g>
			<circle style="fill:#FFD3AE;" cx="140.287" cy="168.72" r="27.89"/>
			<circle style="fill:#FFD3AE;" cx="301.422" cy="168.72" r="27.89"/>
		</g>
		<g>
			<path style="fill:#333333;" d="M140.287,202.61c-18.687,0-33.89-15.203-33.89-33.89s15.203-33.89,33.89-33.89
				c18.687,0,33.89,15.203,33.89,33.89S158.974,202.61,140.287,202.61z M140.287,146.83c-12.07,0-21.89,9.82-21.89,21.89
				s9.82,21.89,21.89,21.89c12.07,0,21.89-9.82,21.89-21.89S152.357,146.83,140.287,146.83z"/>
			<path style="fill:#333333;" d="M301.422,202.61c-18.687,0-33.89-15.203-33.89-33.89s15.203-33.89,33.89-33.89
				s33.89,15.203,33.89,33.89S320.109,202.61,301.422,202.61z M301.422,146.83c-12.07,0-21.89,9.82-21.89,21.89
				s9.82,21.89,21.89,21.89s21.89-9.82,21.89-21.89S313.492,146.83,301.422,146.83z"/>
		</g>
	</g>
	<path style="fill:#C5DB75;" d="M270.215,264.69c0.19,0.05,0.39,0.09,0.58,0.14c10.46,2.53,20.19,6.93,28.83,12.81
		c23.39,15.92,38.75,42.77,38.75,73.19v84.89h-47.04h-140.96h-47.03v-84.89c0-30.42,15.35-57.27,38.74-73.19
		c8.64-5.88,18.37-10.28,28.83-12.81c0.19-0.05,0.39-0.09,0.58-0.14"/>
	<path style="fill:#FFD3AE;" d="M150.375,311.72v124h-47.03v-84.89c0-30.42,15.35-57.27,38.74-73.19
		C147.385,287.84,150.375,299.43,150.375,311.72z"/>
	<path style="fill:#FFD3AE;" d="M338.375,350.83v84.89h-47.04v-124c0-12.29,2.99-23.88,8.29-34.08
		C323.015,293.56,338.375,320.41,338.375,350.83z"/>
	<path style="fill:#FFD3AE;" d="M270.215,264.69c-14.1,9.49-31.08,15.03-49.36,15.03s-35.26-5.54-49.36-15.03
		c-0.19-0.13-0.39-0.26-0.58-0.4c-23.28-15.94-38.56-42.72-38.56-73.07v-22.5v-51.5c0-48.877,39.623-88.5,88.5-88.5l0,0
		c48.877,0,88.5,39.623,88.5,88.5v51.5v22.5c0,30.35-15.28,57.13-38.56,73.07C270.605,264.43,270.405,264.56,270.215,264.69z"/>
	<g>
		<path style="fill:#F7774B;" d="M220.854,238.729c-4.869,0-9.738-0.513-14.573-1.538c-3.242-0.688-5.312-3.873-4.625-7.114
			c0.687-3.241,3.871-5.312,7.114-4.625c8.018,1.7,16.148,1.7,24.167,0c3.241-0.687,6.426,1.383,7.114,4.625
			c0.687,3.242-1.383,6.427-4.625,7.114C230.593,238.217,225.724,238.729,220.854,238.729z"/>
	</g>
	<g style="opacity:0.44;">
		<path style="fill:#333333;" d="M221.36,251.72h-1.01c-2.209,0-4-1.791-4-4s1.791-4,4-4h1.01c2.209,0,4,1.791,4,4
			S223.569,251.72,221.36,251.72z"/>
	</g>
	<g>
		<g>
			<path style="fill:#333333;" d="M276.328,163.134c-0.453,0-0.912-0.052-1.372-0.159c-7.917-1.853-16.286-1.853-24.203,0
				c-3.222,0.756-6.454-1.249-7.209-4.476s1.249-6.454,4.476-7.209c9.705-2.271,19.964-2.271,29.669,0
				c3.227,0.755,5.23,3.982,4.476,7.209C281.518,161.266,279.052,163.133,276.328,163.134z"/>
		</g>
	</g>
	<path style="fill:#C5DB75;" d="M338.375,350.83v19.89h-45.7h-1.34v-59c0-12.29,2.99-23.88,8.29-34.08
		C323.015,293.56,338.375,320.41,338.375,350.83z"/>
	<path style="fill:#C5DB75;" d="M150.375,311.72v59h-47.03v-19.89c0-30.42,15.35-57.27,38.74-73.19
		C147.385,287.84,150.375,299.43,150.375,311.72z"/>
	<path style="fill:#333333;" d="M297.334,435.72h-12v-124c0-12.816,3.1-25.558,8.966-36.846l10.648,5.533
		c-5.052,9.724-7.614,20.259-7.614,31.313V435.72z"/>
	<rect x="292.675" y="364.72" style="fill:#333333;" width="47.03" height="12"/>
	<path style="fill:#FFFFFF;" d="M318.375,421.72c-3.313,0-6-2.687-6-6v-27c0-3.313,2.687-6,6-6s6,2.687,6,6v27
		C324.375,419.033,321.688,421.72,318.375,421.72z"/>
	<path style="fill:#FFFFFF;" d="M290.36,208.72c-3.313,0-6-2.687-6-6v-27c0-3.313,2.687-6,6-6s6,2.687,6,6v27
		C296.36,206.033,293.673,208.72,290.36,208.72z"/>
	<g>
		<path style="opacity:0.44;fill:#333333;enable-background:new    ;" d="M147.025,289.64c-15.21,15.89-24.56,37.45-24.56,61.19
			v82.89h-19.12v-82.89c0-30.42,15.35-57.27,38.74-73.19C144.065,281.46,145.725,285.47,147.025,289.64z"/>
	</g>
	<path style="fill:#333333;" d="M338.375,441.72h-235.03c-3.314,0-6-2.687-6-6v-84.89c0-31.306,15.463-60.521,41.364-78.15
		c9.416-6.408,19.761-11.007,30.75-13.671c0.131-0.034,0.265-0.065,0.399-0.096l0.122-0.028l3.037,11.609
		c-0.153,0.04-0.309,0.077-0.465,0.113l-0.122,0.028c-0.017,0.004-0.087,0.022-0.104,0.026c-9.597,2.321-18.636,6.338-26.865,11.938
		c-22.614,15.393-36.115,40.899-36.115,68.229v78.89h223.03v-78.89c0-27.327-13.505-52.833-36.126-68.23
		c-8.229-5.6-17.267-9.617-26.865-11.938c-0.037-0.009-0.074-0.019-0.111-0.028l-0.116-0.027c-0.156-0.036-0.312-0.073-0.464-0.113
		l3.038-11.609l0.122,0.028c0.134,0.031,0.267,0.063,0.398,0.096c10.99,2.664,21.335,7.263,30.75,13.67
		c25.907,17.634,41.374,46.849,41.374,78.15v84.89C344.375,439.033,341.688,441.72,338.375,441.72z"/>
	<path style="fill:#333333;" d="M156.375,435.72h-12v-124c0-11.055-2.562-21.59-7.614-31.313l10.648-5.533
		c5.865,11.288,8.966,24.029,8.966,36.847V435.72z"/>
	<rect x="103.345" y="364.72" style="fill:#333333;" width="47.03" height="12"/>
	<g>
		<path style="fill:#333333;" d="M352.36,441.72H89.59c-3.313,0-6-2.687-6-6s2.687-6,6-6h262.77c3.313,0,6,2.687,6,6
			S355.673,441.72,352.36,441.72z"/>
		<path style="fill:#333333;" d="M384.36,441.72h-11c-3.313,0-6-2.687-6-6s2.687-6,6-6h11c3.313,0,6,2.687,6,6
			S387.673,441.72,384.36,441.72z"/>
		<path style="fill:#333333;" d="M68.36,441.72h-11c-3.313,0-6-2.687-6-6s2.687-6,6-6h11c3.313,0,6,2.687,6,6
			S71.673,441.72,68.36,441.72z"/>
	</g>
	<path style="opacity:0.44;fill:#333333;enable-background:new    ;" d="M202.495,264.69c10.02,6.74,21.5,11.49,33.86,13.68
		c-5.03,0.89-10.21,1.35-15.5,1.35c-18.28,0-35.26-5.54-49.36-15.03c-0.19-0.13-0.39-0.26-0.58-0.4
		c-23.28-15.94-38.56-42.72-38.56-73.07v-22.5c0-139,54.89-137.301,54.89-134.411l-10.384,15.807
		c-15.364,23.387-15.305,53.174-0.958,76.231c2.423,3.895,10.151,17.294,10.019,20.366c-0.483,11.29-9.201,21.36-21.338,21.975
		c-0.407,0.021-0.817,0.031-1.229,0.031v22.5c0,30.35,15.28,57.13,38.56,73.07C202.105,264.43,202.305,264.56,202.495,264.69z"/>
	<g>
		<g>
			<g>
				<g>
					<circle style="fill:#333333;" cx="186.515" cy="179.836" r="8.009"/>
				</g>
				<path style="fill:#333333;" d="M171.185,186.927c-1.533,0-3.065-0.583-4.237-1.751c-2.346-2.34-2.352-6.139-0.012-8.485
					c6.152-6.17,15.546-7.745,23.375-3.919c2.978,1.455,4.211,5.048,2.756,8.025c-1.455,2.977-5.047,4.212-8.025,2.756
					c-3.218-1.572-7.08-0.926-9.609,1.611C174.262,186.339,172.723,186.927,171.185,186.927z"/>
			</g>
		</g>
		<g>
			<g>
				<g>
					<circle style="fill:#333333;" cx="255.194" cy="179.836" r="8.009"/>
				</g>
				<path style="fill:#333333;" d="M270.524,186.927c-1.539,0-3.077-0.588-4.249-1.764c-2.528-2.536-6.392-3.184-9.608-1.611
					c-2.977,1.457-6.57,0.222-8.025-2.756s-0.221-6.57,2.756-8.025c7.831-3.826,17.224-2.25,23.375,3.919
					c2.339,2.347,2.334,6.146-0.013,8.485C273.589,186.344,272.057,186.927,270.524,186.927z"/>
			</g>
		</g>
	</g>
	<g>
		<path style="fill:#333333;" d="M213.911,211.72c-3.313,0-6-2.687-6-6v-32.927c0-2.734-1.479-5.177-3.858-6.375
			c-7.192-3.621-19.524-7.153-37.439-3.412c-3.243,0.677-6.422-1.403-7.1-4.647c-0.677-3.244,1.403-6.422,4.647-7.1
			c21.305-4.448,36.388-0.041,45.289,4.441c6.453,3.249,10.462,9.799,10.462,17.093v32.927
			C219.911,209.033,217.225,211.72,213.911,211.72z"/>
	</g>
	<path style="fill:#F7774B;" d="M223.054,6h-4.598c-50.196,0-90.887,40.692-90.887,90.887l0,0
		c0,50.855,17.829,100.101,50.386,139.169l11.386,13.663l0.006-56.107c0.004-35.828,20.248-68.58,52.294-84.603l0,0
		c11.274-5.637,20.516-14.633,26.453-25.752c0.199-0.373,0.401-0.751,0.605-1.132C287.104,47.656,262.13,6,223.054,6z"/>
	<path style="opacity:0.44;fill:#333333;enable-background:new    ;" d="M170.348,170.89c4.97,13.74,11.33,26.97,19,39.49
		l-0.01,39.34l-11.38-13.66c-16.28-19.54-28.88-41.62-37.41-65.17c-8.52-23.55-12.98-48.57-12.98-74c0-50.2,40.69-90.89,90.89-90.89
		h4.6c3.78,0,7.42,0.39,10.91,1.12c-43.42,6.85-76.61,44.43-76.61,89.77C157.358,122.32,161.818,147.34,170.348,170.89z"/>
	<path style="fill:#333333;" d="M189.342,255.72c-1.747,0-3.448-0.764-4.61-2.159l-11.386-13.664
		c-33.389-40.067-51.777-90.855-51.777-143.01C121.568,43.464,165.032,0,218.456,0h4.598c20.477,0,38.99,10.485,49.522,28.047
		c10.533,17.565,11.063,38.838,1.417,56.905l-0.605,1.133c-6.557,12.28-16.607,22.064-29.062,28.292
		c-30.207,15.103-48.974,45.465-48.978,79.236l-0.006,56.107c0,2.526-1.583,4.781-3.958,5.641
		C190.715,255.603,190.025,255.72,189.342,255.72z M218.456,12c-46.807,0-84.887,38.081-84.887,84.888
		c0,49.353,17.4,97.413,48.996,135.327l0.779,0.935l0.004-39.537c0.004-38.346,21.313-72.82,55.611-89.969
		c10.219-5.109,18.464-13.136,23.843-23.211l0.606-1.135c7.641-14.31,7.221-31.163-1.124-45.078
		C253.941,20.306,239.275,12,223.054,12H218.456z"/>
	<path style="fill:#FFFFFF;" d="M213.578,111.72c-1.76,0-3.503-0.77-4.688-2.25c-2.071-2.587-1.652-6.363,0.935-8.434
		c6.516-5.216,13.61-9.755,21.084-13.492c6.863-3.432,12.401-8.823,16.015-15.59l0.603-1.13c4.636-8.683,4.382-18.906-0.68-27.347
		c-1.705-2.842-0.782-6.527,2.06-8.231c2.844-1.705,6.528-0.781,8.231,2.06c7.25,12.091,7.615,26.733,0.975,39.169l-0.604,1.13
		c-4.792,8.974-12.135,16.122-21.234,20.672c-6.719,3.359-13.096,7.439-18.952,12.127C216.217,111.29,214.893,111.72,213.578,111.72
		z"/>
	<path style="fill:#FFFFFF;" d="M231.364,31.017c-0.481,0-0.971-0.059-1.459-0.181c-2.22-0.555-4.525-0.836-6.85-0.836
		c-3.313,0-6-2.687-6-6s2.687-6,6-6c3.305,0,6.589,0.402,9.76,1.195c3.215,0.804,5.169,4.061,4.366,7.276
		C236.499,29.197,234.052,31.017,231.364,31.017z"/>
	<path style="fill:#333333;" d="M281.357,107.72c-1.405,0-2.816-0.491-3.955-1.49c-2.489-2.184-2.738-5.97-0.558-8.461
		c3.518-4.036,12.447-16.848,11.537-27.54c-0.281-3.302,2.168-6.206,5.47-6.487c3.3-0.273,6.207,2.168,6.487,5.47
		c1.532,18.006-13.815,35.721-14.469,36.466C284.684,107.029,283.025,107.72,281.357,107.72z"/>
	<path style="fill:#333333;" d="M292.27,129.72c-1.405,0-2.816-0.491-3.955-1.49c-2.489-2.184-2.737-5.97-0.558-8.461
		c3.518-4.036,12.447-16.848,11.537-27.54c-0.281-3.302,2.168-6.206,5.47-6.487c3.306-0.279,6.206,2.168,6.487,5.47
		c1.532,18.006-13.815,35.721-14.469,36.466C295.596,129.029,293.937,129.72,292.27,129.72z"/>
	<path style="fill:#333333;" d="M296.27,159.72c-1.405,0-2.816-0.491-3.955-1.49c-2.489-2.184-2.737-5.97-0.558-8.461
		c3.518-4.036,12.447-16.848,11.537-27.54c-0.281-3.302,2.168-6.206,5.47-6.487c3.305-0.276,6.206,2.168,6.487,5.47
		c1.532,18.006-13.815,35.721-14.469,36.466C299.596,159.029,297.937,159.72,296.27,159.72z"/>
	<path style="fill:#333333;" d="M161.38,156.719c-0.105,0-0.211-0.002-0.317-0.008c-3.309-0.172-5.852-2.995-5.679-6.304
		c0.33-6.325,1.512-11.765,3.514-16.17c1.372-3.017,4.928-4.351,7.945-2.979c3.017,1.371,4.351,4.928,2.979,7.945
		c-1.378,3.031-2.204,7.011-2.456,11.829C167.2,154.234,164.55,156.719,161.38,156.719z"/>
	<path style="fill:#333333;" d="M185.363,249.721c-2.303,0-4.5-1.333-5.491-3.576c-0.759-1.716-18.636-42.424-23.423-76.593
		c-0.46-3.282,1.828-6.315,5.109-6.774c3.283-0.462,6.315,1.828,6.774,5.109c4.552,32.492,22.336,73.002,22.515,73.407
		c1.339,3.031-0.032,6.574-3.063,7.913C186.997,249.556,186.173,249.721,185.363,249.721z"/>
	<path style="fill:#333333;" d="M255.334,411.72h-68.96c-23.159,0-42-18.841-42-42h12c0,16.542,13.458,30,30,30h68.96
		c16.542,0,30-13.458,30-30h12C297.334,392.878,278.493,411.72,255.334,411.72z"/>
	<path style="fill:#FFFFFF;" d="M255.335,393.72c-3.313,0-6-2.687-6-6s2.687-6,6-6c6.617,0,12-5.383,12-12c0-3.313,2.687-6,6-6
		s6,2.687,6,6C279.335,382.954,268.569,393.72,255.335,393.72z"/>
	<path style="fill:#FFD3AE;" d="M262.86,269.14v51.94c0,14.71-11.93,26.64-26.64,26.64H205.5c-14.71,0-26.64-11.93-26.64-26.64
		v-51.94c12.5,6.75,26.8,10.58,41.99,10.58C236.06,279.72,250.36,275.89,262.86,269.14z"/>
	<path style="fill:#333333;" d="M220.85,285.72c-15.645,0-31.15-3.908-44.841-11.301c-2.617-1.406-5.264-3.006-7.857-4.75
		c-0.215-0.139-0.478-0.315-0.734-0.505c-25.717-17.664-41.068-46.792-41.068-77.944v-49h12v49c0,27.236,13.443,52.702,35.959,68.12
		c0.098,0.067,0.193,0.136,0.286,0.208c0.029,0.019,0.103,0.065,0.176,0.112c2.343,1.574,4.648,2.969,6.929,4.194
		c11.955,6.456,25.489,9.865,39.149,9.865c13.673,0,27.215-3.409,39.159-9.859c2.271-1.221,4.555-2.601,6.801-4.108
		c0.108-0.076,0.221-0.152,0.335-0.229l0.118-0.08c0.054-0.04,0.092-0.066,0.148-0.104c22.511-15.414,35.95-40.879,35.95-68.12v-74
		c0-26.404-12.186-50.58-33.433-66.33l7.146-9.641c23.975,17.771,38.288,46.171,38.288,75.97v74
		c0,31.176-15.366,60.32-41.106,77.977c-0.14,0.1-0.284,0.198-0.426,0.293l-0.106,0.072c-0.03,0.021-0.124,0.086-0.154,0.106
		c-2.592,1.743-5.239,3.343-7.867,4.755C252.02,281.812,236.507,285.72,220.85,285.72z"/>
	<path style="fill:#333333;" d="M236.22,353.72H205.5c-17.998,0-32.64-14.642-32.64-32.64v-51.94h12v51.94
		c0,11.381,9.259,20.64,20.64,20.64h30.72c11.381,0,20.64-9.259,20.64-20.64v-51.94h12v51.94
		C268.86,339.078,254.218,353.72,236.22,353.72z"/>
	<path style="fill:#333333;" d="M220.86,353.72c-3.313,0-6-2.687-6-6v-15c0-3.313,2.687-6,6-6c3.313,0,6,2.687,6,6v15
		C226.86,351.033,224.173,353.72,220.86,353.72z"/>
	<path style="opacity:0.44;fill:#333333;enable-background:new    ;" d="M266.68,265.34c-1.18,2.25-2.45,4.44-3.82,6.56
		c-6.42,10.03-14.81,18.67-24.62,25.39c-0.19,0.14-0.39,0.27-0.58,0.4c-14.1,9.49-31.08,15.03-49.36,15.03
		c-5.24,0-6.11-4.72-9.44-7.26v-34.99c11.87,5.92,25.27,9.25,39.44,9.25C236.16,279.72,252.78,274.43,266.68,265.34z"/>
</g>
<g>
</g>
<g>
</g>
<g>
</g>
<g>
</g>
<g>
</g>
<g>
</g>
<g>
</g>
<g>
</g>
<g>
</g>
<g>
</g>
<g>
</g>
<g>
</g>
<g>
</g>
<g>
</g>
<g>
</g>
</svg>
