<?xml version="1.0" encoding="iso-8859-1"?>
<!-- Generator: Adobe Illustrator 19.0.0, SVG Export Plug-In . SVG Version: 6.00 Build 0)  -->
<svg version="1.1" id="Layer_1" xmlns="http://www.w3.org/2000/svg" xmlns:xlink="http://www.w3.org/1999/xlink" x="0px" y="0px"
	 viewBox="0 0 419 419" style="enable-background:new 0 0 419 419;" xml:space="preserve">
<g>
	<path style="fill:#9AA5B2;" d="M258.855,241.97c0.19,0.05,0.39,0.09,0.58,0.14c10.46,2.53,20.19,6.93,28.83,12.81
		c23.39,15.92,38.75,42.77,38.75,73.19V413h-47.04h-140.96h-47.03v-84.89c0-30.42,15.35-57.27,38.74-73.19
		c8.64-5.88,18.37-10.28,28.83-12.81c0.19-0.05,0.39-0.09,0.58-0.14"/>
	<path style="fill:#9AA5B2;" d="M139.015,289v124h-47.03v-84.89c0-30.42,15.35-57.27,38.74-73.19
		C136.025,265.12,139.015,276.71,139.015,289z"/>
	<path style="fill:#778593;" d="M259.435,221.54v13.808c0,27.58-22.36,49.94-49.94,49.94s-49.94-22.36-49.94-49.94V221.54
		c0.19-0.05,0.39-0.09,0.58-0.14c14.1,9.49,31.08,15.03,49.36,15.03s35.26-5.54,49.36-15.03
		C259.045,221.45,259.245,221.49,259.435,221.54z"/>
	<path style="fill:#9AA5B2;" d="M327.015,328.11V413h-47.04V289c0-12.29,2.99-23.88,8.29-34.08
		C311.655,270.84,327.015,297.69,327.015,328.11z"/>
	<path style="fill:#333333;" d="M209.495,291.288c-30.845,0-55.94-25.095-55.94-55.94V221h12v14.348
		c0,24.229,19.711,43.94,43.94,43.94s43.94-19.711,43.94-43.94V221h12v14.348C265.435,266.193,240.34,291.288,209.495,291.288z"/>
	<path style="fill:#FFD3AE;" d="M298,94.5v74c0,15.81-4.15,30.66-11.42,43.5c-6.67,11.81-15.99,21.93-27.14,29.57
		c-0.19,0.14-0.4,0.27-0.58,0.4c-14.1,9.49-31.08,15.03-49.36,15.03s-35.26-5.54-49.36-15.03c-0.2-0.13-0.4-0.26-0.58-0.4
		c-11.15-7.64-20.47-17.76-27.14-29.57c-7.27-12.84-11.42-27.69-11.42-43.5v-74C121,45.62,160.62,6,209.49,6h0.01
		C258.37,6,298,45.62,298,94.5z"/>
	<g>
		<path style="fill:#333333;" d="M177.885,166.437c-1.58,0-3.13-0.64-4.24-1.75c-1.12-1.12-1.76-2.67-1.76-4.25s0.64-3.12,1.76-4.24
			c1.39-1.39,3.46-2.03,5.41-1.64c0.39,0.08,0.76,0.19,1.13,0.34c0.36,0.15,0.71,0.34,1.03,0.55c0.33,0.22,0.64,0.47,0.91,0.75
			c0.28,0.28,0.53,0.58,0.75,0.91s0.4,0.68,0.55,1.04c0.15,0.36,0.27,0.74,0.34,1.12c0.08,0.39,0.12,0.78,0.12,1.17
			s-0.04,0.79-0.12,1.18c-0.07,0.38-0.19,0.76-0.34,1.12s-0.33,0.71-0.55,1.03c-0.22,0.33-0.47,0.64-0.75,0.92
			C181.015,165.797,179.465,166.437,177.885,166.437z"/>
		<path style="fill:#333333;" d="M245.885,166.437c-0.39,0-0.79-0.04-1.17-0.11c-0.38-0.08-0.76-0.2-1.12-0.35
			c-0.37-0.15-0.71-0.33-1.04-0.55c-0.33-0.22-0.64-0.47-0.91-0.74c-0.28-0.28-0.53-0.59-0.75-0.92c-0.22-0.32-0.4-0.67-0.55-1.03
			c-0.15-0.36-0.27-0.74-0.34-1.12c-0.08-0.39-0.12-0.79-0.12-1.18s0.04-0.78,0.12-1.17c0.07-0.38,0.19-0.76,0.34-1.12
			s0.33-0.71,0.55-1.04c0.22-0.33,0.47-0.63,0.75-0.91c0.27-0.28,0.58-0.53,0.91-0.75c0.33-0.21,0.67-0.4,1.04-0.55
			c0.36-0.15,0.74-0.26,1.12-0.34c1.95-0.39,4.02,0.25,5.41,1.64c0.28,0.28,0.53,0.58,0.75,0.91s0.4,0.68,0.55,1.04
			c0.15,0.36,0.27,0.74,0.34,1.12c0.08,0.39,0.12,0.78,0.12,1.17s-0.04,0.79-0.12,1.18c-0.07,0.38-0.19,0.76-0.34,1.12
			s-0.33,0.71-0.55,1.03c-0.22,0.33-0.47,0.64-0.75,0.92C249.015,165.797,247.465,166.437,245.885,166.437z"/>
	</g>
	<g>
		<path style="fill:#333333;" d="M221.495,215.333h-24c-3.313,0-6-2.687-6-6s2.687-6,6-6h24c3.313,0,6,2.687,6,6
			S224.809,215.333,221.495,215.333z"/>
	</g>
	<path style="fill:#FFFFFF;" d="M307.015,399c-3.313,0-6-2.687-6-6v-54c0-3.313,2.687-6,6-6s6,2.687,6,6v54
		C313.015,396.313,310.328,399,307.015,399z"/>
	<path style="fill:#FFFFFF;" d="M307.015,326c-3.313,0-6-2.687-6-6v-8c0-3.313,2.687-6,6-6s6,2.687,6,6v8
		C313.015,323.313,310.328,326,307.015,326z"/>
	<g>
		<path style="opacity:0.44;fill:#333333;enable-background:new    ;" d="M135.665,266.92c-15.21,15.89-24.56,37.45-24.56,61.19V411
			h-19.12v-82.89c0-30.42,15.35-57.27,38.74-73.19C132.705,258.74,134.365,262.75,135.665,266.92z"/>
	</g>
	<g>
		<path style="fill:#333333;" d="M341,419H78.23c-3.313,0-6-2.687-6-6s2.687-6,6-6H341c3.313,0,6,2.687,6,6S344.314,419,341,419z"/>
		<path style="fill:#333333;" d="M373,419h-11c-3.313,0-6-2.687-6-6s2.687-6,6-6h11c3.313,0,6,2.687,6,6S376.314,419,373,419z"/>
		<path style="fill:#333333;" d="M57,419H46c-3.313,0-6-2.687-6-6s2.687-6,6-6h11c3.313,0,6,2.687,6,6S60.313,419,57,419z"/>
	</g>
	<path style="opacity:0.44;fill:#333333;enable-background:new    ;" d="M294.267,194h-32.779c-1.654,0.636-3.443,1-5.319,1h-93.35
		c-1.878,0-3.667-0.363-5.32-1h-1.765c-2.427-8.076-3.739-16.634-3.739-25.5V146c0.412,0,0.822-0.01,1.229-0.031
		c12.136-0.615,20.854-10.685,21.338-21.975c0.132-3.072-7.596-16.472-10.019-20.366c-14.347-23.058-14.405-52.845,0.958-76.231
		l10.384-15.807c0-2.89-54.89-4.589-54.89,134.411v22.5c0,8.866,1.313,17.424,3.739,25.5h-0.001
		c0.014,0.048,0.031,0.095,0.045,0.143c5.897,19.507,18.338,36.172,34.777,47.427c0.19,0.14,0.39,0.27,0.58,0.4
		c14.1,9.49,31.08,15.03,49.36,15.03c5.29,0,10.47-0.46,15.5-1.35c-12.36-2.19-23.84-6.94-33.86-13.68
		c-0.19-0.13-0.39-0.26-0.58-0.4c-6.663-4.562-12.668-10.014-17.848-16.183c-4.855-5.783-1.58-14.654,5.87-15.879L279,193
		C282.194,187.358,292.365,200.328,294.267,194z"/>
	<path style="fill:#9AA5B2;" d="M298,146v22.5c0,8.14-1.1,16.02-3.16,23.5H124.16c-2.06-7.48-3.16-15.36-3.16-23.5V146V94.5
		C121,45.62,160.62,6,209.49,6h0.01C258.37,6,298,45.62,298,94.5V146z M271,160.17c0-8.2-6.64-14.84-14.83-14.84h-93.35
		c-4.1,0-7.8,1.66-10.49,4.35c-2.68,2.68-4.34,6.39-4.34,10.49c0,8.19,6.64,14.83,14.83,14.83h93.35c4.09,0,7.8-1.66,10.49-4.34
		C269.34,167.97,271,164.26,271,160.17z"/>
	<path style="opacity:0.44;fill:#333333;enable-background:new    ;" d="M153,149.06V94.5c0-43.42,31.26-79.53,72.5-87.06
		C220.31,6.49,214.96,6,209.5,6h-0.01C160.62,6,121,45.62,121,94.5v74c0,8.14,1.1,16.02,3.16,23.5h32
		c-1.82-6.61-2.89-13.54-3.12-20.68c-3.1-2.72-5.05-6.71-5.05-11.15c0-4.1,1.66-7.81,4.34-10.49
		C152.55,149.47,152.77,149.26,153,149.06z"/>
	<path style="fill:#333333;" d="M209.5,263c-18.88,0-37.107-5.551-52.71-16.052c-0.227-0.147-0.483-0.32-0.73-0.502
		c-18.417-12.652-31.799-31.419-37.685-52.856c-2.24-8.13-3.375-16.572-3.375-25.09v-74C115,42.393,157.388,0,209.49,0
		C261.608,0,304,42.393,304,94.5v74c0,8.514-1.136,16.956-3.374,25.089l0,0c-5.892,21.455-19.29,40.234-37.729,52.886
		c-0.142,0.102-0.288,0.201-0.433,0.298l-0.106,0.072c-0.028,0.02-0.119,0.084-0.147,0.103C246.607,257.449,228.38,263,209.5,263z
		 M209.5,12C164.005,12,127,49.009,127,94.5v74c0,7.441,0.991,14.812,2.945,21.907c5.149,18.752,16.87,35.163,33.006,46.213
		c0.097,0.066,0.192,0.136,0.285,0.208l0.163,0.104c0.024,0.016,0.068,0.044,0.091,0.061C177.106,246.156,193.015,251,209.5,251
		c16.46,0,32.347-4.829,45.949-13.966c0.108-0.076,0.221-0.152,0.334-0.229l0.116-0.079c0.056-0.041,0.094-0.067,0.15-0.106
		c16.136-11.051,27.857-27.461,33.005-46.209c0.001-0.001,0.001-0.002,0.001-0.004C291.009,183.311,292,175.94,292,168.5v-74
		C292,49.009,254.99,12,209.5,12z"/>
	<path style="fill:#FFFFFF;" d="M274.418,73.002c-2.334,0-4.554-1.37-5.524-3.653c-6.783-15.952-19.933-28.704-36.074-34.987
		c-3.089-1.202-4.617-4.679-3.416-7.768c1.203-3.089,4.685-4.615,7.768-3.415c19.137,7.448,34.725,22.564,42.766,41.473
		c1.297,3.049-0.124,6.573-3.174,7.87C275.997,72.848,275.201,73.002,274.418,73.002z"/>
	<path style="fill:#FFFFFF;" d="M217.008,30.397c-0.213,0-0.426-0.011-0.642-0.034c-2.27-0.241-4.583-0.363-6.876-0.363
		c-3.313,0-6-2.687-6-6s2.687-6,6-6c2.715,0,5.456,0.145,8.144,0.431c3.295,0.35,5.683,3.305,5.333,6.6
		C222.64,28.11,220.036,30.397,217.008,30.397z"/>
	<rect x="124.16" y="186" style="fill:#333333;" width="170.68" height="12"/>
	<path style="opacity:0.44;fill:#333333;enable-background:new    ;" d="M271,160.17c0,4.09-1.66,7.8-4.34,10.49
		c-2.62,2.61-6.21,4.25-10.17,4.33c0.01-0.11,0.01-0.22,0.01-0.33c0-8.2-6.63-14.84-14.82-14.84h-93.35c-0.11,0-0.22,0-0.33,0.01
		c0.08-3.97,1.72-7.54,4.33-10.15c2.69-2.69,6.39-4.35,10.49-4.35h93.35C264.36,145.33,271,151.97,271,160.17z"/>
	<rect x="124.16" y="82" style="fill:#333333;" width="170.68" height="12"/>
	<path style="fill:#FFFFFF;" d="M275.977,140c-1.264,0-2.538-0.398-3.623-1.222c-4.694-3.564-10.291-5.448-16.184-5.448H212
		c-3.313,0-6-2.687-6-6s2.687-6,6-6h44.17c8.535,0,16.641,2.729,23.439,7.89c2.64,2.003,3.154,5.768,1.151,8.407
		C279.58,139.182,277.789,140,275.977,140z"/>
	<path style="fill:#333333;" d="M256.17,181h-93.35c-11.486,0-20.83-9.344-20.83-20.83c0-5.568,2.166-10.801,6.097-14.732
		c3.938-3.938,9.171-6.107,14.733-6.107h93.35c11.485,0,20.83,9.349,20.83,20.84c0,5.554-2.162,10.783-6.089,14.725
		C266.952,178.838,261.723,181,256.17,181z M162.82,151.33c-2.357,0-4.576,0.921-6.248,2.593c-1.666,1.666-2.583,3.884-2.583,6.247
		c0,4.869,3.961,8.83,8.83,8.83h93.35c2.356,0,4.578-0.92,6.256-2.591c1.654-1.661,2.574-3.882,2.574-6.239
		c0-4.875-3.961-8.84-8.83-8.84H162.82z"/>
	<polygon style="fill:#616C75;" points="279.98,352 279.98,413 139.02,413 139.02,352 141,352 194,352 209.5,333 224.99,352 
		277.99,352 	"/>
	<path style="fill:#333333;" d="M285.98,413h-12V289c0-12.829,3.097-25.57,8.956-36.846l10.648,5.533
		c-5.046,9.711-7.604,20.247-7.604,31.313V413z"/>
	<path style="fill:#FFFFFF;" d="M260.72,302c-3.313,0-6-2.687-6-6c0-12.829,3.097-25.57,8.956-36.846
		c1.527-2.941,5.146-4.087,8.091-2.558c2.94,1.528,4.085,5.15,2.558,8.091c-5.046,9.711-7.604,20.247-7.604,31.313
		C266.72,299.313,264.033,302,260.72,302z"/>
	<path style="fill:#333333;" d="M327.02,419H91.98c-3.313,0-6-2.686-6-6v-84.89c0-31.299,15.463-60.513,41.363-78.149
		c9.406-6.401,19.747-10.999,30.737-13.666c0.153-0.04,0.313-0.078,0.476-0.116l0.132-0.031l2.903,11.644l-0.471,0.111
		c-0.063,0.018-0.087,0.023-0.15,0.039c-9.607,2.324-18.649,6.34-26.875,11.938c-22.614,15.398-36.115,40.905-36.115,68.229V407
		h223.04v-78.89c0-27.33-13.509-52.836-36.135-68.229c-8.232-5.603-17.269-9.62-26.856-11.939c-0.038-0.01-0.076-0.019-0.114-0.029
		l-0.078-0.018c-0.197-0.044-0.392-0.091-0.571-0.141l3.189-11.568l-0.055-0.015c0.213,0.049,0.359,0.083,0.491,0.116
		c10.981,2.662,21.326,7.262,30.745,13.672c25.913,17.629,41.384,46.845,41.384,78.15V413C333.02,416.314,330.333,419,327.02,419z"
		/>
	<path style="fill:#333333;" d="M145.02,413h-12V289c0-11.042-2.565-21.577-7.624-31.313l10.648-5.533
		c5.872,11.301,8.976,24.042,8.976,36.846V413z"/>
	<path style="fill:#333333;" d="M277.99,358h-53c-1.804,0-3.511-0.811-4.65-2.208l-10.842-13.298l-10.849,13.299
		C197.51,357.189,195.802,358,194,358h-53v-12h50.151l13.699-16.793c1.14-1.396,2.847-2.207,4.649-2.207c0,0,0,0,0.001,0
		c1.803,0,3.51,0.811,4.649,2.208L227.84,346h50.15V358z"/>
	<g>
		<path style="fill:#333333;" d="M183,338h-27c-3.313,0-6-2.687-6-6s2.687-6,6-6h27c3.313,0,6,2.687,6,6S186.313,338,183,338z"/>
		<path style="fill:#333333;" d="M183,322h-27c-3.313,0-6-2.687-6-6s2.687-6,6-6h27c3.313,0,6,2.687,6,6S186.313,322,183,322z"/>
		<path style="fill:#333333;" d="M263,338h-27c-3.313,0-6-2.687-6-6s2.687-6,6-6h27c3.313,0,6,2.687,6,6S266.314,338,263,338z"/>
		<path style="fill:#333333;" d="M263,322h-27c-3.313,0-6-2.687-6-6s2.687-6,6-6h27c3.313,0,6,2.687,6,6S266.314,322,263,322z"/>
	</g>
	<path style="fill:#333333;" d="M255,381h-91c-3.313,0-6-2.687-6-6s2.687-6,6-6h91c3.313,0,6,2.687,6,6S258.314,381,255,381z"/>
	<path style="fill:#333333;" d="M255,401h-91c-3.313,0-6-2.687-6-6s2.687-6,6-6h91c3.313,0,6,2.687,6,6S258.314,401,255,401z"/>
	<rect x="298" y="124" style="fill:#9AA5B2;" width="16" height="52"/>
	<rect x="105" y="124" style="fill:#9AA5B2;" width="16" height="52"/>
	<path style="fill:#333333;" d="M314,182h-16c-3.313,0-6-2.687-6-6v-52c0-3.313,2.687-6,6-6h16c3.313,0,6,2.687,6,6v52
		C320,179.313,317.314,182,314,182z M304,170h4v-40h-4V170z"/>
	<path style="fill:#333333;" d="M121,182h-16c-3.313,0-6-2.687-6-6v-52c0-3.313,2.687-6,6-6h16c3.313,0,6,2.687,6,6v52
		C127,179.313,124.313,182,121,182z M111,170h4v-40h-4V170z"/>
	<rect x="105" y="124" style="opacity:0.44;fill:#333333;enable-background:new    ;" width="16" height="52"/>
</g>
<g>
</g>
<g>
</g>
<g>
</g>
<g>
</g>
<g>
</g>
<g>
</g>
<g>
</g>
<g>
</g>
<g>
</g>
<g>
</g>
<g>
</g>
<g>
</g>
<g>
</g>
<g>
</g>
<g>
</g>
</svg>
