<?xml version="1.0" encoding="iso-8859-1"?>
<!-- Generator: Adobe Illustrator 19.0.0, SVG Export Plug-In . SVG Version: 6.00 Build 0)  -->
<svg version="1.1" id="Layer_1" xmlns="http://www.w3.org/2000/svg" xmlns:xlink="http://www.w3.org/1999/xlink" x="0px" y="0px"
	 viewBox="0 0 451 451" style="enable-background:new 0 0 451 451;" xml:space="preserve">
<g>
	<circle style="fill:#F95428;" cx="267" cy="32" r="26"/>
	<path style="fill:#333333;" d="M267,64c-17.645,0-32-14.355-32-32s14.355-32,32-32s32,14.355,32,32S284.645,64,267,64z M267,12
		c-11.028,0-20,8.972-20,20s8.972,20,20,20c11.028,0,20-8.972,20-20S278.028,12,267,12z"/>
	<g>
		<g>
			<circle style="fill:#FFD3AE;" cx="144.927" cy="178" r="27.89"/>
			<circle style="fill:#FFD3AE;" cx="306.062" cy="178" r="27.89"/>
		</g>
		<g>
			<path style="fill:#333333;" d="M144.927,211.89c-18.687,0-33.89-15.203-33.89-33.89s15.203-33.89,33.89-33.89
				s33.89,15.203,33.89,33.89S163.614,211.89,144.927,211.89z M144.927,156.11c-12.07,0-21.89,9.82-21.89,21.89
				s9.82,21.89,21.89,21.89s21.89-9.82,21.89-21.89S156.998,156.11,144.927,156.11z"/>
			<path style="fill:#333333;" d="M306.063,211.89c-18.687,0-33.89-15.203-33.89-33.89s15.203-33.89,33.89-33.89
				s33.89,15.203,33.89,33.89S324.75,211.89,306.063,211.89z M306.063,156.11c-12.07,0-21.89,9.82-21.89,21.89
				s9.82,21.89,21.89,21.89s21.89-9.82,21.89-21.89S318.132,156.11,306.063,156.11z"/>
		</g>
	</g>
	<path style="fill:#F95428;" d="M274.855,273.97c0.19,0.05,0.39,0.09,0.58,0.14c10.46,2.53,20.19,6.93,28.83,12.81
		c23.39,15.92,38.75,42.77,38.75,73.19V445h-47.04h-140.96h-47.03v-84.89c0-30.42,15.35-57.27,38.74-73.19
		c8.64-5.88,18.37-10.28,28.83-12.81c0.19-0.05,0.39-0.09,0.58-0.14"/>
	<path style="fill:#F95428;" d="M155.015,321v124h-47.03v-84.89c0-30.42,15.35-57.27,38.74-73.19
		C152.025,297.12,155.015,308.71,155.015,321z"/>
	<path style="fill:#F95428;" d="M343.015,360.11V445h-47.04V321c0-12.29,2.99-23.88,8.29-34.08
		C327.655,302.84,343.015,329.69,343.015,360.11z"/>
	<path style="fill:#FFD3AE;" d="M274.855,273.97c-14.1,9.49-31.08,15.03-49.36,15.03s-35.26-5.54-49.36-15.03
		c-0.19-0.13-0.39-0.26-0.58-0.4c-23.28-15.94-38.56-42.72-38.56-73.07V178v-51.5c0-48.877,39.623-88.5,88.5-88.5l0,0
		c48.877,0,88.5,39.623,88.5,88.5V178v22.5c0,30.35-15.28,57.13-38.56,73.07C275.245,273.71,275.045,273.84,274.855,273.97z"/>
	<path style="fill:#333333;" d="M225.495,295c-18.88,0-37.107-5.551-52.71-16.052l-0.182-0.124c-0.169-0.114-0.339-0.23-0.506-0.35
		c-25.737-17.657-41.102-46.8-41.102-77.974v-74c0-52.107,42.393-94.5,94.5-94.5s94.5,42.393,94.5,94.5v74
		c0,31.176-15.362,60.318-41.102,77.974c-0.167,0.12-0.337,0.236-0.506,0.351l-0.136,0.092c-0.015,0.01-0.03,0.021-0.045,0.031
		C262.602,289.449,244.375,295,225.495,295z M225.495,44c-45.491,0-82.5,37.009-82.5,82.5v74c0,27.241,13.439,52.706,35.95,68.12
		c0.055,0.038,0.111,0.077,0.165,0.117l0.421,0.287c13.57,9.133,29.48,13.977,45.964,13.977s32.395-4.844,46.01-14.007l0.167-0.114
		c0.069-0.047,0.141-0.093,0.208-0.143c0.054-0.04,0.109-0.079,0.165-0.117c22.51-15.414,35.95-40.879,35.95-68.12v-74
		C307.995,81.009,270.985,44,225.495,44z"/>
	<g>
		<path style="fill:#333333;" d="M193.885,197.553c-1.58,0-3.13-0.64-4.24-1.75c-1.12-1.12-1.76-2.67-1.76-4.25s0.64-3.12,1.76-4.24
			c1.39-1.39,3.46-2.03,5.41-1.64c0.39,0.08,0.76,0.19,1.13,0.34c0.36,0.15,0.71,0.34,1.03,0.55c0.33,0.22,0.64,0.47,0.91,0.75
			c0.28,0.28,0.53,0.58,0.75,0.91s0.4,0.68,0.55,1.04c0.15,0.36,0.27,0.74,0.34,1.12c0.08,0.39,0.12,0.78,0.12,1.17
			s-0.04,0.79-0.12,1.18c-0.07,0.38-0.19,0.76-0.34,1.12s-0.33,0.71-0.55,1.03c-0.22,0.33-0.47,0.64-0.75,0.92
			C197.015,196.913,195.465,197.553,193.885,197.553z"/>
		<path style="fill:#333333;" d="M261.885,197.553c-0.39,0-0.79-0.04-1.17-0.11c-0.38-0.08-0.76-0.2-1.12-0.35
			c-0.37-0.15-0.71-0.33-1.04-0.55c-0.33-0.22-0.64-0.47-0.91-0.74c-0.28-0.28-0.53-0.59-0.75-0.92c-0.22-0.32-0.4-0.67-0.55-1.03
			s-0.27-0.74-0.34-1.12c-0.08-0.39-0.12-0.79-0.12-1.18s0.04-0.78,0.12-1.17c0.07-0.38,0.19-0.76,0.34-1.12s0.33-0.71,0.55-1.04
			c0.22-0.33,0.47-0.63,0.75-0.91c0.27-0.28,0.58-0.53,0.91-0.75c0.33-0.21,0.67-0.4,1.04-0.55c0.36-0.15,0.74-0.26,1.12-0.34
			c1.95-0.39,4.02,0.25,5.41,1.64c0.28,0.28,0.53,0.58,0.75,0.91s0.4,0.68,0.55,1.04s0.27,0.74,0.34,1.12
			c0.08,0.39,0.12,0.78,0.12,1.17s-0.04,0.79-0.12,1.18c-0.07,0.38-0.19,0.76-0.34,1.12s-0.33,0.71-0.55,1.03
			c-0.22,0.33-0.47,0.64-0.75,0.92C265.015,196.913,263.465,197.553,261.885,197.553z"/>
	</g>
	<g>
		<path style="fill:#333333;" d="M218.551,212c-3.313,0-6-2.687-6-6v-16.857c0-3.204-2.606-5.81-5.81-5.81h-28.58
			c-3.313,0-6-2.687-6-6s2.687-6,6-6h28.58c9.82,0,17.81,7.989,17.81,17.81V206C224.551,209.313,221.865,212,218.551,212z"/>
		<path style="fill:#333333;" d="M272.828,183.333h-24c-3.313,0-6-2.687-6-6s2.687-6,6-6h24c3.313,0,6,2.687,6,6
			S276.142,183.333,272.828,183.333z"/>
	</g>
	<path style="fill:#333333;" d="M301.975,445h-12V321c0-12.816,3.1-25.558,8.966-36.846l10.648,5.533
		c-5.052,9.724-7.614,20.259-7.614,31.313V445z"/>
	<path style="fill:#FFFFFF;" d="M323.015,427.875c-3.313,0-6-2.687-6-6v-72.75c0-3.313,2.687-6,6-6s6,2.687,6,6v72.75
		C329.015,425.188,326.328,427.875,323.015,427.875z"/>
	<g>
		<path style="opacity:0.44;fill:#333333;enable-background:new    ;" d="M151.665,298.92c-15.21,15.89-24.56,37.45-24.56,61.19V444
			h-19.12v-83.89c0-30.42,15.35-57.27,38.74-73.19C148.705,290.74,150.365,294.75,151.665,298.92z"/>
	</g>
	<path style="fill:#333333;" d="M343.015,451h-235.03c-3.314,0-6-2.686-6-6v-84.89c0-31.306,15.463-60.521,41.364-78.15
		c9.416-6.408,19.762-11.007,30.752-13.671c0.131-0.033,0.264-0.065,0.397-0.096l0.122-0.028l3.037,11.609
		c-0.153,0.04-0.309,0.077-0.465,0.113l-0.122,0.028c-0.017,0.004-0.087,0.022-0.104,0.026c-9.597,2.321-18.636,6.338-26.865,11.938
		c-22.614,15.392-36.115,40.898-36.115,68.229V439h223.03v-78.89c0-27.327-13.505-52.833-36.126-68.23
		c-8.229-5.6-17.267-9.617-26.865-11.938c-0.037-0.009-0.074-0.019-0.111-0.028l-0.116-0.027c-0.156-0.036-0.312-0.073-0.464-0.113
		l3.038-11.609l0.122,0.028c0.133,0.031,0.266,0.062,0.396,0.095c10.991,2.665,21.337,7.264,30.751,13.671
		c25.907,17.633,41.374,46.848,41.374,78.15V445C349.015,448.314,346.328,451,343.015,451z"/>
	<path style="fill:#333333;" d="M161.015,445h-12V321c0-11.055-2.562-21.59-7.614-31.313l10.648-5.533
		c5.865,11.288,8.966,24.029,8.966,36.847V445z"/>
	<g>
		<path style="fill:#333333;" d="M357,451H94.23c-3.313,0-6-2.687-6-6s2.687-6,6-6H357c3.313,0,6,2.687,6,6S360.313,451,357,451z"/>
		<path style="fill:#333333;" d="M389,451h-11c-3.313,0-6-2.687-6-6s2.687-6,6-6h11c3.313,0,6,2.687,6,6S392.313,451,389,451z"/>
		<path style="fill:#333333;" d="M73,451H62c-3.313,0-6-2.687-6-6s2.687-6,6-6h11c3.313,0,6,2.687,6,6S76.313,451,73,451z"/>
	</g>
	<path style="opacity:0.44;fill:#333333;enable-background:new    ;" d="M207.135,273.97c10.02,6.74,21.5,11.49,33.86,13.68
		c-5.03,0.89-10.21,1.35-15.5,1.35c-18.28,0-35.26-5.54-49.36-15.03c-0.19-0.13-0.39-0.26-0.58-0.4
		c-23.28-15.94-38.56-42.72-38.56-73.07V178c0-139,54.89-137.301,54.89-134.411l-10.384,15.807
		c-15.364,23.387-15.305,53.174-0.958,76.231c2.423,3.895,10.151,17.294,10.019,20.366c-0.483,11.29-9.201,21.36-21.338,21.975
		c-0.407,0.021-0.817,0.031-1.229,0.031v22.5c0,30.35,15.28,57.13,38.56,73.07C206.745,273.71,206.945,273.84,207.135,273.97z"/>
	<path style="fill:#FFFFFF;" d="M298,198c-3.313,0-6-2.687-6-6v-9c0-3.313,2.687-6,6-6s6,2.687,6,6v9
		C304,195.313,301.313,198,298,198z"/>
	<path style="fill:#F95428;" d="M334.14,157.15C334.6,163,329.98,168,324.11,168H126.88c-5.87,0-10.49-5-10.03-10.85l3.42-43.87
		c0.41-5.24,4.78-9.28,10.03-9.28h6.7h176.98h6.71c5.25,0,9.62,4.04,10.03,9.28L334.14,157.15z"/>
	<path style="opacity:0.44;fill:#333333;enable-background:new    ;" d="M172.71,168h-45.83c-5.87,0-10.49-5-10.03-10.85l3.42-43.87
		c0.41-5.24,4.78-9.28,10.03-9.28h45.83c-5.25,0-9.62,4.04-10.03,9.28l-3.42,43.87C162.22,163,166.84,168,172.71,168z"/>
	<path style="fill:#E6E6E6;" d="M137,99.5c0-48.88,88.49-88.5,88.49-88.5h0.01c0,0,88.5,39.62,88.5,88.5v4.5h-0.02H137V99.5z"/>
	<path style="fill:#333333;" d="M320,104h-12v-4.5c0-22.672-22.63-43.841-41.614-57.608c-17.182-12.46-34.604-21.248-40.891-24.267
		c-6.286,3.019-23.706,11.807-40.886,24.267C165.627,55.659,143,76.828,143,99.5v4.5h-12v-4.5c0-52.167,88.28-92.293,92.038-93.976
		c1.542-0.69,3.372-0.691,4.914,0C231.71,7.207,320,47.332,320,99.5V104z"/>
	<path style="fill:#FFFFFF;" d="M243.734,47.185c-1.074,0-2.162-0.289-3.144-0.894c-3.774-2.327-7.63-4.568-11.462-6.661
		c-2.909-1.588-3.979-5.233-2.391-8.142c1.589-2.909,5.234-3.979,8.142-2.391c4.017,2.193,8.057,4.542,12.01,6.979
		c2.82,1.739,3.697,5.436,1.958,8.256C247.713,46.172,245.747,47.185,243.734,47.185z"/>
	<path style="fill:#FFFFFF;" d="M293.782,95.001c-2.372,0-4.619-1.416-5.563-3.75c-3.614-8.926-12.675-19.317-26.206-30.051
		c-2.596-2.06-3.031-5.833-0.972-8.43c2.06-2.597,5.833-3.032,8.43-0.972c15.368,12.191,25.418,23.95,29.871,34.949
		c1.244,3.071-0.238,6.569-3.31,7.813C295.294,94.86,294.531,95.001,293.782,95.001z"/>
	<path style="fill:#333333;" d="M324.11,174H126.88c-4.465,0-8.764-1.88-11.794-5.158c-3.031-3.278-4.568-7.711-4.218-12.163
		l3.419-43.866C114.938,104.506,121.971,98,130.3,98h190.39c8.328,0,15.361,6.506,16.012,14.812l3.42,43.872
		c0.35,4.448-1.188,8.881-4.218,12.159C332.874,172.12,328.575,174,324.11,174z M130.3,110c-2.106,0-3.884,1.646-4.048,3.749
		l-3.42,43.868c-0.09,1.147,0.289,2.239,1.066,3.08c0.45,0.487,1.436,1.304,2.982,1.304h197.23c1.546,0,2.532-0.816,2.982-1.303
		c0.777-0.841,1.156-1.934,1.066-3.077l-3.42-43.874c-0.164-2.1-1.942-3.747-4.048-3.747L130.3,110L130.3,110z"/>
	<path style="fill:#FFFFFF;" d="M312.998,152c-3.083,0-5.705-2.362-5.972-5.49l-2.005-23.5c-0.281-3.302,2.167-6.207,5.468-6.489
		c3.294-0.279,6.207,2.167,6.489,5.468l2.005,23.5c0.281,3.302-2.167,6.207-5.468,6.489C313.342,151.993,313.169,152,312.998,152z"
		/>
	<rect x="219.5" y="292.739" style="fill:#333333;" width="12" height="153.261"/>
	<path style="fill:#E6E6E6;" d="M288.2,236.63c21.44-15.95,25.79-57.63,25.79-57.63v44.5c0,30.35-15.27,57.13-38.56,73.07
		c-0.19,0.14-0.39,0.27-0.57,0.4c-14.11,9.49-31.09,15.03-49.37,15.03c-18.27,0-35.25-5.54-49.36-15.03
		c-0.19-0.13-0.39-0.26-0.57-0.4c-23.28-15.94-38.57-42.72-38.57-73.07V179c0,0,1.09,10.42,4.86,22.83
		c3.77,12.42,10.21,26.82,20.93,34.8c20.02-8.62,41.36-12.93,62.71-12.93C246.85,223.7,268.19,228.01,288.2,236.63z"/>
	<path style="opacity:0.44;fill:#333333;enable-background:new    ;" d="M218.14,296.97c8.52,5.73,18.09,10.02,28.36,12.52
		c-6.74,1.64-13.77,2.51-21.01,2.51c-18.27,0-35.25-5.54-49.36-15.03c-0.19-0.13-0.39-0.26-0.57-0.4
		c-23.28-15.94-38.57-42.72-38.57-73.07V179c0,0,1.09,10.42,4.86,22.83c3.77,12.42,10.21,26.82,20.93,34.8
		c5.41-2.33,10.92-4.34,16.5-6.04c2.17,27.4,16.84,51.29,38.29,65.98C217.75,296.71,217.95,296.84,218.14,296.97z"/>
	<path style="fill:#333333;" d="M288.199,242.63c-0.804,0-1.611-0.161-2.373-0.49c-19.163-8.254-39.463-12.44-60.336-12.44
		c-20.864,0-41.164,4.186-60.337,12.44c-1.965,0.848-4.236,0.582-5.955-0.698c-9.939-7.398-17.707-20.14-23.089-37.87
		c-3.892-12.811-5.039-23.5-5.086-23.949l11.934-1.252c0.011,0.099,1.092,10.055,4.634,21.714
		c4.046,13.331,9.62,23.477,16.229,29.608c19.671-7.961,40.399-11.994,61.671-11.994c21.282,0,42.009,4.033,61.672,11.994
		c6.612-6.13,12.186-16.275,16.231-29.603c3.56-11.729,4.619-21.616,4.629-21.714l11.936,1.246
		c-0.189,1.809-4.892,44.499-28.177,61.821C290.729,242.227,289.469,242.63,288.199,242.63z"/>
	<g>
		<path style="fill:#333333;" d="M225.495,252.752c-5.648,0-11.293-1.056-16.669-3.167c-3.084-1.212-4.602-4.694-3.39-7.779
			c1.212-3.084,4.693-4.602,7.779-3.39c7.919,3.112,16.642,3.112,24.562,0c3.084-1.21,6.566,0.306,7.778,3.391
			c1.212,3.084-0.306,6.566-3.391,7.778C236.79,251.696,231.141,252.752,225.495,252.752z"/>
	</g>
	<g>
		<g>
			<path style="fill:#333333;" d="M243,368.451c-0.39,0-0.79-0.04-1.17-0.11c-0.38-0.08-0.76-0.2-1.12-0.35
				c-0.37-0.15-0.71-0.33-1.04-0.55c-0.33-0.22-0.64-0.47-0.91-0.74c-0.28-0.28-0.53-0.59-0.75-0.92c-0.22-0.32-0.4-0.67-0.55-1.03
				c-0.15-0.36-0.27-0.74-0.34-1.12c-0.08-0.39-0.12-0.79-0.12-1.18c0-0.39,0.04-0.78,0.12-1.17c0.07-0.38,0.19-0.76,0.34-1.12
				s0.33-0.71,0.55-1.04c0.22-0.33,0.47-0.63,0.75-0.91c0.27-0.28,0.58-0.53,0.91-0.75c0.33-0.21,0.67-0.4,1.04-0.55
				c0.36-0.15,0.74-0.26,1.12-0.34c1.95-0.39,4.02,0.25,5.41,1.64c0.28,0.28,0.53,0.58,0.75,0.91c0.22,0.33,0.4,0.68,0.55,1.04
				c0.15,0.36,0.27,0.74,0.34,1.12c0.08,0.39,0.12,0.78,0.12,1.17s-0.04,0.79-0.12,1.18c-0.07,0.38-0.19,0.76-0.34,1.12
				s-0.33,0.71-0.55,1.03c-0.22,0.33-0.47,0.64-0.75,0.92C246.13,367.811,244.58,368.451,243,368.451z"/>
		</g>
		<g>
			<path style="fill:#333333;" d="M243,434c-0.39,0-0.79-0.04-1.17-0.11c-0.38-0.08-0.76-0.2-1.12-0.35
				c-0.37-0.15-0.71-0.33-1.04-0.55c-0.33-0.22-0.64-0.47-0.91-0.74c-0.28-0.28-0.53-0.59-0.75-0.92c-0.22-0.32-0.4-0.67-0.55-1.03
				c-0.15-0.36-0.27-0.74-0.34-1.12c-0.08-0.39-0.12-0.79-0.12-1.18c0-0.39,0.04-0.78,0.12-1.17c0.07-0.38,0.19-0.76,0.34-1.12
				s0.33-0.71,0.55-1.04c0.22-0.33,0.47-0.63,0.75-0.91c0.27-0.28,0.58-0.53,0.91-0.75c0.33-0.21,0.67-0.4,1.04-0.55
				c0.36-0.15,0.74-0.26,1.12-0.34c1.95-0.39,4.02,0.25,5.41,1.64c0.28,0.28,0.53,0.58,0.75,0.91c0.22,0.33,0.4,0.68,0.55,1.04
				c0.15,0.36,0.27,0.74,0.34,1.12c0.08,0.39,0.12,0.78,0.12,1.17s-0.04,0.79-0.12,1.18c-0.07,0.38-0.19,0.76-0.34,1.12
				s-0.33,0.71-0.55,1.03c-0.22,0.33-0.47,0.64-0.75,0.92C246.13,433.36,244.58,434,243,434z"/>
		</g>
		<g>
			<path style="fill:#333333;" d="M243,401.226c-0.39,0-0.79-0.04-1.17-0.11c-0.38-0.08-0.76-0.2-1.12-0.35
				c-0.37-0.15-0.71-0.33-1.04-0.55c-0.33-0.22-0.64-0.47-0.91-0.74c-0.28-0.28-0.53-0.59-0.75-0.92c-0.22-0.32-0.4-0.67-0.55-1.03
				c-0.15-0.36-0.27-0.74-0.34-1.12c-0.08-0.39-0.12-0.79-0.12-1.18c0-0.39,0.04-0.78,0.12-1.17c0.07-0.38,0.19-0.76,0.34-1.12
				s0.33-0.71,0.55-1.04c0.22-0.33,0.47-0.63,0.75-0.91c0.27-0.28,0.58-0.53,0.91-0.75c0.33-0.21,0.67-0.4,1.04-0.55
				c0.36-0.15,0.74-0.26,1.12-0.34c1.95-0.39,4.02,0.25,5.41,1.64c0.28,0.28,0.53,0.58,0.75,0.91c0.22,0.33,0.4,0.68,0.55,1.04
				c0.15,0.36,0.27,0.74,0.34,1.12c0.08,0.39,0.12,0.78,0.12,1.17s-0.04,0.79-0.12,1.18c-0.07,0.38-0.19,0.76-0.34,1.12
				s-0.33,0.71-0.55,1.03c-0.22,0.33-0.47,0.64-0.75,0.92C246.13,400.586,244.58,401.226,243,401.226z"/>
		</g>
	</g>
	<g id="XMLID_19_">
		<g>
			<path style="fill:#E6E6E6;" d="M305.74,260.86c13,15.13,13.18,37.52,0.27,52.87c-10.9,12.94-27.26,26.81-51.03,35.27l-29.49-37
				c18.28,0,35.26-5.54,49.37-15.03c0.18-0.13,0.38-0.26,0.57-0.4C288.48,287.64,299.01,275.31,305.74,260.86z"/>
			<path style="fill:#E6E6E6;" d="M225.49,312L196,349c-23.77-8.46-40.13-22.33-51.03-35.27c-12.91-15.35-12.73-37.74,0.27-52.87
				c6.75,14.45,17.28,26.78,30.32,35.71c0.18,0.14,0.38,0.27,0.57,0.4C190.24,306.46,207.22,312,225.49,312z"/>
		</g>
		<g>
			<path style="fill:#333333;" d="M225.49,318c-18.869,0-37.095-5.55-52.708-16.051l-0.154-0.104c-0.192-0.13-0.384-0.263-0.569-0.4
				c-13.953-9.584-25.104-22.736-32.254-38.045c-5.849-12.549-8.814-25.972-8.814-39.899V179h12v44.5
				c0,12.163,2.587,23.88,7.688,34.825c6.26,13.401,16.037,24.916,28.271,33.295c0.097,0.066,0.192,0.136,0.286,0.208l0.29,0.195
				C193.104,301.156,209.015,306,225.49,306c16.453,0,32.34-4.827,45.951-13.961c0.091-0.064,0.185-0.129,0.28-0.195l0.155-0.108
				c0.054-0.04,0.11-0.08,0.166-0.118c12.247-8.38,22.019-19.893,28.259-33.292c5.102-10.947,7.689-22.664,7.689-34.827V179h12v44.5
				c0,13.928-2.965,27.35-8.812,39.895c-7.136,15.322-18.301,28.489-32.291,38.08c-0.122,0.088-0.245,0.173-0.367,0.257
				l-0.137,0.095c-0.057,0.042-0.117,0.083-0.175,0.122C262.595,312.45,244.366,318,225.49,318z"/>
			<path style="fill:#333333;" d="M254.981,355c-1.792,0-3.532-0.804-4.693-2.261l-24.798-31.113l-24.798,31.113
				c-1.597,2.003-4.292,2.771-6.704,1.913c-21.22-7.553-39.256-20.021-53.607-37.058c-14.848-17.654-14.717-43.158,0.308-60.646
				c0.317-0.368,0.61-0.706,0.914-1.032l8.794,8.165c-0.206,0.221-0.402,0.451-0.599,0.679
				c-11.181,13.013-11.277,31.979-0.236,45.106c12.053,14.308,26.996,25.053,44.465,31.981l26.771-33.589
				c1.138-1.428,2.865-2.26,4.692-2.26s3.554,0.832,4.692,2.26l26.771,33.589c17.469-6.928,32.412-17.673,44.468-31.984
				c11.038-13.124,10.941-32.09-0.232-45.095c-0.206-0.238-0.403-0.469-0.609-0.691l8.801-8.157
				c0.302,0.326,0.594,0.662,0.884,0.998c15.052,17.519,15.183,43.022,0.337,60.673c-14.354,17.041-32.39,29.508-53.61,37.061
				C256.333,354.887,255.653,355,254.981,355z"/>
		</g>
	</g>
</g>
<g>
</g>
<g>
</g>
<g>
</g>
<g>
</g>
<g>
</g>
<g>
</g>
<g>
</g>
<g>
</g>
<g>
</g>
<g>
</g>
<g>
</g>
<g>
</g>
<g>
</g>
<g>
</g>
<g>
</g>
</svg>
