<?xml version="1.0" encoding="iso-8859-1"?>
<!-- Generator: Adobe Illustrator 19.0.0, SVG Export Plug-In . SVG Version: 6.00 Build 0)  -->
<svg version="1.1" id="Layer_1" xmlns="http://www.w3.org/2000/svg" xmlns:xlink="http://www.w3.org/1999/xlink" x="0px" y="0px"
	 viewBox="0 0 435 435" style="enable-background:new 0 0 435 435;" xml:space="preserve">
<g>
	<polygon style="fill:#F95428;" points="85.509,130 189.509,130 189.509,85 85.509,85 103.509,107.5 	"/>
	<path style="fill:#333333;" d="M189.509,136h-104c-2.307,0-4.409-1.322-5.408-3.401s-0.718-4.546,0.723-6.347L95.826,107.5
		L80.824,88.748c-1.441-1.801-1.722-4.269-0.723-6.347S83.203,79,85.509,79h104c3.314,0,6,2.686,6,6v45
		C195.509,133.314,192.823,136,189.509,136z M97.993,124h85.516V91H97.993l10.201,12.752c1.753,2.191,1.753,5.305,0,7.496
		L97.993,124z"/>
	<path style="fill:#665A52;" d="M329.509,181c0,0,24.84,28.119,21,49c-5.333,29-42,34-42,34l-79-38L329.509,181z"/>
	<path style="fill:#333333;" d="M310.537,270.065c-0.851,0-1.661-0.027-2.43-0.079c-0.763-0.051-1.509-0.248-2.198-0.579l-79-38
		c-2.103-1.012-3.429-3.15-3.399-5.484c0.03-2.333,1.41-4.438,3.537-5.395l100-45c2.386-1.072,5.192-0.478,6.936,1.473
		c0.273,0.305,6.75,7.589,12.75,17.613c8.456,14.126,11.705,26.431,9.658,36.573C350.136,262.174,324.947,270.065,310.537,270.065z
		 M243.728,226.181l66.208,31.847c2.361-0.019,8.48-0.362,14.925-3.114c10.528-4.496,17.179-13.278,19.767-26.102
		c2.59-12.833-9.43-31.252-16.792-40.48L243.728,226.181z"/>
	<path style="fill:#665A52;" d="M259.509,195l-59,47c-16.18,5.82-40.88,10.39-64.33,6.66c-12.79-2.04-25.21-6.55-35.67-14.66
		c-29.67-23-71,2-71,2c-0.67-11.67,21.33-43.67,59-44c9.97-0.08,18.24-2.79,25-6.72c18.79-10.91,26-31.28,26-31.28L259.509,195z"/>
	<path style="fill:#333333;" d="M153.915,255.916c-19.637,0-40.489-4.31-57.082-17.174c-10.725-8.314-24.6-10.537-41.246-6.604
		c-13.036,3.08-22.882,8.942-22.979,9.001c-1.801,1.083-4.041,1.146-5.898,0.164c-1.858-0.982-3.07-2.862-3.19-4.96
		c-0.426-7.455,4.95-18.308,13.695-27.65c7.84-8.375,24.922-22.459,51.242-22.692c32.893-0.291,44.907-32.64,45.402-34.017
		l11.307,4.019c-0.602,1.7-15.211,41.631-56.603,41.998c-21.847,0.193-36.06,11.92-42.588,18.894
		c-2.424,2.589-4.393,5.153-5.941,7.539c3.64-1.398,7.854-2.787,12.448-3.892c20.207-4.856,38.083-1.842,51.704,8.717
		c12.096,9.377,28.748,14.475,48.156,14.742c14.904,0.209,31.326-2.458,45.214-7.319l58.215-46.375l7.477,9.386l-59,47
		c-0.513,0.409-1.089,0.73-1.706,0.953C190.788,251.877,172.92,255.916,153.915,255.916z"/>
	<polygon style="fill:#F95428;" points="61.509,148 165.509,148 165.509,103 61.509,103 79.509,125.5 	"/>
	<path style="fill:#333333;" d="M165.509,154h-104c-2.307,0-4.409-1.322-5.408-3.401s-0.718-4.546,0.723-6.347L71.826,125.5
		l-15.001-18.752c-1.441-1.801-1.722-4.269-0.723-6.347S59.203,97,61.509,97h104c3.314,0,6,2.686,6,6v45
		C171.509,151.314,168.823,154,165.509,154z M73.993,142h85.516v-33H73.993l10.201,12.752c1.753,2.191,1.753,5.305,0,7.496
		L73.993,142z"/>
	<path style="fill:#F95428;" d="M291.359,257.97c0.19,0.05,0.39,0.09,0.58,0.14c10.46,2.53,20.19,6.93,28.83,12.81
		c23.39,15.92,38.75,42.77,38.75,73.19V429h-47.04h-140.96h-47.03v-84.89c0-30.42,15.35-57.27,38.74-73.19
		c8.64-5.88,18.37-10.28,28.83-12.81c0.19-0.05,0.39-0.09,0.58-0.14"/>
	<path style="fill:#333333;" d="M318.479,429h-12V305c0-12.816,3.1-25.558,8.966-36.846l10.648,5.533
		c-5.052,9.724-7.614,20.259-7.614,31.313V429z"/>
	<path style="fill:#FFFFFF;" d="M339.519,415c-3.313,0-6-2.687-6-6v-73c0-3.313,2.687-6,6-6s6,2.687,6,6v73
		C345.519,412.313,342.833,415,339.519,415z"/>
	<g>
		<path style="opacity:0.44;fill:#333333;enable-background:new    ;" d="M168.169,282.92c-15.21,15.89-24.56,37.45-24.56,61.19V427
			h-19.12v-82.89c0-30.42,15.35-57.27,38.74-73.19C165.209,274.74,166.869,278.75,168.169,282.92z"/>
	</g>
	<path style="fill:#333333;" d="M177.519,429h-12V305c0-11.055-2.562-21.59-7.614-31.313l10.648-5.533
		c5.865,11.288,8.966,24.029,8.966,36.847V429z"/>
	<g>
		<path style="fill:#333333;" d="M276.484,405h-68.96c-23.159,0-42-18.841-42-42h12c0,16.542,13.458,30,30,30h68.96
			c16.542,0,30-13.458,30-30h12C318.484,386.159,299.643,405,276.484,405z"/>
		<path style="fill:#FFFFFF;" d="M276.484,387c-3.313,0-6-2.687-6-6s2.687-6,6-6c6.617,0,12-5.383,12-12c0-3.313,2.687-6,6-6
			s6,2.687,6,6C300.484,376.234,289.718,387,276.484,387z"/>
	</g>
	<path style="fill:#FFD3AE;" d="M283.796,249v50c0,23.196-18.804,42-42,42l0,0c-23.196,0-42-18.804-42-42v-50
		c12.5,6.75,26.8,10.58,41.99,10.58C256.996,259.58,271.296,255.75,283.796,249z"/>
	<path style="opacity:0.44;fill:#333333;enable-background:new    ;" d="M259.509,195l-59,47c-16.18,5.82-40.88,10.39-64.33,6.66
		c-14.09-15.68-22.67-36.42-22.67-59.16v-4.22c18.79-10.91,26-31.28,26-31.28L259.509,195z"/>
	<path style="fill:#333333;" d="M241.796,347c-26.467,0-48-21.533-48-48v-50h12v50c0,19.851,16.149,36,36,36s36-16.149,36-36v-50h12
		v50C289.796,325.467,268.263,347,241.796,347z"/>
	<path style="fill:#333333;" d="M241.796,347c-3.313,0-6-2.687-6-6v-15c0-3.313,2.687-6,6-6s6,2.687,6,6v15
		C247.796,344.313,245.109,347,241.796,347z"/>
	<path style="opacity:0.44;fill:#333333;enable-background:new    ;" d="M283.796,247c-1.18,2.25,1.37,16.06,0,18.18
		c-6.42,10.03-14.81,18.67-24.62,25.39c-0.19,0.14-0.39,0.27-0.58,0.4c-14.1,9.49-31.08,15.03-49.36,15.03
		c-5.24,0-6.11-4.72-9.44-7.26V249c11.87,5.92,29.24,12,43.41,12C261.066,261,269.896,256.09,283.796,247z"/>
	<g>
		<path style="fill:#333333;" d="M373.504,435h-262.77c-3.313,0-6-2.687-6-6s2.687-6,6-6h262.77c3.313,0,6,2.687,6,6
			S376.818,435,373.504,435z"/>
		<path style="fill:#333333;" d="M405.504,435h-11c-3.313,0-6-2.687-6-6s2.687-6,6-6h11c3.313,0,6,2.687,6,6
			S408.818,435,405.504,435z"/>
		<path style="fill:#333333;" d="M89.504,435h-11c-3.313,0-6-2.687-6-6s2.687-6,6-6h11c3.313,0,6,2.687,6,6S92.818,435,89.504,435z"
			/>
	</g>
	<path style="fill:#333333;" d="M367.499,429h-12v-78.69c0-24.101-10.345-47.23-29.128-65.126c-1.326-1.263-2.54-2.367-3.712-3.374
		c-13.403-11.608-30.024-20.174-48.084-24.787l2.97-11.627c19.855,5.072,38.167,14.521,52.954,27.328
		c1.311,1.127,2.674,2.366,4.15,3.771c21.185,20.184,32.851,46.398,32.851,73.814V429H367.499z"/>
	<path style="fill:#333333;" d="M128.999,429h-12v-78.69c0-27.17,11.483-53.205,32.335-73.31
		c15.477-14.942,35.297-25.843,57.317-31.521l2.996,11.62c-20.015,5.161-37.99,15.029-51.981,28.536
		c-18.488,17.825-28.667,40.792-28.667,64.674V429z"/>
	<g>
		<g>
			<circle style="fill:#FFD3AE;" cx="161.437" cy="146" r="27.89"/>
			<circle style="fill:#FFD3AE;" cx="322.572" cy="146" r="27.89"/>
		</g>
		<g>
			<path style="fill:#333333;" d="M161.437,179.89c-18.687,0-33.89-15.203-33.89-33.89s15.203-33.89,33.89-33.89
				s33.89,15.203,33.89,33.89S180.124,179.89,161.437,179.89z M161.437,124.11c-12.07,0-21.89,9.82-21.89,21.89
				s9.82,21.89,21.89,21.89s21.89-9.82,21.89-21.89S173.507,124.11,161.437,124.11z"/>
			<path style="fill:#333333;" d="M322.572,179.89c-18.687,0-33.89-15.203-33.89-33.89s15.203-33.89,33.89-33.89
				s33.89,15.203,33.89,33.89S341.259,179.89,322.572,179.89z M322.572,124.11c-12.07,0-21.89,9.82-21.89,21.89
				s9.82,21.89,21.89,21.89s21.89-9.82,21.89-21.89S334.642,124.11,322.572,124.11z"/>
		</g>
	</g>
	<path style="fill:#FFD3AE;" d="M291.364,241.97c-14.1,9.49-31.08,15.03-49.36,15.03s-35.26-5.54-49.36-15.03
		c-0.19-0.13-0.39-0.26-0.58-0.4c-23.28-15.94-38.56-42.72-38.56-73.07V146V94.5c0-48.877,39.623-88.5,88.5-88.5l0,0
		c48.877,0,88.5,39.623,88.5,88.5V146v22.5c0,30.35-15.28,57.13-38.56,73.07C291.754,241.71,291.554,241.84,291.364,241.97z"/>
	<g>
		<path style="fill:#F7774B;" d="M242.004,216.01c-4.869,0-9.738-0.513-14.573-1.538c-3.242-0.688-5.312-3.873-4.625-7.114
			s3.872-5.314,7.114-4.625c8.018,1.7,16.148,1.7,24.167,0c3.242-0.689,6.426,1.383,7.114,4.625
			c0.687,3.242-1.383,6.427-4.625,7.114C251.742,215.497,246.873,216.01,242.004,216.01z"/>
	</g>
	<g style="opacity:0.44;">
		<path style="fill:#333333;" d="M242.509,229h-1.01c-2.209,0-4-1.791-4-4s1.791-4,4-4h1.01c2.209,0,4,1.791,4,4
			S244.718,229,242.509,229z"/>
	</g>
	<path style="opacity:0.44;fill:#333333;enable-background:new    ;" d="M223.644,241.97c10.02,6.74,21.5,11.49,33.86,13.68
		c-5.03,0.89-10.21,1.35-15.5,1.35c-18.28,0-35.26-5.54-49.36-15.03c-0.19-0.13-0.39-0.26-0.58-0.4
		c-23.28-15.94-38.56-42.72-38.56-73.07V146c0-139,54.89-137.301,54.89-134.411L198.01,27.396
		C182.647,50.783,236.644,33.995,239.509,61c3.145,29.636-32.307,59.922-32.438,62.994c-0.483,11.29-9.201,21.36-21.338,21.975
		c-0.407,0.021-0.817,0.031-1.229,0.031v22.5c0,30.35,15.28,57.13,38.56,73.07C223.254,241.71,223.454,241.84,223.644,241.97z"/>
	<g>
		<g>
			<g>
				<g>
					<circle style="fill:#333333;" cx="207.664" cy="157.116" r="8.009"/>
				</g>
				<path style="fill:#333333;" d="M192.335,164.208c-1.533,0-3.065-0.583-4.236-1.751c-2.347-2.34-2.352-6.139-0.013-8.485
					c6.152-6.171,15.547-7.747,23.376-3.919c2.977,1.456,4.211,5.048,2.756,8.025c-1.456,2.978-5.049,4.209-8.025,2.756
					c-3.22-1.574-7.08-0.925-9.608,1.611C195.411,163.62,193.873,164.208,192.335,164.208z"/>
			</g>
		</g>
		<g>
			<g>
				<g>
					<circle style="fill:#333333;" cx="276.344" cy="157.116" r="8.009"/>
				</g>
				<path style="fill:#333333;" d="M291.674,164.208c-1.539,0-3.077-0.588-4.249-1.764c-2.528-2.536-6.389-3.183-9.608-1.611
					c-2.975,1.456-6.569,0.222-8.025-2.756c-1.455-2.977-0.221-6.57,2.756-8.025c7.83-3.826,17.224-2.251,23.376,3.919
					c2.339,2.347,2.334,6.146-0.013,8.485C294.739,163.624,293.207,164.208,291.674,164.208z"/>
			</g>
		</g>
	</g>
	<path style="fill:#F95428;" d="M154.509,124v64h56.24c4.96,0,9.77-1.52,14-4.12c5.02-3.09,10.93-4.88,17.26-4.88
		s12.24,1.79,17.26,4.88c4.23,2.6,9.04,4.12,14,4.12h56.24v-64H154.509z M223.999,158c0,8.28-6.71,15-14.99,15h-18.01
		c-8.28,0-15-6.72-15-15v-3c0-8.28,6.72-15,15-15h18.01c8.28,0,14.99,6.72,14.99,15V158z M308.009,158c0,8.28-6.72,15-15,15h-18.01
		c-8.28,0-14.99-6.72-14.99-15v-3c0-8.28,6.71-15,14.99-15h18.01c8.28,0,15,6.72,15,15V158z"/>
	<path style="fill:#333333;" d="M209.009,179h-18.01c-11.58,0-21-9.42-21-21v-3c0-11.58,9.42-21,21-21h18.01
		c11.574,0,20.99,9.42,20.99,21v3C229.999,169.58,220.583,179,209.009,179z M190.999,146c-4.962,0-9,4.038-9,9v3
		c0,4.962,4.038,9,9,9h18.01c4.957,0,8.99-4.038,8.99-9v-3c0-4.962-4.033-9-8.99-9H190.999z"/>
	<path style="fill:#333333;" d="M293.009,179h-18.01c-11.574,0-20.99-9.42-20.99-21v-3c0-11.58,9.416-21,20.99-21h18.01
		c11.58,0,21,9.42,21,21v3C314.009,169.58,304.589,179,293.009,179z M274.999,146c-4.957,0-8.99,4.038-8.99,9v3
		c0,4.962,4.033,9,8.99,9h18.01c4.962,0,9-4.038,9-9v-3c0-4.962-4.038-9-9-9H274.999z"/>
	<path style="fill:none;stroke:#333333;stroke-width:12;stroke-linejoin:round;stroke-miterlimit:10;" d="M154.509,124v53.67
		c0,5.7,4.63,10.33,10.33,10.33h45.91c4.96,0,9.77-1.52,14-4.12c5.02-3.09,10.93-4.88,17.26-4.88s12.24,1.79,17.26,4.88
		c4.23,2.6,9.04,4.12,14,4.12h45.91c5.7,0,10.33-4.63,10.33-10.33V124H154.509z M223.999,158c0,8.28-6.71,15-14.99,15h-18.01
		c-8.28,0-15-6.72-15-15v-3c0-8.28,6.72-15,15-15h18.01c8.28,0,14.99,6.72,14.99,15V158z M308.009,158c0,8.28-6.72,15-15,15h-18.01
		c-8.28,0-14.99-6.72-14.99-15v-3c0-8.28,6.71-15,14.99-15h18.01c8.28,0,15,6.72,15,15V158z"/>
	<path style="fill:#665A52;" d="M330.509,94.5V110h-0.01c0,0-5-33.67-29-35s-41.83,13.33-59.5,13c-17.66,0.33-35.49-14.33-59.49-13
		s-29,35-29,35h-0.01V94.5c0-48.88,39.63-88.5,88.5-88.5h0.01C290.879,6,330.509,45.62,330.509,94.5z"/>
	<g style="opacity:0.44;">
		<path style="fill:#333333;" d="M264.009,8.758c-7.034-1.8-14.405-2.758-22-2.758h-0.01c-48.87,0-88.5,39.62-88.5,88.5V110h0.01
			c0,0,5-33.67,29-35c5.962-0.331,11.542,0.327,16.835,1.495C206.183,43.408,231.493,17.078,264.009,8.758z"/>
	</g>
	<path style="fill:#333333;" d="M241.999,263c-18.874,0-37.097-5.551-52.7-16.052c-0.222-0.144-0.482-0.319-0.734-0.506
		c-25.718-17.664-41.066-46.789-41.066-77.942v-74c0-52.107,42.393-94.5,94.5-94.5c52.118,0,94.51,42.393,94.51,94.5v74
		c0,31.176-15.364,60.319-41.104,77.975c-0.141,0.101-0.286,0.2-0.429,0.296l-0.104,0.071c-0.029,0.02-0.124,0.087-0.153,0.106
		C279.116,257.449,260.886,263,241.999,263z M242.009,12c-45.501,0-82.51,37.009-82.51,82.5v74c0,27.237,13.443,52.702,35.96,68.119
		c0.103,0.07,0.203,0.143,0.3,0.219l0.152,0.096c0.026,0.017,0.063,0.042,0.088,0.059c13.615,9.164,29.521,14.007,46,14.007
		c16.466,0,32.355-4.829,45.957-13.965c0.108-0.076,0.221-0.152,0.335-0.229l0.115-0.078c0.057-0.042,0.095-0.068,0.153-0.108
		c22.511-15.413,35.95-40.878,35.95-68.119v-74C324.509,49.009,287.5,12,242.009,12z"/>
	<path style="fill:#FFFFFF;" d="M301.692,63c-1.992,0-3.94-0.991-5.081-2.8c-6.895-10.933-16.763-19.472-28.539-24.697
		c-3.029-1.344-4.395-4.889-3.051-7.917c1.343-3.029,4.889-4.396,7.917-3.051c13.958,6.192,25.654,16.312,33.823,29.264
		c1.768,2.803,0.928,6.508-1.875,8.276C303.893,62.701,302.786,63,301.692,63z"/>
	<path style="fill:#FFFFFF;" d="M252.517,30.782c-0.296,0-0.596-0.022-0.897-0.067l-1.524-0.229c-2.975-0.446-5.11-3.004-5.11-5.924
		c0-0.297,0.021-0.598,0.067-0.9c0.492-3.277,3.551-5.534,6.824-5.043l1.524,0.229c2.975,0.446,5.11,3.005,5.111,5.924
		c0,0.297-0.022,0.597-0.067,0.899C257.997,28.647,255.437,30.782,252.517,30.782z"/>
	<path style="fill:#333333;" d="M324.566,110.892c-0.044-0.289-4.609-28.86-23.399-29.901c-11.972-0.663-22.459,3.134-32.605,6.806
		c-9.017,3.263-17.52,6.335-26.563,6.205c-9.034,0.117-17.537-2.941-26.55-6.203c-10.146-3.672-20.633-7.465-32.607-6.807
		c-18.897,1.047-23.354,29.603-23.397,29.891l-11.87-1.763c0.057-0.382,1.442-9.459,6.058-18.782
		c6.576-13.282,16.447-20.657,28.545-21.327c14.419-0.801,26.603,3.612,37.356,7.505c8.323,3.013,15.512,5.614,22.354,5.487
		c0.075,0,0.149,0,0.225,0c6.852,0.128,14.04-2.475,22.367-5.488c10.753-3.892,22.946-8.302,37.353-7.503
		c12.098,0.67,21.969,8.045,28.545,21.327c4.616,9.323,6.001,18.4,6.058,18.782L324.566,110.892z"/>
	<path style="fill:#FFFFFF;" d="M312.509,114c-3.313,0-6-2.687-6-6c0-5.049-4.312-9.828-4.356-9.874
		c-2.279-2.406-2.176-6.203,0.229-8.482c2.406-2.278,6.204-2.176,8.482,0.229c0.782,0.826,7.644,8.352,7.644,18.126
		C318.509,111.313,315.823,114,312.509,114z"/>
</g>
<g>
</g>
<g>
</g>
<g>
</g>
<g>
</g>
<g>
</g>
<g>
</g>
<g>
</g>
<g>
</g>
<g>
</g>
<g>
</g>
<g>
</g>
<g>
</g>
<g>
</g>
<g>
</g>
<g>
</g>
</svg>
