<?xml version="1.0" encoding="iso-8859-1"?>
<!-- Generator: Adobe Illustrator 19.0.0, SVG Export Plug-In . SVG Version: 6.00 Build 0)  -->
<svg version="1.1" id="Layer_1" xmlns="http://www.w3.org/2000/svg" xmlns:xlink="http://www.w3.org/1999/xlink" x="0px" y="0px"
	 viewBox="0 0 461.77 461.77" style="enable-background:new 0 0 461.77 461.77;" xml:space="preserve">
<g>
	<path style="fill:#F7B239;" d="M280.24,284.74c0.19,0.05,0.39,0.09,0.58,0.14c10.46,2.53,20.19,6.93,28.83,12.81
		c23.39,15.92,38.75,42.77,38.75,73.19v84.89h-47.04H160.4h-47.03v-84.89c0-30.42,15.35-57.27,38.74-73.19
		c8.64-5.88,18.37-10.28,28.83-12.81c0.19-0.05,0.39-0.09,0.58-0.14"/>
	<path style="fill:#333333;" d="M307.36,455.77h-12v-124c0-12.817,3.1-25.558,8.966-36.847l10.648,5.533
		c-5.052,9.724-7.614,20.259-7.614,31.313V455.77z"/>
	<path style="fill:#FFFFFF;" d="M328.4,441.77c-3.313,0-6-2.687-6-6v-73c0-3.313,2.687-6,6-6s6,2.687,6,6v73
		C334.4,439.083,331.714,441.77,328.4,441.77z"/>
	<g>
		<path style="opacity:0.44;fill:#333333;enable-background:new    ;" d="M157.05,309.69c-15.21,15.89-24.56,37.45-24.56,61.19
			v82.89h-19.12v-82.89c0-30.42,15.35-57.27,38.74-73.19C154.09,301.51,155.75,305.52,157.05,309.69z"/>
	</g>
	<path style="fill:#333333;" d="M166.4,455.77h-12v-124c0-11.056-2.562-21.591-7.614-31.313l10.648-5.533
		c5.865,11.288,8.966,24.029,8.966,36.847V455.77z"/>
	<g>
		<path style="fill:#333333;" d="M265.365,431.77h-68.96c-23.159,0-42-18.841-42-42h12c0,16.542,13.458,30,30,30h68.96
			c16.542,0,30-13.458,30-30h12C307.365,412.928,288.524,431.77,265.365,431.77z"/>
		<path style="fill:#FFFFFF;" d="M265.365,413.77c-3.313,0-6-2.687-6-6s2.687-6,6-6c6.617,0,12-5.383,12-12c0-3.313,2.687-6,6-6
			s6,2.687,6,6C289.365,403.004,278.599,413.77,265.365,413.77z"/>
	</g>
	<path style="fill:#FFD3AE;" d="M272.677,275.77v50c0,23.196-18.804,42-42,42l0,0c-23.196,0-42-18.804-42-42v-50
		c12.5,6.75,26.8,10.58,41.99,10.58C245.877,286.35,260.177,282.52,272.677,275.77z"/>
	<path style="fill:#333333;" d="M230.677,373.77c-26.467,0-48-21.533-48-48v-50h12v50c0,19.851,16.149,36,36,36s36-16.149,36-36v-50
		h12v50C278.677,352.237,257.144,373.77,230.677,373.77z"/>
	<path style="fill:#333333;" d="M230.677,373.77c-3.313,0-6-2.687-6-6v-15c0-3.313,2.687-6,6-6s6,2.687,6,6v15
		C236.677,371.083,233.99,373.77,230.677,373.77z"/>
	<path style="opacity:0.44;fill:#333333;enable-background:new    ;" d="M272.677,273.77c-1.18,2.25,1.37,16.06,0,18.18
		c-6.42,10.03-14.81,18.67-24.62,25.39c-0.19,0.14-0.39,0.27-0.58,0.4c-14.1,9.49-31.08,15.03-49.36,15.03
		c-5.24,0-6.11-4.72-9.44-7.26v-49.74c11.87,5.92,29.24,12,43.41,12C249.947,287.77,258.777,282.859,272.677,273.77z"/>
	<g>
		<path style="fill:#333333;" d="M362.385,461.77H99.615c-3.313,0-6-2.687-6-6s2.687-6,6-6h262.77c3.313,0,6,2.687,6,6
			S365.698,461.77,362.385,461.77z"/>
		<path style="fill:#333333;" d="M394.385,461.77h-11c-3.313,0-6-2.687-6-6s2.687-6,6-6h11c3.313,0,6,2.687,6,6
			S397.698,461.77,394.385,461.77z"/>
		<path style="fill:#333333;" d="M78.385,461.77h-11c-3.313,0-6-2.687-6-6s2.687-6,6-6h11c3.313,0,6,2.687,6,6
			S81.698,461.77,78.385,461.77z"/>
	</g>
	<g>
		<g>
			<circle style="fill:#FFD3AE;" cx="150.318" cy="173.77" r="27.89"/>
			<circle style="fill:#FFD3AE;" cx="311.453" cy="173.77" r="27.89"/>
		</g>
		<g>
			<path style="fill:#333333;" d="M150.317,207.659c-18.687,0-33.89-15.203-33.89-33.89s15.203-33.89,33.89-33.89
				s33.89,15.203,33.89,33.89S169.005,207.659,150.317,207.659z M150.317,151.88c-12.07,0-21.89,9.82-21.89,21.89
				s9.82,21.89,21.89,21.89s21.89-9.82,21.89-21.89C172.208,161.699,162.388,151.88,150.317,151.88z"/>
			<path style="fill:#333333;" d="M311.453,207.659c-18.687,0-33.89-15.203-33.89-33.89s15.203-33.89,33.89-33.89
				s33.89,15.203,33.89,33.89S330.14,207.659,311.453,207.659z M311.453,151.88c-12.07,0-21.89,9.82-21.89,21.89
				s9.82,21.89,21.89,21.89s21.89-9.82,21.89-21.89C333.343,161.699,323.523,151.88,311.453,151.88z"/>
		</g>
	</g>
	<path style="fill:#FFD3AE;" d="M280.245,269.74c-14.1,9.49-31.08,15.03-49.36,15.03s-35.26-5.54-49.36-15.03
		c-0.19-0.13-0.39-0.26-0.58-0.4c-23.28-15.94-38.56-42.72-38.56-73.07v-22.5v-51.5c0-48.877,39.623-88.5,88.5-88.5l0,0
		c48.877,0,88.5,39.623,88.5,88.5v51.5v22.5c0,30.35-15.28,57.13-38.56,73.07C280.635,269.48,280.435,269.609,280.245,269.74z"/>
	<g>
		<path style="fill:#F7774B;" d="M230.885,243.78c-4.869,0-9.738-0.513-14.574-1.538c-3.241-0.688-5.312-3.873-4.625-7.115
			s3.87-5.312,7.115-4.625c8.018,1.701,16.149,1.701,24.167,0c3.244-0.69,6.427,1.383,7.115,4.625s-1.383,6.427-4.625,7.115
			C240.623,243.267,235.754,243.78,230.885,243.78z"/>
	</g>
	<g style="opacity:0.44;">
		<path style="fill:#333333;" d="M231.39,256.77h-1.01c-2.209,0-4-1.791-4-4s1.791-4,4-4h1.01c2.209,0,4,1.791,4,4
			S233.599,256.77,231.39,256.77z"/>
	</g>
	<g>
		<g>
			<path style="fill:#333333;" d="M286.358,168.185c-0.4,0-0.79-0.04-1.18-0.12c-0.38-0.08-0.76-0.19-1.12-0.34
				s-0.71-0.34-1.04-0.55c-0.32-0.22-0.63-0.47-0.91-0.75c-0.27-0.28-0.53-0.58-0.74-0.91c-0.22-0.33-0.4-0.68-0.55-1.04
				s-0.27-0.74-0.35-1.12c-0.07-0.39-0.11-0.78-0.11-1.17s0.04-0.79,0.11-1.18c0.08-0.38,0.2-0.76,0.35-1.12s0.33-0.71,0.55-1.03
				c0.21-0.33,0.47-0.64,0.74-0.92c0.28-0.27,0.59-0.52,0.91-0.74c0.33-0.22,0.68-0.4,1.04-0.55s0.74-0.27,1.12-0.35
				c0.78-0.15,1.57-0.15,2.35,0c0.38,0.08,0.76,0.2,1.12,0.35s0.71,0.33,1.04,0.55c0.32,0.22,0.63,0.47,0.91,0.74
				c0.27,0.28,0.53,0.59,0.74,0.92c0.22,0.32,0.41,0.67,0.56,1.03s0.26,0.74,0.34,1.12c0.08,0.39,0.12,0.79,0.12,1.18
				s-0.04,0.78-0.12,1.17c-0.08,0.38-0.19,0.76-0.34,1.12s-0.34,0.71-0.56,1.04c-0.21,0.33-0.47,0.63-0.74,0.91
				c-0.28,0.28-0.59,0.53-0.91,0.75c-0.33,0.21-0.68,0.4-1.04,0.55s-0.74,0.26-1.12,0.34
				C287.138,168.145,286.748,168.185,286.358,168.185z"/>
			<path style="fill:#333333;" d="M259.412,168.183c-2.724,0-5.189-1.868-5.837-4.635c-0.755-3.227,1.249-6.454,4.476-7.209
				c4.318-1.01,8.755-1.579,13.188-1.691c3.29-0.094,6.066,2.534,6.149,5.847s-2.534,6.066-5.847,6.149
				c-3.616,0.091-7.236,0.556-10.758,1.379C260.324,168.132,259.864,168.183,259.412,168.183z"/>
		</g>
	</g>
	<path style="opacity:0.44;fill:#333333;enable-background:new    ;" d="M212.525,269.74c10.02,6.74,21.5,11.49,33.86,13.68
		c-5.03,0.89-10.21,1.35-15.5,1.35c-18.28,0-35.26-5.54-49.36-15.03c-0.19-0.13-0.39-0.26-0.58-0.4
		c-23.28-15.94-38.56-42.72-38.56-73.07v-22.5c0-139,54.89-137.301,54.89-134.411l-10.384,15.807
		c-15.364,23.387-15.305,53.174-0.958,76.231c2.423,3.895,10.151,17.294,10.019,20.366c-0.483,11.29-9.201,21.36-21.338,21.975
		c-0.407,0.021-0.817,0.031-1.229,0.031v22.5c0,30.35,15.28,57.13,38.56,73.07C212.135,269.48,212.335,269.609,212.525,269.74z"/>
	<g>
		<g>
			<g>
				<g>
					<circle style="fill:#333333;" cx="196.545" cy="184.885" r="8.009"/>
				</g>
				<path style="fill:#333333;" d="M181.215,191.977c-1.533,0-3.065-0.583-4.236-1.751c-2.347-2.34-2.352-6.139-0.013-8.485
					c6.153-6.17,15.546-7.747,23.376-3.92c2.977,1.455,4.211,5.048,2.756,8.025c-1.456,2.977-5.047,4.211-8.025,2.756
					c-3.219-1.572-7.08-0.925-9.608,1.611C184.292,191.389,182.754,191.977,181.215,191.977z"/>
			</g>
		</g>
		<g>
			<g>
				<g>
					<circle style="fill:#333333;" cx="265.225" cy="184.885" r="8.009"/>
				</g>
				<path style="fill:#333333;" d="M280.555,191.977c-1.539,0-3.077-0.588-4.249-1.764c-2.529-2.536-6.392-3.186-9.608-1.611
					c-2.977,1.456-6.57,0.221-8.025-2.756c-1.455-2.978-0.221-6.57,2.756-8.025c7.83-3.826,17.223-2.251,23.376,3.92
					c2.339,2.347,2.334,6.146-0.013,8.485C283.62,191.394,282.088,191.977,280.555,191.977z"/>
			</g>
		</g>
	</g>
	<g>
		<path style="fill:#333333;" d="M223.942,216.77c-3.313,0-6-2.687-6-6v-32.927c0-2.734-1.479-5.177-3.859-6.375
			c-7.191-3.622-19.524-7.154-37.439-3.412c-3.242,0.676-6.422-1.403-7.1-4.647c-0.677-3.244,1.403-6.422,4.647-7.1
			c21.308-4.449,36.389-0.04,45.29,4.441c6.453,3.249,10.462,9.799,10.462,17.093v32.927
			C229.942,214.083,227.255,216.77,223.942,216.77z"/>
	</g>
	<path style="fill:#A67C52;" d="M181.53,269.74c4.85,3.27,10.03,6.06,15.5,8.32c-21.33,5.5-40.16,16.04-54.65,30.03
		c0-13.6,0-75.68,0-111.82c0,30.35,15.29,57.13,38.57,73.07C181.13,269.48,181.33,269.609,181.53,269.74z"/>
	<path style="fill:#A67C52;" d="M319.39,200.77v106.84c-1.28-1.22-2.59-2.42-3.94-3.58c-13.89-12.03-31.17-21.11-50.51-26.05
		c5.4-2.25,10.52-5.01,15.31-8.24c0.18-0.13,0.39-0.26,0.58-0.4c22.12-15.15,37.02-40.09,38.45-68.58L319.39,200.77z"/>
	<path style="opacity:0.44;fill:#333333;enable-background:new    ;" d="M181.53,269.74c4.85,3.27,10.03,6.06,15.5,8.32
		c-21.33,5.5-40.16,16.04-54.65,30.03c0-13.6,0-75.68,0-111.82c0,30.35,15.29,57.13,38.57,73.07
		C181.13,269.48,181.33,269.609,181.53,269.74z"/>
	<path style="opacity:0.44;fill:#333333;enable-background:new    ;" d="M319.39,200.77v106.84c-1.28-1.22-2.59-2.42-3.94-3.58
		c-13.89-12.03-31.17-21.11-50.51-26.05c5.4-2.25,10.52-5.01,15.31-8.24c0.18-0.13,0.39-0.26,0.58-0.4
		c22.12-15.15,37.02-40.09,38.45-68.58L319.39,200.77z"/>
	<path style="fill:#A67C52;" d="M209.39,135.77c-37-3-67.01,15.5-67.01,38v-10v-41.5c0-48.88,39.63-88.5,88.5-88.5h0.01
		c48.87,0,88.5,39.62,88.5,88.5v23.48c-41.29-0.73-59-46.98-59-46.98S246.39,138.77,209.39,135.77z"/>
	<g style="opacity:0.44;">
		<path style="fill:#333333;" d="M181.39,122.27c0-42.178,29.51-77.457,69-86.339c-6.275-1.411-12.8-2.161-19.5-2.161h-0.01
			c-48.87,0-88.5,39.62-88.5,88.5v41.5v10c0-16.42,15.992-30.699,39.01-36.056V122.27z"/>
	</g>
	<path style="fill:#333333;" d="M356.38,455.77h-12v-78.69c0-24.101-10.345-47.23-29.128-65.125
		c-1.317-1.255-2.531-2.358-3.712-3.375c-13.402-11.607-30.024-20.173-48.084-24.786l2.97-11.627
		c19.856,5.072,38.167,14.521,52.954,27.328c1.322,1.137,2.685,2.375,4.151,3.772c21.184,20.182,32.85,46.396,32.85,73.813v78.69
		H356.38z"/>
	<path style="fill:#333333;" d="M117.88,455.77h-12v-78.69c0-27.17,11.484-53.205,32.335-73.309
		c15.476-14.942,35.296-25.842,57.316-31.521l2.996,11.62c-20.016,5.161-37.99,15.029-51.98,28.536
		c-18.488,17.824-28.667,40.792-28.667,64.673L117.88,455.77L117.88,455.77z"/>
	<path style="fill:#FFFFFF;" d="M252.389,61.122c-0.607,0-1.225-0.093-1.835-0.289c-2.389-0.767-4.848-1.398-7.309-1.877
		c-3.253-0.633-5.376-3.783-4.744-7.036s3.784-5.375,7.036-4.744c2.924,0.569,5.846,1.319,8.684,2.23
		c3.155,1.012,4.892,4.391,3.879,7.546C257.283,59.499,254.926,61.122,252.389,61.122z"/>
	<path style="fill:#FFFFFF;" d="M301.39,128.27c-3.313,0-6-2.687-6-6c0-3.84-0.342-7.689-1.015-11.439
		c-0.586-3.262,1.583-6.38,4.844-6.966c3.262-0.589,6.38,1.583,6.966,4.844c0.799,4.449,1.205,9.012,1.205,13.562
		C307.39,125.583,304.704,128.27,301.39,128.27z"/>
	<path style="fill:#333333;" d="M148.38,310.77h-12v-137c0-9.674,4.388-18.835,12.69-26.491
		c13.993-12.904,36.726-19.44,60.805-17.49c32.019,2.607,44.728-32.646,44.852-33.001c0.832-2.376,3.059-3.981,5.576-4.018
		c2.532-0.069,4.79,1.503,5.69,3.854c0.161,0.416,16.838,42.478,53.503,43.126c0.086,0.001,0.171,0.005,0.257,0.01
		c0.209,0.012,0.42,0.008,0.637,0.009v12c-0.414,0-0.817-0.003-1.218-0.023c-18.65-0.365-35.729-9.335-49.399-25.949
		c-3.905-4.746-7.003-9.469-9.344-13.504c-1.855,3.109-4.199,6.56-7.079,9.971c-11.935,14.138-27.307,20.871-44.445,19.485
		c-20.488-1.664-40.3,3.838-51.7,14.35c-4.026,3.713-8.825,9.792-8.825,17.669L148.38,310.77L148.38,310.77z"/>
	<rect x="313.39" y="200.77" style="fill:#333333;" width="12" height="106.84"/>
	<path style="fill:#A5CDEF;" d="M306.03,60.42l-8.49-41.319c-1.763-8.58-9.958-14.259-18.611-12.896l0,0
		c-31.83,5.013-64.248,5.013-96.078,0l0,0c-8.652-1.363-16.848,4.316-18.611,12.896l-8.49,41.319"/>
	<g style="opacity:0.44;">
		<path style="fill:#333333;" d="M209.914,9.236c-9.05-0.616-18.08-1.617-27.063-3.032l0,0c-8.652-1.362-16.848,4.316-18.611,12.896
			l-8.49,41.319h39.36L203.6,19.1C204.444,14.991,206.774,11.559,209.914,9.236z"/>
	</g>
	<path style="fill:#A5CDEF;" d="M315.34,95.75c-24.12-5.41-53.18-8.57-84.45-8.57c-31.28,0-60.35,3.16-84.46,8.57
		c-2.63,8.37-4.05,17.28-4.05,26.52v8.41c-27.9-8.15-45.49-20.1-45.49-33.41c0-17.37,29.95-32.41,73.65-39.74h0.01
		c18.13-3.05,38.63-4.76,60.34-4.76c21.7,0,42.2,1.71,60.33,4.76c43.7,7.32,73.67,22.37,73.67,39.74c0,13.31-17.6,25.26-45.5,33.41
		v-8.41C319.39,113.03,317.97,104.12,315.34,95.75z"/>
	<path style="fill:#A5CDEF;" d="M315.34,95.75c-24.12-5.41-53.18-8.57-84.45-8.57c-31.28,0-60.35,3.16-84.46,8.57
		c-2.63,8.37-4.05,17.28-4.05,26.52v8.41c-27.9-8.15-45.49-20.1-45.49-33.41c0-17.37,29.95-32.41,73.65-39.74h0.01
		c18.13-3.05,38.63-4.76,60.34-4.76c21.7,0,42.2,1.71,60.33,4.76c43.7,7.32,73.67,22.37,73.67,39.74c0,13.31-17.6,25.26-45.5,33.41
		v-8.41C319.39,113.03,317.97,104.12,315.34,95.75z"/>
	<path style="opacity:0.44;fill:#333333;enable-background:new    ;" d="M315.34,95.75c-24.12-5.41-53.18-8.57-84.45-8.57
		c-31.28,0-60.35,3.16-84.46,8.57c-2.63,8.37-4.05,17.28-4.05,26.52v8.41c-27.9-8.15-45.49-20.1-45.49-33.41
		c0-17.37,29.95-32.41,73.65-39.74h0.01c18.13-3.05,38.63-4.76,60.34-4.76c21.7,0,42.2,1.71,60.33,4.76
		c43.7,7.32,73.67,22.37,73.67,39.74c0,13.31-17.6,25.26-45.5,33.41v-8.41C319.39,113.03,317.97,104.12,315.34,95.75z"/>
	<path style="fill:#333333;" d="M230.88,290.77c-12.503,0-24.664-2.411-36.146-7.167c-5.783-2.39-11.355-5.381-16.558-8.889
		c-0.215-0.139-0.476-0.315-0.73-0.503c-25.718-17.664-41.065-46.789-41.065-77.942h12c0,27.237,13.443,52.702,35.96,68.119
		c0.103,0.07,0.203,0.143,0.3,0.219l0.153,0.096c0.028,0.018,0.063,0.042,0.091,0.06c4.536,3.059,9.394,5.666,14.438,7.75
		c10.023,4.151,20.64,6.255,31.559,6.255c11.015,0,21.693-2.128,31.737-6.326c0.065-0.027,0.131-0.053,0.197-0.078
		c4.914-2.061,9.63-4.604,14.024-7.562c0.107-0.076,0.22-0.151,0.333-0.228l0.116-0.079c0.057-0.042,0.095-0.068,0.152-0.108
		c21.481-14.712,34.547-38.014,35.848-63.931c0.068-1.431,0.103-2.846,0.103-4.189v-74c0-8.435-1.27-16.752-3.774-24.721
		l11.448-3.598c2.871,9.134,4.326,18.662,4.326,28.319v74c0,1.532-0.04,3.139-0.117,4.774c-1.467,29.243-16.787,56.595-40.986,73.2
		c-0.143,0.103-0.29,0.203-0.436,0.301l-0.105,0.071c-0.026,0.019-0.115,0.081-0.142,0.099c-5.122,3.454-10.625,6.416-16.357,8.804
		c-0.065,0.027-0.131,0.053-0.197,0.078C255.589,288.355,243.421,290.77,230.88,290.77z"/>
	<path style="fill:#333333;" d="M148.38,173.77h-12v-51.5c0-9.657,1.456-19.185,4.326-28.319l11.448,3.598
		c-2.504,7.969-3.774,16.286-3.774,24.721V173.77z"/>
	<path style="fill:#333333;" d="M321.072,136.439l-3.364-11.519c25.402-7.42,41.182-18.015,41.182-27.65
		c0-13.143-28.234-27.051-68.661-33.823c-18.452-3.104-38.415-4.677-59.339-4.677c-20.931,0-40.897,1.573-59.345,4.677
		c-0.046,0.008-0.093,0.015-0.139,0.021c-40.349,6.787-68.516,20.68-68.516,33.802c0,9.637,15.776,20.232,41.172,27.65
		l-3.364,11.519c-32.119-9.382-49.808-23.293-49.808-39.169c0-20.328,29.405-37.396,78.657-45.658
		c0.045-0.007,0.09-0.015,0.135-0.021c19.067-3.199,39.661-4.821,61.208-4.821c21.589,0,42.222,1.629,61.325,4.843
		c49.262,8.251,78.675,25.32,78.675,45.657C370.89,113.144,353.198,127.054,321.072,136.439z"/>
	<path style="fill:#333333;" d="M327.013,104.641c-0.527,0-1.063-0.07-1.596-0.217c-3.565-0.981-7.395-1.93-11.382-2.818
		c-24.58-5.514-53.329-8.427-83.145-8.427c-29.833,0-58.585,2.913-83.146,8.425c-4.036,0.901-7.866,1.85-11.391,2.82
		c-3.195,0.883-6.498-0.997-7.377-4.192s0.997-6.498,4.192-7.377c3.713-1.022,7.735-2.019,11.956-2.961
		c25.404-5.701,55.064-8.714,85.768-8.714c30.686,0,60.343,3.014,85.763,8.716c4.171,0.929,8.195,1.925,11.95,2.959
		c3.195,0.88,5.072,4.183,4.192,7.377C332.062,102.894,329.647,104.641,327.013,104.641z"/>
	<path style="fill:#333333;" d="M300.152,61.627l-8.49-41.319c-1.12-5.451-6.303-9.041-11.8-8.177
		c-32.495,5.119-65.449,5.119-97.946,0c-5.492-0.863-10.68,2.726-11.8,8.177l-8.489,41.319l-11.755-2.415l8.49-41.319
		c2.414-11.743,13.584-19.476,25.422-17.615c31.258,4.923,62.956,4.922,94.211,0c11.839-1.867,23.008,5.872,25.422,17.615
		l8.49,41.319L300.152,61.627z"/>
	<path style="fill:#FFFFFF;" d="M284.387,46.771c-2.628,0-5.04-1.74-5.778-4.396l-5-18c-0.887-3.193,0.982-6.5,4.175-7.387
		c3.193-0.884,6.5,0.982,7.387,4.175l5,18c0.887,3.193-0.982,6.5-4.175,7.387C285.459,46.7,284.919,46.771,284.387,46.771z"/>
	<path style="fill:#FFFFFF;" d="M300.39,205.77c-3.313,0-6-2.687-6-6v-29c0-3.313,2.687-6,6-6s6,2.687,6,6v29
		C306.39,203.083,303.704,205.77,300.39,205.77z"/>
</g>
<g>
</g>
<g>
</g>
<g>
</g>
<g>
</g>
<g>
</g>
<g>
</g>
<g>
</g>
<g>
</g>
<g>
</g>
<g>
</g>
<g>
</g>
<g>
</g>
<g>
</g>
<g>
</g>
<g>
</g>
</svg>
