<?xml version="1.0" encoding="iso-8859-1"?>
<!-- Generator: Adobe Illustrator 19.0.0, SVG Export Plug-In . SVG Version: 6.00 Build 0)  -->
<svg version="1.1" id="Layer_1" xmlns="http://www.w3.org/2000/svg" xmlns:xlink="http://www.w3.org/1999/xlink" x="0px" y="0px"
	 viewBox="0 0 444.801 444.801" style="enable-background:new 0 0 444.801 444.801;" xml:space="preserve">
<g>
	<path style="fill:#3A88D6;" d="M271.756,267.77c0.19,0.05,0.39,0.09,0.58,0.14c10.46,2.53,20.19,6.93,28.83,12.81
		c23.39,15.92,38.75,42.77,38.75,73.19v84.89h-47.04h-140.96h-47.03v-84.89c0-30.42,15.35-57.27,38.74-73.19
		c8.64-5.88,29.22-12.9,29.41-12.95l11.87-7.97"/>
	<path style="fill:#A5CDEF;" d="M151.916,314.8v124h-47.03v-84.89c0-30.42,15.35-57.27,38.74-73.19
		C148.926,290.92,151.916,302.51,151.916,314.8z"/>
	<path style="fill:#A5CDEF;" d="M339.916,353.91v84.89h-47.04v-124c0-12.29,2.99-23.88,8.29-34.08
		C324.556,296.64,339.916,323.49,339.916,353.91z"/>
	<path style="fill:#333333;" d="M347.901,438.801h-12v-78.69c0-25.831-11.669-50.163-32.857-68.515
		c-21.43-18.569-49.979-28.795-80.393-28.795c-62.446,0-113.25,43.653-113.25,97.31v78.69h-12v-78.69
		c0-60.274,56.187-109.31,125.25-109.31c33.299,0,64.64,11.267,88.25,31.725c23.859,20.666,37,48.219,37,77.585V438.801z"/>
	<path style="fill:#333333;" d="M298.876,438.801h-12v-124c0-12.816,3.101-25.558,8.966-36.846l10.648,5.533
		c-5.053,9.724-7.614,20.259-7.614,31.313V438.801z"/>
	<path style="fill:#FFFFFF;" d="M319.916,424.801c-3.313,0-6-2.687-6-6v-73c0-3.313,2.687-6,6-6s6,2.687,6,6v73
		C325.916,422.114,323.229,424.801,319.916,424.801z"/>
	<g>
		<path style="opacity:0.44;fill:#333333;enable-background:new    ;" d="M148.566,292.72c-15.21,15.89-24.56,37.45-24.56,61.19
			v82.89h-19.12v-82.89c0-30.42,15.35-57.27,38.74-73.19C145.606,284.54,147.266,288.55,148.566,292.72z"/>
	</g>
	<path style="fill:#333333;" d="M157.916,438.801h-12v-124c0-11.054-2.562-21.59-7.614-31.313l10.648-5.533
		c5.865,11.289,8.966,24.03,8.966,36.846V438.801z"/>
	<g>
		<path style="fill:#333333;" d="M256.881,414.801h-68.96c-23.159,0-42-18.841-42-42h12c0,16.542,13.458,30,30,30h68.96
			c16.542,0,30-13.458,30-30h12C298.881,395.959,280.04,414.801,256.881,414.801z"/>
		<path style="fill:#FFFFFF;" d="M256.881,396.801c-3.313,0-6-2.687-6-6s2.687-6,6-6c6.617,0,12-5.383,12-12c0-3.313,2.687-6,6-6
			s6,2.687,6,6C280.881,386.034,270.114,396.801,256.881,396.801z"/>
	</g>
	<g>
		<path style="fill:#333333;" d="M353.901,444.801H91.131c-3.313,0-6-2.687-6-6s2.687-6,6-6h262.771c3.313,0,6,2.687,6,6
			S357.215,444.801,353.901,444.801z"/>
		<path style="fill:#333333;" d="M385.901,444.801h-11c-3.313,0-6-2.687-6-6s2.687-6,6-6h11c3.313,0,6,2.687,6,6
			S389.215,444.801,385.901,444.801z"/>
		<path style="fill:#333333;" d="M69.901,444.801h-11c-3.313,0-6-2.687-6-6s2.687-6,6-6h11c3.313,0,6,2.687,6,6
			S73.215,444.801,69.901,444.801z"/>
	</g>
	<path style="fill:#333333;" d="M191.767,314.801c-1.435,0-2.854-0.515-3.972-1.501c-0.817-0.722-20.073-17.95-24.714-42.348
		c-0.07-0.37-0.105-0.745-0.105-1.121l6.025-0.005l5.869-1.116c2.167,11.395,8.434,21.175,13.54,27.584
		c0.83-1.948,1.855-3.882,3.073-5.795c9.401-14.784,27.469-23.829,28.233-24.207c1.676-0.828,3.641-0.828,5.316,0
		c0.765,0.377,18.833,9.423,28.235,24.209c1.218,1.913,2.242,3.847,3.073,5.795c5.134-6.442,11.442-16.292,13.574-27.763
		l11.799,2.193c-4.557,24.512-23.938,41.847-24.76,42.572c-1.769,1.561-4.287,1.94-6.438,0.97c-2.15-0.97-3.532-3.11-3.532-5.469
		c0-3.863-1.293-7.853-3.842-11.858c-5.682-8.936-15.931-15.614-20.769-18.428c-4.834,2.812-15.085,9.491-20.767,18.426
		c-2.551,4.007-3.843,7.997-3.843,11.86c0,2.359-1.382,4.499-3.532,5.469C193.443,314.626,192.602,314.801,191.767,314.801z"/>
	<path style="fill:#333333;" d="M222.376,331.801c-3.313,0-6-2.687-6-6v-54.13c0-3.313,2.687-6,6-6s6,2.687,6,6v54.13
		C228.376,329.114,225.689,331.801,222.376,331.801z"/>
	<path style="fill:#D87E13;" d="M136.216,18.94l22.76,23.64c-8.3,8.52-14.89,18.71-19.23,30.02l-23.11-12.1
		c0,0,3.63,22.72-6.59,42.99c-15.06,29.88-75.96,45.31-75.96,45.31s1.3-1.34,3.34-3.77c14.79-17.6,23.36-39.6,24.66-62.56
		l2.08-36.82C66.226,9.11,110.836-7.43,136.216,18.94z"/>
	<path style="opacity:0.44;fill:#333333;enable-background:new    ;" d="M92.016,82.47l2.08-36.82
		c1.024-18.169,12.571-31.391,27.041-36.853C96.265-0.881,65.858,15.632,64.166,45.65l-2.08,36.82
		c-1.3,22.96-9.87,44.96-24.66,62.56c-2.04,2.43-3.34,3.77-3.34,3.77s21.577-5.468,42.22-16.195
		C85.593,117.544,91.007,100.302,92.016,82.47z"/>
	<path style="fill:#D87E13;" d="M407.376,145.03c2.04,2.43,3.34,3.77,3.34,3.77s-60.9-15.43-75.96-45.31
		c-10.22-20.27-6.59-42.99-6.59-42.99l-23.11,12.1c-4.34-11.31-10.93-21.5-19.23-30.02l22.76-23.64
		c25.38-26.37,69.99-9.83,72.05,26.71l2.08,36.82C384.016,105.43,392.586,127.43,407.376,145.03z"/>
	<path style="fill:#333333;" d="M34.085,154.801c-2.104,0-4.103-1.111-5.193-2.997c-1.343-2.323-0.98-5.256,0.888-7.182
		c0.008-0.008,1.202-1.248,3.051-3.45c13.776-16.394,22.038-37.36,23.266-59.042l2.08-36.819
		c1.09-19.324,13.04-35.508,31.188-42.235c18.146-6.725,37.754-2.242,51.176,11.703l30.499,31.679l-8.645,8.322l-30.5-31.679
		c-10.061-10.454-24.761-13.815-38.359-8.773C79.932,19.37,70.975,31.501,70.158,45.987l-2.08,36.82
		c-1.098,19.394-7.234,38.285-17.54,54.465c18.35-6.679,45.38-19.08,54.151-36.484c9.241-18.327,6.057-39.135,6.023-39.343
		c-0.358-2.241,0.579-4.493,2.422-5.818c1.841-1.325,4.272-1.499,6.286-0.444l31.591,16.54l-5.566,10.631l-22.174-11.609
		c-0.027,9.178-1.429,22.679-7.866,35.445c-16.105,31.956-77.249,47.768-79.844,48.425
		C35.069,154.741,34.574,154.801,34.085,154.801z"/>
	<path style="fill:#333333;" d="M410.715,154.801c-0.488,0-0.982-0.06-1.473-0.184c-2.595-0.658-63.737-16.47-79.844-48.426
		c-6.437-12.767-7.839-26.267-7.866-35.445l-22.173,11.609l-5.566-10.631l31.59-16.54c2.012-1.054,4.444-0.88,6.286,0.444
		c1.843,1.325,2.78,3.576,2.422,5.818c-0.031,0.198-3.156,21.136,6.022,39.342c8.312,16.489,34.434,29.262,54.18,36.527
		c-10.32-16.188-16.468-35.097-17.567-54.507l-2.08-36.821c-0.816-14.486-9.774-26.617-23.377-31.66
		c-13.601-5.04-28.299-1.68-38.359,8.772l-30.501,31.68l-8.645-8.322l30.5-31.68c13.42-13.943,33.031-18.428,51.176-11.701
		c18.147,6.727,30.098,22.91,31.187,42.235l2.08,36.819c1.229,21.681,9.49,42.648,23.264,59.039
		c1.851,2.205,3.045,3.444,3.057,3.457c1.863,1.928,2.223,4.861,0.878,7.18C414.813,153.69,412.817,154.801,410.715,154.801z"/>
	<path style="fill:#FFFFFF;" d="M369.953,118.786c-2.574,0-4.954-1.669-5.739-4.26c-3.035-10.003-4.872-20.331-5.46-30.698
		l-1.45-25.689c-0.187-3.309,2.344-6.142,5.652-6.329c3.313-0.195,6.142,2.343,6.328,5.652l1.45,25.688
		c0.534,9.415,2.204,18.8,4.962,27.893c0.962,3.171-0.828,6.521-3.999,7.483C371.116,118.702,370.529,118.786,369.953,118.786z
		 M358.874,40.803c-1.959,0-3.88-0.958-5.03-2.721c-1.304-1.997-3.012-3.683-5.076-5.01c-2.787-1.792-3.594-5.504-1.802-8.292
		s5.503-3.595,8.292-1.802c3.496,2.248,6.401,5.123,8.635,8.544c1.812,2.775,1.03,6.493-1.745,8.304
		C361.136,40.487,359.998,40.803,358.874,40.803z"/>
	<g>
		<g>
			<circle style="fill:#FFD3AE;" cx="141.834" cy="155.801" r="27.89"/>
			<circle style="fill:#FFD3AE;" cx="302.969" cy="155.801" r="27.89"/>
		</g>
		<g>
			<path style="fill:#333333;" d="M141.834,189.691c-18.688,0-33.891-15.203-33.891-33.89s15.203-33.89,33.891-33.89
				c18.687,0,33.89,15.203,33.89,33.89S160.52,189.691,141.834,189.691z M141.834,133.91c-12.07,0-21.891,9.82-21.891,21.89
				s9.82,21.89,21.891,21.89s21.89-9.82,21.89-21.89S153.904,133.91,141.834,133.91z"/>
			<path style="fill:#333333;" d="M302.969,189.691c-18.687,0-33.89-15.203-33.89-33.89s15.203-33.89,33.89-33.89
				s33.89,15.203,33.89,33.89S321.655,189.691,302.969,189.691z M302.969,133.91c-12.07,0-21.89,9.82-21.89,21.89
				s9.819,21.89,21.89,21.89s21.89-9.82,21.89-21.89S315.039,133.91,302.969,133.91z"/>
		</g>
	</g>
	<path style="fill:#FFD3AE;" d="M271.761,251.77c-14.1,9.49-31.08,15.03-49.36,15.03s-35.26-5.54-49.36-15.03
		c-0.19-0.13-0.39-0.26-0.58-0.4c-23.28-15.94-38.56-42.72-38.56-73.07v-22.5v-51.5c0-48.877,39.623-88.5,88.5-88.5l0,0
		c48.877,0,88.5,39.623,88.5,88.5v51.5v22.5c0,30.35-15.28,57.13-38.56,73.07C272.151,251.51,271.951,251.64,271.761,251.77z"/>
	<g>
		<path style="fill:#F7774B;" d="M222.401,225.81c-4.869,0-9.738-0.513-14.573-1.538c-3.241-0.688-5.312-3.873-4.624-7.115
			c0.688-3.241,3.866-5.31,7.114-4.625c8.018,1.701,16.148,1.701,24.166,0c3.245-0.686,6.427,1.383,7.114,4.625
			c0.688,3.242-1.383,6.427-4.624,7.115C232.14,225.298,227.27,225.81,222.401,225.81z"/>
	</g>
	<g style="opacity:0.44;">
		<path style="fill:#333333;" d="M222.906,238.801h-1.01c-2.209,0-4-1.791-4-4s1.791-4,4-4h1.01c2.209,0,4,1.791,4,4
			S225.115,238.801,222.906,238.801z"/>
	</g>
	<g>
		<g>
			<path style="fill:#333333;" d="M250.929,150.214c-2.725,0-5.19-1.868-5.838-4.635c-0.754-3.227,1.25-6.454,4.477-7.209
				c9.703-2.269,19.963-2.269,29.668,0c3.227,0.754,5.23,3.982,4.477,7.208c-0.755,3.227-3.977,5.231-7.209,4.476
				c-7.919-1.852-16.288-1.852-24.203,0C251.841,150.162,251.381,150.214,250.929,150.214z"/>
		</g>
	</g>
	<path style="opacity:0.44;fill:#333333;enable-background:new    ;" d="M204.041,251.77c10.02,6.74,21.5,11.49,33.86,13.68
		c-5.03,0.89-10.21,1.35-15.5,1.35c-18.28,0-35.26-5.54-49.36-15.03c-0.19-0.13-0.39-0.26-0.58-0.4
		c-23.28-15.94-38.56-42.72-38.56-73.07v-22.5c0-139,54.89-137.301,54.89-134.411l-10.384,15.807
		c-15.364,23.387,38.633,6.599,41.499,33.604c3.145,29.636-32.307,59.922-32.438,62.994c-0.483,11.29-9.201,21.36-21.338,21.975
		c-0.407,0.021-0.817,0.031-1.229,0.031v22.5c0,30.35,15.28,57.13,38.56,73.07C203.651,251.51,203.851,251.64,204.041,251.77z"/>
	<g>
		<g>
			<g>
				<g>
					<circle style="fill:#333333;" cx="188.061" cy="166.916" r="8.009"/>
				</g>
				<path style="fill:#333333;" d="M172.731,174.008c-1.533,0-3.065-0.583-4.236-1.751c-2.347-2.34-2.353-6.139-0.013-8.485
					c6.153-6.171,15.55-7.746,23.376-3.919c2.978,1.455,4.211,5.048,2.756,8.025c-1.456,2.977-5.047,4.212-8.025,2.756
					c-3.218-1.573-7.079-0.925-9.608,1.611C175.808,173.42,174.269,174.008,172.731,174.008z"/>
			</g>
		</g>
		<g>
			<g>
				<g>
					<circle style="fill:#333333;" cx="256.741" cy="166.916" r="8.009"/>
				</g>
				<path style="fill:#333333;" d="M272.07,174.008c-1.539,0-3.077-0.588-4.249-1.764c-2.529-2.537-6.39-3.183-9.607-1.611
					c-2.978,1.457-6.57,0.221-8.025-2.755c-1.455-2.977-0.222-6.57,2.756-8.025c7.827-3.828,17.223-2.252,23.375,3.919
					c2.34,2.347,2.334,6.146-0.013,8.485C275.136,173.425,273.602,174.008,272.07,174.008z"/>
			</g>
		</g>
	</g>
	<g>
		<path style="fill:#333333;" d="M215.458,198.801c-3.313,0-6-2.687-6-6v-32.927c0-2.734-1.479-5.177-3.858-6.375
			c-7.192-3.621-19.527-7.154-37.439-3.412c-3.245,0.676-6.422-1.403-7.1-4.647c-0.678-3.244,1.403-6.422,4.646-7.1
			c21.306-4.447,36.389-0.04,45.289,4.441c6.453,3.25,10.462,9.799,10.462,17.093v32.927
			C221.458,196.114,218.771,198.801,215.458,198.801z"/>
	</g>
	<path style="fill:#FFFFFF;" d="M295.906,196.801c-3.313,0-6-2.687-6-6v-29c0-3.313,2.687-6,6-6s6,2.687,6,6v29
		C301.906,194.114,299.22,196.801,295.906,196.801z"/>
	<path style="fill:#D87E13;" d="M305.056,72.6c3.78,9.84,5.85,20.53,5.85,31.7v40.5h-0.01c-59.32-27.19-81.36-59.02-88.5-84.26
		c-7.13,25.24-29.17,57.07-88.5,84.26v-40.5c0-11.17,2.07-21.86,5.85-31.7c4.34-11.31,10.93-21.5,19.23-30.02
		c16.08-16.52,38.55-26.78,63.42-26.78h0.01c24.87,0,47.34,10.26,63.42,26.78C294.126,51.1,300.716,61.29,305.056,72.6z"/>
	<g style="opacity:0.44;">
		<path style="fill:#333333;" d="M171.906,104.3c0-11.17,2.07-21.86,5.85-31.7c4.34-11.31,10.93-21.5,19.23-30.02
			c11.862-12.187,27.204-20.96,44.42-24.728c-6.121-1.339-12.477-2.052-19-2.052h-0.01c-24.87,0-47.34,10.26-63.42,26.78
			c-8.3,8.52-14.89,18.71-19.23,30.02c-3.78,9.84-5.85,20.53-5.85,31.7v40.5c14.907-6.832,27.456-13.956,38.01-21.196V104.3z"/>
	</g>
	<path style="fill:#333333;" d="M222.396,272.801c-18.874,0-37.098-5.551-52.701-16.053c-0.222-0.145-0.48-0.318-0.73-0.503
		c-25.72-17.663-41.068-46.79-41.068-77.944v-74c0-11.669,2.103-23.059,6.249-33.852c4.611-12.018,11.521-22.804,20.533-32.055
		c17.947-18.438,41.997-28.593,67.718-28.593c25.73,0,49.78,10.155,67.729,28.595c9.011,9.25,15.919,20.035,20.532,32.055
		c4.146,10.794,6.248,22.184,6.248,33.85v74c0,31.176-15.366,60.32-41.105,77.976c-0.141,0.101-0.285,0.199-0.428,0.295
		l-0.105,0.071c-0.028,0.02-0.122,0.086-0.15,0.105C259.514,267.25,241.283,272.801,222.396,272.801z M222.406,21.801
		c-22.464,0-43.46,8.866-59.13,24.965c-7.872,8.08-13.903,17.494-17.929,27.984c-3.617,9.417-5.451,19.358-5.451,29.551v74
		c0,27.236,13.442,52.702,35.959,68.119c0.098,0.067,0.194,0.137,0.288,0.21l0.163,0.104c0.024,0.016,0.065,0.042,0.09,0.059
		c13.615,9.164,29.522,14.008,46,14.008c16.467,0,32.356-4.829,45.959-13.967c0.108-0.076,0.221-0.152,0.336-0.229l0.116-0.079
		c0.055-0.04,0.093-0.067,0.149-0.105c22.51-15.414,35.949-40.878,35.949-68.119v-74c0-10.19-1.834-20.132-5.451-29.549
		c-4.026-10.492-10.058-19.907-17.927-27.985C265.856,30.667,244.86,21.801,222.406,21.801z"/>
	<path style="fill:#FFFFFF;" d="M292.906,110.301c-3.313,0-6-2.687-6-6c0-7.975-1.432-15.747-4.256-23.1
		c-3.146-8.197-7.863-15.558-14.021-21.879c-3.862-3.969-8.182-7.416-12.839-10.247c-2.832-1.721-3.732-5.412-2.011-8.244
		c1.72-2.832,5.41-3.732,8.243-2.01c5.522,3.356,10.638,7.437,15.204,12.129c7.299,7.492,12.893,16.224,16.626,25.949
		c3.353,8.729,5.053,17.949,5.053,27.4C298.906,107.614,296.22,110.301,292.906,110.301z"/>
	<path style="fill:#FFFFFF;" d="M237.911,41.497c-0.433,0-0.872-0.047-1.312-0.145c-1.802-0.402-3.647-0.73-5.487-0.976
		c-3.284-0.438-5.592-3.457-5.153-6.741s3.457-5.595,6.741-5.153c2.182,0.292,4.372,0.681,6.511,1.157
		c3.234,0.721,5.271,3.928,4.551,7.162C243.139,39.596,240.66,41.497,237.911,41.497z"/>
	<path style="fill:#333333;" d="M136.396,150.255l-5-10.909c46.972-21.526,76.441-49.34,85.226-80.437
		c0.73-2.584,3.088-4.369,5.773-4.369s5.044,1.783,5.774,4.367c8.797,31.1,38.268,58.916,85.227,80.439l-5,10.908
		c-43.435-19.908-72.276-44.368-85.998-72.875C208.684,105.883,179.84,130.345,136.396,150.255z"/>
</g>
<g>
</g>
<g>
</g>
<g>
</g>
<g>
</g>
<g>
</g>
<g>
</g>
<g>
</g>
<g>
</g>
<g>
</g>
<g>
</g>
<g>
</g>
<g>
</g>
<g>
</g>
<g>
</g>
<g>
</g>
</svg>
