<?xml version="1.0" encoding="iso-8859-1"?>
<!-- Generator: Adobe Illustrator 19.0.0, SVG Export Plug-In . SVG Version: 6.00 Build 0)  -->
<svg version="1.1" id="Layer_1" xmlns="http://www.w3.org/2000/svg" xmlns:xlink="http://www.w3.org/1999/xlink" x="0px" y="0px"
	 viewBox="0 0 457.314 457.314" style="enable-background:new 0 0 457.314 457.314;" xml:space="preserve">
<g>
	<g>
		<path style="fill:#F7774B;" d="M137.157,251.314c-18.196,0-33-14.804-33-33s14.804-33,33-33s33,14.804,33,33
			S155.353,251.314,137.157,251.314z M137.157,197.314c-11.58,0-21,9.42-21,21s9.42,21,21,21s21-9.42,21-21
			S148.736,197.314,137.157,197.314z"/>
		<path style="fill:#F7774B;" d="M320.157,251.314c-18.196,0-33-14.804-33-33s14.804-33,33-33s33,14.804,33,33
			S338.353,251.314,320.157,251.314z M320.157,197.314c-11.58,0-21,9.42-21,21s9.42,21,21,21s21-9.42,21-21
			S331.736,197.314,320.157,197.314z"/>
	</g>
	<path style="fill:#FFD3AE;" d="M317.162,117.814v74c0,12.21-2.47,23.83-6.94,34.41c-6.64,15.72-17.7,29.13-31.62,38.66
		c-0.19,0.14-0.4,0.27-0.58,0.4c-14.1,9.49-31.08,15.03-49.37,15.03c-18.27,0-35.25-5.54-49.35-15.03c-0.2-0.13-0.4-0.26-0.58-0.4
		c-23.28-15.94-38.57-42.72-38.57-73.07v-74c0-36.98,22.68-68.66,54.89-81.89c6.48-2.67,13.35-4.58,20.5-5.64
		c4.28-0.64,8.65-0.97,13.11-0.97h0.01C277.532,29.314,317.162,68.934,317.162,117.814z"/>
	<g>
		<path style="fill:#F7774B;" d="M228.657,239.324c-4.869,0-9.738-0.513-14.573-1.538c-3.242-0.688-5.312-3.873-4.625-7.114
			c0.688-3.241,3.87-5.315,7.114-4.625c8.018,1.7,16.148,1.7,24.167,0c3.24-0.69,6.427,1.383,7.114,4.625s-1.383,6.427-4.625,7.114
			C238.395,238.811,233.526,239.324,228.657,239.324z"/>
	</g>
	<g style="opacity:0.44;">
		<path style="fill:#333333;" d="M229.162,252.314h-1.01c-2.209,0-4-1.791-4-4s1.791-4,4-4h1.01c2.209,0,4,1.791,4,4
			S231.371,252.314,229.162,252.314z"/>
	</g>
	<g>
		<g>
			<path style="fill:#333333;" d="M284.131,163.728c-0.453,0-0.912-0.052-1.372-0.159c-7.917-1.852-16.286-1.852-24.203,0
				c-3.225,0.754-6.454-1.249-7.209-4.476s1.249-6.454,4.476-7.209c9.705-2.271,19.964-2.271,29.669,0
				c3.227,0.755,5.23,3.982,4.476,7.209C289.32,161.86,286.854,163.727,284.131,163.728z"/>
		</g>
	</g>
	<g>
		<g>
			<g>
				<g>
					<circle style="fill:#333333;" cx="194.815" cy="180.43" r="8.009"/>
				</g>
				<path style="fill:#333333;" d="M178.987,187.521c-1.533,0-3.065-0.583-4.237-1.751c-2.346-2.34-2.352-6.139-0.012-8.485
					c6.153-6.17,15.544-7.745,23.375-3.919c2.977,1.455,4.211,5.048,2.756,8.025c-1.456,2.977-5.047,4.212-8.025,2.756
					c-3.216-1.573-7.08-0.926-9.609,1.611C182.064,186.933,180.526,187.521,178.987,187.521z"/>
			</g>
		</g>
		<g>
			<g>
				<g>
					<circle style="fill:#333333;" cx="263.495" cy="180.43" r="8.009"/>
				</g>
				<path style="fill:#333333;" d="M278.327,187.521c-1.539,0-3.076-0.588-4.249-1.763c-2.53-2.536-6.392-3.184-9.609-1.611
					c-2.977,1.457-6.57,0.221-8.025-2.756c-1.455-2.978-0.221-6.57,2.756-8.025c7.831-3.826,17.223-2.251,23.375,3.919
					c2.34,2.347,2.334,6.146-0.012,8.485C281.393,186.937,279.86,187.521,278.327,187.521z"/>
			</g>
		</g>
	</g>
	<g>
		<path style="fill:#333333;" d="M221.714,212.314c-3.313,0-6-2.687-6-6v-32.927c0-2.692-1.515-5.195-3.859-6.375
			c-7.192-3.621-19.524-7.153-37.439-3.412c-3.242,0.676-6.422-1.403-7.1-4.647c-0.677-3.244,1.403-6.422,4.647-7.1
			c21.306-4.447,36.389-0.041,45.289,4.441c6.454,3.249,10.462,9.799,10.462,17.093v32.927
			C227.714,209.627,225.027,212.314,221.714,212.314z"/>
	</g>
	<path style="fill:#F7774B;" d="M278.012,280.284c0.19,0.05,0.39,0.09,0.58,0.14c10.46,2.53,20.19,6.93,28.83,12.81
		c23.39,15.92,38.75,42.77,38.75,73.19v84.89h-47.04h-140.96h-47.03v-84.89c0-30.42,15.35-57.27,38.74-73.19
		c8.64-5.88,18.37-10.28,28.83-12.81c0.19-0.05,0.39-0.09,0.58-0.14"/>
	<path style="fill:#FFD3AE;" d="M158.172,327.314v124h-47.03v-84.89c0-30.42,15.35-57.27,38.74-73.19
		C155.182,303.434,158.172,315.024,158.172,327.314z"/>
	<path style="fill:#FFD3AE;" d="M346.172,366.424v84.89h-47.04v-124c0-12.29,2.99-23.88,8.29-34.08
		C330.812,309.154,346.172,336.004,346.172,366.424z"/>
	<path style="fill:#FFFFFF;" d="M326.172,437.314c-3.313,0-6-2.687-6-6v-30c0-3.313,2.687-6,6-6s6,2.687,6,6v30
		C332.172,434.627,329.485,437.314,326.172,437.314z"/>
	<g>
		<path style="fill:#333333;" d="M263.137,427.314h-68.96c-23.159,0-42-18.841-42-42h12c0,16.542,13.458,30,30,30h68.96
			c16.542,0,30-13.458,30-30h12C305.137,408.472,286.296,427.314,263.137,427.314z"/>
		<path style="fill:#FFFFFF;" d="M263.137,409.314c-3.313,0-6-2.687-6-6s2.687-6,6-6c6.617,0,12-5.383,12-12c0-3.313,2.687-6,6-6
			s6,2.687,6,6C287.137,398.548,276.371,409.314,263.137,409.314z"/>
	</g>
	<path style="fill:#FFD3AE;" d="M270.449,271.314v65.36c0,14.71-11.93,26.64-26.64,26.64h-30.72c-14.71,0-26.64-11.93-26.64-26.64
		v-65.36c12.5,6.75,26.8,10.58,41.99,10.58C243.649,281.894,257.949,278.064,270.449,271.314z"/>
	<path style="fill:#333333;" d="M243.809,369.314h-30.72c-17.998,0-32.64-14.642-32.64-32.64v-65.36h12v65.36
		c0,11.381,9.259,20.64,20.64,20.64h30.72c11.381,0,20.64-9.259,20.64-20.64v-65.36h12v65.36
		C276.449,354.672,261.807,369.314,243.809,369.314z"/>
	<path style="fill:#333333;" d="M228.449,369.314c-3.313,0-6-2.687-6-6v-15c0-3.313,2.687-6,6-6s6,2.687,6,6v15
		C234.449,366.627,231.762,369.314,228.449,369.314z"/>
	<path style="opacity:0.44;fill:#333333;enable-background:new    ;" d="M270.449,271.314c-1.18,2.25,1.37,14.06,0,16.18
		c-6.42,10.03-14.81,18.67-24.62,25.39c-0.19,0.14-0.39,0.27-0.58,0.4c-14.1,9.49-31.08,15.03-49.36,15.03
		c-5.24,0-6.11-4.72-9.44-7.26v-49.74c11.87,5.92,29.24,12,43.41,12C247.719,283.314,256.549,280.404,270.449,271.314z"/>
	<g>
		<path style="fill:#333333;" d="M360.157,457.314H97.387c-3.313,0-6-2.687-6-6s2.687-6,6-6h262.77c3.313,0,6,2.687,6,6
			S363.47,457.314,360.157,457.314z"/>
		<path style="fill:#333333;" d="M392.157,457.314h-11c-3.313,0-6-2.687-6-6s2.687-6,6-6h11c3.313,0,6,2.687,6,6
			S395.47,457.314,392.157,457.314z"/>
		<path style="fill:#333333;" d="M76.157,457.314h-11c-3.313,0-6-2.687-6-6s2.687-6,6-6h11c3.313,0,6,2.687,6,6
			S79.47,457.314,76.157,457.314z"/>
	</g>
	<path style="fill:#F7774B;" d="M348.152,372.624v25.69h-0.99c-13.11-28.17-48.03-13-48.03-13v-58c0-11.82,2.76-22.99,7.69-32.89
		c2.2,1.64,4.34,3.36,6.4,5.15C334.802,318.264,348.152,344.094,348.152,372.624z"/>
	<path style="fill:#F7774B;" d="M158.172,327.314v58h-0.49c0,0-34.91-15.17-48.03,13v-25.69c0-31.1,15.86-58.99,40.96-77.93
		C155.462,304.534,158.172,315.604,158.172,327.314z"/>
	<path style="fill:#333333;" d="M354.152,451.314h-12v-78.69c0-25.831-11.669-50.163-32.858-68.514
		c-1.934-1.681-3.969-3.318-6.058-4.875c-10.308-7.714-21.952-13.684-34.618-17.749l3.667-11.426
		c13.936,4.472,26.765,11.053,38.131,19.56c2.317,1.727,4.589,3.555,6.741,5.424c23.854,20.66,36.994,48.213,36.994,77.579v78.691
		H354.152z"/>
	<path style="fill:#333333;" d="M115.652,451.314h-12v-78.69c0-31.783,15.799-61.933,43.346-82.719
		c11.167-8.431,23.811-15.006,37.578-19.54l3.754,11.397c-12.513,4.121-23.987,10.083-34.102,17.72
		c-24.516,18.499-38.575,45.158-38.575,73.141L115.652,451.314L115.652,451.314z"/>
	<path style="fill:#333333;" d="M305.132,451.314h-12v-124c0-12.496,2.791-24.446,8.296-35.519c0.17-0.356,0.353-0.711,0.533-1.061
		l0.12-0.234l10.682,5.468l-0.132,0.258c-0.132,0.256-0.267,0.516-0.39,0.776c-0.016,0.033-0.031,0.065-0.047,0.097
		c-4.686,9.409-7.061,19.575-7.061,30.215L305.132,451.314L305.132,451.314z"/>
	<path style="fill:#333333;" d="M164.172,451.314h-12v-124c0-10.54-2.335-20.622-6.942-29.967c-0.017-0.035-0.034-0.07-0.05-0.104
		c-0.195-0.416-0.408-0.831-0.619-1.237l10.643-5.543c0.279,0.535,0.557,1.082,0.815,1.629c5.41,10.996,8.154,22.846,8.154,35.223
		v123.999H164.172z"/>
	<g>
		<path style="opacity:0.44;fill:#333333;enable-background:new    ;" d="M154.822,305.234c-15.21,15.89-24.56,37.45-24.56,61.19
			v82.89h-19.12v-82.89c0-30.42,15.35-57.27,38.74-73.19C151.862,297.054,153.522,301.064,154.822,305.234z"/>
	</g>
	<path style="fill:#333333;" d="M341.722,400.845c-4.396-9.445-12.018-13.9-23.334-13.598c-8.954,0.234-16.789,3.536-16.865,3.569
		l-4.781-11.006c13.933-6.053,43.539-10.505,55.861,15.971L341.722,400.845z"/>
	<path style="fill:#333333;" d="M115.091,400.847l-10.878-5.066c12.33-26.475,41.93-22.023,55.86-15.97l-4.782,11.006l2.391-5.503
		l-2.379,5.508C154.093,390.303,125.56,378.368,115.091,400.847z"/>
	<path style="fill:#FFFFFF;" d="M296.162,231.314c-3.313,0-6-2.687-6-6v-22c0-3.313,2.687-6,6-6s6,2.687,6,6v22
		C302.162,228.627,299.476,231.314,296.162,231.314z"/>
	<path style="opacity:0.44;fill:#333333;enable-background:new    ;" d="M228.662,29.314h-0.01c-4.46,0-8.83,0.33-13.11,0.97
		c-10.74,3.94-17.37,8.03-17.37,8.03s-1.13-0.97-3.13-2.39c-0.313,0.128-0.619,0.27-0.93,0.402l0.935-1.423
		c0-1.816-21.683-3.151-37.793,30.615c-10.75,14.651-17.102,32.73-17.102,52.295v50.84c0.003-0.002,0.006-0.004,0.009-0.007
		c0,0.225-0.004,0.441-0.004,0.667v22.5c0,30.35,15.28,57.13,38.56,73.07c0.19,0.14,0.39,0.27,0.58,0.4
		c14.1,9.49,31.08,15.03,49.36,15.03c5.29,0,10.47-0.46,15.5-1.35c-12.36-2.19-23.84-6.94-33.86-13.68
		c-0.19-0.13-0.39-0.26-0.58-0.4c-23.28-15.94-38.56-42.72-38.56-73.07v-22.5c0.412,0,0.822-0.01,1.229-0.031
		c12.136-0.615,15.426-12.344,21.338-21.975c1.722-2.806,3.459-6.189,5.094-9.799c3.012-6.65,10.822-9.43,17.524-6.536
		c4.889,2.111,10.766,3.374,17.83,3.341c47.12-0.22,63.38,30.32,72,74.5c0,1.5,1.06,14.01,0.99,15.5c0.97,1.09,1.99,1.68,3.06,1.91
		c4.47-10.58,6.94-22.2,6.94-34.41v-74C317.162,68.937,277.539,29.314,228.662,29.314z"/>
	<path style="fill:#D3923C;" d="M141.342,161.314c-0.87,2.53-1.19,5.36-1.19,8v22.5c0,1.51,0.04,3.01,0.11,4.49
		c-4.93,5.53-12.11,9.01-20.11,9.01c-14.9,0-26.99-12.09-26.99-27c0-14.9,12.09-26.99,26.99-26.99c0.36,0,0.71,0.01,1.06,0.03
		c-11.39-54.75,0.08-118.15,37.95-139.04c24.12-13.3,50,9,50,9s44.11-27.19,88.99-9c40.08,16.25,49.34,84.29,37.95,139.04
		c0.35-0.02,0.7-0.03,1.05-0.03c14.91,0,27,12.09,27,26.99c0,14.91-12.09,27-27,27c-7.99,0-15.17-3.48-20.1-9.01
		c0.07-1.49,0.11-2.99,0.11-4.49c-8.62-44.18-24.88-74.72-72-74.5c-40.88,0.19-42-43-42-43s-11,51.67-57.28,80.86
		C143.652,156.574,142.222,158.794,141.342,161.314z"/>
	<g style="opacity:0.44;">
		<path style="fill:#333333;" d="M134.162,178.314c0-7.637,3.181-14.531,8.284-19.442c0.847-1.489,1.964-2.774,3.436-3.698
			c5.464-3.446,10.43-7.208,14.951-11.159c-8.721-51.673,2.572-108.884,36.745-130.174c-9.781-4.956-24.391-9.26-38.416-1.527
			c-37.87,20.89-49.34,84.29-37.95,139.04c-0.35-0.02-0.7-0.03-1.06-0.03c-14.9,0-26.99,12.09-26.99,26.99
			c0,14.91,12.09,27,26.99,27c8,0,15.18-3.48,20.11-9.01c-0.015-0.312-0.022-0.629-0.034-0.943
			C136.438,190.712,134.162,184.779,134.162,178.314z"/>
	</g>
	<path style="fill:#333333;" d="M337.152,211.314c-9.378,0-18.336-4.016-24.579-11.017l8.957-7.985
		c3.968,4.45,9.662,7.002,15.622,7.002c11.58,0,21-9.42,21-21c0-11.574-9.42-20.99-21-20.99c-0.236,0-0.471,0.006-0.708,0.02
		c-1.864,0.103-3.669-0.66-4.887-2.073c-1.218-1.414-1.71-3.313-1.33-5.14c11.16-53.645,1.37-117.783-34.331-132.257
		c-41.582-16.853-83.172,8.291-83.587,8.547c-2.226,1.373-5.083,1.145-7.065-0.562c-0.219-0.187-23.077-19.381-43.186-8.291
		c-11.376,6.275-26.6,20.563-34.516,52.991c-5.923,24.261-6.085,52.52-0.458,79.572c0.38,1.827-0.111,3.726-1.33,5.14
		c-1.218,1.414-3.021,2.18-4.887,2.073c-0.237-0.014-0.473-0.02-0.717-0.02c-11.574,0-20.99,9.416-20.99,20.99
		c0,11.58,9.416,21,20.99,21c5.966,0,11.664-2.552,15.632-7.002l8.957,7.985c-6.242,7.001-15.205,11.017-24.589,11.017
		c-18.19,0-32.99-14.804-32.99-33c0-16.11,11.608-29.56,26.899-32.426c-4.641-26.707-4.024-54.22,1.824-78.174
		c7.083-29.015,21.046-49.989,40.378-60.653c11.513-6.348,25.078-6.618,39.231-0.78c6.124,2.526,11.096,5.683,14.173,7.871
		c11.904-6.296,50.664-23.639,90.738-7.397c20.437,8.286,34.916,28.794,41.873,59.31c5.434,23.834,5.752,52.57,0.978,79.827
		c15.291,2.87,26.896,16.317,26.896,32.424C370.152,196.51,355.348,211.314,337.152,211.314z"/>
	<path style="fill:#FFFFFF;" d="M346.152,184.314c-3.313,0-6-2.687-6-6c0-1.649-1.346-2.99-3-2.99l-6-0.01
		c-3.313-0.005-5.996-2.696-5.99-6.01c0.005-3.31,2.691-5.99,6-5.99c0.003,0,0.006,0,0.01,0l5.99,0.01
		c8.261,0,14.99,6.725,14.99,14.99C352.152,181.627,349.466,184.314,346.152,184.314z"/>
	<path style="fill:#FFFFFF;" d="M280.168,31.583c-0.408,0-0.821-0.042-1.236-0.128c-4.355-0.913-8.943-1.375-13.637-1.375
		c-3.313,0-6-2.687-6-6s2.687-6,6-6c5.519,0,10.936,0.548,16.098,1.63c3.244,0.68,5.322,3.86,4.642,7.103
		C285.442,29.64,282.947,31.583,280.168,31.583z"/>
	<path style="fill:#FFFFFF;" d="M321.292,136.314c-0.231,0-0.465-0.013-0.701-0.041c-3.292-0.383-5.649-3.362-5.266-6.654
		c2.327-19.985,1.511-40.188-2.296-56.889c-3.368-14.774-8.901-26.15-16-32.898c-2.402-2.283-2.498-6.081-0.215-8.482
		c2.282-2.402,6.08-2.498,8.482-0.215c8.944,8.501,15.481,21.599,19.433,38.929c4.103,17.995,4.996,39.639,2.516,60.943
		C326.889,134.063,324.296,136.314,321.292,136.314z"/>
	<path style="fill:#333333;" d="M228.652,286.314c-18.874,0-37.097-5.551-52.7-16.052c-0.213-0.138-0.477-0.315-0.732-0.504
		c-24.18-16.612-39.484-43.948-40.95-73.152c0-0.005,0-0.011,0-0.016c-0.078-1.636-0.117-3.242-0.117-4.775v-22.5
		c0-3.676,0.51-7.024,1.516-9.95c1.447-4.142,3.807-7.251,7.024-9.271c43.624-27.515,54.497-76.536,54.602-77.028
		c0.633-2.974,3.387-5.001,6.419-4.725c3.028,0.279,5.369,2.779,5.447,5.819c0.047,1.505,1.562,37.156,35.745,37.156
		c0.248,0,0.504-0.001,0.751-0.001c54.55,0,69.735,40.092,77.396,79.352c0.074,0.378,0.111,0.763,0.111,1.149
		c0,1.521-0.04,3.127-0.117,4.773c-0.712,14.154-4.464,27.611-11.152,40.015c-7.125,13.211-17.441,24.687-29.837,33.19
		c-0.14,0.1-0.284,0.198-0.427,0.294l-0.108,0.074c-0.03,0.021-0.118,0.083-0.148,0.103
		C265.769,280.763,247.539,286.314,228.652,286.314z M146.255,196.003c1.3,25.912,14.37,49.213,35.858,63.931
		c0.099,0.068,0.196,0.139,0.291,0.213c0.025,0.016,0.098,0.061,0.169,0.107c13.695,9.216,29.602,14.06,46.079,14.06
		c16.467,0,32.357-4.829,45.959-13.967c0.107-0.075,0.218-0.151,0.332-0.227l0.12-0.082c0.054-0.04,0.094-0.067,0.149-0.105
		c10.854-7.432,19.886-17.47,26.118-29.027c5.834-10.821,9.107-22.564,9.729-34.904c0.058-1.235,0.092-2.453,0.101-3.616
		c-8.175-41.479-22.542-69.073-65.499-69.073c-0.257,0-0.512,0.002-0.771,0.001c-23.998,0.001-35.769-13.441-41.424-24.745
		c-0.439-0.878-0.848-1.756-1.228-2.628c-7.807,18.501-23.543,45.63-53.155,64.308c-0.865,0.543-1.56,1.565-2.077,3.044
		c-0.555,1.616-0.854,3.708-0.854,6.021v22.5C146.152,193.153,146.187,194.562,146.255,196.003L146.255,196.003z"/>
	<path style="fill:#333333;" d="M206.168,40.315c-0.447,0-0.9-0.05-1.354-0.155c-3.229-0.745-5.242-3.966-4.497-7.195l3-13
		c0.745-3.229,3.967-5.243,7.195-4.497c3.229,0.745,5.242,3.966,4.497,7.195l-3,13C211.368,38.438,208.899,40.315,206.168,40.315z"
		/>
</g>
<g>
</g>
<g>
</g>
<g>
</g>
<g>
</g>
<g>
</g>
<g>
</g>
<g>
</g>
<g>
</g>
<g>
</g>
<g>
</g>
<g>
</g>
<g>
</g>
<g>
</g>
<g>
</g>
<g>
</g>
</svg>
