<?xml version="1.0" encoding="iso-8859-1"?>
<!-- Generator: Adobe Illustrator 19.0.0, SVG Export Plug-In . SVG Version: 6.00 Build 0)  -->
<svg version="1.1" id="Layer_1" xmlns="http://www.w3.org/2000/svg" xmlns:xlink="http://www.w3.org/1999/xlink" x="0px" y="0px"
	 viewBox="0 0 434 434" style="enable-background:new 0 0 434 434;" xml:space="preserve">
<g>
	<path style="fill:#3A88D6;" d="M266.355,256.97c0.19,0.05,0.39,0.09,0.58,0.14c10.46,2.53,20.19,6.93,28.83,12.81
		c23.39,15.92,38.75,42.77,38.75,73.19V428h-47.04h-140.96h-47.03v-84.89c0-30.42,15.35-57.27,38.74-73.19
		c8.64-5.88,18.37-10.28,28.83-12.81c0.19-0.05,0.39-0.09,0.58-0.14"/>
	<path style="fill:#FFD3AE;" d="M146.515,304v124h-47.03v-84.89c0-30.42,15.35-57.27,38.74-73.19
		C143.525,280.12,146.515,291.71,146.515,304z"/>
	<path style="fill:#FFD3AE;" d="M334.515,343.11V428h-47.04V304c0-12.29,2.99-23.88,8.29-34.08
		C319.155,285.84,334.515,312.69,334.515,343.11z"/>
	<path style="fill:#333333;" d="M342.5,428h-12v-78.69c0-25.831-11.669-50.164-32.858-68.515
		C276.213,262.226,247.663,252,217.25,252C154.804,252,104,295.653,104,349.31V428H92v-78.69C92,289.036,148.187,240,217.25,240
		c33.299,0,64.64,11.267,88.25,31.725c23.86,20.665,37,48.219,37,77.585V428z"/>
	<path style="fill:#333333;" d="M293.475,428h-12V304c0-12.816,3.1-25.558,8.966-36.846l10.648,5.533
		c-5.052,9.724-7.614,20.259-7.614,31.313V428z"/>
	<path style="fill:#FFFFFF;" d="M314.515,414c-3.313,0-6-2.687-6-6v-73c0-3.313,2.687-6,6-6s6,2.687,6,6v73
		C320.515,411.313,317.829,414,314.515,414z"/>
	<g>
		<path style="opacity:0.44;fill:#333333;enable-background:new    ;" d="M143.165,281.92c-15.21,15.89-24.56,37.45-24.56,61.19V426
			h-19.12v-82.89c0-30.42,15.35-57.27,38.74-73.19C140.205,273.74,141.865,277.75,143.165,281.92z"/>
	</g>
	<path style="fill:#333333;" d="M152.515,428h-12V304c0-11.055-2.562-21.59-7.614-31.313l10.648-5.533
		c5.865,11.288,8.966,24.029,8.966,36.847V428z"/>
	<g>
		<path style="fill:#333333;" d="M251.48,404h-68.96c-23.159,0-42-18.841-42-42h12c0,16.542,13.458,30,30,30h68.96
			c16.542,0,30-13.458,30-30h12C293.48,385.159,274.639,404,251.48,404z"/>
		<path style="fill:#FFFFFF;" d="M251.48,386c-3.313,0-6-2.687-6-6s2.687-6,6-6c6.617,0,12-5.383,12-12c0-3.313,2.687-6,6-6
			s6,2.687,6,6C275.48,375.234,264.714,386,251.48,386z"/>
	</g>
	<g>
		<path style="fill:#333333;" d="M348.5,434H85.73c-3.313,0-6-2.687-6-6s2.687-6,6-6H348.5c3.313,0,6,2.687,6,6
			S351.813,434,348.5,434z"/>
		<path style="fill:#333333;" d="M380.5,434h-11c-3.313,0-6-2.687-6-6s2.687-6,6-6h11c3.313,0,6,2.687,6,6S383.813,434,380.5,434z"
			/>
		<path style="fill:#333333;" d="M64.5,434h-11c-3.313,0-6-2.687-6-6s2.687-6,6-6h11c3.313,0,6,2.687,6,6S67.813,434,64.5,434z"/>
	</g>
	<path style="fill:#FFFFFF;" d="M251.492,39.032c-0.998,0-2.009-0.249-2.94-0.774c-2.925-1.648-6.001-3.077-9.142-4.244
		c-3.106-1.155-4.688-4.609-3.533-7.715c1.155-3.105,4.606-4.688,7.715-3.533c3.729,1.386,7.38,3.082,10.852,5.038
		c2.887,1.627,3.908,5.286,2.281,8.173C255.623,37.933,253.587,39.032,251.492,39.032z"/>
	<g>
		<path style="fill:#FFD3AE;" d="M258.886,246v65.36c0,14.71-11.93,26.64-26.64,26.64h-30.72c-14.71,0-26.64-11.93-26.64-26.64V246
			c12.5,6.75,26.8,10.58,41.99,10.58C232.086,256.58,246.386,252.75,258.886,246z"/>
		<path style="fill:#333333;" d="M232.246,344h-30.72c-17.998,0-32.64-14.642-32.64-32.64V246h12v65.36
			c0,11.381,9.259,20.64,20.64,20.64h30.72c11.381,0,20.64-9.259,20.64-20.64V246h12v65.36C264.886,329.358,250.244,344,232.246,344
			z"/>
		<path style="fill:#333333;" d="M216.886,344c-3.313,0-6-2.687-6-6v-15c0-3.313,2.687-6,6-6s6,2.687,6,6v15
			C222.886,341.313,220.199,344,216.886,344z"/>
		<path style="opacity:0.44;fill:#333333;enable-background:new    ;" d="M258.301,243c-3.405,8.5,1.955,17.06,0.585,19.18
			c-6.42,10.03-14.81,18.67-24.62,25.39c-0.19,0.14-0.39,0.27-0.58,0.4c-14.1,9.49-31.08,15.03-49.36,15.03
			c-5.24,0-6.11-4.72-9.44-7.26V246c11.87,5.92,29.24,12,43.41,12C236.156,258,244.401,252.09,258.301,243z"/>
	</g>
	<g>
		<g>
			<circle style="fill:#FFD3AE;" cx="136.428" cy="146" r="27.89"/>
			<circle style="fill:#FFD3AE;" cx="297.563" cy="146" r="27.89"/>
		</g>
		<g>
			<path style="fill:#333333;" d="M136.428,179.89c-18.687,0-33.89-15.203-33.89-33.89s15.203-33.89,33.89-33.89
				s33.89,15.203,33.89,33.89S155.115,179.89,136.428,179.89z M136.428,124.11c-12.07,0-21.89,9.82-21.89,21.89
				s9.82,21.89,21.89,21.89s21.89-9.82,21.89-21.89S148.498,124.11,136.428,124.11z"/>
			<path style="fill:#333333;" d="M297.563,179.89c-18.687,0-33.89-15.203-33.89-33.89s15.203-33.89,33.89-33.89
				s33.89,15.203,33.89,33.89S316.25,179.89,297.563,179.89z M297.563,124.11c-12.07,0-21.89,9.82-21.89,21.89
				s9.82,21.89,21.89,21.89s21.89-9.82,21.89-21.89S309.633,124.11,297.563,124.11z"/>
		</g>
	</g>
	<path style="fill:#FFD3AE;" d="M266.355,241.97c-14.1,9.49-31.08,15.03-49.36,15.03s-35.26-5.54-49.36-15.03
		c-0.19-0.13-0.39-0.26-0.58-0.4c-23.28-15.94-38.56-42.72-38.56-73.07V146V94.5c0-48.877,39.623-88.5,88.5-88.5l0,0
		c48.877,0,88.5,39.623,88.5,88.5V146v22.5c0,30.35-15.28,57.13-38.56,73.07C266.745,241.71,266.545,241.84,266.355,241.97z"/>
	<g>
		<path style="fill:#F7774B;" d="M216.995,216.01c-4.87,0-9.737-0.512-14.573-1.538c-3.242-0.688-5.312-3.873-4.625-7.114
			s3.871-5.312,7.114-4.625c8.018,1.701,16.149,1.7,24.167,0c3.241-0.687,6.426,1.383,7.114,4.625
			c0.687,3.242-1.383,6.427-4.625,7.114C226.734,215.497,221.864,216.01,216.995,216.01z"/>
	</g>
	<g style="opacity:0.44;">
		<path style="fill:#333333;" d="M217.5,229h-1.01c-2.209,0-4-1.791-4-4s1.791-4,4-4h1.01c2.209,0,4,1.791,4,4
			S219.709,229,217.5,229z"/>
	</g>
	<g>
		<g>
			<path style="fill:#333333;" d="M245.522,140.414c-2.724,0-5.19-1.868-5.837-4.635c-0.755-3.227,1.249-6.454,4.476-7.209
				c9.705-2.27,19.964-2.27,29.669,0c3.227,0.754,5.231,3.982,4.476,7.208c-0.754,3.227-3.981,5.231-7.208,4.476
				c-7.917-1.852-16.287-1.852-24.203,0C246.435,140.362,245.975,140.414,245.522,140.414z"/>
		</g>
	</g>
	<path style="opacity:0.44;fill:#333333;enable-background:new    ;" d="M198.635,241.97c10.02,6.74,21.5,11.49,33.86,13.68
		c-5.03,0.89-10.21,1.35-15.5,1.35c-18.28,0-35.26-5.54-49.36-15.03c-0.19-0.13-0.39-0.26-0.58-0.4
		c-23.28-15.94-38.56-42.72-38.56-73.07V146c0-139,54.89-137.301,54.89-134.411l-10.384,15.807
		C157.638,50.783,178.153,58.942,192.5,82c2.423,3.895-10.307,38.922-10.438,41.994c-0.483,11.29-9.201,21.36-21.338,21.975
		c-0.407,0.021-0.817,0.031-1.229,0.031v22.5c0,30.35,15.28,57.13,38.56,73.07C198.245,241.71,198.445,241.84,198.635,241.97z"/>
	<g>
		<g>
			<g>
				<g>
					<circle style="fill:#333333;" cx="182.655" cy="157.116" r="8.009"/>
				</g>
				<path style="fill:#333333;" d="M167.326,164.208c-1.533,0-3.065-0.583-4.236-1.751c-2.347-2.34-2.352-6.139-0.013-8.485
					c6.153-6.171,15.547-7.747,23.376-3.919c2.977,1.455,4.211,5.048,2.756,8.025c-1.455,2.977-5.048,4.212-8.025,2.756
					c-3.218-1.573-7.08-0.925-9.608,1.611C170.402,163.62,168.864,164.208,167.326,164.208z"/>
			</g>
		</g>
		<g>
			<g>
				<g>
					<circle style="fill:#333333;" cx="251.335" cy="157.116" r="8.009"/>
				</g>
				<path style="fill:#333333;" d="M266.665,164.208c-1.539,0-3.077-0.588-4.249-1.764c-2.529-2.537-6.391-3.184-9.608-1.611
					c-2.975,1.457-6.569,0.222-8.025-2.756c-1.455-2.977-0.221-6.57,2.756-8.025c7.829-3.826,17.223-2.251,23.375,3.919
					c2.34,2.347,2.334,6.146-0.013,8.485C269.73,163.624,268.197,164.208,266.665,164.208z"/>
			</g>
		</g>
	</g>
	<g>
		<path style="fill:#333333;" d="M210.052,189c-3.313,0-6-2.687-6-6v-32.927c0-2.734-1.479-5.177-3.858-6.375
			c-7.191-3.621-19.524-7.153-37.44-3.412c-3.24,0.677-6.422-1.403-7.1-4.647c-0.677-3.244,1.403-6.422,4.647-7.1
			c21.307-4.449,36.388-0.04,45.289,4.441c6.453,3.249,10.462,9.799,10.462,17.093V183C216.052,186.313,213.365,189,210.052,189z"/>
	</g>
	<path style="opacity:0.44;fill:#333333;enable-background:new    ;" d="M213.5,104c0,0,12,19,29,25s24,91,8,120c0,0,34-7,38-29
		s-5-118-5-118l-67-11L213.5,104z"/>
	<path style="fill:#A67C52;" d="M128.49,138.67c44.46-7.83,60-46.67,60-46.67l0.39-0.33c6.21,7.3,15.8,12.98,30.61,13.33
		c39.48,0.92,76.43,48.2,54.7,131.02c-1.94,7.38-4.34,15.04-7.25,22.98c0,0,38.55-31,38.55-90.5h0.01V146V94.5
		C305.5,45.62,265.87,6,217,6h-0.01c-48.87,0-88.5,39.62-88.5,88.5V138.67z"/>
	<path style="opacity:0.44;fill:#333333;enable-background:new    ;" d="M232,7.27c-41.73,7.13-73.5,43.47-73.5,87.23v32.38
		c-8.06,5.28-17.98,9.67-30.01,11.79V94.5c0-48.88,39.63-88.5,88.5-88.5H217C222.11,6,227.13,6.43,232,7.27z"/>
	<path style="fill:#333333;" d="M217,263c-18.886,0-37.117-5.551-52.72-16.052c-0.056-0.038-0.112-0.077-0.167-0.117l-0.09-0.061
		c-0.144-0.096-0.288-0.195-0.429-0.295c-25.74-17.656-41.104-46.799-41.104-77.975v-74c0-52.107,42.393-94.5,94.5-94.5
		c52.117,0,94.51,42.393,94.51,94.5v74h-12v-74c0-45.491-37.009-82.5-82.5-82.5c-45.5,0-82.51,37.009-82.51,82.5v74
		c0,27.241,13.439,52.706,35.95,68.119c0.058,0.04,0.116,0.081,0.172,0.123l0.096,0.064c0.114,0.077,0.227,0.153,0.335,0.229
		C184.646,246.171,200.535,251,217,251c16.478,0,32.384-4.844,46-14.007l0.291-0.192c0.098-0.077,0.154-0.116,0.257-0.187
		c2.329-1.589,4.6-3.325,6.748-5.158l7.789,9.128c-2.438,2.081-5.014,4.053-7.656,5.862c-0.255,0.188-0.526,0.371-0.8,0.549
		C254.097,257.449,235.874,263,217,263z"/>
	<path style="fill:#FFFFFF;" d="M287.5,136c-3.313,0-6-2.687-6-6V94.5c0-15.656-5.703-30.764-16.06-42.541
		c-2.188-2.489-1.945-6.28,0.543-8.468c2.488-2.188,6.28-1.945,8.468,0.543C286.735,58.003,293.5,75.925,293.5,94.5V130
		C293.5,133.313,290.813,136,287.5,136z"/>
	<path style="fill:#333333;" d="M305.482,176.426c-0.031,0-0.061,0-0.091-0.001c-3.313-0.049-5.959-2.762-5.91-6.075v-0.028
		c0.009-0.61,0.019-1.211,0.019-1.821c0-3.313,2.687-6,6-6s6,2.687,6,6c0,0.67-0.01,1.332-0.02,2.001
		C311.431,173.784,308.753,176.426,305.482,176.426z"/>
	<path style="fill:#333333;" d="M266.94,265c-1.224,0-2.45-0.374-3.498-1.125c-2.189-1.571-3.063-4.409-2.136-6.939
		c2.772-7.565,5.155-15.116,7.081-22.441c14.979-57.089-0.001-88.476-10.264-102.104c-10.127-13.448-23.897-21.045-38.773-21.392
		c-14.834-0.351-26.623-5.546-35.041-15.441c-13.147-15.46-12.838-36.788-12.818-37.688c0.072-3.313,2.818-5.937,6.129-5.868
		c3.309,0.072,5.934,2.809,5.869,6.116c-0.004,0.271-0.151,17.773,9.962,29.666c6.105,7.177,14.914,10.952,26.181,11.218
		c18.351,0.428,35.875,9.966,48.078,26.17c11.253,14.944,27.626,48.501,13.538,107.375c9.106-14.461,18.243-35.967,18.243-64.046
		c0-3.313,2.687-6,6-6s6,2.687,6,6c0,61.666-39.125,93.836-40.79,95.176C269.605,264.556,268.274,265,266.94,265z"/>
	<path style="fill:#333333;" d="M128.483,144.671c-2.858,0-5.39-2.049-5.902-4.96c-0.575-3.263,1.605-6.375,4.869-6.95
		c40.473-7.128,54.882-41.542,55.476-43.004c1.245-3.064,4.738-4.552,7.805-3.314c3.068,1.237,4.559,4.715,3.331,7.787
		c-0.686,1.712-17.324,42.036-64.53,50.35C129.179,144.641,128.829,144.671,128.483,144.671z"/>
</g>
<g>
</g>
<g>
</g>
<g>
</g>
<g>
</g>
<g>
</g>
<g>
</g>
<g>
</g>
<g>
</g>
<g>
</g>
<g>
</g>
<g>
</g>
<g>
</g>
<g>
</g>
<g>
</g>
<g>
</g>
</svg>
