<?xml version="1.0" encoding="iso-8859-1"?>
<!-- Generator: Adobe Illustrator 19.0.0, SVG Export Plug-In . SVG Version: 6.00 Build 0)  -->
<svg version="1.1" id="Layer_1" xmlns="http://www.w3.org/2000/svg" xmlns:xlink="http://www.w3.org/1999/xlink" x="0px" y="0px"
	 viewBox="0 0 439 439" style="enable-background:new 0 0 439 439;" xml:space="preserve">
<g>
	<rect x="140.01" y="233" style="fill:#F7774B;" width="159" height="68"/>
	<rect x="140.01" y="233" style="opacity:0.44;fill:#333333;enable-background:new    ;" width="159" height="68"/>
	<path style="fill:#A5CDEF;" d="M268.86,261.97c0.19,0.05,0.39,0.09,0.58,0.14c10.46,2.53,20.19,6.93,28.83,12.81
		c23.39,15.92,38.75,42.77,38.75,73.19V433h-47.04H149.02h-47.03v-84.89c0-30.42,15.35-57.27,38.74-73.19
		c8.64-5.88,18.37-10.28,28.83-12.81c0.19-0.05,0.39-0.09,0.58-0.14"/>
	<path style="fill:#E8B691;" d="M269.44,260.38v1.97c0,27.58-22.35,49.94-49.93,49.94c-27.59,0-49.94-22.36-49.94-49.94v-1.78
		c4.53-1.83,9.21-3.41,14.03-4.73c10.98,4.88,23.12,7.59,35.91,7.59c12.85,0,25.07-2.74,36.09-7.68
		C260.35,257.04,264.97,258.59,269.44,260.38z"/>
	<path style="opacity:0.44;fill:#333333;enable-background:new    ;" d="M267.885,249.05c-6.74,12.83-16.55,23.81-28.44,31.95
		c-0.19,0.14-0.39,0.27-0.58,0.4c-14.1,9.49-31.08,15.03-49.36,15.03c-6.5,0-6.267-7.273-12.367-8.613
		c-0.66-3.23-7.573-7.467-7.573-10.887v-28.39c0.19-0.05,0.39-0.09,0.58-0.14c14.1,9.49,31.08,15.03,49.36,15.03
		C237.365,263.43,253.985,258.14,267.885,249.05z"/>
	<g>
		<path style="fill:#333333;" d="M253.985,397h-68.96c-23.159,0-42-18.841-42-42h12c0,16.542,13.458,30,30,30h68.96
			c16.542,0,30-13.458,30-30h12C295.985,378.159,277.144,397,253.985,397z"/>
		<path style="fill:#FFFFFF;" d="M253.985,379c-3.313,0-6-2.687-6-6s2.687-6,6-6c6.617,0,12-5.383,12-12c0-3.313,2.687-6,6-6
			s6,2.687,6,6C277.985,368.234,267.219,379,253.985,379z"/>
	</g>
	<path style="fill:#FFD3AE;" d="M268.865,246.97c-14.1,9.49-31.08,15.03-49.36,15.03s-35.26-5.54-49.36-15.03
		c-0.19-0.13-0.39-0.26-0.58-0.4c-23.28-15.94-38.56-42.72-38.56-73.07V151V99.5c0-48.877,39.623-88.5,88.5-88.5l0,0
		c48.877,0,88.5,39.623,88.5,88.5V151v22.5c0,30.35-15.28,57.13-38.56,73.07C269.255,246.71,269.055,246.84,268.865,246.97z"/>
	<path style="fill:#333333;" d="M219.505,268c-18.88,0-37.107-5.551-52.71-16.052l-0.182-0.123c-0.168-0.114-0.339-0.23-0.506-0.351
		c-25.74-17.656-41.102-46.798-41.102-77.974v-74c0-52.107,42.393-94.5,94.5-94.5s94.5,42.393,94.5,94.5v74
		c0,31.174-15.365,60.317-41.102,77.974c-0.167,0.12-0.337,0.236-0.506,0.35l-0.137,0.093c-0.015,0.01-0.03,0.021-0.045,0.031
		C256.612,262.449,238.385,268,219.505,268z M219.505,17c-45.491,0-82.5,37.009-82.5,82.5v74c0,27.241,13.439,52.706,35.95,68.12
		c0.056,0.038,0.11,0.077,0.165,0.117c0.068,0.05,0.139,0.096,0.208,0.143l0.212,0.145c13.57,9.133,29.48,13.977,45.965,13.977
		s32.394-4.844,46.01-14.007l0.376-0.256c0.054-0.04,0.109-0.079,0.165-0.117c22.51-15.414,35.95-40.879,35.95-68.12v-74
		C302.005,54.009,264.996,17,219.505,17z"/>
	<g>
		<path style="fill:#F7774B;" d="M219.504,221.01c-4.869,0-9.738-0.513-14.573-1.538c-3.242-0.688-5.312-3.873-4.625-7.114
			c0.688-3.241,3.869-5.313,7.114-4.625c8.018,1.7,16.148,1.7,24.167,0c3.243-0.688,6.426,1.383,7.114,4.625
			c0.687,3.242-1.383,6.427-4.625,7.114C229.243,220.497,224.374,221.01,219.504,221.01z"/>
	</g>
	<g style="opacity:0.44;">
		<path style="fill:#333333;" d="M220.01,234H219c-2.209,0-4-1.791-4-4s1.791-4,4-4h1.01c2.209,0,4,1.791,4,4
			S222.219,234,220.01,234z"/>
	</g>
	<g>
		<g>
			<path style="fill:#333333;" d="M248.031,145.414c-2.724,0-5.189-1.868-5.837-4.635c-0.755-3.227,1.249-6.454,4.476-7.209
				c9.705-2.271,19.964-2.271,29.669,0c3.227,0.755,5.23,3.982,4.476,7.209c-0.755,3.227-3.986,5.229-7.209,4.476
				c-7.917-1.852-16.286-1.852-24.203,0C248.944,145.362,248.484,145.414,248.031,145.414z"/>
		</g>
	</g>
	<path style="opacity:0.44;fill:#333333;enable-background:new    ;" d="M201.145,246.97c10.02,6.74,21.5,11.49,33.86,13.68
		c-5.03,0.89-10.21,1.35-15.5,1.35c-18.28,0-35.26-5.54-49.36-15.03c-0.19-0.13-0.39-0.26-0.58-0.4
		c-23.28-15.94-38.56-42.72-38.56-73.07V151c0-139,54.89-137.301,54.89-134.411l-10.384,15.807
		c-15.364,23.387-15.305,53.174-0.958,76.231c2.423,3.895,10.151,17.294,10.019,20.366c-0.483,11.29-9.201,21.36-21.338,21.975
		c-0.407,0.021-0.817,0.031-1.229,0.031v22.5c0,30.35,15.28,57.13,38.56,73.07C200.755,246.71,200.955,246.84,201.145,246.97z"/>
	<g>
		<g>
			<g>
				<g>
					<circle style="fill:#333333;" cx="185.165" cy="162.116" r="8.009"/>
				</g>
				<path style="fill:#333333;" d="M169.835,169.208c-1.533,0-3.065-0.583-4.236-1.751c-2.347-2.34-2.352-6.139-0.013-8.485
					c6.152-6.171,15.545-7.746,23.375-3.919c2.977,1.455,4.211,5.048,2.756,8.025c-1.455,2.977-5.048,4.212-8.025,2.756
					c-3.217-1.573-7.079-0.924-9.608,1.611C172.912,168.62,171.374,169.208,169.835,169.208z"/>
			</g>
		</g>
		<g>
			<g>
				<g>
					<circle style="fill:#333333;" cx="253.845" cy="162.116" r="8.009"/>
				</g>
				<path style="fill:#333333;" d="M269.174,169.208c-1.539,0-3.076-0.588-4.249-1.763c-2.53-2.536-6.392-3.184-9.609-1.611
					c-2.976,1.457-6.569,0.222-8.025-2.756c-1.455-2.977-0.221-6.57,2.756-8.025c7.83-3.826,17.223-2.25,23.375,3.919
					c2.34,2.347,2.334,6.146-0.012,8.485C272.24,168.624,270.707,169.208,269.174,169.208z"/>
			</g>
		</g>
	</g>
	<g>
		<path style="fill:#333333;" d="M212.562,194c-3.313,0-6-2.687-6-6v-32.927c0-2.692-1.515-5.195-3.858-6.375
			c-7.192-3.621-19.525-7.154-37.44-3.412c-3.245,0.675-6.422-1.403-7.1-4.647c-0.677-3.244,1.403-6.422,4.647-7.1
			c21.306-4.449,36.389-0.041,45.29,4.441c6.453,3.25,10.462,9.799,10.462,17.093V188C218.562,191.313,215.875,194,212.562,194z"/>
	</g>
	<path style="fill:#FFD3AE;" d="M339,414.43V433h-49.02v-65v-13l41.29-37.34c4.99,11.39,7.73,23.74,7.73,36.65L339,414.43
		L339,414.43z"/>
	<path style="fill:#FFD3AE;" d="M149.02,368v65H100.5v-18.57v-60.12c0-12.79,2.68-25.04,7.58-36.34l40.94,37.02V368z"/>
	<path style="fill:#333333;" d="M149.021,360.998c-1.457,0-2.915-0.528-4.066-1.593l-40.9-36.984
		c-2.458-2.222-2.648-6.017-0.426-8.475c2.221-2.458,6.015-2.649,8.475-0.426l40.94,37.02c0.038,0.035,0.076,0.07,0.113,0.105
		c2.4,2.285,2.498,6.088,0.212,8.487C152.189,360.373,150.606,360.998,149.021,360.998z"/>
	<path style="fill:#333333;" d="M289.982,361c-1.637,0-3.268-0.666-4.452-1.976c-2.223-2.458-2.032-6.252,0.426-8.475l41.29-37.34
		c2.458-2.223,6.252-2.031,8.475,0.426c2.223,2.458,2.032,6.252-0.426,8.475l-41.29,37.34C292.856,360.488,291.417,361,289.982,361z
		"/>
	<path style="fill:#FFFFFF;" d="M283.01,211c-3.313,0-6-2.687-6-6v-29c0-3.313,2.687-6,6-6s6,2.687,6,6v29
		C289.01,208.313,286.323,211,283.01,211z"/>
	<path style="fill:#333333;" d="M219.51,318.29c-30.845,0-55.94-25.095-55.94-55.94v-1.78h12v1.78
		c0,24.229,19.711,43.94,43.94,43.94c24.223,0,43.93-19.711,43.93-43.94v-1.97h12v1.97C275.44,293.195,250.35,318.29,219.51,318.29z
		"/>
	<path style="fill:#F7774B;" d="M316.527,103.017l5.588,101.644c1.33,24.196-7.442,47.858-24.224,65.339l0,0v-46.693V128
		l-0.01-0.004c-50.428-19.541-106.336-19.539-156.763,0.004l0,0v95.296V270l0,0c-16.782-17.481-25.554-41.143-24.224-65.339
		l5.588-101.644C122.483,49.433,165.926,6,219.499,6h0.011C273.083,6,316.527,49.433,316.527,103.017z"/>
	<g style="opacity:0.44;">
		<path style="fill:#333333;" d="M170.292,103.017c0-45.335,31.099-83.4,73.118-94.046C235.764,7.033,227.758,6,219.51,6h-0.011
			c-53.573,0-97.017,43.433-97.017,97.017l-5.588,101.645c-1.33,24.196,7.443,47.858,24.224,65.339l0,0v-46.704V128l0,0
			c9.216-3.572,18.616-6.483,28.131-8.75L170.292,103.017z"/>
	</g>
	<path style="fill:#333333;" d="M297.89,276c-0.753,0-1.512-0.142-2.238-0.434c-2.272-0.914-3.761-3.117-3.761-5.566V132.152
		c-46.838-17.122-97.933-17.123-144.772,0V270c0,2.449-1.488,4.652-3.761,5.566c-2.272,0.914-4.873,0.355-6.567-1.411
		c-17.868-18.613-27.304-44.063-25.887-69.824l5.579-101.482C116.573,46.122,162.751,0,219.5,0
		c56.759,0,102.937,46.122,103.027,102.85l5.579,101.482c1.417,25.762-8.019,51.211-25.887,69.824
		C301.065,275.357,299.493,276,297.89,276z M219.51,12c-50.198,0-91.028,40.83-91.028,91.017c0,0.11-0.003,0.22-0.009,0.33
		l-5.588,101.645c-0.924,16.8,3.449,33.45,12.233,47.563V128.001c0-2.477,1.522-4.699,3.832-5.595
		c51.939-20.129,109.147-20.132,161.088-0.007c2.31,0.889,3.853,3.115,3.853,5.602v124.554
		c8.784-14.113,13.157-30.763,12.233-47.564l-5.589-101.644c-0.006-0.11-0.009-0.22-0.009-0.33C310.527,52.83,269.697,12,219.51,12z
		"/>
	<path style="fill:#FFFFFF;" d="M296.449,91.001c-2.724,0-5.189-1.867-5.836-4.634c-5.041-21.532-20.051-40.028-40.153-49.477
		c-2.999-1.41-4.288-4.984-2.878-7.982c1.41-3,4.984-4.288,7.982-2.878c23.393,10.996,40.863,32.529,46.732,57.602
		c0.755,3.227-1.248,6.455-4.475,7.21C297.362,90.949,296.902,91.001,296.449,91.001z"/>
	<path style="fill:#FFFFFF;" d="M236.016,31.736c-0.415,0-0.835-0.043-1.257-0.133c-2.432-0.519-4.917-0.917-7.389-1.182
		c-3.295-0.354-5.679-3.312-5.325-6.606c0.354-3.295,3.316-5.681,6.606-5.325c2.88,0.31,5.777,0.773,8.61,1.377
		c3.241,0.691,5.308,3.879,4.617,7.12C241.276,29.805,238.787,31.736,236.016,31.736z"/>
	<path style="fill:#333333;" d="M297.881,133.997c-3.313,0-6-2.687-6-6V109c0-3.313,2.687-6,6-6s6,2.687,6,6v18.997
		C303.881,131.31,301.195,133.997,297.881,133.997z"/>
	<path style="fill:#333333;" d="M277.01,126.769c-3.313,0-6-2.687-6-6v-18.996c0-3.313,2.687-6,6-6s6,2.687,6,6v18.996
		C283.01,124.083,280.323,126.769,277.01,126.769z"/>
	<path style="fill:#333333;" d="M181.01,121.769c-3.313,0-6-2.687-6-6V96.772c0-3.313,2.687-6,6-6s6,2.687,6,6v18.997
		C187.01,119.083,184.323,121.769,181.01,121.769z"/>
	<path style="fill:#333333;" d="M199.01,119.769c-3.313,0-6-2.687-6-6V94.772c0-3.313,2.687-6,6-6s6,2.687,6,6v18.997
		C205.01,117.083,202.323,119.769,199.01,119.769z"/>
	<path style="fill:#333333;" d="M141.119,133.997c-3.313,0-6-2.687-6-6V109c0-3.313,2.687-6,6-6s6,2.687,6,6v18.997
		C147.119,131.31,144.432,133.997,141.119,133.997z"/>
	<path style="fill:#333333;" d="M345,433h-12v-78.69c0-11.777-2.431-23.298-7.226-34.242c-5.658-12.917-14.281-24.448-25.631-34.271
		c-1.99-1.729-4.022-3.365-6.049-4.869c-8.116-6.082-17.148-11.113-26.868-14.971c-4.289-1.717-8.724-3.201-13.2-4.417
		c-0.662-0.185-1.283-0.349-1.912-0.504l2.87-11.651c0.75,0.185,1.49,0.38,2.229,0.587c4.878,1.325,9.756,2.957,14.456,4.839
		c10.69,4.243,20.654,9.796,29.598,16.499c2.25,1.67,4.524,3.5,6.737,5.422c12.702,10.994,22.381,23.957,28.76,38.522
		c5.464,12.471,8.234,25.612,8.234,39.057V433H345z"/>
	<path style="fill:#333333;" d="M106.5,433h-12v-78.69c0-13.341,2.717-26.371,8.075-38.727
		c7.352-16.919,19.548-32.131,35.272-43.993c8.917-6.723,18.837-12.303,29.484-16.586c4.733-1.912,9.676-3.579,14.684-4.951
		c0.659-0.184,1.355-0.367,2.053-0.549l3.108,11.591c-0.708,0.185-1.339,0.35-1.962,0.523c-4.588,1.257-9.085,2.773-13.396,4.515
		c-9.676,3.893-18.672,8.951-26.746,15.038c-14.073,10.617-24.962,24.169-31.489,39.19c-4.699,10.836-7.083,22.26-7.083,33.949
		C106.5,354.31,106.5,433,106.5,433z"/>
	<path style="fill:#333333;" d="M295.98,433h-12V309c0-12.496,2.791-24.445,8.295-35.517c0.171-0.357,0.354-0.714,0.535-1.065
		l0.119-0.232l10.682,5.468l-0.131,0.255c-0.132,0.256-0.267,0.515-0.39,0.775c-0.016,0.034-0.032,0.067-0.049,0.101
		c-4.686,9.408-7.061,19.574-7.061,30.215L295.98,433L295.98,433z"/>
	<path style="fill:#333333;" d="M155.02,433h-12V309c0-10.539-2.335-20.622-6.941-29.968c-0.017-0.034-0.033-0.068-0.049-0.102
		c-0.195-0.416-0.408-0.831-0.62-1.239l10.643-5.543c0.279,0.536,0.558,1.083,0.815,1.629c5.41,10.997,8.153,22.847,8.153,35.222
		V433H155.02z"/>
	<path style="fill:#333333;" d="M351,439H88.23c-3.313,0-6-2.687-6-6s2.687-6,6-6H351c3.313,0,6,2.687,6,6S354.313,439,351,439z"/>
	<path style="fill:#333333;" d="M383,439h-11c-3.313,0-6-2.687-6-6s2.687-6,6-6h11c3.313,0,6,2.687,6,6S386.313,439,383,439z"/>
	<path style="fill:#333333;" d="M67,439H56c-3.313,0-6-2.687-6-6s2.687-6,6-6h11c3.313,0,6,2.687,6,6S70.313,439,67,439z"/>
	<path style="fill:#FFFFFF;" d="M317.02,419c-3.313,0-6-2.687-6-6v-57c0-3.313,2.687-6,6-6s6,2.687,6,6v57
		C323.02,416.313,320.333,419,317.02,419z"/>
	<g>
		<path style="opacity:0.44;fill:#333333;enable-background:new    ;" d="M145.67,286.92c-15.21,15.89-24.56,37.45-24.56,61.19V431
			h-19.12v-82.89c0-30.42,15.35-57.27,38.74-73.19C142.71,278.74,144.37,282.75,145.67,286.92z"/>
	</g>
</g>
<g>
</g>
<g>
</g>
<g>
</g>
<g>
</g>
<g>
</g>
<g>
</g>
<g>
</g>
<g>
</g>
<g>
</g>
<g>
</g>
<g>
</g>
<g>
</g>
<g>
</g>
<g>
</g>
<g>
</g>
</svg>
