<?xml version="1.0" encoding="iso-8859-1"?>
<!-- Generator: Adobe Illustrator 19.0.0, SVG Export Plug-In . SVG Version: 6.00 Build 0)  -->
<svg version="1.1" id="Layer_1" xmlns="http://www.w3.org/2000/svg" xmlns:xlink="http://www.w3.org/1999/xlink" x="0px" y="0px"
	 viewBox="0 0 460 460" style="enable-background:new 0 0 460 460;" xml:space="preserve">
<g>
	<g>
		<circle style="fill:#A5536E;" cx="141.5" cy="54" r="48"/>
		<circle style="fill:#A5536E;" cx="318.5" cy="54" r="48"/>
	</g>
	<g style="opacity:0.44;">
		<path style="fill:#333333;" d="M158.01,99.09c-5.15,1.88-10.71,2.91-16.51,2.91c-26.51,0-48-21.49-48-48s21.49-48,48-48
			c5.8,0,11.36,1.03,16.51,2.91c-18.38,6.73-31.5,24.38-31.5,45.09S139.63,92.36,158.01,99.09z"/>
		<path style="fill:#333333;" d="M335.01,99.09c-5.15,1.88-10.71,2.91-16.51,2.91c-26.51,0-48-21.49-48-48s21.49-48,48-48
			c5.8,0,11.36,1.03,16.51,2.91c-18.38,6.73-31.5,24.38-31.5,45.09S316.63,92.36,335.01,99.09z"/>
	</g>
	<path style="fill:#333333;" d="M141.5,108c-29.776,0-54-24.224-54-54s24.224-54,54-54s54,24.224,54,54S171.276,108,141.5,108z
		 M141.5,12c-23.159,0-42,18.841-42,42s18.841,42,42,42s42-18.841,42-42S164.658,12,141.5,12z"/>
	<path style="fill:#FFFFFF;" d="M169.786,50.001c-2.47,0-4.783-1.536-5.655-3.996C160.737,36.432,151.642,30,141.5,30
		c-3.313,0-6-2.687-6-6s2.687-6,6-6c15.212,0,28.853,9.643,33.941,23.995c1.107,3.124-0.527,6.553-3.65,7.661
		C171.129,49.89,170.452,50.001,169.786,50.001z"/>
	<path style="fill:#333333;" d="M318.5,108c-29.775,0-54-24.224-54-54s24.225-54,54-54s54,24.224,54,54S348.276,108,318.5,108z
		 M318.5,12c-23.159,0-42,18.841-42,42s18.841,42,42,42s42-18.841,42-42S341.659,12,318.5,12z"/>
	<path style="fill:#FFFFFF;" d="M333.511,85.972c-2.069,0-4.083-1.072-5.196-2.991c-1.662-2.867-0.687-6.538,2.181-8.201
		C337.9,70.486,342.5,62.523,342.5,54c0-3.641-0.798-7.138-2.37-10.395c-1.441-2.984-0.191-6.571,2.793-8.012
		c2.98-1.441,6.571-0.191,8.012,2.793C353.301,43.284,354.5,48.537,354.5,54c0,12.787-6.892,24.727-17.985,31.161
		C335.568,85.71,334.532,85.972,333.511,85.972z"/>
	<path style="fill:#FFFFFF;" d="M335.513,35.299c-1.58,0-3.13-0.64-4.25-1.76c-0.27-0.27-0.52-0.58-0.74-0.91
		c-0.22-0.32-0.399-0.67-0.55-1.03c-0.15-0.37-0.27-0.74-0.35-1.13c-0.07-0.38-0.11-0.78-0.11-1.17s0.04-0.78,0.11-1.17
		c0.08-0.38,0.199-0.76,0.35-1.12c0.15-0.37,0.33-0.72,0.55-1.04c0.221-0.33,0.471-0.64,0.74-0.91c0.28-0.28,0.59-0.53,0.92-0.75
		c0.32-0.21,0.67-0.4,1.03-0.55c0.359-0.15,0.74-0.26,1.12-0.34c0.779-0.16,1.569-0.16,2.35,0c0.38,0.08,0.76,0.19,1.12,0.34
		s0.71,0.34,1.04,0.55c0.32,0.22,0.63,0.47,0.91,0.75c0.27,0.27,0.53,0.58,0.74,0.91c0.22,0.32,0.409,0.67,0.56,1.04
		c0.15,0.36,0.26,0.74,0.34,1.12c0.08,0.39,0.12,0.78,0.12,1.17s-0.04,0.79-0.12,1.17c-0.08,0.39-0.189,0.76-0.34,1.13
		c-0.15,0.36-0.34,0.71-0.56,1.03c-0.21,0.33-0.471,0.64-0.74,0.91c-0.28,0.28-0.59,0.53-0.91,0.75c-0.33,0.21-0.68,0.4-1.04,0.55
		s-0.74,0.27-1.12,0.34C336.293,35.259,335.903,35.299,335.513,35.299z"/>
	<g>
		<path style="fill:#E0A875;" d="M279.355,282.97c0.19,0.05,0.39,0.09,0.58,0.14c10.46,2.53,20.19,6.93,28.83,12.81
			c23.39,15.92,38.75,42.77,38.75,73.19V454h-47.04h-140.96h-47.03v-84.89c0-30.42,15.35-57.27,38.74-73.19
			c8.64-5.88,29.22-12.9,29.41-12.95l11.87-7.97"/>
		<path style="fill:#333333;" d="M347.515,460h-235.03c-3.314,0-6-2.686-6-6v-84.89c0-31.306,15.463-60.521,41.364-78.15
			c8.305-5.652,25.383-11.772,30.059-13.385l11.253-7.556l6.689,9.963l-11.87,7.97c-0.474,0.318-0.991,0.567-1.534,0.739
			c-3.225,1.063-20.731,7.349-27.845,12.19c-22.614,15.392-36.115,40.898-36.115,68.229V448h223.03v-78.89
			c0-27.327-13.505-52.833-36.126-68.23c-8.229-5.6-17.267-9.617-26.865-11.938c-0.038-0.01-0.076-0.019-0.114-0.029l-0.113-0.026
			c-0.154-0.036-0.309-0.072-0.46-0.111l3.031-11.611l0.121,0.028c0.135,0.031,0.269,0.063,0.4,0.096
			c10.99,2.664,21.337,7.264,30.752,13.671c25.907,17.634,41.374,46.849,41.374,78.15V454C353.515,457.314,350.828,460,347.515,460z
			"/>
	</g>
	<path style="fill:#E0A875;" d="M159.515,330v124h-47.03v-84.89c0-30.42,15.35-57.27,38.74-73.19
		C156.525,306.12,159.515,317.71,159.515,330z"/>
	<path style="fill:#E0A875;" d="M347.515,369.11V454h-47.04V330c0-12.29,2.99-23.88,8.29-34.08
		C332.155,311.84,347.515,338.69,347.515,369.11z"/>
	<path style="fill:#333333;" d="M355.5,454h-12v-78.69c0-25.831-11.67-50.163-32.858-68.514C289.213,288.226,260.663,278,230.25,278
		C167.803,278,117,321.653,117,375.31V454h-12v-78.69C105,315.036,161.187,266,230.25,266c33.3,0,64.641,11.267,88.249,31.726
		c23.859,20.665,37.001,48.218,37.001,77.584V454z"/>
	<path style="fill:#333333;" d="M306.475,454h-12V330c0-12.816,3.101-25.558,8.966-36.846l10.648,5.533
		c-5.053,9.724-7.614,20.259-7.614,31.313V454z"/>
	<path style="fill:#FFFFFF;" d="M327.515,440c-3.313,0-6-2.687-6-6v-73c0-3.313,2.687-6,6-6s6,2.687,6,6v73
		C333.515,437.313,330.828,440,327.515,440z"/>
	<g>
		<path style="opacity:0.44;fill:#333333;enable-background:new    ;" d="M156.165,307.92c-15.21,15.89-24.56,37.45-24.56,61.19V452
			h-19.12v-82.89c0-30.42,15.35-57.27,38.74-73.19C153.205,299.74,154.865,303.75,156.165,307.92z"/>
	</g>
	<path style="fill:#333333;" d="M165.515,454h-12V330c0-11.055-2.562-21.59-7.614-31.313l10.648-5.533
		c5.865,11.288,8.966,24.029,8.966,36.847V454z"/>
	<g>
		<path style="fill:#333333;" d="M264.48,430h-68.96c-23.159,0-42-18.841-42-42h12c0,16.542,13.458,30,30,30h68.96
			c16.542,0,30-13.458,30-30h12C306.48,411.159,287.639,430,264.48,430z"/>
		<path style="fill:#FFFFFF;" d="M264.48,412c-3.313,0-6-2.687-6-6s2.687-6,6-6c6.617,0,12-5.383,12-12c0-3.313,2.687-6,6-6
			s6,2.687,6,6C288.48,401.234,277.713,412,264.48,412z"/>
	</g>
	<g>
		<path style="fill:#333333;" d="M361.5,460H98.73c-3.313,0-6-2.687-6-6s2.687-6,6-6H361.5c3.313,0,6,2.687,6,6
			S364.814,460,361.5,460z"/>
		<path style="fill:#333333;" d="M393.5,460h-11c-3.313,0-6-2.687-6-6s2.687-6,6-6h11c3.313,0,6,2.687,6,6S396.814,460,393.5,460z"
			/>
		<path style="fill:#333333;" d="M77.5,460h-11c-3.313,0-6-2.687-6-6s2.687-6,6-6h11c3.313,0,6,2.687,6,6S80.813,460,77.5,460z"/>
	</g>
	<g>
		<g>
			<circle style="fill:#FFD3AE;" cx="149.432" cy="172" r="27.89"/>
			<circle style="fill:#FFD3AE;" cx="310.568" cy="172" r="27.89"/>
		</g>
		<g>
			<path style="fill:#333333;" d="M149.432,205.89c-18.687,0-33.89-15.203-33.89-33.89s15.203-33.89,33.89-33.89
				s33.89,15.203,33.89,33.89S168.119,205.89,149.432,205.89z M149.432,150.11c-12.07,0-21.89,9.82-21.89,21.89
				s9.82,21.89,21.89,21.89s21.89-9.82,21.89-21.89S161.503,150.11,149.432,150.11z"/>
			<path style="fill:#333333;" d="M310.568,205.89c-18.687,0-33.89-15.203-33.89-33.89s15.203-33.89,33.89-33.89
				s33.89,15.203,33.89,33.89S329.254,205.89,310.568,205.89z M310.568,150.11c-12.07,0-21.89,9.82-21.89,21.89
				s9.819,21.89,21.89,21.89s21.89-9.82,21.89-21.89S322.638,150.11,310.568,150.11z"/>
		</g>
	</g>
	<path style="fill:#FFD3AE;" d="M279.36,267.97C265.26,277.46,248.28,283,230,283s-35.26-5.54-49.36-15.03
		c-0.19-0.13-0.39-0.26-0.58-0.4c-23.28-15.94-38.56-42.72-38.56-73.07V172v-51.5c0-48.877,39.623-88.5,88.5-88.5l0,0
		c48.877,0,88.5,39.623,88.5,88.5V172v22.5c0,30.35-15.28,57.13-38.56,73.07C279.75,267.71,279.55,267.84,279.36,267.97z"/>
	<g>
		<path style="fill:#F7774B;" d="M230,242.01c-4.869,0-9.738-0.513-14.573-1.538c-3.242-0.688-5.312-3.873-4.625-7.114
			c0.688-3.241,3.869-5.314,7.114-4.625c8.019,1.7,16.147,1.7,24.168,0c3.241-0.688,6.427,1.384,7.113,4.625
			c0.688,3.242-1.383,6.427-4.625,7.114C239.738,241.497,234.869,242.01,230,242.01z"/>
	</g>
	<g style="opacity:0.44;">
		<path style="fill:#333333;" d="M230.505,255h-1.01c-2.209,0-4-1.791-4-4s1.791-4,4-4h1.01c2.209,0,4,1.791,4,4
			S232.714,255,230.505,255z"/>
	</g>
	<g>
		<g>
			<path style="fill:#333333;" d="M285.473,166.414c-0.452,0-0.912-0.052-1.372-0.159c-7.916-1.853-16.285-1.853-24.201,0
				c-3.229,0.756-6.455-1.249-7.209-4.476c-0.755-3.227,1.248-6.454,4.475-7.209c9.704-2.27,19.962-2.27,29.67,0
				c3.227,0.755,5.229,3.982,4.475,7.209C290.663,164.546,288.198,166.414,285.473,166.414z"/>
		</g>
	</g>
	<path style="opacity:0.44;fill:#333333;enable-background:new    ;" d="M211.64,267.97c10.02,6.74,21.5,11.49,33.86,13.68
		c-5.03,0.89-10.21,1.35-15.5,1.35c-18.28,0-35.26-5.54-49.36-15.03c-0.19-0.13-0.39-0.26-0.58-0.4
		c-23.28-15.94-38.56-42.72-38.56-73.07V172c0-139,54.89-137.301,54.89-134.411l-10.384,15.807
		c-15.364,23.387-15.306,53.174-0.958,76.231c2.423,3.895,10.151,17.294,10.019,20.366c-0.483,11.29-9.201,21.36-21.338,21.975
		c-0.407,0.021-0.817,0.031-1.229,0.031v22.5c0,30.35,15.28,57.13,38.56,73.07C211.25,267.71,211.45,267.84,211.64,267.97z"/>
	<g>
		<g>
			<g>
				<g>
					<circle style="fill:#333333;" cx="195.66" cy="183.116" r="8.009"/>
				</g>
				<path style="fill:#333333;" d="M180.33,190.208c-1.533,0-3.065-0.583-4.237-1.751c-2.346-2.34-2.352-6.139-0.012-8.485
					c6.153-6.17,15.544-7.745,23.375-3.919c2.977,1.455,4.211,5.048,2.756,8.025c-1.455,2.977-5.048,4.211-8.025,2.756
					c-3.217-1.573-7.08-0.926-9.609,1.611C183.407,189.62,181.868,190.208,180.33,190.208z"/>
			</g>
		</g>
		<g>
			<g>
				<g>
					<circle style="fill:#333333;" cx="264.34" cy="183.116" r="8.009"/>
				</g>
				<path style="fill:#333333;" d="M279.669,190.208c-1.539,0-3.077-0.588-4.249-1.764c-2.528-2.537-6.391-3.184-9.607-1.611
					c-2.978,1.457-6.57,0.221-8.025-2.756s-0.222-6.57,2.756-8.025c7.83-3.826,17.224-2.251,23.375,3.919
					c2.34,2.347,2.334,6.146-0.013,8.485C282.735,189.624,281.201,190.208,279.669,190.208z"/>
			</g>
		</g>
	</g>
	<g>
		<path style="fill:#333333;" d="M223.057,215c-3.313,0-6-2.687-6-6v-32.927c0-2.692-1.515-5.195-3.859-6.375
			c-7.192-3.621-19.524-7.153-37.439-3.412c-3.243,0.676-6.422-1.403-7.1-4.647c-0.677-3.244,1.403-6.422,4.647-7.1
			c21.306-4.447,36.389-0.041,45.289,4.441c6.454,3.249,10.462,9.799,10.462,17.093V209C229.057,212.313,226.37,215,223.057,215z"/>
	</g>
	<path style="fill:#A5536E;" d="M318.505,120.5V172c-28.01-18-39-66-39-66s-14,56-138,56h-0.01v-41.5c0-48.88,39.63-88.5,88.5-88.5
		h0.01C278.875,32,318.505,71.62,318.505,120.5z"/>
	<g style="opacity:0.44;">
		<path style="fill:#333333;" d="M188.505,120.5c0-40.741,27.534-75.044,65-85.339c-7.484-2.057-15.363-3.161-23.5-3.161h-0.01
			c-48.87,0-88.5,39.62-88.5,88.5V162h0.01c17.856,0,33.419-1.166,47-3.154V120.5z"/>
	</g>
	<path style="fill:#333333;" d="M229.995,289c-18.874,0-37.097-5.551-52.7-16.052c-0.227-0.147-0.484-0.32-0.731-0.503
		c-25.718-17.664-41.068-46.792-41.068-77.944v-74c0-52.107,42.393-94.5,94.5-94.5c52.118,0,94.51,42.393,94.51,94.5v74
		c0,31.176-15.365,60.32-41.105,77.976c-0.139,0.1-0.281,0.197-0.423,0.292l-0.104,0.071c-0.058,0.041-0.1,0.07-0.158,0.109
		C267.112,283.449,248.881,289,229.995,289z M230.005,38c-45.501,0-82.51,37.009-82.51,82.5v74c0,27.236,13.443,52.702,35.96,68.12
		c0.1,0.068,0.197,0.139,0.292,0.213l0.157,0.1c0.023,0.016,0.067,0.044,0.091,0.06c13.616,9.164,29.522,14.007,46,14.007
		c16.464,0,32.355-4.829,45.957-13.964c0.109-0.077,0.223-0.154,0.338-0.231l0.114-0.077c0.056-0.042,0.094-0.068,0.151-0.107
		c22.511-15.414,35.95-40.879,35.95-68.12v-74C312.505,75.009,275.495,38,230.005,38z"/>
	<path style="fill:#FFFFFF;" d="M300.505,126.5c-3.313,0-6-2.687-6-6c0-22.804-12.274-44.152-32.033-55.714
		c-2.86-1.674-3.822-5.349-2.148-8.209c1.673-2.86,5.35-3.822,8.209-2.148c23.423,13.706,37.973,39.023,37.973,66.072
		C306.505,123.813,303.819,126.5,300.505,126.5z"/>
	<path style="fill:#FFFFFF;" d="M248.503,58.459c-1.58,0-3.13-0.64-4.24-1.75c-0.28-0.28-0.53-0.59-0.75-0.91
		c-0.21-0.33-0.4-0.68-0.55-1.04c-0.15-0.36-0.26-0.74-0.34-1.12c-0.08-0.39-0.12-0.78-0.12-1.17c0-0.4,0.04-0.79,0.12-1.18
		c0.08-0.38,0.189-0.76,0.34-1.12c0.149-0.36,0.34-0.71,0.55-1.04c0.22-0.32,0.47-0.63,0.75-0.91c1.11-1.11,2.66-1.76,4.24-1.76
		s3.13,0.65,4.25,1.76c0.27,0.28,0.52,0.59,0.74,0.91c0.22,0.33,0.399,0.68,0.55,1.04c0.149,0.36,0.27,0.74,0.34,1.12
		c0.08,0.39,0.12,0.78,0.12,1.18c0,0.39-0.04,0.78-0.12,1.17c-0.07,0.38-0.19,0.76-0.34,1.12s-0.33,0.71-0.55,1.04
		c-0.221,0.32-0.471,0.63-0.74,0.91C251.633,57.819,250.083,58.459,248.503,58.459z"/>
	<path style="fill:#333333;" d="M315.261,177.047c-19.947-12.818-31.646-38.896-37.326-55.288
		C264.933,139.688,230.337,168,141.505,168v-12c117.951,0,132.051-50.94,132.179-51.455c0.669-2.673,3.07-4.545,5.82-4.545
		c0.021,0,0.04,0,0.061,0c2.775,0.027,5.17,1.955,5.789,4.66c0.104,0.454,10.805,45.847,36.396,62.292L315.261,177.047z"/>
	<path style="fill:#FFFFFF;" d="M299.505,221c-3.313,0-6-2.687-6-6v-29c0-3.313,2.687-6,6-6s6,2.687,6,6v29
		C305.505,218.313,302.819,221,299.505,221z"/>
	<path style="fill:#FFD3AE;" d="M255.805,308.92l-1.06,0.33L230.005,334l-24.75-24.75l-1.11-0.33
		c8.61-13.54,25.83-22.05,25.83-22.05S247.195,295.38,255.805,308.92z"/>
	<path style="opacity:0.44;fill:#333333;enable-background:new    ;" d="M255.805,308.92l-1.06,0.33L230.005,334l-24.75-24.75
		l-1.11-0.33c8.61-13.54,25.83-22.05,25.83-22.05S247.195,295.38,255.805,308.92z"/>
	<path style="fill:#333333;" d="M199.366,330c-1.435,0-2.853-0.515-3.971-1.501c-0.817-0.722-20.074-17.95-24.714-42.347
		c-0.07-0.37-0.105-0.745-0.105-1.121l6.027-0.005l5.868-1.116c2.179,11.455,8.434,21.218,13.531,27.606
		c0.832-1.955,1.86-3.896,3.082-5.816c9.402-14.785,27.469-23.83,28.234-24.208c1.676-0.828,3.641-0.828,5.316,0
		c0.765,0.378,18.832,9.423,28.234,24.209c1.219,1.914,2.243,3.848,3.074,5.796c5.133-6.442,11.442-16.292,13.574-27.763
		l11.799,2.193c-4.557,24.512-23.938,41.847-24.76,42.572c-1.769,1.561-4.287,1.941-6.438,0.97c-2.15-0.97-3.532-3.11-3.532-5.469
		c0-3.862-1.293-7.853-3.842-11.859c-5.714-8.984-15.935-15.632-20.763-18.431c-4.832,2.81-15.088,9.49-20.773,18.43
		c-2.55,4.008-3.843,7.998-3.843,11.86c0,2.359-1.382,4.499-3.532,5.469C201.042,329.826,200.201,330,199.366,330z"/>
	<path style="fill:#333333;" d="M230.006,340c-1.592,0-3.118-0.632-4.244-1.757l-24.75-24.75l8.485-8.485l20.506,20.506
		l20.498-20.505l8.486,8.483l-24.74,24.75C233.123,339.367,231.597,340,230.006,340z"/>
	<g>
		<path style="fill:#333333;" d="M230.005,366c-3.313,0-6-2.687-6-6v-26c0-3.313,2.687-6,6-6s6,2.687,6,6v26
			C236.005,363.313,233.319,366,230.005,366z"/>
	</g>
</g>
<g>
</g>
<g>
</g>
<g>
</g>
<g>
</g>
<g>
</g>
<g>
</g>
<g>
</g>
<g>
</g>
<g>
</g>
<g>
</g>
<g>
</g>
<g>
</g>
<g>
</g>
<g>
</g>
<g>
</g>
</svg>
