<?xml version="1.0" encoding="iso-8859-1"?>
<!-- Generator: Adobe Illustrator 19.0.0, SVG Export Plug-In . SVG Version: 6.00 Build 0)  -->
<svg version="1.1" id="Layer_1" xmlns="http://www.w3.org/2000/svg" xmlns:xlink="http://www.w3.org/1999/xlink" x="0px" y="0px"
	 viewBox="0 0 441 441" style="enable-background:new 0 0 441 441;" xml:space="preserve">
<g>
	<g>
		<g>
			<circle style="fill:#FFD3AE;" cx="139.927" cy="168" r="27.89"/>
			<circle style="fill:#FFD3AE;" cx="301.062" cy="168" r="27.89"/>
		</g>
		<g>
			<path style="fill:#333333;" d="M139.928,201.89c-18.688,0-33.891-15.203-33.891-33.89s15.203-33.89,33.891-33.89
				c18.687,0,33.89,15.203,33.89,33.89S158.614,201.89,139.928,201.89z M139.928,146.11c-12.07,0-21.891,9.82-21.891,21.89
				s9.82,21.89,21.891,21.89s21.89-9.82,21.89-21.89S151.998,146.11,139.928,146.11z"/>
			<path style="fill:#333333;" d="M301.063,201.89c-18.687,0-33.89-15.203-33.89-33.89s15.203-33.89,33.89-33.89
				s33.89,15.203,33.89,33.89S319.749,201.89,301.063,201.89z M301.063,146.11c-12.07,0-21.89,9.82-21.89,21.89
				s9.819,21.89,21.89,21.89s21.89-9.82,21.89-21.89S313.133,146.11,301.063,146.11z"/>
		</g>
	</g>
	<path style="fill:#4CC18E;" d="M269.855,263.97c0.19,0.05,0.39,0.09,0.58,0.14c10.46,2.53,20.19,6.93,28.83,12.81
		c23.39,15.92,38.75,42.77,38.75,73.19V435h-47.04h-140.96h-47.03v-84.89c0-30.42,15.35-57.27,38.74-73.19
		c8.64-5.88,18.37-10.28,28.83-12.81c0.19-0.05,0.39-0.09,0.58-0.14"/>
	<path style="fill:#4CC18E;" d="M150.015,311v124h-47.03v-84.89c0-30.42,15.35-57.27,38.74-73.19
		C147.025,287.12,150.015,298.71,150.015,311z"/>
	<path style="fill:#4CC18E;" d="M338.015,350.11V435h-47.04V311c0-12.29,2.99-23.88,8.29-34.08
		C322.655,292.84,338.015,319.69,338.015,350.11z"/>
	<path style="fill:#FFD3AE;" d="M269.855,263.97c-14.1,9.49-31.08,15.03-49.36,15.03s-35.26-5.54-49.36-15.03
		c-0.19-0.13-0.39-0.26-0.58-0.4c-23.28-15.94-38.56-42.72-38.56-73.07V168v-51.5c0-48.877,39.623-88.5,88.5-88.5l0,0
		c48.877,0,88.5,39.623,88.5,88.5V168v22.5c0,30.35-15.28,57.13-38.56,73.07C270.245,263.71,270.045,263.84,269.855,263.97z"/>
	<path style="fill:#333333;" d="M220.495,285c-18.881,0-37.107-5.551-52.711-16.052l-0.188-0.128
		c-0.167-0.112-0.335-0.228-0.5-0.346c-25.736-17.656-41.101-46.799-41.101-77.973v-74c0-52.107,42.393-94.5,94.5-94.5
		s94.5,42.393,94.5,94.5v74c0,31.172-15.362,60.313-41.097,77.97c-0.173,0.125-0.35,0.245-0.524,0.363l-0.13,0.088
		c-0.014,0.009-0.026,0.018-0.039,0.027C257.602,279.449,239.375,285,220.495,285z M220.495,34c-45.49,0-82.5,37.009-82.5,82.5v74
		c0,27.241,13.439,52.707,35.949,68.119c0.057,0.039,0.111,0.078,0.167,0.118l0.425,0.29C188.101,268.156,204.01,273,220.495,273
		c16.484,0,32.395-4.844,46.009-14.007l0.363-0.247c0.052-0.038,0.124-0.09,0.178-0.126c22.511-15.413,35.95-40.878,35.95-68.119
		v-74C302.995,71.009,265.985,34,220.495,34z"/>
	<g>
		<path style="fill:#333333;" d="M220.495,48c4.631,0,9.156,0.462,13.531,1.342"/>
		<path style="fill:#FFFFFF;" d="M234.032,55.343c-0.392,0-0.79-0.039-1.188-0.119C228.805,54.412,224.649,54,220.495,54
			c-3.313,0-6-2.686-6-6s2.687-6,6-6c4.947,0,9.898,0.491,14.714,1.46c3.249,0.654,5.353,3.817,4.699,7.065
			C239.336,53.375,236.831,55.343,234.032,55.343z"/>
	</g>
	<g>
		<path style="fill:#333333;" d="M188.885,188.437c-1.58,0-3.13-0.64-4.24-1.75c-1.12-1.12-1.76-2.67-1.76-4.25s0.64-3.12,1.76-4.24
			c1.39-1.39,3.46-2.03,5.41-1.64c0.39,0.08,0.76,0.19,1.13,0.34c0.36,0.15,0.71,0.34,1.03,0.55c0.33,0.22,0.64,0.47,0.91,0.75
			c0.28,0.28,0.53,0.58,0.75,0.91s0.4,0.68,0.55,1.04c0.15,0.36,0.27,0.74,0.34,1.12c0.08,0.39,0.12,0.78,0.12,1.17
			s-0.04,0.79-0.12,1.18c-0.07,0.38-0.19,0.76-0.34,1.12s-0.33,0.71-0.55,1.03c-0.22,0.33-0.47,0.64-0.75,0.92
			C192.015,187.797,190.465,188.437,188.885,188.437z"/>
		<path style="fill:#333333;" d="M256.885,188.437c-0.39,0-0.79-0.04-1.17-0.11c-0.38-0.08-0.76-0.2-1.12-0.35
			c-0.37-0.15-0.71-0.33-1.04-0.55c-0.33-0.22-0.64-0.47-0.91-0.74c-0.28-0.28-0.53-0.59-0.75-0.92c-0.22-0.32-0.4-0.67-0.55-1.03
			c-0.15-0.36-0.27-0.74-0.34-1.12c-0.08-0.39-0.12-0.79-0.12-1.18s0.04-0.78,0.12-1.17c0.07-0.38,0.19-0.76,0.34-1.12
			s0.33-0.71,0.55-1.04c0.22-0.33,0.47-0.63,0.75-0.91c0.27-0.28,0.58-0.53,0.91-0.75c0.33-0.21,0.67-0.4,1.04-0.55
			c0.36-0.15,0.74-0.26,1.12-0.34c1.95-0.39,4.02,0.25,5.41,1.64c0.28,0.28,0.53,0.58,0.75,0.91s0.4,0.68,0.55,1.04
			s0.27,0.74,0.34,1.12c0.08,0.39,0.12,0.78,0.12,1.17s-0.04,0.79-0.12,1.18c-0.07,0.38-0.19,0.76-0.34,1.12s-0.33,0.71-0.55,1.03
			c-0.22,0.33-0.47,0.64-0.75,0.92C260.015,187.797,258.465,188.437,256.885,188.437z"/>
	</g>
	<g>
		<path style="fill:#333333;" d="M213.552,202c-3.313,0-6-2.687-6-6v-16.857c0-3.204-2.606-5.81-5.811-5.81h-28.58
			c-3.313,0-6-2.687-6-6s2.687-6,6-6h28.58c9.82,0,17.811,7.989,17.811,17.81V196C219.552,199.313,216.865,202,213.552,202z"/>
		<path style="fill:#333333;" d="M267.828,173.333h-24c-3.313,0-6-2.687-6-6s2.687-6,6-6h24c3.313,0,6,2.687,6,6
			S271.142,173.333,267.828,173.333z"/>
	</g>
	<path style="fill:#333333;" d="M296.975,435h-12V311c0-12.816,3.101-25.558,8.966-36.846l10.648,5.533
		c-5.053,9.724-7.614,20.259-7.614,31.313V435z"/>
	<path style="fill:#FFFFFF;" d="M318.015,417.875c-3.313,0-6-2.687-6-6v-60.75c0-3.313,2.687-6,6-6s6,2.687,6,6v60.75
		C324.015,415.188,321.328,417.875,318.015,417.875z"/>
	<g>
		<path style="opacity:0.44;fill:#333333;enable-background:new    ;" d="M146.665,288.92c-15.21,15.89-24.56,37.45-24.56,61.19V434
			h-19.12v-83.89c0-30.42,15.35-57.27,38.74-73.19C143.705,280.74,145.365,284.75,146.665,288.92z"/>
	</g>
	<path style="fill:#333333;" d="M338.015,441h-235.03c-3.313,0-6-2.686-6-6v-84.89c0-31.306,15.463-60.521,41.364-78.15
		c9.417-6.408,19.763-11.008,30.752-13.671c0.131-0.033,0.263-0.064,0.396-0.095l0.121-0.028l3.043,11.607
		c-0.154,0.041-0.313,0.078-0.472,0.115l-0.121,0.028c-0.018,0.004-0.084,0.021-0.102,0.026
		c-9.597,2.321-18.636,6.338-26.865,11.938c-22.615,15.392-36.116,40.898-36.116,68.229V429h223.03v-78.89
		c0-27.327-13.505-52.833-36.126-68.23c-8.229-5.6-17.267-9.617-26.865-11.938c-0.038-0.01-0.076-0.019-0.114-0.029l-0.113-0.026
		c-0.154-0.036-0.309-0.072-0.46-0.111l3.037-11.609l-1.519,5.805l1.513-5.806l0.121,0.028c0.135,0.031,0.269,0.063,0.4,0.096
		c10.991,2.664,21.337,7.264,30.752,13.671c25.907,17.633,41.374,46.848,41.374,78.15V435C344.015,438.314,341.328,441,338.015,441z
		"/>
	<path style="fill:#333333;" d="M156.015,435h-12V311c0-11.054-2.562-21.59-7.614-31.313l10.648-5.533
		c5.865,11.289,8.966,24.03,8.966,36.846V435z"/>
	<path style="fill:#FFFFFF;" d="M287.306,145c-3.313,0-6-2.687-6-6v-24.378c0-21.181-10.934-40.963-28.534-51.625
		c-0.529-0.32-1.064-0.634-1.604-0.939c-2.884-1.631-3.899-5.292-2.269-8.176c1.631-2.883,5.289-3.901,8.177-2.269
		c0.644,0.364,1.28,0.737,1.912,1.12c21.169,12.823,34.318,36.537,34.318,61.889V139C293.306,142.313,290.619,145,287.306,145z"/>
	<g>
		<path style="fill:#333333;" d="M352,441H89.229c-3.313,0-6-2.687-6-6s2.687-6,6-6H352c3.313,0,6,2.687,6,6S355.313,441,352,441z"
			/>
		<path style="fill:#333333;" d="M384,441h-11c-3.313,0-6-2.687-6-6s2.687-6,6-6h11c3.313,0,6,2.687,6,6S387.313,441,384,441z"/>
		<path style="fill:#333333;" d="M68,441H57c-3.313,0-6-2.687-6-6s2.687-6,6-6h11c3.313,0,6,2.687,6,6S71.313,441,68,441z"/>
	</g>
	<path style="opacity:0.44;fill:#333333;enable-background:new    ;" d="M202.135,263.97c10.02,6.74,21.5,11.49,33.86,13.68
		c-5.03,0.89-10.21,1.35-15.5,1.35c-18.28,0-35.26-5.54-49.36-15.03c-0.19-0.13-0.39-0.26-0.58-0.4
		c-23.28-15.94-38.56-42.72-38.56-73.07V168c0-139,54.89-137.301,54.89-134.411l-10.384,15.807
		c-15.364,23.387-15.305,53.174-0.958,76.231c2.423,3.895,10.151,17.294,10.019,20.366c-0.483,11.29-9.201,21.36-21.338,21.975
		c-0.407,0.021-0.817,0.031-1.229,0.031v22.5c0,30.35,15.28,57.13,38.56,73.07C201.745,263.71,201.945,263.84,202.135,263.97z"/>
	<path style="fill:#333333;" d="M251.108,337.869c-0.836,0-1.677-0.174-2.468-0.532c-2.149-0.97-3.531-3.11-3.531-5.468
		c0-13.46-15.872-25.327-24.603-30.323c-8.726,5.015-24.617,16.919-24.617,30.323c0,2.358-1.382,4.498-3.531,5.468
		c-2.146,0.971-4.668,0.593-6.437-0.968c-1.119-0.987-27.39-24.524-25.635-55.707l11.98,0.674
		c-0.894,15.879,7.66,29.799,14.265,38.063c7.786-18.213,30.165-29.475,31.31-30.04c1.674-0.828,3.64-0.828,5.317,0
		c1.144,0.565,23.501,11.815,31.296,30.014c6.605-8.29,15.166-22.236,14.276-38.037l11.98-0.675
		c1.756,31.183-24.516,54.721-25.635,55.707C253.96,337.355,252.542,337.869,251.108,337.869z"/>
	<path style="fill:#FFFFFF;" d="M293,188c-3.313,0-6-2.687-6-6v-9c0-3.313,2.687-6,6-6s6,2.687,6,6v9
		C299,185.313,296.313,188,293,188z"/>
	<path style="fill:#F7774B;" d="M329.14,147.15C329.6,153,324.98,158,319.11,158H121.88c-5.87,0-10.49-5-10.03-10.85l3.42-43.87
		c0.41-5.24,4.78-9.28,10.03-9.28h6.7h176.98h6.71c5.25,0,9.62,4.04,10.03,9.28L329.14,147.15z"/>
	<path style="opacity:0.44;fill:#333333;enable-background:new    ;" d="M167.71,158h-45.83c-5.87,0-10.49-5-10.03-10.85l3.42-43.87
		c0.41-5.24,4.78-9.28,10.03-9.28h45.83c-5.25,0-9.62,4.04-10.03,9.28l-3.42,43.87C157.22,153,161.84,158,167.71,158z"/>
	<path style="fill:#333333;" d="M319.109,164H121.88c-4.465,0-8.764-1.88-11.794-5.158s-4.567-7.711-4.218-12.163l3.42-43.866
		C109.938,94.506,116.972,88,125.3,88h190.39c8.328,0,15.362,6.506,16.012,14.812l3.42,43.872c0.351,4.448-1.188,8.881-4.218,12.159
		S323.574,164,319.109,164z M125.3,100c-2.105,0-3.884,1.646-4.049,3.748l-3.42,43.868c-0.09,1.147,0.289,2.239,1.066,3.08
		c0.45,0.487,1.436,1.304,2.982,1.304h197.229c1.547,0,2.532-0.817,2.982-1.304c0.777-0.841,1.156-1.933,1.066-3.076l-3.42-43.874
		c-0.165-2.1-1.943-3.746-4.049-3.746C315.687,100,125.3,100,125.3,100z"/>
	<path style="fill:#F7774B;" d="M308.98,94c-0.076-14.303-3.55-27.801-9.649-39.733l-2.539-33.637
		c-0.428-5.67-5.69-9.708-11.278-8.654l-23.388,4.413C249.718,9.761,235.549,6,220.5,6h-0.01c-15.05,0-29.221,3.762-41.631,10.39
		l-23.394-4.414c-5.587-1.054-10.85,2.984-11.278,8.654l-2.539,33.642C135.55,66.203,132.076,79.698,132,94H308.98z"/>
	<path style="fill:#333333;" d="M308.979,100H132c-1.597,0-3.128-0.636-4.254-1.769c-1.126-1.132-1.755-2.667-1.746-4.263
		c0.061-11.201,2.065-22.159,5.96-32.568c2.605-6.967,4.243-14.692,4.866-22.96l1.378-18.261c0.333-4.403,2.532-8.469,6.034-11.157
		c3.502-2.687,7.998-3.761,12.339-2.941l10.861,2.049c6.322,1.193,12.844,0.59,18.854-1.746C197.196,2.148,208.702,0,220.49,0
		c11.797,0,23.301,2.147,34.202,6.383c6.011,2.336,12.528,2.939,18.854,1.746l10.855-2.048c4.34-0.819,8.836,0.254,12.338,2.941
		c3.503,2.688,5.703,6.754,6.035,11.157l1.378,18.253c0.623,8.27,2.261,15.996,4.867,22.965c3.895,10.413,5.899,21.372,5.959,32.572
		c0.009,1.597-0.62,3.131-1.746,4.263S310.576,100,308.979,100z M138.249,88H302.73c-0.596-7.682-2.254-15.192-4.95-22.4
		c-3.002-8.03-4.885-16.867-5.594-26.265l-1.378-18.253c-0.104-1.372-0.904-2.18-1.373-2.54c-0.468-0.36-1.451-0.925-2.809-0.669
		l-10.855,2.048c-8.532,1.609-17.322,0.796-25.425-2.352C240.836,13.874,230.794,12,220.5,12c-10.306,0-20.349,1.874-29.861,5.57
		c-8.103,3.147-16.894,3.962-25.425,2.352l-10.861-2.049c-1.356-0.255-2.341,0.31-2.809,0.669c-0.469,0.36-1.27,1.167-1.373,2.539
		l-1.378,18.261c-0.709,9.397-2.592,18.233-5.594,26.261C140.503,72.809,138.846,80.318,138.249,88z"/>
	<path style="opacity:0.44;fill:#333333;enable-background:new    ;" d="M220.5,6c13.14,0,25.61,2.87,36.82,8.01
		C257.05,14,256.77,14,256.5,14c-46.01,0-83.82,35.11-88.09,80H132c0.08-14.3,3.55-27.8,9.65-39.73l2.54-33.64
		c0.43-5.67,5.69-9.71,11.28-8.65l23.39,4.41C191.27,9.76,205.44,6,220.49,6H220.5z"/>
	<path style="fill:#FFFFFF;" d="M284.379,82.002c-2.559,0-4.93-1.65-5.729-4.223c-6.391-20.589-21.372-37.466-41.102-46.303
		c-3.023-1.355-4.377-4.904-3.022-7.928c1.354-3.023,4.901-4.378,7.929-3.023c22.873,10.246,40.243,29.817,47.656,53.697
		c0.982,3.165-0.787,6.527-3.952,7.509C285.567,81.914,284.968,82.002,284.379,82.002z"/>
	<path style="fill:#FFFFFF;" d="M307.998,142c-3.083,0-5.704-2.362-5.972-5.49l-2.005-23.5c-0.281-3.302,2.167-6.207,5.469-6.488
		c3.278-0.285,6.205,2.166,6.488,5.468l2.005,23.5c0.281,3.302-2.167,6.207-5.469,6.489C308.342,141.993,308.169,142,307.998,142z"
		/>
	<rect x="214.5" y="282.739" style="fill:#333333;" width="12" height="153.261"/>
	<path style="fill:#E8B974;" d="M283.2,226.63c21.44-15.95,25.79-57.63,25.79-57.63v44.5c0,30.35-15.27,57.13-38.56,73.07
		c-0.19,0.14-0.39,0.27-0.57,0.4c-14.11,9.49-31.09,15.03-49.37,15.03c-18.27,0-35.25-5.54-49.36-15.03
		c-0.19-0.13-0.39-0.26-0.57-0.4c-23.28-15.94-38.57-42.72-38.57-73.07V169c0,0,1.09,10.42,4.86,22.83
		c3.77,12.42,10.21,26.82,20.93,34.8c20.02-8.62,41.36-12.93,62.71-12.93C241.85,213.7,263.19,218.01,283.2,226.63z"/>
	<path style="opacity:0.44;fill:#333333;enable-background:new    ;" d="M213.14,286.97c8.52,5.73,18.09,10.02,28.36,12.52
		c-6.74,1.64-13.77,2.51-21.01,2.51c-18.27,0-35.25-5.54-49.36-15.03c-0.19-0.13-0.39-0.26-0.57-0.4
		c-23.28-15.94-38.57-42.72-38.57-73.07V169c0,0,1.09,10.42,4.86,22.83c3.77,12.42,10.21,26.82,20.93,34.8
		c5.41-2.33,10.92-4.34,16.5-6.04c2.17,27.4,16.84,51.29,38.29,65.98C212.75,286.71,212.95,286.84,213.14,286.97z"/>
	<path style="fill:#333333;" d="M220.49,308c-18.869,0-37.096-5.55-52.709-16.051l-0.143-0.097
		c-0.196-0.133-0.393-0.269-0.582-0.409c-25.717-17.664-41.066-46.791-41.066-77.943V169h12v44.5
		c0,27.236,13.442,52.702,35.959,68.119c0.098,0.067,0.194,0.137,0.288,0.21l0.282,0.19c13.586,9.136,29.496,13.98,45.971,13.98
		c16.474,0,32.379-4.839,46-13.995l0.372-0.26c0.054-0.04,0.123-0.089,0.179-0.127c22.51-15.407,35.949-40.872,35.949-68.119V169h12
		v44.5c0,31.18-15.362,60.32-41.097,77.97c-0.128,0.093-0.258,0.183-0.387,0.271l-0.137,0.094c-0.054,0.039-0.107,0.077-0.162,0.113
		C257.596,302.45,239.366,308,220.49,308z"/>
	<path style="fill:#333333;" d="M283.199,232.63c-0.803,0-1.61-0.161-2.373-0.49c-19.162-8.254-39.462-12.44-60.336-12.44
		c-20.865,0-41.166,4.186-60.337,12.44c-1.967,0.848-4.236,0.582-5.956-0.698c-9.938-7.397-17.706-20.139-23.089-37.87
		c-3.892-12.811-5.039-23.5-5.086-23.949l11.935-1.252c0.011,0.099,1.092,10.055,4.634,21.714
		c4.047,13.331,9.62,23.477,16.229,29.608c19.67-7.961,40.397-11.994,61.671-11.994c21.282,0,42.01,4.033,61.673,11.994
		c6.611-6.13,12.186-16.275,16.23-29.603c3.56-11.729,4.619-21.616,4.629-21.714l11.936,1.246
		c-0.189,1.809-4.892,44.499-28.177,61.821C285.729,232.227,284.47,232.63,283.199,232.63z"/>
	<g>
		<path style="fill:#333333;" d="M232.495,241h-24c-3.313,0-6-2.687-6-6s2.687-6,6-6h24c3.313,0,6,2.687,6,6
			S235.809,241,232.495,241z"/>
	</g>
	<g>
		<g>
			<path style="fill:#333333;" d="M238,358.451c-0.39,0-0.79-0.04-1.17-0.11c-0.38-0.08-0.76-0.2-1.12-0.35
				c-0.37-0.15-0.71-0.33-1.04-0.55c-0.33-0.22-0.64-0.47-0.91-0.74c-0.28-0.28-0.53-0.59-0.75-0.92c-0.22-0.32-0.4-0.67-0.55-1.03
				c-0.15-0.36-0.27-0.74-0.34-1.12c-0.08-0.39-0.12-0.79-0.12-1.18c0-0.39,0.04-0.78,0.12-1.17c0.07-0.38,0.19-0.76,0.34-1.12
				s0.33-0.71,0.55-1.04c0.22-0.33,0.47-0.63,0.75-0.91c0.27-0.28,0.58-0.53,0.91-0.75c0.33-0.21,0.67-0.4,1.04-0.55
				c0.36-0.15,0.74-0.26,1.12-0.34c1.95-0.39,4.02,0.25,5.41,1.64c0.28,0.28,0.53,0.58,0.75,0.91c0.22,0.33,0.4,0.68,0.55,1.04
				c0.15,0.36,0.27,0.74,0.34,1.12c0.08,0.39,0.12,0.78,0.12,1.17s-0.04,0.79-0.12,1.18c-0.07,0.38-0.19,0.76-0.34,1.12
				s-0.33,0.71-0.55,1.03c-0.22,0.33-0.47,0.64-0.75,0.92C241.13,357.811,239.58,358.451,238,358.451z"/>
		</g>
		<g>
			<path style="fill:#333333;" d="M238,424c-0.39,0-0.79-0.04-1.17-0.11c-0.38-0.08-0.76-0.2-1.12-0.35
				c-0.37-0.15-0.71-0.33-1.04-0.55c-0.33-0.22-0.64-0.47-0.91-0.74c-0.28-0.28-0.53-0.59-0.75-0.92c-0.22-0.32-0.4-0.67-0.55-1.03
				c-0.15-0.36-0.27-0.74-0.34-1.12c-0.08-0.39-0.12-0.79-0.12-1.18c0-0.39,0.04-0.78,0.12-1.17c0.07-0.38,0.19-0.76,0.34-1.12
				s0.33-0.71,0.55-1.04c0.22-0.33,0.47-0.63,0.75-0.91c0.27-0.28,0.58-0.53,0.91-0.75c0.33-0.21,0.67-0.4,1.04-0.55
				c0.36-0.15,0.74-0.26,1.12-0.34c1.95-0.39,4.02,0.25,5.41,1.64c0.28,0.28,0.53,0.58,0.75,0.91c0.22,0.33,0.4,0.68,0.55,1.04
				c0.15,0.36,0.27,0.74,0.34,1.12c0.08,0.39,0.12,0.78,0.12,1.17s-0.04,0.79-0.12,1.18c-0.07,0.38-0.19,0.76-0.34,1.12
				s-0.33,0.71-0.55,1.03c-0.22,0.33-0.47,0.64-0.75,0.92C241.13,423.36,239.58,424,238,424z"/>
		</g>
		<g>
			<path style="fill:#333333;" d="M238,391.225c-0.39,0-0.79-0.04-1.17-0.11c-0.38-0.08-0.76-0.2-1.12-0.35
				c-0.37-0.15-0.71-0.33-1.04-0.55c-0.33-0.22-0.64-0.47-0.91-0.74c-0.28-0.28-0.53-0.59-0.75-0.92c-0.22-0.32-0.4-0.67-0.55-1.03
				c-0.15-0.36-0.27-0.74-0.34-1.12c-0.08-0.39-0.12-0.79-0.12-1.18c0-0.39,0.04-0.78,0.12-1.17c0.07-0.38,0.19-0.76,0.34-1.12
				s0.33-0.71,0.55-1.04c0.22-0.33,0.47-0.63,0.75-0.91c0.27-0.28,0.58-0.53,0.91-0.75c0.33-0.21,0.67-0.4,1.04-0.55
				c0.36-0.15,0.74-0.26,1.12-0.34c1.95-0.39,4.02,0.25,5.41,1.64c0.28,0.28,0.53,0.58,0.75,0.91c0.22,0.33,0.4,0.68,0.55,1.04
				c0.15,0.36,0.27,0.74,0.34,1.12c0.08,0.39,0.12,0.78,0.12,1.17s-0.04,0.79-0.12,1.18c-0.07,0.38-0.19,0.76-0.34,1.12
				s-0.33,0.71-0.55,1.03c-0.22,0.33-0.47,0.64-0.75,0.92C241.13,390.586,239.58,391.225,238,391.225z"/>
		</g>
	</g>
</g>
<g>
</g>
<g>
</g>
<g>
</g>
<g>
</g>
<g>
</g>
<g>
</g>
<g>
</g>
<g>
</g>
<g>
</g>
<g>
</g>
<g>
</g>
<g>
</g>
<g>
</g>
<g>
</g>
<g>
</g>
</svg>
